%TF.GenerationSoftware,KiCad,Pcbnew,10.0.0*%
%TF.CreationDate,2026-04-13T14:23:47+02:00*%
%TF.ProjectId,usbaCarrierMM8108,75736261-4361-4727-9269-65724d4d3831,rev?*%
%TF.SameCoordinates,PX7cee6c0PY660b0c0*%
%TF.FileFunction,Plated,1,2,PTH,Mixed*%
%TF.FilePolarity,Positive*%
%FSLAX46Y46*%
G04 Gerber Fmt 4.6, Leading zero omitted, Abs format (unit mm)*
G04 Created by KiCad (PCBNEW 10.0.0) date 2026-04-13 14:23:47*
%MOMM*%
%LPD*%
G01*
G04 APERTURE LIST*
%TA.AperFunction,ViaDrill*%
%ADD10C,0.300000*%
%TD*%
%TA.AperFunction,ComponentDrill*%
%ADD11C,0.300000*%
%TD*%
%TA.AperFunction,ComponentDrill*%
%ADD12C,0.650000*%
%TD*%
G04 aperture for slot hole*
%TA.AperFunction,ComponentDrill*%
%ADD13C,0.900000*%
%TD*%
G04 APERTURE END LIST*
D10*
X7550000Y16550000D03*
X7700000Y7600000D03*
X7800000Y4500000D03*
X8000000Y10450000D03*
X8000000Y500000D03*
X8500000Y4500000D03*
X9750000Y3500000D03*
X9750000Y2000000D03*
X9750000Y500000D03*
X10000000Y8400000D03*
X10750000Y16500000D03*
X11250000Y10450000D03*
X11600000Y2000000D03*
X11700000Y8400000D03*
X11700000Y6250000D03*
X11750000Y12750000D03*
X12444167Y3655833D03*
X13500000Y12000000D03*
X13500000Y10500000D03*
X13500000Y8400000D03*
X13500000Y7600000D03*
X13500000Y5250000D03*
X13500000Y4500000D03*
X13500000Y2500000D03*
X13500000Y1750000D03*
X15300000Y8650000D03*
X15800000Y6300000D03*
X15800000Y3750000D03*
X15850000Y10700000D03*
X16450000Y9850000D03*
X17029608Y4998910D03*
X17050000Y11150000D03*
X17050000Y8050000D03*
X17632500Y10250000D03*
X17888231Y13996128D03*
X18250000Y9500000D03*
X18250000Y7500000D03*
X18250000Y5500000D03*
X18250000Y3300000D03*
X19250000Y16250000D03*
X20000000Y10500000D03*
X20000000Y8500000D03*
X20000000Y6500000D03*
X20000000Y4500000D03*
X20000000Y3000000D03*
X21700000Y4000000D03*
X21750000Y16250000D03*
X22000000Y9500000D03*
X22000000Y7500000D03*
X22100000Y2900000D03*
X22500000Y4000000D03*
X22750000Y11400000D03*
X22750000Y10550000D03*
X24201811Y3898189D03*
X24245337Y12100000D03*
X24250000Y9900000D03*
X24450000Y2170000D03*
X24450000Y1550000D03*
X24500000Y16250000D03*
X25000000Y5000000D03*
X25250000Y12081350D03*
X25250000Y9900000D03*
X25540195Y4400000D03*
X26250000Y14250000D03*
X26250000Y12081350D03*
X26250000Y9900000D03*
X26500000Y7000000D03*
X26500000Y5525000D03*
X27000000Y16250000D03*
X27000000Y600000D03*
X27200000Y12100000D03*
X27200000Y9900000D03*
X28200000Y12100000D03*
X28200000Y9900000D03*
X28750000Y7000000D03*
X29200000Y12100000D03*
X29200000Y9900000D03*
X29800000Y4250000D03*
X30200000Y12100000D03*
X30200000Y9900000D03*
X30400000Y800000D03*
D11*
%TO.C,U2*%
X9500000Y6287500D03*
X10600000Y6287500D03*
D12*
%TO.C,J4*%
X13570000Y15100000D03*
X14840000Y15100000D03*
X16110000Y15100000D03*
X17380000Y15100000D03*
X18650000Y15100000D03*
X19920000Y15100000D03*
X21190000Y15100000D03*
X22460000Y15100000D03*
X23730000Y15100000D03*
X25000000Y15100000D03*
%TO.C,J3*%
X27600000Y4770000D03*
X27600000Y3500000D03*
X27600000Y2230000D03*
X28870000Y4770000D03*
X28870000Y3500000D03*
X28870000Y2230000D03*
%TO.C,J1*%
D13*
X2375000Y14200000D02*
X3975000Y14200000D01*
X2375000Y2800000D02*
X3975000Y2800000D01*
M02*
