%TF.GenerationSoftware,KiCad,Pcbnew,10.0.0*%
%TF.CreationDate,2026-04-13T14:11:32+02:00*%
%TF.ProjectId,usbaCarrierMM8108,75736261-4361-4727-9269-65724d4d3831,rev?*%
%TF.SameCoordinates,PX7cee6c0PY660b0c0*%
%TF.FileFunction,Copper,L1,Top*%
%TF.FilePolarity,Positive*%
%FSLAX46Y46*%
G04 Gerber Fmt 4.6, Leading zero omitted, Abs format (unit mm)*
G04 Created by KiCad (PCBNEW 10.0.0) date 2026-04-13 14:11:32*
%MOMM*%
%LPD*%
G01*
G04 APERTURE LIST*
G04 Aperture macros list*
%AMRoundRect*
0 Rectangle with rounded corners*
0 $1 Rounding radius*
0 $2 $3 $4 $5 $6 $7 $8 $9 X,Y pos of 4 corners*
0 Add a 4 corners polygon primitive as box body*
4,1,4,$2,$3,$4,$5,$6,$7,$8,$9,$2,$3,0*
0 Add four circle primitives for the rounded corners*
1,1,$1+$1,$2,$3*
1,1,$1+$1,$4,$5*
1,1,$1+$1,$6,$7*
1,1,$1+$1,$8,$9*
0 Add four rect primitives between the rounded corners*
20,1,$1+$1,$2,$3,$4,$5,0*
20,1,$1+$1,$4,$5,$6,$7,0*
20,1,$1+$1,$6,$7,$8,$9,0*
20,1,$1+$1,$8,$9,$2,$3,0*%
G04 Aperture macros list end*
%TA.AperFunction,SMDPad,CuDef*%
%ADD10RoundRect,0.250000X1.000000X0.300000X-1.000000X0.300000X-1.000000X-0.300000X1.000000X-0.300000X0*%
%TD*%
%TA.AperFunction,ComponentPad*%
%ADD11O,3.500000X1.900000*%
%TD*%
%TA.AperFunction,SMDPad,CuDef*%
%ADD12RoundRect,0.155000X0.155000X-0.212500X0.155000X0.212500X-0.155000X0.212500X-0.155000X-0.212500X0*%
%TD*%
%TA.AperFunction,SMDPad,CuDef*%
%ADD13RoundRect,0.237500X-0.287500X-0.237500X0.287500X-0.237500X0.287500X0.237500X-0.287500X0.237500X0*%
%TD*%
%TA.AperFunction,ComponentPad*%
%ADD14R,1.000000X1.000000*%
%TD*%
%TA.AperFunction,ComponentPad*%
%ADD15C,1.000000*%
%TD*%
%TA.AperFunction,SMDPad,CuDef*%
%ADD16RoundRect,0.155000X-0.212500X-0.155000X0.212500X-0.155000X0.212500X0.155000X-0.212500X0.155000X0*%
%TD*%
%TA.AperFunction,SMDPad,CuDef*%
%ADD17RoundRect,0.155000X-0.155000X0.212500X-0.155000X-0.212500X0.155000X-0.212500X0.155000X0.212500X0*%
%TD*%
%TA.AperFunction,SMDPad,CuDef*%
%ADD18R,0.600000X0.600000*%
%TD*%
%TA.AperFunction,SMDPad,CuDef*%
%ADD19RoundRect,0.093750X0.106250X-0.093750X0.106250X0.093750X-0.106250X0.093750X-0.106250X-0.093750X0*%
%TD*%
%TA.AperFunction,HeatsinkPad*%
%ADD20C,0.500000*%
%TD*%
%TA.AperFunction,HeatsinkPad*%
%ADD21R,1.600000X1.000000*%
%TD*%
%TA.AperFunction,SMDPad,CuDef*%
%ADD22RoundRect,0.237500X0.237500X-0.287500X0.237500X0.287500X-0.237500X0.287500X-0.237500X-0.287500X0*%
%TD*%
%TA.AperFunction,SMDPad,CuDef*%
%ADD23RoundRect,0.237500X0.250000X0.237500X-0.250000X0.237500X-0.250000X-0.237500X0.250000X-0.237500X0*%
%TD*%
%TA.AperFunction,SMDPad,CuDef*%
%ADD24RoundRect,0.160000X0.160000X-0.197500X0.160000X0.197500X-0.160000X0.197500X-0.160000X-0.197500X0*%
%TD*%
%TA.AperFunction,SMDPad,CuDef*%
%ADD25RoundRect,0.250000X1.350000X-0.385000X1.350000X0.385000X-1.350000X0.385000X-1.350000X-0.385000X0*%
%TD*%
%TA.AperFunction,SMDPad,CuDef*%
%ADD26RoundRect,0.250000X1.600000X-0.425000X1.600000X0.425000X-1.600000X0.425000X-1.600000X-0.425000X0*%
%TD*%
%TA.AperFunction,ViaPad*%
%ADD27C,0.500000*%
%TD*%
%TA.AperFunction,Conductor*%
%ADD28C,0.300000*%
%TD*%
%TA.AperFunction,Conductor*%
%ADD29C,0.500000*%
%TD*%
%TA.AperFunction,Conductor*%
%ADD30C,0.200000*%
%TD*%
%TA.AperFunction,Conductor*%
%ADD31C,0.400000*%
%TD*%
%TA.AperFunction,Conductor*%
%ADD32C,0.600000*%
%TD*%
%TA.AperFunction,Conductor*%
%ADD33C,1.000000*%
%TD*%
%TA.AperFunction,Conductor*%
%ADD34C,1.300000*%
%TD*%
G04 APERTURE END LIST*
D10*
%TO.P,J1,1,VBUS_1*%
%TO.N,VBUS*%
X5925000Y5000000D03*
%TO.P,J1,2,D-_2*%
%TO.N,/USB_D-N*%
X5925000Y7500000D03*
%TO.P,J1,3,D+_3*%
%TO.N,/USB_D-P*%
X5925000Y9500000D03*
%TO.P,J1,4,GND_4*%
%TO.N,GND*%
X5925000Y12000000D03*
D11*
%TO.P,J1,SH,Shield_SH*%
X3175000Y2800000D03*
X3175000Y14200000D03*
%TD*%
D12*
%TO.P,C1,1*%
%TO.N,/wifiResetN*%
X25700000Y7932500D03*
%TO.P,C1,2*%
%TO.N,GND*%
X25700000Y9067500D03*
%TD*%
D13*
%TO.P,D2,1,K_1*%
%TO.N,GND*%
X6525000Y14255100D03*
%TO.P,D2,2,A_2*%
%TO.N,Net-(D2-A)*%
X8275000Y14255100D03*
%TD*%
D14*
%TO.P,J3,1,Pin_1_1*%
%TO.N,+3.3V*%
X28870000Y2230000D03*
D15*
%TO.P,J3,2,Pin_2_2*%
%TO.N,jtag_tms*%
X27600000Y2230000D03*
%TO.P,J3,3,Pin_3_3*%
%TO.N,jtag_tck*%
X28870000Y3500000D03*
%TO.P,J3,4,Pin_4_4*%
%TO.N,jtag_tdo*%
X27600000Y3500000D03*
%TO.P,J3,5,Pin_5_5*%
%TO.N,jtag_tdi*%
X28870000Y4770000D03*
%TO.P,J3,6,Pin_6_6*%
%TO.N,GND*%
X27600000Y4770000D03*
%TD*%
D13*
%TO.P,D3,1,K_1*%
%TO.N,GND*%
X6525000Y15755100D03*
%TO.P,D3,2,A_2*%
%TO.N,Net-(D3-A)*%
X8275000Y15755100D03*
%TD*%
D16*
%TO.P,C7,1*%
%TO.N,Net-(U2-OUT)*%
X9400000Y4400000D03*
%TO.P,C7,2*%
%TO.N,GND*%
X10535000Y4400000D03*
%TD*%
D17*
%TO.P,C5,1*%
%TO.N,+3.3V*%
X25500000Y3017500D03*
%TO.P,C5,2*%
%TO.N,GND*%
X25500000Y1882500D03*
%TD*%
D18*
%TO.P,IC1,1,GND_1_1*%
%TO.N,GND*%
X23500000Y12000000D03*
%TO.P,IC1,2,ANT_2*%
%TO.N,/RxTxSig*%
X23500000Y11000000D03*
%TO.P,IC1,3,GND_2_3*%
%TO.N,GND*%
X23500000Y10000000D03*
%TO.P,IC1,4,RESET_N_4*%
%TO.N,/wifiResetN*%
X23500000Y9000000D03*
%TO.P,IC1,5,WAKE_5*%
%TO.N,unconnected-(IC1-WAKE-Pad5)*%
X23500000Y8000000D03*
%TO.P,IC1,6,JTAG_TMS_6*%
%TO.N,jtag_tms*%
X23500000Y7000000D03*
%TO.P,IC1,7,JTAG_TCK_7*%
%TO.N,jtag_tck*%
X23500000Y6000000D03*
%TO.P,IC1,8,JTAG_TDO_8*%
%TO.N,jtag_tdo*%
X23500000Y5000000D03*
%TO.P,IC1,9,JTAG_TDI_9*%
%TO.N,jtag_tdi*%
X23500000Y4000000D03*
%TO.P,IC1,10,VBAT_10*%
%TO.N,+3.3V*%
X23500000Y3000000D03*
%TO.P,IC1,11,GND_3_11*%
%TO.N,GND*%
X23500000Y2000000D03*
%TO.P,IC1,12,SDIO_D0_12*%
%TO.N,unconnected-(IC1-SDIO_D0-Pad12)*%
X22500000Y2000000D03*
%TO.P,IC1,13,SDIO_D3_13*%
%TO.N,unconnected-(IC1-SDIO_D3-Pad13)*%
X21500000Y2000000D03*
%TO.P,IC1,14,SDIO_D1_14*%
%TO.N,unconnected-(IC1-SDIO_D1-Pad14)*%
X20500000Y2000000D03*
%TO.P,IC1,15,SDIO_D2_15*%
%TO.N,unconnected-(IC1-SDIO_D2-Pad15)*%
X19500000Y2000000D03*
%TO.P,IC1,16,SDIO_CMD_16*%
%TO.N,unconnected-(IC1-SDIO_CMD-Pad16)*%
X18500000Y2000000D03*
%TO.P,IC1,17,SDIO_CLK_17*%
%TO.N,unconnected-(IC1-SDIO_CLK-Pad17)*%
X17500000Y2000000D03*
%TO.P,IC1,18,GPIO5_18*%
%TO.N,gpio_5*%
X16500000Y2000000D03*
%TO.P,IC1,19,GPIO4_19*%
%TO.N,gpio_4*%
X15500000Y2000000D03*
%TO.P,IC1,20,GND_4_20*%
%TO.N,GND*%
X14500000Y2000000D03*
%TO.P,IC1,21,GPIO3_21*%
%TO.N,/gpio_3*%
X14500000Y3000000D03*
%TO.P,IC1,22,VDDIO_22*%
%TO.N,+3.3V*%
X14500000Y4000000D03*
%TO.P,IC1,23,GND_5_23*%
%TO.N,GND*%
X14500000Y5000000D03*
%TO.P,IC1,24,VBAT_TX_24*%
%TO.N,+3.3V*%
X14500000Y6000000D03*
%TO.P,IC1,25,VDD_USB_25*%
X14500000Y7000000D03*
%TO.P,IC1,26,GND_6_26*%
%TO.N,GND*%
X14500000Y8000000D03*
%TO.P,IC1,27,USB_D_N_27*%
%TO.N,/USB_D-N*%
X14500000Y9000000D03*
%TO.P,IC1,28,USB_D_P_28*%
%TO.N,/USB_D-P*%
X14500000Y10000000D03*
%TO.P,IC1,29,BUSY_29*%
%TO.N,busy*%
X14500000Y11000000D03*
%TO.P,IC1,30,GND_7_30*%
%TO.N,GND*%
X14500000Y12000000D03*
%TO.P,IC1,31,GPIO1_31*%
%TO.N,/gpio_1*%
X15500000Y12000000D03*
%TO.P,IC1,32,GPIO0_32*%
%TO.N,/gpio_0*%
X16500000Y12000000D03*
%TO.P,IC1,33,GPIO6_33*%
%TO.N,/gpio_6*%
X17500000Y12000000D03*
%TO.P,IC1,34,GPIO7_34*%
%TO.N,/gpio_7*%
X18500000Y12000000D03*
%TO.P,IC1,35,GPIO8_35*%
%TO.N,/gpio_8*%
X19500000Y12000000D03*
%TO.P,IC1,36,GPIO9_36*%
%TO.N,/gpio_9*%
X20500000Y12000000D03*
%TO.P,IC1,37,GPIO10_37*%
%TO.N,/gpio_10*%
X21500000Y12000000D03*
%TO.P,IC1,38,GND_8_38*%
%TO.N,GND*%
X22500000Y12000000D03*
%TD*%
D13*
%TO.P,FB1,1*%
%TO.N,Net-(U2-OUT)*%
X8775000Y2800000D03*
%TO.P,FB1,2*%
%TO.N,+3.3V*%
X10525000Y2800000D03*
%TD*%
D19*
%TO.P,U2,1,OUT_1*%
%TO.N,Net-(U2-OUT)*%
X9400000Y5400000D03*
%TO.P,U2,2,NC_2*%
%TO.N,unconnected-(U2-NC-Pad2)*%
X10050000Y5400000D03*
%TO.P,U2,3,GND_3*%
%TO.N,GND*%
X10700000Y5400000D03*
%TO.P,U2,4,EN_4*%
%TO.N,VBUS*%
X10700000Y7175000D03*
%TO.P,U2,5,NC_5*%
%TO.N,unconnected-(U2-NC-Pad5)*%
X10050000Y7175000D03*
%TO.P,U2,6,IN_6*%
%TO.N,VBUS*%
X9400000Y7175000D03*
D20*
%TO.P,U2,7,GND_7*%
%TO.N,GND*%
X9500000Y6287500D03*
D21*
X10050000Y6287500D03*
D20*
X10600000Y6287500D03*
%TD*%
D17*
%TO.P,C6,1*%
%TO.N,VBUS*%
X8200000Y6867500D03*
%TO.P,C6,2*%
%TO.N,GND*%
X8200000Y5732500D03*
%TD*%
D22*
%TO.P,D1,1,K_1*%
%TO.N,GND*%
X7200000Y1375000D03*
%TO.P,D1,2,A_2*%
%TO.N,Net-(D1-A)*%
X7200000Y3125000D03*
%TD*%
D23*
%TO.P,R8,1*%
%TO.N,busy*%
X12237500Y11300000D03*
%TO.P,R8,2*%
%TO.N,Net-(D4-A)*%
X10412500Y11300000D03*
%TD*%
D14*
%TO.P,J4,1,Pin_1_1*%
%TO.N,/gpio_1*%
X13570000Y15100000D03*
D15*
%TO.P,J4,2,Pin_2_2*%
%TO.N,/gpio_0*%
X14840000Y15100000D03*
%TO.P,J4,3,Pin_3_3*%
%TO.N,/gpio_3*%
X16110000Y15100000D03*
%TO.P,J4,4,Pin_4_4*%
%TO.N,gpio_4*%
X17380000Y15100000D03*
%TO.P,J4,5,Pin_5_5*%
%TO.N,gpio_5*%
X18650000Y15100000D03*
%TO.P,J4,6,Pin_6_6*%
%TO.N,/gpio_6*%
X19920000Y15100000D03*
%TO.P,J4,7,Pin_7_7*%
%TO.N,/gpio_7*%
X21190000Y15100000D03*
%TO.P,J4,8,Pin_8_8*%
%TO.N,/gpio_8*%
X22460000Y15100000D03*
%TO.P,J4,9,Pin_9_9*%
%TO.N,/gpio_9*%
X23730000Y15100000D03*
%TO.P,J4,10,Pin_10_10*%
%TO.N,/gpio_10*%
X25000000Y15100000D03*
%TD*%
D24*
%TO.P,R1,1*%
%TO.N,+3.3V*%
X25550000Y5677500D03*
%TO.P,R1,2*%
%TO.N,/wifiResetN*%
X25550000Y6872500D03*
%TD*%
D13*
%TO.P,D4,1,K_1*%
%TO.N,GND*%
X8625000Y12755100D03*
%TO.P,D4,2,A_2*%
%TO.N,Net-(D4-A)*%
X10375000Y12755100D03*
%TD*%
D23*
%TO.P,R6,1*%
%TO.N,gpio_4*%
X11612500Y14255100D03*
%TO.P,R6,2*%
%TO.N,Net-(D2-A)*%
X9787500Y14255100D03*
%TD*%
D12*
%TO.P,C3,1*%
%TO.N,+3.3V*%
X12550000Y6782500D03*
%TO.P,C3,2*%
%TO.N,GND*%
X12550000Y7917500D03*
%TD*%
D17*
%TO.P,C4,1*%
%TO.N,+3.3V*%
X12500000Y2800000D03*
%TO.P,C4,2*%
%TO.N,GND*%
X12500000Y1665000D03*
%TD*%
D25*
%TO.P,J2,1,In_1*%
%TO.N,/RxTxSig*%
X28925000Y11000000D03*
D26*
%TO.P,J2,2,Ext_2*%
%TO.N,GND*%
X28675000Y13825000D03*
X28675000Y8175000D03*
%TD*%
D17*
%TO.P,C2,1*%
%TO.N,+3.3V*%
X12550000Y5667500D03*
%TO.P,C2,2*%
%TO.N,GND*%
X12550000Y4532500D03*
%TD*%
D23*
%TO.P,R5,1*%
%TO.N,+3.3V*%
X10525000Y1300000D03*
%TO.P,R5,2*%
%TO.N,Net-(D1-A)*%
X8700000Y1300000D03*
%TD*%
%TO.P,R7,1*%
%TO.N,gpio_5*%
X11612500Y15755100D03*
%TO.P,R7,2*%
%TO.N,Net-(D3-A)*%
X9787500Y15755100D03*
%TD*%
D27*
%TO.N,GND*%
X24245337Y12100000D03*
X22750000Y10550000D03*
X30200000Y12100000D03*
X24450000Y1550000D03*
X20000000Y3000000D03*
X22100000Y2900000D03*
X13500000Y5250000D03*
X25250000Y9900000D03*
X26500000Y5525000D03*
X27200000Y9900000D03*
X9750000Y2000000D03*
X7700000Y7600000D03*
X18250000Y5500000D03*
X13500000Y10500000D03*
X13500000Y1750000D03*
X19250000Y16250000D03*
X13500000Y7600000D03*
X28750000Y7000000D03*
X18250000Y7500000D03*
X10750000Y16500000D03*
X29200000Y12100000D03*
X25250000Y12081350D03*
X30200000Y9900000D03*
X17050000Y8050000D03*
X30400000Y800000D03*
X20000000Y8500000D03*
X13500000Y12000000D03*
X18250000Y3300000D03*
X10000000Y8400000D03*
X26250000Y12081350D03*
X13500000Y8400000D03*
X17029608Y4998910D03*
X11250000Y10450000D03*
X22750000Y11400000D03*
X11750000Y12750000D03*
X22000000Y9500000D03*
X27000000Y16250000D03*
X17888231Y13996128D03*
X20000000Y6500000D03*
X15850000Y10700000D03*
X11700000Y8400000D03*
X21700000Y4000000D03*
X7800000Y4500000D03*
X15800000Y3750000D03*
X18250000Y9500000D03*
X27000000Y600000D03*
X24250000Y9900000D03*
X11700000Y6250000D03*
X26500000Y7000000D03*
X11600000Y2000000D03*
X7550000Y16550000D03*
X28200000Y12100000D03*
X26250000Y9900000D03*
X24450000Y2170000D03*
X13500000Y2500000D03*
X24500000Y16250000D03*
X27200000Y12100000D03*
X29200000Y9900000D03*
X12444167Y3655833D03*
X15800000Y6300000D03*
X13500000Y4500000D03*
X8000000Y500000D03*
X20000000Y10500000D03*
X29800000Y4250000D03*
X9750000Y500000D03*
X22000000Y7500000D03*
X20000000Y4500000D03*
X9750000Y3500000D03*
X8500000Y4500000D03*
X26250000Y14250000D03*
X17050000Y11150000D03*
X21750000Y16250000D03*
X28200000Y9900000D03*
X8000000Y10450000D03*
%TO.N,jtag_tms*%
X25000000Y5000000D03*
%TO.N,jtag_tck*%
X22500000Y4000000D03*
%TO.N,jtag_tdo*%
X25540195Y4400000D03*
%TO.N,jtag_tdi*%
X24201811Y3898189D03*
%TO.N,gpio_5*%
X17632500Y10250000D03*
%TO.N,gpio_4*%
X16450000Y9850000D03*
%TO.N,/gpio_3*%
X15300000Y8650000D03*
%TD*%
%TO.N,/gpio_9*%
D28*
X20500000Y12000000D02*
X20500000Y12150000D01*
X20500000Y12150000D02*
X22150000Y13800000D01*
X22150000Y13800000D02*
X22700000Y13800000D01*
X22700000Y13800000D02*
X23730000Y14830000D01*
X23730000Y14830000D02*
X23730000Y15200000D01*
%TO.N,VBUS*%
D29*
X7300000Y6200000D02*
X6300000Y6200000D01*
X8025000Y6925000D02*
X7300000Y6200000D01*
D30*
X9742500Y7642500D02*
X10313660Y7642500D01*
D29*
X8225000Y6925000D02*
X8025000Y6925000D01*
D30*
X10700000Y7256160D02*
X10700000Y7175000D01*
D29*
X6300000Y6200000D02*
X5850000Y5750000D01*
D31*
X8507500Y7175000D02*
X8200000Y6867500D01*
X9400000Y7175000D02*
X8507500Y7175000D01*
D30*
X10313660Y7642500D02*
X10700000Y7256160D01*
X9400000Y7300000D02*
X9742500Y7642500D01*
X9400000Y7175000D02*
X9400000Y7300000D01*
D29*
X5850000Y5750000D02*
X5850000Y5000000D01*
%TO.N,/USB_D-N*%
D28*
X5925000Y7500000D02*
X6625000Y7500000D01*
X9042305Y8552893D02*
X9456519Y8967107D01*
X14049999Y9000000D02*
X14500000Y9000000D01*
X6625000Y7500000D02*
X7092107Y7967107D01*
X13789999Y9260000D02*
X14049999Y9000000D01*
X7799214Y8260000D02*
X8335198Y8260000D01*
X10163626Y9260000D02*
X13789999Y9260000D01*
X9456519Y8967107D02*
G75*
G02*
X10163626Y9259982I707081J-707107D01*
G01*
X9042305Y8552893D02*
G75*
G02*
X8335198Y8260001I-707105J707107D01*
G01*
X7092107Y7967107D02*
G75*
G02*
X7799214Y8259990I707093J-707107D01*
G01*
%TO.N,/USB_D-P*%
X13789999Y9740000D02*
X14049999Y10000000D01*
X9964802Y9740000D02*
X13789999Y9740000D01*
X7799214Y8740000D02*
X8136374Y8740000D01*
X6625000Y9500000D02*
X7092107Y9032893D01*
X8843481Y9032893D02*
X9257695Y9447107D01*
X5925000Y9500000D02*
X6625000Y9500000D01*
X14049999Y10000000D02*
X14500000Y10000000D01*
X9964802Y9740000D02*
G75*
G03*
X9257694Y9447108I-2J-1000000D01*
G01*
X7799214Y8740000D02*
G75*
G02*
X7092100Y9032886I-14J1000000D01*
G01*
X8136374Y8740000D02*
G75*
G03*
X8843494Y9032880I26J1000000D01*
G01*
%TO.N,GND*%
D31*
X8900000Y6000000D02*
X9187500Y6287500D01*
X9187500Y6287500D02*
X9600000Y6287500D01*
X8900000Y5900000D02*
X8900000Y6000000D01*
X10700000Y4465000D02*
X10700000Y5400000D01*
X8300000Y5732500D02*
X8732500Y5732500D01*
X10635000Y4400000D02*
X10700000Y4465000D01*
X8732500Y5732500D02*
X8900000Y5900000D01*
%TO.N,/wifiResetN*%
D28*
X25625000Y7932500D02*
X25625000Y7022500D01*
X23500000Y9000000D02*
X24016250Y9000000D01*
X25083750Y7932500D02*
X25625000Y7932500D01*
X24016250Y9000000D02*
X25083750Y7932500D01*
X25625000Y7022500D02*
X25500000Y6897500D01*
%TO.N,Net-(D2-A)*%
X8375000Y14350000D02*
X9887500Y14350000D01*
%TO.N,+3.3V*%
D30*
X26200000Y4900000D02*
X26200000Y3717500D01*
D29*
X13782500Y6782500D02*
X12550000Y6782500D01*
X12500000Y2800000D02*
X12550000Y2800000D01*
X13500000Y3750000D02*
X14250000Y3750000D01*
X12550000Y5667500D02*
X12917500Y5667500D01*
X12550000Y6782500D02*
X12550000Y5667500D01*
D31*
X26310000Y1310000D02*
X26370000Y1250000D01*
X25500000Y3017500D02*
X25491250Y3008750D01*
D29*
X11550000Y4763750D02*
X11550000Y2800000D01*
X26310000Y1310000D02*
X26310000Y1465106D01*
X14250000Y3750000D02*
X14500000Y4000000D01*
D28*
X25800000Y800000D02*
X25850000Y850000D01*
D31*
X28750000Y1750000D02*
X28870000Y1870000D01*
D30*
X25500000Y5600000D02*
X26200000Y4900000D01*
D29*
X25850000Y850000D02*
X26310000Y1310000D01*
D31*
X26370000Y1250000D02*
X28500000Y1250000D01*
D30*
X25500000Y5660000D02*
X25500000Y5702500D01*
D31*
X25482500Y3000000D02*
X25500000Y3017500D01*
D29*
X12550000Y2800000D02*
X13500000Y3750000D01*
X25592394Y3017500D02*
X25500000Y3017500D01*
X12453750Y5667500D02*
X11550000Y4763750D01*
X14500000Y7000000D02*
X14000000Y7000000D01*
D31*
X23500000Y3000000D02*
X25482500Y3000000D01*
D29*
X26310000Y2000000D02*
X26310000Y1465106D01*
X10625000Y1200000D02*
X10975000Y850000D01*
D30*
X25500000Y5702500D02*
X25500000Y5600000D01*
D29*
X26310000Y2000000D02*
X26310000Y2299894D01*
X12917500Y5667500D02*
X13250000Y6000000D01*
X14000000Y7000000D02*
X13782500Y6782500D01*
X13250000Y6000000D02*
X14500000Y6000000D01*
X10625000Y2800000D02*
X10625000Y1200000D01*
D31*
X26310000Y2000000D02*
X26310000Y2029184D01*
D30*
X26200000Y3717500D02*
X25500000Y3017500D01*
D28*
X10975000Y850000D02*
X11025000Y800000D01*
D29*
X12550000Y5667500D02*
X12453750Y5667500D01*
D31*
X28750000Y1500000D02*
X28750000Y1750000D01*
X28870000Y1870000D02*
X28870000Y2230000D01*
D29*
X11550000Y2800000D02*
X10625000Y2800000D01*
X10625000Y2800000D02*
X12500000Y2800000D01*
D31*
X11025000Y800000D02*
X25800000Y800000D01*
X28500000Y1250000D02*
X28750000Y1500000D01*
D29*
X26310000Y2299894D02*
X25592394Y3017500D01*
%TO.N,jtag_tms*%
D28*
X23860000Y7000000D02*
X23500000Y7000000D01*
X24400000Y5600000D02*
X24400000Y6460000D01*
X25000000Y5000000D02*
X24400000Y5600000D01*
X24400000Y6460000D02*
X23860000Y7000000D01*
%TO.N,jtag_tck*%
X22500000Y5500000D02*
X23000000Y6000000D01*
X23000000Y6000000D02*
X23500000Y6000000D01*
X22500000Y4000000D02*
X22500000Y5500000D01*
%TO.N,jtag_tdo*%
X24700000Y4400000D02*
X24100000Y5000000D01*
X25540195Y4400000D02*
X24700000Y4400000D01*
X24100000Y5000000D02*
X23500000Y5000000D01*
%TO.N,jtag_tdi*%
X24201811Y3898189D02*
X24151811Y3848189D01*
X23651811Y3848189D02*
X23500000Y4000000D01*
X24151811Y3848189D02*
X23651811Y3848189D01*
%TO.N,Net-(D3-A)*%
X8375000Y15850000D02*
X9887500Y15850000D01*
%TO.N,Net-(U2-OUT)*%
D32*
X8875000Y3775000D02*
X9500000Y4400000D01*
D31*
X9400000Y5400000D02*
X9400000Y4400000D01*
D32*
X8875000Y2800000D02*
X8875000Y3775000D01*
%TO.N,/RxTxSig*%
D33*
X24000000Y11000000D02*
X24500000Y11000000D01*
D32*
X23500000Y11000000D02*
X24000000Y11000000D01*
D34*
X28925000Y11000000D02*
X24500000Y11000000D01*
%TO.N,gpio_5*%
D30*
X11662500Y15800000D02*
X11607500Y15800000D01*
X17600000Y16300000D02*
X12162500Y16300000D01*
X12162500Y16300000D02*
X11662500Y15800000D01*
X18410000Y15200000D02*
X18410000Y15490000D01*
D28*
X17632500Y10250000D02*
X17632500Y3532500D01*
X17632500Y3532500D02*
X16500000Y2400000D01*
D30*
X18410000Y15490000D02*
X17600000Y16300000D01*
D28*
X16500000Y2400000D02*
X16500000Y2000000D01*
%TO.N,gpio_4*%
D30*
X11712500Y14362500D02*
X12450000Y15100000D01*
X16700000Y15900000D02*
X17380000Y15220000D01*
D28*
X15500000Y2500000D02*
X15500000Y2000000D01*
D30*
X12450000Y15100000D02*
X12450000Y15400000D01*
X11712500Y14350000D02*
X11712500Y14362500D01*
D28*
X16450000Y9850000D02*
X16450000Y3450000D01*
D30*
X12950000Y15900000D02*
X16700000Y15900000D01*
X17380000Y15220000D02*
X17380000Y15100000D01*
X12450000Y15400000D02*
X12950000Y15900000D01*
D28*
X16450000Y3450000D02*
X15500000Y2500000D01*
%TO.N,/gpio_3*%
X14650000Y3000000D02*
X14500000Y3000000D01*
X15220000Y8570000D02*
X15220000Y3570000D01*
X15250000Y8700000D02*
X15300000Y8650000D01*
X15220000Y3570000D02*
X14650000Y3000000D01*
X15300000Y8650000D02*
X15220000Y8570000D01*
%TO.N,busy*%
D31*
X14225000Y11275000D02*
X12262500Y11275000D01*
D28*
X14500000Y11000000D02*
X14400000Y11100000D01*
D31*
X14500000Y11000000D02*
X14225000Y11275000D01*
X12262500Y11275000D02*
X12237500Y11300000D01*
%TO.N,/gpio_1*%
D28*
X15500000Y12000000D02*
X15500000Y12500000D01*
X15500000Y12500000D02*
X13570000Y14430000D01*
X13570000Y14430000D02*
X13570000Y15100000D01*
%TO.N,/gpio_0*%
X14840000Y14410000D02*
X14840000Y14960000D01*
X14840000Y14960000D02*
X14600000Y15200000D01*
X16500000Y12000000D02*
X16500000Y12750000D01*
X16500000Y12750000D02*
X14840000Y14410000D01*
%TO.N,/gpio_6*%
X17500000Y12575000D02*
X19680000Y14755000D01*
X19680000Y14755000D02*
X19680000Y15200000D01*
X17500000Y12000000D02*
X17500000Y12575000D01*
%TO.N,/gpio_7*%
X20950000Y14700000D02*
X20950000Y15200000D01*
X18500000Y12000000D02*
X18500000Y12250000D01*
X18500000Y12250000D02*
X20950000Y14700000D01*
%TO.N,/gpio_8*%
X19500000Y12100000D02*
X22220000Y14820000D01*
X22220000Y14820000D02*
X22220000Y15200000D01*
X19500000Y12000000D02*
X19500000Y12100000D01*
%TO.N,/gpio_10*%
X21500000Y12000000D02*
X21500000Y12100000D01*
X21500000Y12100000D02*
X22300000Y12900000D01*
X22300000Y12900000D02*
X23400000Y12900000D01*
X23400000Y12900000D02*
X25000000Y14500000D01*
X25000000Y14500000D02*
X25000000Y15200000D01*
%TO.N,Net-(D1-A)*%
D30*
X8800000Y1300000D02*
X7300000Y2800000D01*
X7300000Y2800000D02*
X7300000Y3125000D01*
%TO.N,Net-(D4-A)*%
D31*
X10375000Y11337500D02*
X10437500Y11275000D01*
X10375000Y12755100D02*
X10375000Y11337500D01*
D30*
X10250000Y12875000D02*
X10225000Y12850000D01*
%TD*%
%TA.AperFunction,Conductor*%
%TO.N,GND*%
G36*
X13958691Y3280593D02*
G01*
X13994655Y3231093D01*
X13999500Y3200500D01*
X13999500Y2680254D01*
X13999501Y2680242D01*
X14013035Y2612207D01*
X14011890Y2611980D01*
X14015916Y2560812D01*
X13989656Y2513922D01*
X13948214Y2472480D01*
X13902909Y2369873D01*
X13900000Y2344798D01*
X13900000Y2150001D01*
X13900001Y2150000D01*
X14401000Y2150000D01*
X14459191Y2131093D01*
X14495155Y2081593D01*
X14500000Y2051000D01*
X14500000Y2000001D01*
X14500001Y2000000D01*
X14551000Y2000000D01*
X14609191Y1981093D01*
X14645155Y1931593D01*
X14650000Y1901000D01*
X14650000Y1400002D01*
X14650001Y1400001D01*
X14844790Y1400001D01*
X14844791Y1400002D01*
X14869874Y1402910D01*
X14972478Y1448214D01*
X15013920Y1489656D01*
X15068436Y1517434D01*
X15112055Y1512272D01*
X15112207Y1513035D01*
X15180241Y1499502D01*
X15180246Y1499502D01*
X15180252Y1499500D01*
X15180253Y1499500D01*
X15819747Y1499500D01*
X15819748Y1499500D01*
X15878231Y1511133D01*
X15944552Y1555448D01*
X15944553Y1555451D01*
X15944997Y1555747D01*
X16003885Y1572356D01*
X16055003Y1555747D01*
X16055446Y1555451D01*
X16055448Y1555448D01*
X16121769Y1511133D01*
X16165914Y1502352D01*
X16180241Y1499502D01*
X16180246Y1499502D01*
X16180252Y1499500D01*
X16180253Y1499500D01*
X16819747Y1499500D01*
X16819748Y1499500D01*
X16878231Y1511133D01*
X16944552Y1555448D01*
X16944553Y1555451D01*
X16944997Y1555747D01*
X17003885Y1572356D01*
X17055003Y1555747D01*
X17055446Y1555451D01*
X17055448Y1555448D01*
X17121769Y1511133D01*
X17165914Y1502352D01*
X17180241Y1499502D01*
X17180246Y1499502D01*
X17180252Y1499500D01*
X17180253Y1499500D01*
X17819747Y1499500D01*
X17819748Y1499500D01*
X17878231Y1511133D01*
X17944552Y1555448D01*
X17944553Y1555451D01*
X17944997Y1555747D01*
X18003885Y1572356D01*
X18055003Y1555747D01*
X18055446Y1555451D01*
X18055448Y1555448D01*
X18121769Y1511133D01*
X18165914Y1502352D01*
X18180241Y1499502D01*
X18180246Y1499502D01*
X18180252Y1499500D01*
X18180253Y1499500D01*
X18819747Y1499500D01*
X18819748Y1499500D01*
X18878231Y1511133D01*
X18944552Y1555448D01*
X18944553Y1555451D01*
X18944997Y1555747D01*
X19003885Y1572356D01*
X19055003Y1555747D01*
X19055446Y1555451D01*
X19055448Y1555448D01*
X19121769Y1511133D01*
X19165914Y1502352D01*
X19180241Y1499502D01*
X19180246Y1499502D01*
X19180252Y1499500D01*
X19180253Y1499500D01*
X19819747Y1499500D01*
X19819748Y1499500D01*
X19878231Y1511133D01*
X19944552Y1555448D01*
X19944553Y1555451D01*
X19944997Y1555747D01*
X20003885Y1572356D01*
X20055003Y1555747D01*
X20055446Y1555451D01*
X20055448Y1555448D01*
X20121769Y1511133D01*
X20165914Y1502352D01*
X20180241Y1499502D01*
X20180246Y1499502D01*
X20180252Y1499500D01*
X20180253Y1499500D01*
X20819747Y1499500D01*
X20819748Y1499500D01*
X20878231Y1511133D01*
X20944552Y1555448D01*
X20944553Y1555451D01*
X20944997Y1555747D01*
X21003885Y1572356D01*
X21055003Y1555747D01*
X21055446Y1555451D01*
X21055448Y1555448D01*
X21121769Y1511133D01*
X21165914Y1502352D01*
X21180241Y1499502D01*
X21180246Y1499502D01*
X21180252Y1499500D01*
X21180253Y1499500D01*
X21819747Y1499500D01*
X21819748Y1499500D01*
X21878231Y1511133D01*
X21944552Y1555448D01*
X21944553Y1555451D01*
X21944997Y1555747D01*
X22003885Y1572356D01*
X22055003Y1555747D01*
X22055446Y1555451D01*
X22055448Y1555448D01*
X22121769Y1511133D01*
X22165914Y1502352D01*
X22180241Y1499502D01*
X22180246Y1499502D01*
X22180252Y1499500D01*
X22180253Y1499500D01*
X22819747Y1499500D01*
X22819748Y1499500D01*
X22878231Y1511133D01*
X22878232Y1511135D01*
X22887794Y1513036D01*
X22888022Y1511889D01*
X22939175Y1515920D01*
X22986079Y1489657D01*
X23027522Y1448214D01*
X23130127Y1402910D01*
X23155203Y1400001D01*
X23350000Y1400001D01*
X23350000Y1849999D01*
X23650000Y1849999D01*
X23650000Y1400002D01*
X23650001Y1400001D01*
X23844790Y1400001D01*
X23844791Y1400002D01*
X23869874Y1402910D01*
X23972477Y1448214D01*
X24051786Y1527523D01*
X24097090Y1630128D01*
X24099999Y1655203D01*
X24100000Y1655205D01*
X24100000Y1849999D01*
X24099999Y1850000D01*
X23650001Y1850000D01*
X23650000Y1849999D01*
X23350000Y1849999D01*
X23350000Y1901000D01*
X23368907Y1959191D01*
X23418407Y1995155D01*
X23449000Y2000000D01*
X23499999Y2000000D01*
X23500000Y2000001D01*
X23500000Y2051000D01*
X23518907Y2109191D01*
X23568407Y2145155D01*
X23599000Y2150000D01*
X24099998Y2150000D01*
X24099999Y2150001D01*
X24099999Y2344790D01*
X24099998Y2344792D01*
X24097090Y2369875D01*
X24057070Y2460512D01*
X24050862Y2521382D01*
X24081618Y2574275D01*
X24137590Y2598989D01*
X24147635Y2599500D01*
X24961492Y2599500D01*
X25019683Y2580593D01*
X25055647Y2531093D01*
X25055647Y2469907D01*
X25024204Y2426287D01*
X25024879Y2425612D01*
X25020722Y2421456D01*
X25020284Y2420847D01*
X25019634Y2420368D01*
X25019632Y2420366D01*
X24938184Y2310011D01*
X24892882Y2180541D01*
X24890000Y2149812D01*
X24890000Y2032501D01*
X24890001Y2032500D01*
X25401000Y2032500D01*
X25459191Y2013593D01*
X25495155Y1964093D01*
X25500000Y1933500D01*
X25500000Y1831500D01*
X25481093Y1773309D01*
X25431593Y1737345D01*
X25401000Y1732500D01*
X24890002Y1732500D01*
X24890001Y1732499D01*
X24890001Y1615199D01*
X24892882Y1584460D01*
X24892882Y1584459D01*
X24938184Y1454990D01*
X25009555Y1358289D01*
X25028897Y1300242D01*
X25010426Y1241911D01*
X24961197Y1205577D01*
X24929900Y1200500D01*
X13188399Y1200500D01*
X13130208Y1219407D01*
X13094244Y1268907D01*
X13094244Y1330093D01*
X13094955Y1332198D01*
X13107117Y1366957D01*
X13109999Y1397689D01*
X13110000Y1397692D01*
X13110000Y1514999D01*
X13109999Y1515000D01*
X11890002Y1515000D01*
X11890001Y1514999D01*
X11890001Y1397699D01*
X11892882Y1366960D01*
X11892883Y1366954D01*
X11905045Y1332198D01*
X11906418Y1271028D01*
X11871574Y1220733D01*
X11813822Y1200525D01*
X11811601Y1200500D01*
X11312000Y1200500D01*
X11253809Y1219407D01*
X11217845Y1268907D01*
X11213000Y1299500D01*
X11213000Y1590262D01*
X11212999Y1590267D01*
X11210225Y1619845D01*
X11210225Y1619849D01*
X11166616Y1744475D01*
X11094844Y1841723D01*
X11075503Y1899769D01*
X11075500Y1900510D01*
X11075500Y2162255D01*
X11094407Y2220446D01*
X11099127Y2226441D01*
X11106526Y2235131D01*
X11125711Y2249289D01*
X11172035Y2312057D01*
X11174274Y2314686D01*
X11197536Y2328989D01*
X11219759Y2344881D01*
X11224605Y2345630D01*
X11226396Y2346731D01*
X11229952Y2346457D01*
X11249647Y2349500D01*
X11490691Y2349500D01*
X11609309Y2349500D01*
X11931745Y2349500D01*
X11989936Y2330593D01*
X12025900Y2281093D01*
X12025900Y2219907D01*
X12011400Y2191711D01*
X11938184Y2092511D01*
X11892882Y1963041D01*
X11890000Y1932312D01*
X11890000Y1815001D01*
X11890001Y1815000D01*
X13109998Y1815000D01*
X13109999Y1815001D01*
X13109999Y1849999D01*
X13900001Y1849999D01*
X13900001Y1655209D01*
X13902909Y1630126D01*
X13948213Y1527523D01*
X14027522Y1448214D01*
X14130127Y1402910D01*
X14155203Y1400001D01*
X14350000Y1400001D01*
X14350000Y1849999D01*
X14349999Y1850000D01*
X13900002Y1850000D01*
X13900001Y1849999D01*
X13109999Y1849999D01*
X13109999Y1932302D01*
X13107117Y1963041D01*
X13107117Y1963042D01*
X13061815Y2092511D01*
X12980367Y2202866D01*
X12980363Y2202870D01*
X12953685Y2222559D01*
X12918092Y2272326D01*
X12918550Y2333510D01*
X12942468Y2372216D01*
X12948324Y2378071D01*
X13000433Y2484660D01*
X13010500Y2553758D01*
X13010500Y2582389D01*
X13029407Y2640580D01*
X13039496Y2652393D01*
X13657607Y3270504D01*
X13712124Y3298281D01*
X13727611Y3299500D01*
X13900500Y3299500D01*
X13958691Y3280593D01*
G37*
%TD.AperFunction*%
%TA.AperFunction,Conductor*%
G36*
X13888479Y5530593D02*
G01*
X13924443Y5481093D01*
X13924443Y5419907D01*
X13920853Y5410513D01*
X13902910Y5369876D01*
X13902909Y5369873D01*
X13900000Y5344798D01*
X13900000Y5150001D01*
X13900001Y5150000D01*
X14401000Y5150000D01*
X14459191Y5131093D01*
X14495155Y5081593D01*
X14500000Y5051000D01*
X14500000Y4949000D01*
X14481093Y4890809D01*
X14431593Y4854845D01*
X14401000Y4850000D01*
X13900002Y4850000D01*
X13900001Y4849999D01*
X13900001Y4655209D01*
X13902909Y4630126D01*
X13948213Y4527523D01*
X13989655Y4486081D01*
X14017432Y4431564D01*
X14017342Y4400029D01*
X14014617Y4383447D01*
X14011133Y4378231D01*
X13999500Y4319748D01*
X13999500Y4291421D01*
X13998191Y4283452D01*
X13987673Y4263101D01*
X13980593Y4241309D01*
X13973897Y4236445D01*
X13970100Y4229096D01*
X13949632Y4218816D01*
X13931093Y4205345D01*
X13919006Y4203431D01*
X13915425Y4201632D01*
X13911607Y4202260D01*
X13900500Y4200500D01*
X13440691Y4200500D01*
X13359180Y4178659D01*
X13359179Y4178660D01*
X13326113Y4169800D01*
X13306993Y4158760D01*
X13247144Y4146039D01*
X13191249Y4170926D01*
X13160656Y4223914D01*
X13158926Y4253743D01*
X13160000Y4265193D01*
X13160000Y4382499D01*
X13159999Y4382500D01*
X12700001Y4382500D01*
X12700000Y4382499D01*
X12700000Y3865002D01*
X12700001Y3865001D01*
X12738890Y3865001D01*
X12797081Y3846094D01*
X12833045Y3796594D01*
X12833045Y3735408D01*
X12808894Y3695997D01*
X12509893Y3396996D01*
X12455376Y3369219D01*
X12439889Y3368000D01*
X12311258Y3368000D01*
X12242160Y3357933D01*
X12142980Y3309447D01*
X12082398Y3300876D01*
X12028348Y3329552D01*
X12001476Y3384520D01*
X12000500Y3398388D01*
X12000500Y3849547D01*
X12019407Y3907738D01*
X12068907Y3943702D01*
X12130093Y3943702D01*
X12158290Y3929201D01*
X12179989Y3913186D01*
X12309458Y3867883D01*
X12340190Y3865001D01*
X12399999Y3865002D01*
X12400000Y3865002D01*
X12400000Y4433500D01*
X12418907Y4491691D01*
X12468407Y4527655D01*
X12499000Y4532500D01*
X12549999Y4532500D01*
X12550000Y4532501D01*
X12550000Y4583500D01*
X12568907Y4641691D01*
X12618407Y4677655D01*
X12649000Y4682500D01*
X13159998Y4682500D01*
X13159999Y4682501D01*
X13159999Y4799802D01*
X13157117Y4830541D01*
X13157117Y4830542D01*
X13111815Y4960011D01*
X13030367Y5070366D01*
X13025121Y5075612D01*
X13027475Y5077967D01*
X13000159Y5116146D01*
X13000605Y5177330D01*
X13036928Y5226566D01*
X13068905Y5241677D01*
X13070991Y5242237D01*
X13083433Y5245570D01*
X13083434Y5245570D01*
X13083437Y5245571D01*
X13091387Y5247701D01*
X13194114Y5307011D01*
X13353285Y5466182D01*
X13407608Y5520504D01*
X13462124Y5548281D01*
X13477611Y5549500D01*
X13830288Y5549500D01*
X13888479Y5530593D01*
G37*
%TD.AperFunction*%
%TA.AperFunction,Conductor*%
G36*
X28261736Y4320397D02*
G01*
X28276322Y4321833D01*
X28336086Y4308721D01*
X28353333Y4295911D01*
X28354704Y4294640D01*
X28423458Y4225886D01*
X28442825Y4212945D01*
X28448590Y4207601D01*
X28459856Y4187416D01*
X28474165Y4169265D01*
X28474481Y4161213D01*
X28478410Y4154174D01*
X28475659Y4131223D01*
X28476567Y4108127D01*
X28472088Y4101426D01*
X28471130Y4093423D01*
X28455416Y4076474D01*
X28442574Y4057253D01*
X28436293Y4052691D01*
X28432267Y4050000D01*
X28423458Y4044114D01*
X28423454Y4044111D01*
X28325889Y3946546D01*
X28325886Y3946542D01*
X28319086Y3936364D01*
X28317315Y3933714D01*
X28269265Y3895835D01*
X28208127Y3893433D01*
X28162399Y3921410D01*
X28157055Y3927175D01*
X28144114Y3946542D01*
X28075360Y4015296D01*
X28074089Y4016667D01*
X28061988Y4042816D01*
X28048909Y4068485D01*
X28048827Y4071257D01*
X28048393Y4072195D01*
X28048746Y4073988D01*
X28048167Y4093678D01*
X28049603Y4108264D01*
X27698056Y4459811D01*
X27725445Y4467149D01*
X27799554Y4509936D01*
X27860064Y4570446D01*
X27902851Y4644555D01*
X27910189Y4671944D01*
X28261736Y4320397D01*
G37*
%TD.AperFunction*%
%TA.AperFunction,Conductor*%
G36*
X15478925Y14705667D02*
G01*
X15501871Y14706569D01*
X15508706Y14702002D01*
X15516865Y14700998D01*
X15533654Y14685333D01*
X15552745Y14672577D01*
X15557295Y14666315D01*
X15565886Y14653458D01*
X15565890Y14653454D01*
X15663458Y14555886D01*
X15778182Y14479229D01*
X15778193Y14479223D01*
X15824308Y14460122D01*
X15905672Y14426420D01*
X16041007Y14399500D01*
X16041008Y14399500D01*
X16178992Y14399500D01*
X16178993Y14399500D01*
X16314328Y14426420D01*
X16441811Y14479225D01*
X16556542Y14555886D01*
X16654114Y14653458D01*
X16662686Y14666288D01*
X16710732Y14704165D01*
X16771871Y14706569D01*
X16822745Y14672577D01*
X16827295Y14666315D01*
X16835886Y14653458D01*
X16835890Y14653454D01*
X16933458Y14555886D01*
X17048182Y14479229D01*
X17048193Y14479223D01*
X17094308Y14460122D01*
X17175672Y14426420D01*
X17311007Y14399500D01*
X17311008Y14399500D01*
X17448992Y14399500D01*
X17448993Y14399500D01*
X17584328Y14426420D01*
X17711811Y14479225D01*
X17826542Y14555886D01*
X17924114Y14653458D01*
X17932686Y14666288D01*
X17980732Y14704165D01*
X18041871Y14706569D01*
X18092745Y14672577D01*
X18097295Y14666315D01*
X18105886Y14653458D01*
X18105890Y14653454D01*
X18203458Y14555886D01*
X18318182Y14479229D01*
X18318193Y14479223D01*
X18364308Y14460122D01*
X18445672Y14426420D01*
X18581007Y14399500D01*
X18581008Y14399500D01*
X18589809Y14399500D01*
X18648000Y14380593D01*
X18683964Y14331093D01*
X18683964Y14269907D01*
X18659813Y14230496D01*
X17219527Y12790209D01*
X17215897Y12783920D01*
X17204808Y12764712D01*
X17190953Y12740716D01*
X17173387Y12710291D01*
X17173386Y12710289D01*
X17173386Y12710288D01*
X17158319Y12654055D01*
X17149500Y12621143D01*
X17149500Y12560313D01*
X17130593Y12502122D01*
X17105503Y12477999D01*
X17055448Y12444552D01*
X17055447Y12444551D01*
X17055003Y12444254D01*
X16996115Y12427645D01*
X16944997Y12444254D01*
X16944552Y12444551D01*
X16944552Y12444552D01*
X16894496Y12477999D01*
X16856619Y12526049D01*
X16850500Y12560313D01*
X16850500Y12796143D01*
X16850500Y12796144D01*
X16826614Y12885288D01*
X16812527Y12909687D01*
X16812527Y12909688D01*
X16780471Y12965210D01*
X16780470Y12965212D01*
X15308170Y14437512D01*
X15280395Y14492026D01*
X15289966Y14552458D01*
X15305791Y14575051D01*
X15306961Y14576306D01*
X15384114Y14653458D01*
X15397145Y14672962D01*
X15402615Y14678823D01*
X15422698Y14689949D01*
X15440732Y14704165D01*
X15448946Y14704489D01*
X15456137Y14708471D01*
X15478925Y14705667D01*
G37*
%TD.AperFunction*%
%TA.AperFunction,Conductor*%
G36*
X30244661Y16799460D02*
G01*
X30255713Y16798838D01*
X30361214Y16786951D01*
X30382809Y16782022D01*
X30477907Y16748745D01*
X30497877Y16739128D01*
X30583177Y16685531D01*
X30600510Y16671709D01*
X30671745Y16600474D01*
X30685567Y16583141D01*
X30739164Y16497841D01*
X30748782Y16477868D01*
X30782053Y16382787D01*
X30786987Y16361172D01*
X30798892Y16255500D01*
X30799514Y16244417D01*
X30799505Y11733825D01*
X30780598Y11675634D01*
X30731097Y11639670D01*
X30669912Y11639670D01*
X30620850Y11675038D01*
X30597150Y11707150D01*
X30597146Y11707153D01*
X30597144Y11707155D01*
X30487883Y11787793D01*
X30359703Y11832645D01*
X30359694Y11832647D01*
X30329274Y11835500D01*
X30329266Y11835500D01*
X29093930Y11835500D01*
X29074616Y11837402D01*
X29008769Y11850500D01*
X29008767Y11850500D01*
X24416233Y11850500D01*
X24416230Y11850500D01*
X24251920Y11817817D01*
X24251914Y11817815D01*
X24097138Y11753704D01*
X24097129Y11753700D01*
X24042483Y11717185D01*
X23987481Y11700500D01*
X23931004Y11700500D01*
X23795672Y11673580D01*
X23795670Y11673580D01*
X23668193Y11620778D01*
X23668182Y11620772D01*
X23553458Y11544115D01*
X23553454Y11544111D01*
X23538840Y11529496D01*
X23484323Y11501719D01*
X23468836Y11500500D01*
X23180252Y11500500D01*
X23180251Y11500500D01*
X23180241Y11500499D01*
X23121772Y11488868D01*
X23121766Y11488866D01*
X23055451Y11444555D01*
X23055445Y11444549D01*
X23011134Y11378234D01*
X23011132Y11378228D01*
X22999501Y11319759D01*
X22999500Y11319747D01*
X22999500Y10680254D01*
X22999501Y10680242D01*
X23011132Y10621773D01*
X23011134Y10621767D01*
X23018670Y10610489D01*
X23055448Y10555448D01*
X23121769Y10511133D01*
X23166231Y10502289D01*
X23180241Y10499502D01*
X23180246Y10499502D01*
X23180252Y10499500D01*
X23434108Y10499500D01*
X23468836Y10499500D01*
X23527027Y10480593D01*
X23538840Y10470504D01*
X23553458Y10455886D01*
X23668182Y10379229D01*
X23668193Y10379223D01*
X23713270Y10360552D01*
X23795672Y10326420D01*
X23931007Y10299500D01*
X23987481Y10299500D01*
X24042483Y10282815D01*
X24097129Y10246301D01*
X24097135Y10246299D01*
X24097137Y10246297D01*
X24251918Y10182184D01*
X24416233Y10149500D01*
X24416234Y10149500D01*
X29008766Y10149500D01*
X29008767Y10149500D01*
X29074616Y10162598D01*
X29093930Y10164500D01*
X30329273Y10164500D01*
X30329273Y10164501D01*
X30359699Y10167354D01*
X30487882Y10212207D01*
X30597150Y10292850D01*
X30620847Y10324960D01*
X30670615Y10360552D01*
X30731798Y10360095D01*
X30781028Y10323763D01*
X30799503Y10266172D01*
X30799484Y789905D01*
X30799484Y755586D01*
X30798861Y744501D01*
X30786954Y638828D01*
X30782021Y617215D01*
X30748750Y522134D01*
X30739132Y502161D01*
X30685535Y416861D01*
X30671713Y399528D01*
X30600478Y328293D01*
X30583145Y314471D01*
X30497845Y260874D01*
X30477872Y251256D01*
X30382791Y217985D01*
X30361178Y213052D01*
X30255505Y201145D01*
X30244420Y200522D01*
X30210101Y200522D01*
X755422Y200502D01*
X744339Y201124D01*
X638773Y213017D01*
X617158Y217951D01*
X522077Y251222D01*
X502104Y260840D01*
X416804Y314437D01*
X399471Y328259D01*
X328236Y399494D01*
X314414Y416827D01*
X260817Y502127D01*
X251199Y522100D01*
X237806Y560374D01*
X217927Y617184D01*
X212994Y638795D01*
X212990Y638828D01*
X201088Y744468D01*
X200466Y755552D01*
X200466Y789870D01*
X200467Y1224999D01*
X6425000Y1224999D01*
X6425000Y1045418D01*
X6435373Y959042D01*
X6489576Y821592D01*
X6489579Y821588D01*
X6578854Y703861D01*
X6578860Y703855D01*
X6696587Y614580D01*
X6696591Y614577D01*
X6834041Y560374D01*
X6920417Y550001D01*
X6920424Y550000D01*
X7049999Y550000D01*
X7050000Y550001D01*
X7050000Y1224999D01*
X7049999Y1225000D01*
X6425001Y1225000D01*
X6425000Y1224999D01*
X200467Y1224999D01*
X200467Y1266007D01*
X200467Y1458187D01*
X200470Y2950000D01*
X1133176Y2950000D01*
X1949318Y2950000D01*
X1925000Y2859244D01*
X1925000Y2740756D01*
X1949318Y2650000D01*
X1133176Y2650000D01*
X1155778Y2507290D01*
X1155779Y2507286D01*
X1216576Y2320174D01*
X1216578Y2320171D01*
X1305903Y2144858D01*
X1305907Y2144852D01*
X1421549Y1985686D01*
X1560685Y1846550D01*
X1719851Y1730908D01*
X1719857Y1730904D01*
X1895170Y1641579D01*
X1895173Y1641577D01*
X2082285Y1580780D01*
X2082289Y1580779D01*
X2276620Y1550000D01*
X3024999Y1550000D01*
X3025000Y1550001D01*
X3025000Y2350000D01*
X3325000Y2350000D01*
X3325000Y1550001D01*
X3325001Y1550000D01*
X4073380Y1550000D01*
X4267710Y1580779D01*
X4267714Y1580780D01*
X4454826Y1641577D01*
X4454829Y1641579D01*
X4578483Y1704583D01*
X6425000Y1704583D01*
X6425000Y1525001D01*
X6425001Y1525000D01*
X7049999Y1525000D01*
X7050000Y1525001D01*
X7050000Y2199999D01*
X7049999Y2200000D01*
X6920417Y2200000D01*
X6834041Y2189627D01*
X6696591Y2135424D01*
X6696587Y2135421D01*
X6578860Y2046146D01*
X6578854Y2046140D01*
X6489579Y1928413D01*
X6489576Y1928409D01*
X6435373Y1790959D01*
X6425000Y1704583D01*
X4578483Y1704583D01*
X4630142Y1730904D01*
X4630148Y1730908D01*
X4708218Y1787629D01*
X4789314Y1846550D01*
X4928450Y1985686D01*
X5044092Y2144852D01*
X5044096Y2144858D01*
X5133421Y2320171D01*
X5133423Y2320174D01*
X5194220Y2507286D01*
X5194221Y2507290D01*
X5216824Y2650000D01*
X4400682Y2650000D01*
X4425000Y2740756D01*
X4425000Y2859244D01*
X4400682Y2950000D01*
X5216824Y2950000D01*
X5194221Y3092711D01*
X5194220Y3092715D01*
X5133423Y3279827D01*
X5133421Y3279830D01*
X5044096Y3455143D01*
X5044092Y3455149D01*
X4928450Y3614315D01*
X4789314Y3753451D01*
X4630148Y3869093D01*
X4630142Y3869097D01*
X4454829Y3958422D01*
X4454826Y3958424D01*
X4267714Y4019221D01*
X4267710Y4019222D01*
X4073380Y4050000D01*
X3325001Y4050000D01*
X3325000Y4049999D01*
X3325000Y3250000D01*
X3025000Y3250000D01*
X3025000Y4049999D01*
X3024999Y4050000D01*
X2276620Y4050000D01*
X2082289Y4019222D01*
X2082285Y4019221D01*
X1895173Y3958424D01*
X1895170Y3958422D01*
X1719857Y3869097D01*
X1719851Y3869093D01*
X1560685Y3753451D01*
X1421549Y3614315D01*
X1305907Y3455149D01*
X1305903Y3455143D01*
X1216578Y3279830D01*
X1216576Y3279827D01*
X1155779Y3092715D01*
X1155778Y3092711D01*
X1133176Y2950000D01*
X200470Y2950000D01*
X200477Y6278845D01*
X2374500Y6278845D01*
X2374500Y6121156D01*
X2405263Y5966504D01*
X2405263Y5966502D01*
X2465603Y5820826D01*
X2465609Y5820815D01*
X2512502Y5750636D01*
X2553211Y5689711D01*
X2664711Y5578211D01*
X2725364Y5537684D01*
X2795814Y5490610D01*
X2795825Y5490604D01*
X2849415Y5468407D01*
X2941503Y5430263D01*
X3096158Y5399500D01*
X3096159Y5399500D01*
X3253841Y5399500D01*
X3253842Y5399500D01*
X3408497Y5430263D01*
X3554179Y5490606D01*
X3685289Y5578211D01*
X3796789Y5689711D01*
X3884394Y5820821D01*
X3944737Y5966503D01*
X3975500Y6121158D01*
X3975500Y6278842D01*
X3944737Y6433497D01*
X3914300Y6506978D01*
X3884396Y6579175D01*
X3884390Y6579186D01*
X3820227Y6675211D01*
X3796789Y6710289D01*
X3685289Y6821789D01*
X3601388Y6877850D01*
X3554185Y6909391D01*
X3554174Y6909397D01*
X3408497Y6969737D01*
X3253844Y7000500D01*
X3253842Y7000500D01*
X3096158Y7000500D01*
X3096155Y7000500D01*
X2941503Y6969737D01*
X2941501Y6969737D01*
X2795825Y6909397D01*
X2795814Y6909391D01*
X2664711Y6821789D01*
X2664707Y6821786D01*
X2553214Y6710293D01*
X2553211Y6710289D01*
X2465609Y6579186D01*
X2465603Y6579175D01*
X2405263Y6433499D01*
X2405263Y6433497D01*
X2374500Y6278845D01*
X200477Y6278845D01*
X200485Y9854275D01*
X4474500Y9854275D01*
X4474500Y9145726D01*
X4477353Y9115306D01*
X4477355Y9115297D01*
X4522207Y8987117D01*
X4602845Y8877856D01*
X4602847Y8877854D01*
X4602850Y8877850D01*
X4602853Y8877848D01*
X4602855Y8877846D01*
X4712116Y8797208D01*
X4712117Y8797208D01*
X4712118Y8797207D01*
X4840301Y8752354D01*
X4870725Y8749501D01*
X4870727Y8749500D01*
X4870734Y8749500D01*
X6838810Y8749500D01*
X6897001Y8730593D01*
X6904252Y8724400D01*
X6904423Y8724594D01*
X6906852Y8722464D01*
X6906992Y8722357D01*
X7047306Y8614690D01*
X7097455Y8585737D01*
X7138396Y8540267D01*
X7144792Y8479417D01*
X7114199Y8426429D01*
X7097457Y8414265D01*
X7083402Y8406150D01*
X7047306Y8385311D01*
X6906845Y8277530D01*
X6904423Y8275405D01*
X6903299Y8276686D01*
X6854298Y8251719D01*
X6838811Y8250500D01*
X4870725Y8250500D01*
X4840305Y8247647D01*
X4840296Y8247645D01*
X4712116Y8202793D01*
X4602855Y8122155D01*
X4602845Y8122145D01*
X4522207Y8012884D01*
X4477355Y7884704D01*
X4477353Y7884695D01*
X4474500Y7854275D01*
X4474500Y7145726D01*
X4477353Y7115306D01*
X4477355Y7115297D01*
X4522207Y6987117D01*
X4602845Y6877856D01*
X4602847Y6877854D01*
X4602850Y6877850D01*
X4602853Y6877848D01*
X4602855Y6877846D01*
X4712116Y6797208D01*
X4712117Y6797208D01*
X4712118Y6797207D01*
X4840301Y6752354D01*
X4870725Y6749501D01*
X4870727Y6749500D01*
X5981289Y6749500D01*
X6039480Y6730593D01*
X6075444Y6681093D01*
X6075444Y6619907D01*
X6039480Y6570407D01*
X6030790Y6564764D01*
X6023388Y6560491D01*
X5489507Y6026610D01*
X5430200Y5923888D01*
X5430200Y5923887D01*
X5430201Y5923886D01*
X5407593Y5839509D01*
X5403404Y5823877D01*
X5370080Y5772563D01*
X5312959Y5750636D01*
X5307777Y5750500D01*
X4870725Y5750500D01*
X4840305Y5747647D01*
X4840296Y5747645D01*
X4712116Y5702793D01*
X4602855Y5622155D01*
X4602845Y5622145D01*
X4522207Y5512884D01*
X4477355Y5384704D01*
X4477353Y5384695D01*
X4474500Y5354275D01*
X4474500Y4645726D01*
X4477353Y4615306D01*
X4477355Y4615297D01*
X4522207Y4487117D01*
X4602845Y4377856D01*
X4602847Y4377854D01*
X4602850Y4377850D01*
X4602853Y4377848D01*
X4602855Y4377846D01*
X4712116Y4297208D01*
X4712117Y4297208D01*
X4712118Y4297207D01*
X4840301Y4252354D01*
X4870725Y4249501D01*
X4870727Y4249500D01*
X4870734Y4249500D01*
X6979273Y4249500D01*
X6979273Y4249501D01*
X7009699Y4252354D01*
X7137882Y4297207D01*
X7247150Y4377850D01*
X7327793Y4487118D01*
X7372646Y4615301D01*
X7375499Y4645727D01*
X7375500Y4645727D01*
X7375500Y5354273D01*
X7375499Y5354275D01*
X7374036Y5369876D01*
X7372646Y5384699D01*
X7327793Y5512882D01*
X7314722Y5530593D01*
X7289536Y5564719D01*
X7289536Y5564720D01*
X7276414Y5582499D01*
X7590001Y5582499D01*
X7590001Y5465199D01*
X7592882Y5434460D01*
X7592882Y5434459D01*
X7638184Y5304990D01*
X7719632Y5194635D01*
X7719634Y5194633D01*
X7829989Y5113185D01*
X7959458Y5067883D01*
X7990190Y5065001D01*
X8049999Y5065002D01*
X8050000Y5065002D01*
X8050000Y5582499D01*
X8350000Y5582499D01*
X8350000Y5065002D01*
X8350001Y5065001D01*
X8409801Y5065001D01*
X8440540Y5067883D01*
X8440541Y5067883D01*
X8570010Y5113185D01*
X8680365Y5194633D01*
X8680367Y5194635D01*
X8761815Y5304990D01*
X8802142Y5420241D01*
X8808357Y5582500D01*
X8350001Y5582500D01*
X8350000Y5582499D01*
X8050000Y5582499D01*
X8049999Y5582500D01*
X7590002Y5582500D01*
X7590001Y5582499D01*
X7276414Y5582499D01*
X7269615Y5591711D01*
X7250273Y5649759D01*
X7268744Y5708090D01*
X7317973Y5744423D01*
X7349270Y5749500D01*
X7359309Y5749500D01*
X7449669Y5773713D01*
X7449672Y5773713D01*
X7462903Y5777259D01*
X7473887Y5780201D01*
X7576614Y5839511D01*
X7590608Y5853506D01*
X7645123Y5881281D01*
X7660610Y5882500D01*
X8809998Y5882500D01*
X8809999Y5882501D01*
X8809999Y5999802D01*
X8807117Y6030541D01*
X8807117Y6030542D01*
X8761815Y6160011D01*
X8680367Y6270366D01*
X8680363Y6270370D01*
X8653685Y6290059D01*
X8618092Y6339826D01*
X8618550Y6401010D01*
X8642468Y6439716D01*
X8648324Y6445571D01*
X8700433Y6552160D01*
X8710500Y6621258D01*
X8710500Y6675500D01*
X8729407Y6733691D01*
X8778907Y6769655D01*
X8809500Y6774500D01*
X9452726Y6774500D01*
X9452727Y6774500D01*
X9486793Y6783628D01*
X9512416Y6787001D01*
X9550181Y6787001D01*
X9550184Y6787001D01*
X9574786Y6789854D01*
X9675422Y6834289D01*
X9675423Y6834291D01*
X9683814Y6837995D01*
X9685268Y6834701D01*
X9727724Y6847214D01*
X9764920Y6835129D01*
X9766186Y6837995D01*
X9774576Y6834291D01*
X9774578Y6834289D01*
X9875214Y6789854D01*
X9899815Y6787000D01*
X10200184Y6787001D01*
X10224786Y6789854D01*
X10325422Y6834289D01*
X10325423Y6834291D01*
X10333814Y6837995D01*
X10335268Y6834701D01*
X10377724Y6847214D01*
X10414920Y6835129D01*
X10416186Y6837995D01*
X10424576Y6834291D01*
X10424578Y6834289D01*
X10525214Y6789854D01*
X10549815Y6787000D01*
X10850184Y6787001D01*
X10874786Y6789854D01*
X10975422Y6834289D01*
X11053211Y6912078D01*
X11097646Y7012714D01*
X11100500Y7037315D01*
X11100499Y7312684D01*
X11097646Y7337286D01*
X11053211Y7437922D01*
X10975422Y7515711D01*
X10874786Y7560146D01*
X10874785Y7560147D01*
X10874784Y7560147D01*
X10848150Y7563237D01*
X10792527Y7588726D01*
X10789559Y7591573D01*
X10498170Y7882961D01*
X10473818Y7897021D01*
X10473818Y7897020D01*
X10429649Y7922521D01*
X10429648Y7922522D01*
X10429647Y7922522D01*
X10353224Y7943000D01*
X10353222Y7943000D01*
X9702938Y7943000D01*
X9702935Y7943000D01*
X9626512Y7922522D01*
X9582342Y7897020D01*
X9582341Y7897021D01*
X9557988Y7882960D01*
X9279524Y7604496D01*
X9225008Y7576719D01*
X9209521Y7575500D01*
X8566306Y7575500D01*
X8566290Y7575501D01*
X8560227Y7575501D01*
X8454773Y7575501D01*
X8454770Y7575501D01*
X8352913Y7548208D01*
X8352909Y7548206D01*
X8261589Y7495482D01*
X8230602Y7464495D01*
X8176085Y7436719D01*
X8160599Y7435500D01*
X8011258Y7435500D01*
X7950692Y7426676D01*
X7942160Y7425433D01*
X7835573Y7373326D01*
X7835570Y7373324D01*
X7747853Y7285608D01*
X7744259Y7281365D01*
X7544504Y7081609D01*
X7489987Y7053831D01*
X7429555Y7063402D01*
X7386290Y7106667D01*
X7375500Y7151612D01*
X7375500Y7701620D01*
X7394407Y7759811D01*
X7411695Y7778148D01*
X7430838Y7793859D01*
X7446961Y7804632D01*
X7542074Y7855471D01*
X7559980Y7862887D01*
X7663176Y7894191D01*
X7682203Y7897976D01*
X7760322Y7905670D01*
X7794371Y7909023D01*
X7804074Y7909500D01*
X8423713Y7909500D01*
X8423714Y7909500D01*
X8599232Y7932607D01*
X8770233Y7978426D01*
X8933791Y8046174D01*
X9087106Y8134690D01*
X9152426Y8184812D01*
X11940000Y8184812D01*
X11940000Y8067501D01*
X11940001Y8067500D01*
X12399999Y8067500D01*
X12400000Y8067501D01*
X12400000Y8584999D01*
X12700000Y8584999D01*
X12700000Y8067501D01*
X12700001Y8067500D01*
X13159998Y8067500D01*
X13159999Y8067501D01*
X13159999Y8184802D01*
X13157117Y8215541D01*
X13157117Y8215542D01*
X13111815Y8345011D01*
X13030367Y8455366D01*
X13030365Y8455368D01*
X12920010Y8536816D01*
X12790540Y8582118D01*
X12759811Y8585000D01*
X12700001Y8585000D01*
X12700000Y8584999D01*
X12400000Y8584999D01*
X12400000Y8585001D01*
X12340199Y8585000D01*
X12309459Y8582118D01*
X12309458Y8582118D01*
X12179989Y8536816D01*
X12069634Y8455368D01*
X12069632Y8455366D01*
X11988184Y8345011D01*
X11942882Y8215541D01*
X11940000Y8184812D01*
X9152426Y8184812D01*
X9227556Y8242462D01*
X9257517Y8272423D01*
X9700933Y8715841D01*
X9708111Y8722347D01*
X9795252Y8793861D01*
X9811373Y8804632D01*
X9906486Y8855471D01*
X9924392Y8862887D01*
X10027588Y8894191D01*
X10046615Y8897976D01*
X10124734Y8905670D01*
X10158783Y8909023D01*
X10168486Y8909500D01*
X10219139Y8909500D01*
X13603809Y8909500D01*
X13662000Y8890593D01*
X13673812Y8880504D01*
X13757109Y8797208D01*
X13834787Y8719530D01*
X13914711Y8673386D01*
X13933953Y8668230D01*
X13985267Y8634909D01*
X14007195Y8577788D01*
X13991361Y8518687D01*
X13978336Y8502601D01*
X13948213Y8472478D01*
X13902909Y8369873D01*
X13900000Y8344798D01*
X13900000Y8150001D01*
X13900001Y8150000D01*
X14401000Y8150000D01*
X14459191Y8131093D01*
X14495155Y8081593D01*
X14500000Y8051000D01*
X14500000Y7949000D01*
X14481093Y7890809D01*
X14431593Y7854845D01*
X14401000Y7850000D01*
X13900002Y7850000D01*
X13900001Y7849999D01*
X13900001Y7655209D01*
X13902909Y7630126D01*
X13931154Y7566158D01*
X13937362Y7505288D01*
X13906606Y7452395D01*
X13866215Y7430545D01*
X13826114Y7419799D01*
X13826112Y7419799D01*
X13826108Y7419797D01*
X13795355Y7402041D01*
X13723386Y7360490D01*
X13624892Y7261996D01*
X13570376Y7234219D01*
X13554889Y7233000D01*
X13118255Y7233000D01*
X13060064Y7251907D01*
X13024100Y7301407D01*
X13024100Y7362593D01*
X13038600Y7390789D01*
X13111815Y7489990D01*
X13157117Y7619460D01*
X13159999Y7650189D01*
X13160000Y7650192D01*
X13160000Y7767499D01*
X13159999Y7767500D01*
X11940002Y7767500D01*
X11940001Y7767499D01*
X11940001Y7650199D01*
X11942882Y7619460D01*
X11942882Y7619459D01*
X11988184Y7489990D01*
X12069632Y7379635D01*
X12069634Y7379633D01*
X12096314Y7359942D01*
X12131906Y7310174D01*
X12131448Y7248991D01*
X12107535Y7210289D01*
X12101676Y7204430D01*
X12101674Y7204427D01*
X12072981Y7145734D01*
X12049567Y7097840D01*
X12039500Y7028742D01*
X12039500Y6536258D01*
X12049567Y6467162D01*
X12049568Y6467157D01*
X12060121Y6445571D01*
X12089440Y6385600D01*
X12099500Y6342120D01*
X12099500Y6107882D01*
X12094424Y6076589D01*
X12092338Y6070329D01*
X12049567Y5982840D01*
X12039500Y5913742D01*
X12039500Y5911740D01*
X12036205Y5901850D01*
X12022998Y5883956D01*
X12013147Y5864013D01*
X12012285Y5863139D01*
X11365308Y5216161D01*
X11310791Y5188384D01*
X11250359Y5197955D01*
X11220023Y5221870D01*
X11195998Y5250000D01*
X10799000Y5250000D01*
X10740809Y5268907D01*
X10704845Y5318407D01*
X10700000Y5349000D01*
X10700000Y5399999D01*
X10699999Y5400000D01*
X10649000Y5400000D01*
X10590809Y5418907D01*
X10554845Y5468407D01*
X10550000Y5499000D01*
X10550000Y5550001D01*
X10850000Y5550001D01*
X10850001Y5550000D01*
X11195997Y5550000D01*
X11185396Y5616941D01*
X11185393Y5616949D01*
X11128772Y5728073D01*
X11040572Y5816273D01*
X10929445Y5872895D01*
X10929443Y5872896D01*
X10850000Y5885479D01*
X10850000Y5550001D01*
X10550000Y5550001D01*
X10550000Y5885478D01*
X10549999Y5885479D01*
X10470558Y5872896D01*
X10470556Y5872896D01*
X10359424Y5816271D01*
X10344545Y5801392D01*
X10290028Y5773615D01*
X10234556Y5780832D01*
X10224786Y5785146D01*
X10224783Y5785147D01*
X10200188Y5788000D01*
X9899819Y5788000D01*
X9899816Y5787999D01*
X9875214Y5785146D01*
X9774578Y5740711D01*
X9774577Y5740711D01*
X9766186Y5737005D01*
X9764733Y5740295D01*
X9722220Y5727789D01*
X9685074Y5739859D01*
X9683814Y5737005D01*
X9675423Y5740710D01*
X9675422Y5740711D01*
X9574786Y5785146D01*
X9574785Y5785147D01*
X9574783Y5785147D01*
X9550191Y5788000D01*
X9550185Y5788000D01*
X9512412Y5788000D01*
X9486790Y5791373D01*
X9478811Y5793511D01*
X9452727Y5800500D01*
X9347273Y5800500D01*
X9313202Y5791372D01*
X9287587Y5788000D01*
X9249820Y5788000D01*
X9249814Y5787999D01*
X9225214Y5785146D01*
X9124578Y5740711D01*
X9046789Y5662922D01*
X9009386Y5578211D01*
X9002354Y5562286D01*
X8999500Y5537685D01*
X8999500Y5452729D01*
X8999500Y5452727D01*
X8999500Y5399431D01*
X8999500Y4910761D01*
X8980593Y4852570D01*
X8970504Y4840758D01*
X8894176Y4764430D01*
X8894174Y4764427D01*
X8851754Y4677655D01*
X8842067Y4657840D01*
X8835870Y4615301D01*
X8832000Y4588739D01*
X8832000Y4480822D01*
X8813093Y4422631D01*
X8803004Y4410818D01*
X8567686Y4175500D01*
X8567685Y4175501D01*
X8474500Y4082315D01*
X8474496Y4082310D01*
X8408609Y3968191D01*
X8395599Y3919637D01*
X8377075Y3850500D01*
X8374500Y3840891D01*
X8374500Y3532244D01*
X8355593Y3474053D01*
X8308198Y3438800D01*
X8280527Y3429118D01*
X8280521Y3429115D01*
X8174293Y3350715D01*
X8174285Y3350707D01*
X8095884Y3244477D01*
X8067944Y3164629D01*
X8030878Y3115948D01*
X7972278Y3098352D01*
X7914526Y3118561D01*
X7879683Y3168855D01*
X7875500Y3197327D01*
X7875500Y3465262D01*
X7875499Y3465267D01*
X7874800Y3472725D01*
X7872725Y3494849D01*
X7829116Y3619475D01*
X7827565Y3621576D01*
X7750714Y3725707D01*
X7750713Y3725708D01*
X7750711Y3725711D01*
X7750706Y3725715D01*
X7644476Y3804116D01*
X7519852Y3847724D01*
X7519851Y3847725D01*
X7519849Y3847725D01*
X7519847Y3847726D01*
X7519844Y3847726D01*
X7490266Y3850500D01*
X7490256Y3850500D01*
X6909744Y3850500D01*
X6909733Y3850500D01*
X6880155Y3847726D01*
X6880147Y3847724D01*
X6755523Y3804116D01*
X6649293Y3725715D01*
X6649285Y3725707D01*
X6570884Y3619477D01*
X6527276Y3494853D01*
X6527274Y3494845D01*
X6524500Y3465267D01*
X6524500Y2784734D01*
X6527274Y2755156D01*
X6527276Y2755148D01*
X6570884Y2630524D01*
X6627537Y2553762D01*
X6649289Y2524289D01*
X6649292Y2524287D01*
X6649293Y2524286D01*
X6755523Y2445885D01*
X6755524Y2445885D01*
X6755525Y2445884D01*
X6880151Y2402275D01*
X6907441Y2399716D01*
X6909733Y2399501D01*
X6909738Y2399500D01*
X6909744Y2399500D01*
X7234521Y2399500D01*
X7292712Y2380593D01*
X7304525Y2370504D01*
X7342511Y2332518D01*
X7370288Y2278001D01*
X7360717Y2217569D01*
X7350000Y2202818D01*
X7350000Y550001D01*
X7350001Y550000D01*
X7479576Y550000D01*
X7479582Y550001D01*
X7565958Y560374D01*
X7703408Y614577D01*
X7703412Y614580D01*
X7821139Y703855D01*
X7821145Y703861D01*
X7914513Y826984D01*
X7915597Y826162D01*
X7955188Y862642D01*
X8015961Y869736D01*
X8069297Y839754D01*
X8076146Y831457D01*
X8136784Y749295D01*
X8136785Y749294D01*
X8136789Y749289D01*
X8136792Y749287D01*
X8136793Y749286D01*
X8243023Y670885D01*
X8243024Y670885D01*
X8243025Y670884D01*
X8367651Y627275D01*
X8394941Y624716D01*
X8397233Y624501D01*
X8397238Y624500D01*
X8397244Y624500D01*
X9002762Y624500D01*
X9002765Y624501D01*
X9032349Y627275D01*
X9156975Y670884D01*
X9263211Y749289D01*
X9341616Y855525D01*
X9385225Y980151D01*
X9388000Y1009744D01*
X9388000Y1590256D01*
X9388000Y1590262D01*
X9387999Y1590267D01*
X9385225Y1619845D01*
X9385225Y1619849D01*
X9341616Y1744475D01*
X9263736Y1849999D01*
X9263214Y1850707D01*
X9263213Y1850708D01*
X9263211Y1850711D01*
X9250499Y1860093D01*
X9156976Y1929116D01*
X9133799Y1937226D01*
X9085118Y1974292D01*
X9067522Y2032892D01*
X9087731Y2090644D01*
X9138025Y2125488D01*
X9144623Y2127196D01*
X9156317Y2131288D01*
X9269475Y2170884D01*
X9375711Y2249289D01*
X9454116Y2355525D01*
X9497725Y2480151D01*
X9500500Y2509744D01*
X9500500Y3090256D01*
X9500500Y3090262D01*
X9500499Y3090267D01*
X9499609Y3099759D01*
X9497725Y3119849D01*
X9454116Y3244475D01*
X9454115Y3244477D01*
X9394845Y3324786D01*
X9375503Y3382834D01*
X9375500Y3383574D01*
X9375500Y3526680D01*
X9394407Y3584871D01*
X9404490Y3596677D01*
X9688086Y3880274D01*
X9714607Y3899209D01*
X9715338Y3899567D01*
X9715340Y3899567D01*
X9817478Y3949500D01*
X9821925Y3951674D01*
X9821925Y3951675D01*
X9821929Y3951676D01*
X9827783Y3957531D01*
X9882295Y3985307D01*
X9942727Y3975739D01*
X9977441Y3946315D01*
X9997130Y3919637D01*
X9997134Y3919633D01*
X10107489Y3838185D01*
X10236958Y3792883D01*
X10267691Y3790001D01*
X10385000Y3790001D01*
X10385000Y4301000D01*
X10403907Y4359191D01*
X10453407Y4395155D01*
X10484000Y4400000D01*
X10586000Y4400000D01*
X10644191Y4381093D01*
X10680155Y4331593D01*
X10685000Y4301000D01*
X10685000Y3790002D01*
X10685001Y3790001D01*
X10802301Y3790001D01*
X10833040Y3792883D01*
X10833046Y3792884D01*
X10967802Y3840037D01*
X11028972Y3841410D01*
X11079267Y3806566D01*
X11099475Y3748815D01*
X11099500Y3746593D01*
X11099500Y3540642D01*
X11080593Y3482451D01*
X11031093Y3446487D01*
X10969907Y3446487D01*
X10967802Y3447198D01*
X10894853Y3472724D01*
X10894844Y3472726D01*
X10865266Y3475500D01*
X10865256Y3475500D01*
X10184744Y3475500D01*
X10184733Y3475500D01*
X10155155Y3472726D01*
X10155147Y3472724D01*
X10030523Y3429116D01*
X9924293Y3350715D01*
X9924285Y3350707D01*
X9845884Y3244477D01*
X9802276Y3119853D01*
X9802274Y3119845D01*
X9799500Y3090267D01*
X9799500Y2509734D01*
X9802274Y2480156D01*
X9802276Y2480148D01*
X9845884Y2355524D01*
X9907287Y2272326D01*
X9924289Y2249289D01*
X9924292Y2249287D01*
X9924293Y2249286D01*
X10030523Y2170885D01*
X10030524Y2170885D01*
X10030525Y2170884D01*
X10108198Y2143705D01*
X10156878Y2106640D01*
X10174500Y2050261D01*
X10174500Y2036618D01*
X10155593Y1978427D01*
X10108198Y1943174D01*
X10068027Y1929118D01*
X10068021Y1929115D01*
X9961793Y1850715D01*
X9961785Y1850707D01*
X9883384Y1744477D01*
X9839776Y1619853D01*
X9839774Y1619845D01*
X9837000Y1590267D01*
X9837000Y1009734D01*
X9839774Y980156D01*
X9839776Y980148D01*
X9883384Y855524D01*
X9961785Y749294D01*
X9961789Y749289D01*
X9961792Y749287D01*
X9961793Y749286D01*
X10068023Y670885D01*
X10068024Y670885D01*
X10068025Y670884D01*
X10192651Y627275D01*
X10219941Y624716D01*
X10222233Y624501D01*
X10222238Y624500D01*
X10222244Y624500D01*
X10522388Y624500D01*
X10580579Y605593D01*
X10592391Y595504D01*
X10665762Y522134D01*
X10698386Y489510D01*
X10801113Y430201D01*
X10915691Y399501D01*
X10966194Y399501D01*
X10966210Y399500D01*
X10972273Y399500D01*
X25858790Y399500D01*
X25858806Y399501D01*
X25909307Y399501D01*
X25909309Y399501D01*
X26023887Y430201D01*
X26126614Y489511D01*
X26340964Y703861D01*
X26457608Y820504D01*
X26512124Y848281D01*
X26527611Y849500D01*
X28552725Y849500D01*
X28552727Y849500D01*
X28654588Y876793D01*
X28654590Y876795D01*
X28654592Y876795D01*
X28745908Y929517D01*
X28745908Y929518D01*
X28745913Y929520D01*
X29070480Y1254087D01*
X29114362Y1330093D01*
X29117230Y1335060D01*
X29117230Y1335063D01*
X29123206Y1345412D01*
X29123207Y1345413D01*
X29150500Y1447273D01*
X29150500Y1449276D01*
X29153096Y1458187D01*
X29166262Y1477532D01*
X29176336Y1498649D01*
X29183155Y1502352D01*
X29187523Y1508768D01*
X29209542Y1516678D01*
X29230107Y1527843D01*
X29244237Y1529141D01*
X29245106Y1529453D01*
X29245712Y1529277D01*
X29248146Y1529500D01*
X29389747Y1529500D01*
X29389748Y1529500D01*
X29448231Y1541133D01*
X29514552Y1585448D01*
X29558867Y1651769D01*
X29570500Y1710252D01*
X29570500Y2749748D01*
X29558867Y2808231D01*
X29514552Y2874552D01*
X29507558Y2879225D01*
X29444786Y2921169D01*
X29406907Y2969219D01*
X29404505Y3030357D01*
X29417471Y3058484D01*
X29490775Y3168189D01*
X29543580Y3295672D01*
X29570500Y3431007D01*
X29570500Y3568993D01*
X29543580Y3704328D01*
X29508093Y3790002D01*
X29490777Y3831807D01*
X29490771Y3831818D01*
X29414114Y3946542D01*
X29316546Y4044110D01*
X29316545Y4044111D01*
X29316542Y4044114D01*
X29303712Y4052687D01*
X29265835Y4100732D01*
X29263431Y4161871D01*
X29297423Y4212745D01*
X29303685Y4217296D01*
X29316542Y4225886D01*
X29414114Y4323458D01*
X29490775Y4438189D01*
X29543580Y4565672D01*
X29570500Y4701007D01*
X29570500Y4838993D01*
X29543580Y4974328D01*
X29525978Y5016823D01*
X29490777Y5101807D01*
X29490771Y5101818D01*
X29414114Y5216542D01*
X29316541Y5314115D01*
X29201817Y5390772D01*
X29201806Y5390778D01*
X29074328Y5443580D01*
X28938995Y5470500D01*
X28938993Y5470500D01*
X28801007Y5470500D01*
X28801004Y5470500D01*
X28665672Y5443580D01*
X28665670Y5443580D01*
X28538193Y5390778D01*
X28538182Y5390772D01*
X28423458Y5314115D01*
X28423448Y5314106D01*
X28356030Y5246688D01*
X28301513Y5218911D01*
X28276324Y5218169D01*
X28261737Y5219606D01*
X27910189Y4868059D01*
X27902851Y4895445D01*
X27860064Y4969554D01*
X27799554Y5030064D01*
X27725445Y5072851D01*
X27698055Y5080191D01*
X28049603Y5431737D01*
X27978941Y5478952D01*
X27833349Y5539258D01*
X27678795Y5570000D01*
X27521204Y5570000D01*
X27366650Y5539258D01*
X27221055Y5478951D01*
X27150395Y5431738D01*
X27501943Y5080190D01*
X27474555Y5072851D01*
X27400446Y5030064D01*
X27339936Y4969554D01*
X27297149Y4895445D01*
X27289810Y4868057D01*
X26938262Y5219605D01*
X26891049Y5148945D01*
X26830742Y5003350D01*
X26800000Y4848796D01*
X26800000Y4691205D01*
X26830742Y4536651D01*
X26891048Y4391059D01*
X26938262Y4320398D01*
X27289809Y4671945D01*
X27297149Y4644555D01*
X27339936Y4570446D01*
X27400446Y4509936D01*
X27474555Y4467149D01*
X27501941Y4459811D01*
X27150394Y4108263D01*
X27151831Y4093676D01*
X27138719Y4033913D01*
X27123312Y4013970D01*
X27055894Y3946552D01*
X27055885Y3946542D01*
X26979228Y3831818D01*
X26979222Y3831807D01*
X26926420Y3704330D01*
X26926420Y3704328D01*
X26899500Y3568996D01*
X26899500Y3431005D01*
X26926420Y3295673D01*
X26926420Y3295671D01*
X26979222Y3168194D01*
X26979228Y3168183D01*
X27031294Y3090262D01*
X27055886Y3053458D01*
X27153458Y2955886D01*
X27166286Y2947315D01*
X27204165Y2899265D01*
X27206567Y2838127D01*
X27172574Y2787253D01*
X27166293Y2782691D01*
X27153458Y2774114D01*
X27153454Y2774111D01*
X27055885Y2676542D01*
X26979228Y2561818D01*
X26979222Y2561807D01*
X26925057Y2431038D01*
X26885321Y2384512D01*
X26825826Y2370228D01*
X26769298Y2393643D01*
X26737966Y2443300D01*
X26737710Y2444254D01*
X26729799Y2473780D01*
X26729799Y2473781D01*
X26729799Y2473782D01*
X26670492Y2576504D01*
X26670490Y2576506D01*
X26670489Y2576508D01*
X26147235Y3099762D01*
X26119460Y3154276D01*
X26129031Y3214708D01*
X26147238Y3239767D01*
X26440456Y3532985D01*
X26440460Y3532989D01*
X26443180Y3537700D01*
X26480021Y3601511D01*
X26500500Y3677938D01*
X26500500Y4939562D01*
X26480021Y5015989D01*
X26459807Y5051000D01*
X26440460Y5084511D01*
X26384511Y5140461D01*
X26384511Y5140460D01*
X26099495Y5425476D01*
X26071718Y5479993D01*
X26070499Y5495480D01*
X26070499Y5909210D01*
X26070499Y5909214D01*
X26060291Y5979286D01*
X26007449Y6087375D01*
X25922375Y6172449D01*
X25922373Y6172450D01*
X25922372Y6172451D01*
X25894536Y6186059D01*
X25850562Y6228602D01*
X25839992Y6288868D01*
X25866864Y6343836D01*
X25894536Y6363941D01*
X25903215Y6368185D01*
X25922375Y6377551D01*
X26007449Y6462625D01*
X26060291Y6570714D01*
X26070500Y6640785D01*
X26070499Y7104214D01*
X26060291Y7174286D01*
X26045554Y7204430D01*
X26004984Y7287418D01*
X25996412Y7348000D01*
X26025087Y7402050D01*
X26050441Y7419838D01*
X26064429Y7426676D01*
X26148324Y7510571D01*
X26200433Y7617160D01*
X26210500Y7686258D01*
X26210500Y8178742D01*
X26200433Y8247840D01*
X26148324Y8354429D01*
X26142467Y8360286D01*
X26114692Y8414800D01*
X26124263Y8475232D01*
X26153687Y8509944D01*
X26180365Y8529633D01*
X26180367Y8529635D01*
X26261815Y8639990D01*
X26307117Y8769460D01*
X26309999Y8800189D01*
X26310000Y8800192D01*
X26310000Y8917499D01*
X26309999Y8917500D01*
X25090002Y8917500D01*
X25090001Y8917499D01*
X25090001Y8800199D01*
X25092882Y8769460D01*
X25092882Y8769459D01*
X25138235Y8639847D01*
X25139607Y8578677D01*
X25104763Y8528383D01*
X25047011Y8508175D01*
X24988411Y8525772D01*
X24974786Y8537146D01*
X24613956Y8897976D01*
X24231462Y9280470D01*
X24151538Y9326614D01*
X24120943Y9334812D01*
X25090000Y9334812D01*
X25090000Y9217501D01*
X25090001Y9217500D01*
X25549999Y9217500D01*
X25550000Y9217501D01*
X25550000Y9734999D01*
X25850000Y9734999D01*
X25850000Y9217501D01*
X25850001Y9217500D01*
X26309998Y9217500D01*
X26309999Y9217501D01*
X26309999Y9334802D01*
X26307117Y9365541D01*
X26307117Y9365542D01*
X26261815Y9495011D01*
X26180367Y9605366D01*
X26180365Y9605368D01*
X26070010Y9686816D01*
X25940540Y9732118D01*
X25909811Y9735000D01*
X25850001Y9735000D01*
X25850000Y9734999D01*
X25550000Y9734999D01*
X25550000Y9735001D01*
X25490199Y9735000D01*
X25459459Y9732118D01*
X25459458Y9732118D01*
X25329989Y9686816D01*
X25219634Y9605368D01*
X25219632Y9605366D01*
X25138184Y9495011D01*
X25092882Y9365541D01*
X25090000Y9334812D01*
X24120943Y9334812D01*
X24062394Y9350500D01*
X24062392Y9350500D01*
X24060313Y9350500D01*
X24058895Y9350961D01*
X24055960Y9351347D01*
X24056031Y9351892D01*
X24002122Y9369407D01*
X23977998Y9394498D01*
X23944554Y9444549D01*
X23944552Y9444552D01*
X23944548Y9444555D01*
X23878233Y9488866D01*
X23878231Y9488867D01*
X23878228Y9488868D01*
X23878227Y9488868D01*
X23819758Y9500499D01*
X23819748Y9500500D01*
X23180252Y9500500D01*
X23180251Y9500500D01*
X23180241Y9500499D01*
X23121772Y9488868D01*
X23121766Y9488866D01*
X23055451Y9444555D01*
X23055445Y9444549D01*
X23011134Y9378234D01*
X23011132Y9378228D01*
X22999501Y9319759D01*
X22999500Y9319747D01*
X22999500Y8680254D01*
X22999501Y8680242D01*
X23011132Y8621773D01*
X23011134Y8621767D01*
X23055746Y8555002D01*
X23072355Y8496114D01*
X23055746Y8444998D01*
X23011134Y8378234D01*
X23011132Y8378228D01*
X22999501Y8319759D01*
X22999500Y8319747D01*
X22999500Y7680254D01*
X22999501Y7680242D01*
X23011132Y7621773D01*
X23011133Y7621769D01*
X23050340Y7563093D01*
X23055746Y7555002D01*
X23072355Y7496114D01*
X23055746Y7444998D01*
X23011134Y7378234D01*
X23011132Y7378228D01*
X22999501Y7319759D01*
X22999500Y7319747D01*
X22999500Y6680254D01*
X22999501Y6680242D01*
X23011132Y6621773D01*
X23011134Y6621767D01*
X23055746Y6555002D01*
X23072355Y6496114D01*
X23055745Y6444997D01*
X23021260Y6393389D01*
X22973210Y6355510D01*
X22960099Y6352271D01*
X22960124Y6352179D01*
X22953858Y6350500D01*
X22953856Y6350500D01*
X22864712Y6326614D01*
X22784788Y6280470D01*
X22219529Y5715211D01*
X22204807Y5689711D01*
X22181591Y5649500D01*
X22181590Y5649500D01*
X22173387Y5635291D01*
X22173386Y5635289D01*
X22168472Y5616949D01*
X22150534Y5550001D01*
X22149500Y5546143D01*
X22149500Y4320442D01*
X22136236Y4270942D01*
X22080202Y4173891D01*
X22076805Y4161213D01*
X22049500Y4059309D01*
X22049500Y3940691D01*
X22060615Y3899209D01*
X22080202Y3826110D01*
X22139507Y3723392D01*
X22139509Y3723390D01*
X22139511Y3723387D01*
X22223387Y3639511D01*
X22223389Y3639510D01*
X22223391Y3639508D01*
X22326110Y3580203D01*
X22326111Y3580203D01*
X22326114Y3580201D01*
X22440691Y3549500D01*
X22440693Y3549500D01*
X22559307Y3549500D01*
X22559309Y3549500D01*
X22673886Y3580201D01*
X22673888Y3580203D01*
X22673890Y3580203D01*
X22776608Y3639508D01*
X22776608Y3639509D01*
X22776613Y3639511D01*
X22838314Y3701213D01*
X22892828Y3728989D01*
X22953260Y3719418D01*
X22996525Y3676154D01*
X22996996Y3675218D01*
X23002846Y3663430D01*
X23011133Y3621769D01*
X23055448Y3555448D01*
X23056924Y3554462D01*
X23062111Y3544010D01*
X23065693Y3519734D01*
X23072355Y3496114D01*
X23070170Y3489392D01*
X23071043Y3483480D01*
X23063666Y3469374D01*
X23055746Y3444998D01*
X23011134Y3378234D01*
X23011132Y3378228D01*
X22999501Y3319759D01*
X22999500Y3319747D01*
X22999500Y2680254D01*
X22999501Y2680242D01*
X23013035Y2612207D01*
X23011890Y2611980D01*
X23015916Y2560812D01*
X22989656Y2513921D01*
X22986079Y2510344D01*
X22931562Y2482567D01*
X22887944Y2487729D01*
X22887793Y2486965D01*
X22819758Y2500499D01*
X22819748Y2500500D01*
X22180252Y2500500D01*
X22180251Y2500500D01*
X22180241Y2500499D01*
X22121772Y2488868D01*
X22121766Y2488866D01*
X22055002Y2444254D01*
X21996114Y2427645D01*
X21944998Y2444254D01*
X21878233Y2488866D01*
X21878231Y2488867D01*
X21878228Y2488868D01*
X21878227Y2488868D01*
X21819758Y2500499D01*
X21819748Y2500500D01*
X21180252Y2500500D01*
X21180251Y2500500D01*
X21180241Y2500499D01*
X21121772Y2488868D01*
X21121766Y2488866D01*
X21055002Y2444254D01*
X20996114Y2427645D01*
X20944998Y2444254D01*
X20878233Y2488866D01*
X20878231Y2488867D01*
X20878228Y2488868D01*
X20878227Y2488868D01*
X20819758Y2500499D01*
X20819748Y2500500D01*
X20180252Y2500500D01*
X20180251Y2500500D01*
X20180241Y2500499D01*
X20121772Y2488868D01*
X20121766Y2488866D01*
X20055002Y2444254D01*
X19996114Y2427645D01*
X19944998Y2444254D01*
X19878233Y2488866D01*
X19878231Y2488867D01*
X19878228Y2488868D01*
X19878227Y2488868D01*
X19819758Y2500499D01*
X19819748Y2500500D01*
X19180252Y2500500D01*
X19180251Y2500500D01*
X19180241Y2500499D01*
X19121772Y2488868D01*
X19121766Y2488866D01*
X19055002Y2444254D01*
X18996114Y2427645D01*
X18944998Y2444254D01*
X18878233Y2488866D01*
X18878231Y2488867D01*
X18878228Y2488868D01*
X18878227Y2488868D01*
X18819758Y2500499D01*
X18819748Y2500500D01*
X18180252Y2500500D01*
X18180251Y2500500D01*
X18180241Y2500499D01*
X18121772Y2488868D01*
X18121766Y2488866D01*
X18055002Y2444254D01*
X17996114Y2427645D01*
X17944998Y2444254D01*
X17878233Y2488866D01*
X17878231Y2488867D01*
X17878228Y2488868D01*
X17878227Y2488868D01*
X17819758Y2500499D01*
X17819748Y2500500D01*
X17335189Y2500500D01*
X17276998Y2519407D01*
X17241034Y2568907D01*
X17241034Y2630093D01*
X17265185Y2669504D01*
X17446456Y2850775D01*
X17912970Y3317288D01*
X17959114Y3397212D01*
X17964684Y3418001D01*
X17968169Y3431005D01*
X17978324Y3468907D01*
X17983000Y3486356D01*
X17983000Y9929559D01*
X17996264Y9979060D01*
X18008066Y9999501D01*
X18052299Y10076114D01*
X18083000Y10190691D01*
X18083000Y10309309D01*
X18052299Y10423886D01*
X18052297Y10423889D01*
X18052297Y10423891D01*
X17992992Y10526609D01*
X17992990Y10526611D01*
X17992989Y10526613D01*
X17909113Y10610489D01*
X17909110Y10610491D01*
X17909108Y10610493D01*
X17806389Y10669798D01*
X17806390Y10669798D01*
X17767375Y10680252D01*
X17691809Y10700500D01*
X17573191Y10700500D01*
X17503067Y10681711D01*
X17458609Y10669798D01*
X17355891Y10610493D01*
X17272007Y10526609D01*
X17212702Y10423891D01*
X17200468Y10378231D01*
X17182000Y10309309D01*
X17182000Y10190691D01*
X17212701Y10076114D01*
X17249208Y10012882D01*
X17268736Y9979060D01*
X17282000Y9929559D01*
X17282000Y3718690D01*
X17263093Y3660499D01*
X17253004Y3648686D01*
X16969504Y3365186D01*
X16914987Y3337409D01*
X16854555Y3346980D01*
X16811290Y3390245D01*
X16800500Y3435190D01*
X16800500Y9529559D01*
X16813764Y9579060D01*
X16828953Y9605368D01*
X16869799Y9676114D01*
X16900500Y9790691D01*
X16900500Y9909309D01*
X16869799Y10023886D01*
X16869797Y10023889D01*
X16869797Y10023891D01*
X16810492Y10126609D01*
X16810490Y10126611D01*
X16810489Y10126613D01*
X16726613Y10210489D01*
X16726610Y10210491D01*
X16726608Y10210493D01*
X16623889Y10269798D01*
X16623890Y10269798D01*
X16610351Y10273426D01*
X16509309Y10300500D01*
X16390691Y10300500D01*
X16324690Y10282815D01*
X16276109Y10269798D01*
X16173391Y10210493D01*
X16089507Y10126609D01*
X16030202Y10023891D01*
X16030201Y10023886D01*
X15999500Y9909309D01*
X15999500Y9790691D01*
X16030201Y9676114D01*
X16061577Y9621769D01*
X16086236Y9579060D01*
X16099500Y9529559D01*
X16099500Y3636190D01*
X16080593Y3577999D01*
X16070504Y3566186D01*
X15219529Y2715211D01*
X15197203Y2676541D01*
X15185236Y2655814D01*
X15139766Y2614874D01*
X15078916Y2608479D01*
X15025928Y2639072D01*
X15001042Y2694968D01*
X15000500Y2705315D01*
X15000500Y2813811D01*
X15019407Y2872002D01*
X15029490Y2883809D01*
X15500470Y3354788D01*
X15546614Y3434712D01*
X15547710Y3438800D01*
X15555533Y3467999D01*
X15555533Y3468000D01*
X15570500Y3523856D01*
X15570500Y8242391D01*
X15589407Y8300582D01*
X15599490Y8312389D01*
X15660489Y8373387D01*
X15663286Y8378231D01*
X15719797Y8476110D01*
X15719797Y8476112D01*
X15719799Y8476114D01*
X15750500Y8590691D01*
X15750500Y8709309D01*
X15719799Y8823886D01*
X15719797Y8823889D01*
X15719797Y8823891D01*
X15660492Y8926609D01*
X15660490Y8926611D01*
X15660489Y8926613D01*
X15576613Y9010489D01*
X15576610Y9010491D01*
X15576608Y9010493D01*
X15473889Y9069798D01*
X15473890Y9069798D01*
X15460351Y9073426D01*
X15359309Y9100500D01*
X15240691Y9100500D01*
X15126114Y9069799D01*
X15126112Y9069799D01*
X15125123Y9069533D01*
X15064022Y9072735D01*
X15016472Y9111241D01*
X15000500Y9165160D01*
X15000500Y9319747D01*
X15000498Y9319759D01*
X14994291Y9350961D01*
X14988867Y9378231D01*
X14944552Y9444552D01*
X14944548Y9444555D01*
X14944253Y9444997D01*
X14927644Y9503885D01*
X14944253Y9555003D01*
X14944549Y9555447D01*
X14944552Y9555448D01*
X14988867Y9621769D01*
X15000500Y9680252D01*
X15000500Y10319748D01*
X14999701Y10323763D01*
X14992474Y10360095D01*
X14988867Y10378231D01*
X14944552Y10444552D01*
X14944549Y10444554D01*
X14944253Y10444997D01*
X14927644Y10503885D01*
X14944253Y10555003D01*
X14944549Y10555447D01*
X14944552Y10555448D01*
X14988867Y10621769D01*
X15000500Y10680252D01*
X15000500Y11319748D01*
X14988867Y11378231D01*
X14986965Y11387793D01*
X14988109Y11388021D01*
X14984082Y11439184D01*
X15010343Y11486080D01*
X15013920Y11489657D01*
X15068437Y11517434D01*
X15112055Y11512272D01*
X15112207Y11513035D01*
X15180241Y11499502D01*
X15180246Y11499502D01*
X15180252Y11499500D01*
X15180253Y11499500D01*
X15819747Y11499500D01*
X15819748Y11499500D01*
X15878231Y11511133D01*
X15944552Y11555448D01*
X15944553Y11555451D01*
X15944997Y11555747D01*
X16003885Y11572356D01*
X16055003Y11555747D01*
X16055446Y11555451D01*
X16055448Y11555448D01*
X16121769Y11511133D01*
X16166231Y11502289D01*
X16180241Y11499502D01*
X16180246Y11499502D01*
X16180252Y11499500D01*
X16180253Y11499500D01*
X16819747Y11499500D01*
X16819748Y11499500D01*
X16878231Y11511133D01*
X16944552Y11555448D01*
X16944553Y11555451D01*
X16944997Y11555747D01*
X17003885Y11572356D01*
X17055003Y11555747D01*
X17055446Y11555451D01*
X17055448Y11555448D01*
X17121769Y11511133D01*
X17166231Y11502289D01*
X17180241Y11499502D01*
X17180246Y11499502D01*
X17180252Y11499500D01*
X17180253Y11499500D01*
X17819747Y11499500D01*
X17819748Y11499500D01*
X17878231Y11511133D01*
X17944552Y11555448D01*
X17944553Y11555451D01*
X17944997Y11555747D01*
X18003885Y11572356D01*
X18055003Y11555747D01*
X18055446Y11555451D01*
X18055448Y11555448D01*
X18121769Y11511133D01*
X18166231Y11502289D01*
X18180241Y11499502D01*
X18180246Y11499502D01*
X18180252Y11499500D01*
X18180253Y11499500D01*
X18819747Y11499500D01*
X18819748Y11499500D01*
X18878231Y11511133D01*
X18944552Y11555448D01*
X18944553Y11555451D01*
X18944997Y11555747D01*
X19003885Y11572356D01*
X19055003Y11555747D01*
X19055446Y11555451D01*
X19055448Y11555448D01*
X19121769Y11511133D01*
X19166231Y11502289D01*
X19180241Y11499502D01*
X19180246Y11499502D01*
X19180252Y11499500D01*
X19180253Y11499500D01*
X19819747Y11499500D01*
X19819748Y11499500D01*
X19878231Y11511133D01*
X19944552Y11555448D01*
X19944553Y11555451D01*
X19944997Y11555747D01*
X20003885Y11572356D01*
X20055003Y11555747D01*
X20055446Y11555451D01*
X20055448Y11555448D01*
X20121769Y11511133D01*
X20166231Y11502289D01*
X20180241Y11499502D01*
X20180246Y11499502D01*
X20180252Y11499500D01*
X20180253Y11499500D01*
X20819747Y11499500D01*
X20819748Y11499500D01*
X20878231Y11511133D01*
X20944552Y11555448D01*
X20944553Y11555451D01*
X20944997Y11555747D01*
X21003885Y11572356D01*
X21055003Y11555747D01*
X21055446Y11555451D01*
X21055448Y11555448D01*
X21121769Y11511133D01*
X21166231Y11502289D01*
X21180241Y11499502D01*
X21180246Y11499502D01*
X21180252Y11499500D01*
X21180253Y11499500D01*
X21819747Y11499500D01*
X21819748Y11499500D01*
X21878231Y11511133D01*
X21944552Y11555448D01*
X21988867Y11621769D01*
X22000500Y11680252D01*
X22000500Y12063810D01*
X22019407Y12122001D01*
X22029496Y12133814D01*
X22416186Y12520504D01*
X22470703Y12548281D01*
X22486190Y12549500D01*
X23446142Y12549500D01*
X23446144Y12549500D01*
X23535288Y12573386D01*
X23540873Y12576611D01*
X23540878Y12576612D01*
X23540878Y12576613D01*
X23576346Y12597091D01*
X23615212Y12619530D01*
X25280470Y14284788D01*
X25326614Y14364712D01*
X25331744Y14383856D01*
X25341304Y14419532D01*
X25352179Y14460122D01*
X25354250Y14459567D01*
X25376436Y14506103D01*
X25393259Y14520284D01*
X25414809Y14534683D01*
X25446540Y14555884D01*
X25544106Y14653450D01*
X25544110Y14653454D01*
X25544114Y14653458D01*
X25620775Y14768189D01*
X25673580Y14895672D01*
X25700500Y15031007D01*
X25700500Y15168993D01*
X25673580Y15304328D01*
X25620775Y15431811D01*
X25620774Y15431813D01*
X25620771Y15431818D01*
X25544114Y15546542D01*
X25446541Y15644115D01*
X25331817Y15720772D01*
X25331806Y15720778D01*
X25204328Y15773580D01*
X25068995Y15800500D01*
X25068993Y15800500D01*
X24931007Y15800500D01*
X24931004Y15800500D01*
X24795672Y15773580D01*
X24795670Y15773580D01*
X24668193Y15720778D01*
X24668182Y15720772D01*
X24553458Y15644115D01*
X24455889Y15546546D01*
X24455886Y15546542D01*
X24447315Y15533714D01*
X24399265Y15495835D01*
X24338127Y15493433D01*
X24287253Y15527426D01*
X24282685Y15533714D01*
X24274114Y15546542D01*
X24176542Y15644114D01*
X24176541Y15644115D01*
X24061817Y15720772D01*
X24061806Y15720778D01*
X23934328Y15773580D01*
X23798995Y15800500D01*
X23798993Y15800500D01*
X23661007Y15800500D01*
X23661004Y15800500D01*
X23525672Y15773580D01*
X23525670Y15773580D01*
X23398193Y15720778D01*
X23398182Y15720772D01*
X23283458Y15644115D01*
X23185889Y15546546D01*
X23185886Y15546542D01*
X23177315Y15533714D01*
X23129265Y15495835D01*
X23068127Y15493433D01*
X23017253Y15527426D01*
X23012685Y15533714D01*
X23004114Y15546542D01*
X22906542Y15644114D01*
X22906541Y15644115D01*
X22791817Y15720772D01*
X22791806Y15720778D01*
X22664328Y15773580D01*
X22528995Y15800500D01*
X22528993Y15800500D01*
X22391007Y15800500D01*
X22391004Y15800500D01*
X22255672Y15773580D01*
X22255670Y15773580D01*
X22128193Y15720778D01*
X22128182Y15720772D01*
X22013458Y15644115D01*
X21915889Y15546546D01*
X21915886Y15546542D01*
X21907315Y15533714D01*
X21859265Y15495835D01*
X21798127Y15493433D01*
X21747253Y15527426D01*
X21742685Y15533714D01*
X21734114Y15546542D01*
X21636542Y15644114D01*
X21636541Y15644115D01*
X21521817Y15720772D01*
X21521806Y15720778D01*
X21394328Y15773580D01*
X21258995Y15800500D01*
X21258993Y15800500D01*
X21121007Y15800500D01*
X21121004Y15800500D01*
X20985672Y15773580D01*
X20985670Y15773580D01*
X20858193Y15720778D01*
X20858182Y15720772D01*
X20743458Y15644115D01*
X20645889Y15546546D01*
X20645886Y15546542D01*
X20637315Y15533714D01*
X20589265Y15495835D01*
X20528127Y15493433D01*
X20477253Y15527426D01*
X20472685Y15533714D01*
X20464114Y15546542D01*
X20366542Y15644114D01*
X20366541Y15644115D01*
X20251817Y15720772D01*
X20251806Y15720778D01*
X20124328Y15773580D01*
X19988995Y15800500D01*
X19988993Y15800500D01*
X19851007Y15800500D01*
X19851004Y15800500D01*
X19715672Y15773580D01*
X19715670Y15773580D01*
X19588193Y15720778D01*
X19588182Y15720772D01*
X19473458Y15644115D01*
X19375889Y15546546D01*
X19375886Y15546542D01*
X19367315Y15533714D01*
X19319265Y15495835D01*
X19258127Y15493433D01*
X19207253Y15527426D01*
X19202685Y15533714D01*
X19194114Y15546542D01*
X19096542Y15644114D01*
X19096541Y15644115D01*
X18981817Y15720772D01*
X18981806Y15720778D01*
X18854328Y15773580D01*
X18718995Y15800500D01*
X18718993Y15800500D01*
X18581007Y15800500D01*
X18581003Y15800500D01*
X18576166Y15800023D01*
X18575954Y15802175D01*
X18523232Y15809467D01*
X18496433Y15828538D01*
X18203911Y16121060D01*
X17784511Y16540460D01*
X17784508Y16540462D01*
X17715992Y16580020D01*
X17715988Y16580022D01*
X17639564Y16600500D01*
X17639562Y16600500D01*
X12202062Y16600500D01*
X12122938Y16600500D01*
X12076161Y16587967D01*
X12046507Y16580021D01*
X11977993Y16540464D01*
X11977988Y16540460D01*
X11897124Y16459596D01*
X11842607Y16431819D01*
X11827121Y16430600D01*
X11309733Y16430600D01*
X11280155Y16427826D01*
X11280147Y16427824D01*
X11155523Y16384216D01*
X11049293Y16305815D01*
X11049285Y16305807D01*
X10970884Y16199577D01*
X10927276Y16074953D01*
X10927274Y16074945D01*
X10924500Y16045367D01*
X10924500Y15464834D01*
X10927274Y15435256D01*
X10927276Y15435248D01*
X10970884Y15310624D01*
X11014378Y15251692D01*
X11049289Y15204389D01*
X11049292Y15204387D01*
X11049293Y15204386D01*
X11155523Y15125985D01*
X11155524Y15125985D01*
X11155525Y15125984D01*
X11183923Y15116047D01*
X11233942Y15098544D01*
X11282623Y15061478D01*
X11300219Y15002878D01*
X11280010Y14945126D01*
X11233942Y14911656D01*
X11155523Y14884216D01*
X11049293Y14805815D01*
X11049285Y14805807D01*
X10970884Y14699577D01*
X10927276Y14574953D01*
X10927274Y14574945D01*
X10924500Y14545367D01*
X10924500Y13964834D01*
X10927274Y13935256D01*
X10927276Y13935248D01*
X10970884Y13810624D01*
X11037639Y13720174D01*
X11049289Y13704389D01*
X11049292Y13704387D01*
X11049293Y13704386D01*
X11155523Y13625985D01*
X11155524Y13625985D01*
X11155525Y13625984D01*
X11280151Y13582375D01*
X11307441Y13579816D01*
X11309733Y13579601D01*
X11309738Y13579600D01*
X11309744Y13579600D01*
X11915262Y13579600D01*
X11915265Y13579601D01*
X11944849Y13582375D01*
X12069475Y13625984D01*
X12175711Y13704389D01*
X12254116Y13810625D01*
X12297725Y13935251D01*
X12300500Y13964844D01*
X12300500Y14484522D01*
X12319407Y14542713D01*
X12329490Y14554520D01*
X12690460Y14915489D01*
X12690462Y14915494D01*
X12690464Y14915495D01*
X12691958Y14917441D01*
X12693406Y14918437D01*
X12695048Y14920078D01*
X12695352Y14919774D01*
X12742382Y14952097D01*
X12803547Y14950496D01*
X12852088Y14913248D01*
X12869500Y14857174D01*
X12869500Y14580254D01*
X12869501Y14580242D01*
X12881132Y14521773D01*
X12881134Y14521767D01*
X12925445Y14455452D01*
X12925448Y14455448D01*
X12991769Y14411133D01*
X13036231Y14402289D01*
X13050241Y14399502D01*
X13050246Y14399502D01*
X13050252Y14399500D01*
X13139343Y14399500D01*
X13197534Y14380593D01*
X13233498Y14331093D01*
X13234963Y14326145D01*
X13243386Y14294712D01*
X13289530Y14214788D01*
X14013844Y13490474D01*
X14735314Y12769004D01*
X14763091Y12714487D01*
X14753520Y12654055D01*
X14710255Y12610790D01*
X14665310Y12600000D01*
X14650001Y12600000D01*
X14650000Y12599999D01*
X14650000Y12099000D01*
X14631093Y12040809D01*
X14581593Y12004845D01*
X14551000Y12000000D01*
X14500001Y12000000D01*
X14500000Y11999999D01*
X14500000Y11949000D01*
X14481093Y11890809D01*
X14431593Y11854845D01*
X14401000Y11850000D01*
X13900002Y11850000D01*
X13900001Y11849999D01*
X13900001Y11774500D01*
X13881094Y11716309D01*
X13831594Y11680345D01*
X13801001Y11675500D01*
X12973496Y11675500D01*
X12915305Y11694407D01*
X12882839Y11738053D01*
X12882582Y11737917D01*
X12881702Y11739582D01*
X12880052Y11741800D01*
X12879116Y11744475D01*
X12879114Y11744477D01*
X12879114Y11744479D01*
X12800714Y11850707D01*
X12800713Y11850708D01*
X12800711Y11850711D01*
X12746380Y11890809D01*
X12694476Y11929116D01*
X12569852Y11972724D01*
X12569851Y11972725D01*
X12569849Y11972725D01*
X12569847Y11972726D01*
X12569844Y11972726D01*
X12540266Y11975500D01*
X12540256Y11975500D01*
X11934744Y11975500D01*
X11934733Y11975500D01*
X11905155Y11972726D01*
X11905147Y11972724D01*
X11780523Y11929116D01*
X11674293Y11850715D01*
X11674285Y11850707D01*
X11595884Y11744477D01*
X11552276Y11619853D01*
X11552274Y11619845D01*
X11549500Y11590267D01*
X11549500Y11009734D01*
X11552274Y10980156D01*
X11552276Y10980148D01*
X11595884Y10855524D01*
X11674285Y10749294D01*
X11674289Y10749289D01*
X11674292Y10749287D01*
X11674293Y10749286D01*
X11780523Y10670885D01*
X11780524Y10670885D01*
X11780525Y10670884D01*
X11905151Y10627275D01*
X11932441Y10624716D01*
X11934733Y10624501D01*
X11934738Y10624500D01*
X11934744Y10624500D01*
X12540262Y10624500D01*
X12540265Y10624501D01*
X12569849Y10627275D01*
X12694475Y10670884D01*
X12800711Y10749289D01*
X12863443Y10834288D01*
X12913210Y10869881D01*
X12943098Y10874500D01*
X13900500Y10874500D01*
X13958691Y10855593D01*
X13994655Y10806093D01*
X13999500Y10775500D01*
X13999500Y10680254D01*
X13999501Y10680242D01*
X14011132Y10621773D01*
X14011134Y10621767D01*
X14055746Y10555002D01*
X14072355Y10496114D01*
X14055746Y10444997D01*
X14055449Y10444553D01*
X14055448Y10444552D01*
X14039595Y10420826D01*
X14010850Y10377808D01*
X13962799Y10339929D01*
X13954159Y10337185D01*
X13914714Y10326616D01*
X13834784Y10280468D01*
X13673812Y10119496D01*
X13619296Y10091719D01*
X13603809Y10090500D01*
X9876284Y10090500D01*
X9700766Y10067393D01*
X9529765Y10021574D01*
X9366216Y9953830D01*
X9212890Y9865308D01*
X9072444Y9757540D01*
X9072440Y9757537D01*
X9034437Y9719532D01*
X9034437Y9719531D01*
X8634893Y9319987D01*
X8599073Y9284168D01*
X8591875Y9277645D01*
X8504753Y9206145D01*
X8488616Y9195363D01*
X8393527Y9144537D01*
X8375596Y9137110D01*
X8272414Y9105811D01*
X8253381Y9102025D01*
X8141217Y9090977D01*
X8131513Y9090500D01*
X7804075Y9090500D01*
X7794371Y9090977D01*
X7682206Y9102025D01*
X7663173Y9105811D01*
X7559991Y9137110D01*
X7542062Y9144536D01*
X7446969Y9195365D01*
X7430832Y9206147D01*
X7411693Y9221855D01*
X7378707Y9273387D01*
X7375500Y9298381D01*
X7375500Y9854273D01*
X7375499Y9854275D01*
X7372646Y9884695D01*
X7372646Y9884699D01*
X7327793Y10012882D01*
X7321378Y10021574D01*
X7247154Y10122145D01*
X7247152Y10122147D01*
X7247150Y10122150D01*
X7247146Y10122153D01*
X7247144Y10122155D01*
X7137883Y10202793D01*
X7009703Y10247645D01*
X7009694Y10247647D01*
X6979274Y10250500D01*
X6979266Y10250500D01*
X4870734Y10250500D01*
X4870725Y10250500D01*
X4840305Y10247647D01*
X4840296Y10247645D01*
X4712116Y10202793D01*
X4602855Y10122155D01*
X4602845Y10122145D01*
X4522207Y10012884D01*
X4477355Y9884704D01*
X4477353Y9884695D01*
X4474500Y9854275D01*
X200485Y9854275D01*
X200487Y10878845D01*
X2374500Y10878845D01*
X2374500Y10721156D01*
X2405263Y10566504D01*
X2405263Y10566502D01*
X2465603Y10420826D01*
X2465609Y10420815D01*
X2506182Y10360095D01*
X2553211Y10289711D01*
X2664711Y10178211D01*
X2741933Y10126613D01*
X2795814Y10090610D01*
X2795825Y10090604D01*
X2830808Y10076114D01*
X2941503Y10030263D01*
X3096158Y9999500D01*
X3096159Y9999500D01*
X3253841Y9999500D01*
X3253842Y9999500D01*
X3408497Y10030263D01*
X3554179Y10090606D01*
X3685289Y10178211D01*
X3796789Y10289711D01*
X3884394Y10420821D01*
X3944737Y10566503D01*
X3975500Y10721158D01*
X3975500Y10878842D01*
X3944737Y11033497D01*
X3884394Y11179179D01*
X3884393Y11179181D01*
X3884390Y11179186D01*
X3849017Y11232124D01*
X3796789Y11310289D01*
X3685289Y11421789D01*
X3613587Y11469699D01*
X3554185Y11509391D01*
X3554174Y11509397D01*
X3408497Y11569737D01*
X3253844Y11600500D01*
X3253842Y11600500D01*
X3096158Y11600500D01*
X3096155Y11600500D01*
X2941503Y11569737D01*
X2941501Y11569737D01*
X2795825Y11509397D01*
X2795814Y11509391D01*
X2664711Y11421789D01*
X2664707Y11421786D01*
X2553214Y11310293D01*
X2553211Y11310289D01*
X2465609Y11179186D01*
X2465603Y11179175D01*
X2405263Y11033499D01*
X2405263Y11033497D01*
X2374500Y10878845D01*
X200487Y10878845D01*
X200489Y11849999D01*
X4375000Y11849999D01*
X4375000Y11656936D01*
X4385613Y11568557D01*
X4441080Y11427905D01*
X4532435Y11307436D01*
X4652904Y11216081D01*
X4793556Y11160614D01*
X4881935Y11150001D01*
X4881942Y11150000D01*
X5774999Y11150000D01*
X5775000Y11150001D01*
X5775000Y11849999D01*
X6075000Y11849999D01*
X6075000Y11150001D01*
X6075001Y11150000D01*
X6968058Y11150000D01*
X6968064Y11150001D01*
X7056443Y11160614D01*
X7197095Y11216081D01*
X7317564Y11307436D01*
X7408919Y11427905D01*
X7464386Y11568557D01*
X7474999Y11656936D01*
X7475000Y11656942D01*
X7475000Y11849999D01*
X7474999Y11850000D01*
X6075001Y11850000D01*
X6075000Y11849999D01*
X5775000Y11849999D01*
X5774999Y11850000D01*
X4375001Y11850000D01*
X4375000Y11849999D01*
X200489Y11849999D01*
X200490Y12343065D01*
X4375000Y12343065D01*
X4375000Y12150001D01*
X4375001Y12150000D01*
X5774999Y12150000D01*
X5775000Y12150001D01*
X5775000Y12849999D01*
X6075000Y12849999D01*
X6075000Y12150001D01*
X6075001Y12150000D01*
X7474999Y12150000D01*
X7475000Y12150001D01*
X7475000Y12343059D01*
X7474999Y12343065D01*
X7464386Y12431444D01*
X7408919Y12572098D01*
X7398158Y12586288D01*
X7398157Y12586289D01*
X7383893Y12605099D01*
X7800000Y12605099D01*
X7800000Y12475518D01*
X7810373Y12389142D01*
X7864576Y12251692D01*
X7864579Y12251688D01*
X7953854Y12133961D01*
X7953860Y12133955D01*
X8071587Y12044680D01*
X8071591Y12044677D01*
X8209041Y11990474D01*
X8295417Y11980101D01*
X8295424Y11980100D01*
X8474999Y11980100D01*
X8475000Y11980101D01*
X8475000Y12605099D01*
X8775000Y12605099D01*
X8775000Y11980101D01*
X8775001Y11980100D01*
X8954576Y11980100D01*
X8954582Y11980101D01*
X9040958Y11990474D01*
X9178408Y12044677D01*
X9178412Y12044680D01*
X9296139Y12133955D01*
X9296145Y12133961D01*
X9385420Y12251688D01*
X9385423Y12251692D01*
X9439626Y12389142D01*
X9449999Y12475518D01*
X9450000Y12475524D01*
X9450000Y12605099D01*
X9449999Y12605100D01*
X8775001Y12605100D01*
X8775000Y12605099D01*
X8475000Y12605099D01*
X8474999Y12605100D01*
X7800001Y12605100D01*
X7800000Y12605099D01*
X7383893Y12605099D01*
X7317568Y12692561D01*
X7317564Y12692565D01*
X7197095Y12783920D01*
X7056443Y12839387D01*
X6968064Y12850000D01*
X6075001Y12850000D01*
X6075000Y12849999D01*
X5775000Y12849999D01*
X5774999Y12850000D01*
X4881935Y12850000D01*
X4793556Y12839387D01*
X4652904Y12783920D01*
X4532435Y12692565D01*
X4441080Y12572096D01*
X4385613Y12431444D01*
X4375000Y12343065D01*
X200490Y12343065D01*
X200495Y14350000D01*
X1133176Y14350000D01*
X1949318Y14350000D01*
X1925000Y14259244D01*
X1925000Y14140756D01*
X1949318Y14050000D01*
X1133176Y14050000D01*
X1155778Y13907290D01*
X1155779Y13907286D01*
X1216576Y13720174D01*
X1216578Y13720171D01*
X1305903Y13544858D01*
X1305907Y13544852D01*
X1421549Y13385686D01*
X1560685Y13246550D01*
X1719851Y13130908D01*
X1719857Y13130904D01*
X1895170Y13041579D01*
X1895173Y13041577D01*
X2082285Y12980780D01*
X2082289Y12980779D01*
X2276620Y12950000D01*
X3024999Y12950000D01*
X3025000Y12950001D01*
X3025000Y13750000D01*
X3325000Y13750000D01*
X3325000Y12950001D01*
X3325001Y12950000D01*
X4073380Y12950000D01*
X4267710Y12980779D01*
X4267714Y12980780D01*
X4454826Y13041577D01*
X4454829Y13041579D01*
X4630142Y13130904D01*
X4630148Y13130908D01*
X4789314Y13246550D01*
X4928450Y13385686D01*
X5044092Y13544852D01*
X5044096Y13544858D01*
X5133421Y13720171D01*
X5133423Y13720174D01*
X5194220Y13907286D01*
X5194221Y13907290D01*
X5216824Y14050000D01*
X4400682Y14050000D01*
X4415446Y14105099D01*
X5700000Y14105099D01*
X5700000Y13975518D01*
X5710373Y13889142D01*
X5764576Y13751692D01*
X5764579Y13751688D01*
X5853854Y13633961D01*
X5853860Y13633955D01*
X5971587Y13544680D01*
X5971591Y13544677D01*
X6109041Y13490474D01*
X6195417Y13480101D01*
X6195424Y13480100D01*
X6374999Y13480100D01*
X6375000Y13480101D01*
X6375000Y14105099D01*
X6675000Y14105099D01*
X6675000Y13480101D01*
X6675001Y13480100D01*
X6854576Y13480100D01*
X6854582Y13480101D01*
X6940958Y13490474D01*
X7078408Y13544677D01*
X7078412Y13544680D01*
X7196139Y13633955D01*
X7196145Y13633961D01*
X7285420Y13751688D01*
X7285423Y13751692D01*
X7339626Y13889142D01*
X7349999Y13975518D01*
X7350000Y13975524D01*
X7350000Y14105099D01*
X7349999Y14105100D01*
X6675001Y14105100D01*
X6675000Y14105099D01*
X6375000Y14105099D01*
X6374999Y14105100D01*
X5700001Y14105100D01*
X5700000Y14105099D01*
X4415446Y14105099D01*
X4425000Y14140756D01*
X4425000Y14259244D01*
X4400682Y14350000D01*
X5216824Y14350000D01*
X5194221Y14492711D01*
X5194220Y14492715D01*
X5133423Y14679827D01*
X5133421Y14679830D01*
X5044096Y14855143D01*
X5044092Y14855149D01*
X4928450Y15014315D01*
X4789314Y15153451D01*
X4630148Y15269093D01*
X4630142Y15269097D01*
X4454829Y15358422D01*
X4454826Y15358424D01*
X4267714Y15419221D01*
X4267710Y15419222D01*
X4073380Y15450000D01*
X3325001Y15450000D01*
X3325000Y15449999D01*
X3325000Y14650000D01*
X3025000Y14650000D01*
X3025000Y15449999D01*
X3024999Y15450000D01*
X2276620Y15450000D01*
X2082289Y15419222D01*
X2082285Y15419221D01*
X1895173Y15358424D01*
X1895170Y15358422D01*
X1719857Y15269097D01*
X1719851Y15269093D01*
X1560685Y15153451D01*
X1421549Y15014315D01*
X1305907Y14855149D01*
X1305903Y14855143D01*
X1216578Y14679830D01*
X1216576Y14679827D01*
X1155779Y14492715D01*
X1155778Y14492711D01*
X1133176Y14350000D01*
X200495Y14350000D01*
X200498Y15605099D01*
X5700000Y15605099D01*
X5700000Y15475518D01*
X5710373Y15389142D01*
X5764576Y15251692D01*
X5764579Y15251688D01*
X5853854Y15133961D01*
X5853857Y15133958D01*
X5919757Y15083984D01*
X5954699Y15033757D01*
X5953445Y14972585D01*
X5919757Y14926216D01*
X5853857Y14876243D01*
X5853854Y14876240D01*
X5764579Y14758513D01*
X5764576Y14758509D01*
X5710373Y14621059D01*
X5700000Y14534683D01*
X5700000Y14405101D01*
X5700001Y14405100D01*
X6374999Y14405100D01*
X6375000Y14405101D01*
X6375000Y15605099D01*
X6675000Y15605099D01*
X6675000Y14405101D01*
X6675001Y14405100D01*
X7349999Y14405100D01*
X7350000Y14405101D01*
X7350000Y14534677D01*
X7349999Y14534683D01*
X7339626Y14621059D01*
X7285423Y14758509D01*
X7285420Y14758513D01*
X7196145Y14876240D01*
X7196139Y14876246D01*
X7130243Y14926216D01*
X7095301Y14976442D01*
X7096554Y15037615D01*
X7130243Y15083984D01*
X7196139Y15133955D01*
X7196145Y15133961D01*
X7285420Y15251688D01*
X7285423Y15251692D01*
X7339626Y15389142D01*
X7349999Y15475518D01*
X7350000Y15475524D01*
X7350000Y15605099D01*
X7349999Y15605100D01*
X6675001Y15605100D01*
X6675000Y15605099D01*
X6375000Y15605099D01*
X6374999Y15605100D01*
X5700001Y15605100D01*
X5700000Y15605099D01*
X200498Y15605099D01*
X200499Y16034683D01*
X5700000Y16034683D01*
X5700000Y15905101D01*
X5700001Y15905100D01*
X6374999Y15905100D01*
X6375000Y15905101D01*
X6375000Y16530099D01*
X6675000Y16530099D01*
X6675000Y15905101D01*
X6675001Y15905100D01*
X7349999Y15905100D01*
X7350000Y15905101D01*
X7350000Y16034677D01*
X7349858Y16035858D01*
X7349858Y16035861D01*
X7349857Y16035867D01*
X7348716Y16045367D01*
X7549500Y16045367D01*
X7549500Y15464834D01*
X7552274Y15435256D01*
X7552276Y15435248D01*
X7595884Y15310624D01*
X7639378Y15251692D01*
X7674289Y15204389D01*
X7674292Y15204387D01*
X7674293Y15204386D01*
X7780523Y15125985D01*
X7780524Y15125985D01*
X7780525Y15125984D01*
X7808923Y15116047D01*
X7858942Y15098544D01*
X7907623Y15061478D01*
X7925219Y15002878D01*
X7905010Y14945126D01*
X7858942Y14911656D01*
X7780523Y14884216D01*
X7674293Y14805815D01*
X7674285Y14805807D01*
X7595884Y14699577D01*
X7552276Y14574953D01*
X7552274Y14574945D01*
X7549500Y14545367D01*
X7549500Y13964834D01*
X7552274Y13935256D01*
X7552276Y13935248D01*
X7595884Y13810624D01*
X7662639Y13720174D01*
X7674289Y13704389D01*
X7674292Y13704387D01*
X7674293Y13704386D01*
X7780523Y13625985D01*
X7780524Y13625985D01*
X7780525Y13625984D01*
X7905151Y13582375D01*
X7915682Y13581388D01*
X7937050Y13579383D01*
X7936906Y13577858D01*
X7989222Y13558539D01*
X8023198Y13507655D01*
X8020777Y13446517D01*
X7987728Y13401930D01*
X7953863Y13376249D01*
X7953854Y13376240D01*
X7864579Y13258513D01*
X7864576Y13258509D01*
X7810373Y13121059D01*
X7800000Y13034683D01*
X7800000Y12905101D01*
X7800001Y12905100D01*
X9449999Y12905100D01*
X9450000Y12905101D01*
X9450000Y13034677D01*
X9449999Y13034683D01*
X9439626Y13121059D01*
X9385423Y13258509D01*
X9385420Y13258513D01*
X9296145Y13376240D01*
X9296139Y13376246D01*
X9178412Y13465521D01*
X9178408Y13465524D01*
X9040958Y13519727D01*
X8954582Y13530100D01*
X8940415Y13530100D01*
X8882224Y13549007D01*
X8846260Y13598507D01*
X8846260Y13659693D01*
X8859439Y13686056D01*
X8868688Y13699207D01*
X8875711Y13704389D01*
X8954116Y13810625D01*
X8961104Y13830597D01*
X8969024Y13841856D01*
X8983021Y13852358D01*
X8993621Y13866278D01*
X9006887Y13870262D01*
X9017967Y13878574D01*
X9035462Y13878843D01*
X9052221Y13883875D01*
X9065294Y13879301D01*
X9079145Y13879513D01*
X9093457Y13869446D01*
X9109973Y13863667D01*
X9118646Y13851729D01*
X9129191Y13844312D01*
X9133775Y13830907D01*
X9143443Y13817599D01*
X9145707Y13811129D01*
X9145885Y13810622D01*
X9212639Y13720174D01*
X9224289Y13704389D01*
X9224292Y13704387D01*
X9224293Y13704386D01*
X9330523Y13625985D01*
X9330524Y13625985D01*
X9330525Y13625984D01*
X9455151Y13582375D01*
X9482441Y13579816D01*
X9484733Y13579601D01*
X9484738Y13579600D01*
X9856228Y13579600D01*
X9914419Y13560693D01*
X9950383Y13511193D01*
X9950383Y13450007D01*
X9914419Y13400507D01*
X9888927Y13387156D01*
X9880522Y13384216D01*
X9774293Y13305815D01*
X9774285Y13305807D01*
X9695884Y13199577D01*
X9652276Y13074953D01*
X9652274Y13074945D01*
X9649500Y13045367D01*
X9649500Y12464834D01*
X9652274Y12435256D01*
X9652274Y12435253D01*
X9652275Y12435251D01*
X9652275Y12435249D01*
X9652276Y12435248D01*
X9695884Y12310624D01*
X9739378Y12251692D01*
X9774289Y12204389D01*
X9774292Y12204387D01*
X9774293Y12204386D01*
X9880521Y12125986D01*
X9880523Y12125986D01*
X9880525Y12125984D01*
X9908198Y12116301D01*
X9956878Y12079237D01*
X9974500Y12022857D01*
X9974500Y11993099D01*
X9955593Y11934908D01*
X9934289Y11913444D01*
X9849291Y11850713D01*
X9849285Y11850707D01*
X9770884Y11744477D01*
X9727276Y11619853D01*
X9727274Y11619845D01*
X9724500Y11590267D01*
X9724500Y11009734D01*
X9727274Y10980156D01*
X9727276Y10980148D01*
X9770884Y10855524D01*
X9849285Y10749294D01*
X9849289Y10749289D01*
X9849292Y10749287D01*
X9849293Y10749286D01*
X9955523Y10670885D01*
X9955524Y10670885D01*
X9955525Y10670884D01*
X10080151Y10627275D01*
X10107441Y10624716D01*
X10109733Y10624501D01*
X10109738Y10624500D01*
X10109744Y10624500D01*
X10715262Y10624500D01*
X10715265Y10624501D01*
X10744849Y10627275D01*
X10869475Y10670884D01*
X10975711Y10749289D01*
X11054116Y10855525D01*
X11097725Y10980151D01*
X11100500Y11009744D01*
X11100500Y11590256D01*
X11100500Y11590262D01*
X11100499Y11590267D01*
X11097725Y11619845D01*
X11097725Y11619849D01*
X11054116Y11744475D01*
X11054113Y11744479D01*
X10975714Y11850707D01*
X10975713Y11850708D01*
X10975711Y11850711D01*
X10970110Y11854845D01*
X10869478Y11929115D01*
X10869471Y11929118D01*
X10855212Y11934108D01*
X10806533Y11971175D01*
X10788938Y12029775D01*
X10809148Y12087527D01*
X10855215Y12120995D01*
X10869475Y12125984D01*
X10975711Y12204389D01*
X11054116Y12310625D01*
X11066074Y12344798D01*
X13900000Y12344798D01*
X13900000Y12150001D01*
X13900001Y12150000D01*
X14349999Y12150000D01*
X14350000Y12150001D01*
X14350000Y12599999D01*
X14349999Y12600000D01*
X14155210Y12600000D01*
X14155207Y12599999D01*
X14130125Y12597091D01*
X14027522Y12551787D01*
X13948213Y12472478D01*
X13902909Y12369873D01*
X13900000Y12344798D01*
X11066074Y12344798D01*
X11097725Y12435251D01*
X11100500Y12464844D01*
X11100500Y13045356D01*
X11100500Y13045362D01*
X11100499Y13045367D01*
X11097725Y13074945D01*
X11097725Y13074949D01*
X11054116Y13199575D01*
X11034160Y13226614D01*
X10975714Y13305807D01*
X10975713Y13305808D01*
X10975711Y13305811D01*
X10975706Y13305815D01*
X10869476Y13384216D01*
X10744852Y13427824D01*
X10744851Y13427825D01*
X10744849Y13427825D01*
X10744847Y13427826D01*
X10744844Y13427826D01*
X10715266Y13430600D01*
X10715256Y13430600D01*
X10268772Y13430600D01*
X10210581Y13449507D01*
X10174617Y13499007D01*
X10174617Y13560193D01*
X10210581Y13609693D01*
X10236073Y13623044D01*
X10244475Y13625984D01*
X10244475Y13625985D01*
X10244477Y13625985D01*
X10287841Y13657990D01*
X10350711Y13704389D01*
X10429116Y13810625D01*
X10472725Y13935251D01*
X10475500Y13964844D01*
X10475500Y14545356D01*
X10475500Y14545362D01*
X10475499Y14545367D01*
X10474513Y14555884D01*
X10472725Y14574949D01*
X10429116Y14699575D01*
X10428433Y14700500D01*
X10350714Y14805807D01*
X10350713Y14805808D01*
X10350711Y14805811D01*
X10350706Y14805815D01*
X10244476Y14884216D01*
X10166057Y14911656D01*
X10117377Y14948721D01*
X10099780Y15007322D01*
X10119988Y15065073D01*
X10166057Y15098544D01*
X10172193Y15100692D01*
X10244475Y15125984D01*
X10350711Y15204389D01*
X10429116Y15310625D01*
X10472725Y15435251D01*
X10475500Y15464844D01*
X10475500Y16045356D01*
X10475500Y16045362D01*
X10475499Y16045367D01*
X10472725Y16074945D01*
X10472725Y16074949D01*
X10429116Y16199575D01*
X10428433Y16200500D01*
X10350714Y16305807D01*
X10350713Y16305808D01*
X10350711Y16305811D01*
X10350706Y16305815D01*
X10244476Y16384216D01*
X10119852Y16427824D01*
X10119851Y16427825D01*
X10119849Y16427825D01*
X10119847Y16427826D01*
X10119844Y16427826D01*
X10090266Y16430600D01*
X10090256Y16430600D01*
X9484744Y16430600D01*
X9484733Y16430600D01*
X9455155Y16427826D01*
X9455147Y16427824D01*
X9330523Y16384216D01*
X9224293Y16305815D01*
X9224285Y16305807D01*
X9176244Y16240712D01*
X9126477Y16205119D01*
X9096589Y16200500D01*
X9003411Y16200500D01*
X8945220Y16219407D01*
X8923756Y16240712D01*
X8875714Y16305807D01*
X8875713Y16305808D01*
X8875711Y16305811D01*
X8875706Y16305815D01*
X8769476Y16384216D01*
X8644852Y16427824D01*
X8644851Y16427825D01*
X8644849Y16427825D01*
X8644847Y16427826D01*
X8644844Y16427826D01*
X8615266Y16430600D01*
X8615256Y16430600D01*
X7934744Y16430600D01*
X7934733Y16430600D01*
X7905155Y16427826D01*
X7905147Y16427824D01*
X7780523Y16384216D01*
X7674293Y16305815D01*
X7674285Y16305807D01*
X7595884Y16199577D01*
X7552276Y16074953D01*
X7552274Y16074945D01*
X7549500Y16045367D01*
X7348716Y16045367D01*
X7339626Y16121060D01*
X7285423Y16258509D01*
X7285420Y16258513D01*
X7196145Y16376240D01*
X7196139Y16376246D01*
X7078412Y16465521D01*
X7078408Y16465524D01*
X6940958Y16519727D01*
X6854582Y16530100D01*
X6675001Y16530100D01*
X6675000Y16530099D01*
X6375000Y16530099D01*
X6374999Y16530100D01*
X6195417Y16530100D01*
X6109041Y16519727D01*
X5971591Y16465524D01*
X5971587Y16465521D01*
X5853860Y16376246D01*
X5853854Y16376240D01*
X5764579Y16258513D01*
X5764576Y16258509D01*
X5710373Y16121059D01*
X5700000Y16034683D01*
X200499Y16034683D01*
X200499Y16244485D01*
X201122Y16255552D01*
X213029Y16361225D01*
X217960Y16382833D01*
X251234Y16477922D01*
X260851Y16497892D01*
X281088Y16530099D01*
X314451Y16583197D01*
X328266Y16600521D01*
X399509Y16671764D01*
X416833Y16685579D01*
X502140Y16739181D01*
X522108Y16748796D01*
X617197Y16782070D01*
X638801Y16787002D01*
X744213Y16798879D01*
X755295Y16799500D01*
X30244661Y16799460D01*
G37*
%TD.AperFunction*%
%TD*%
M02*
