%TF.GenerationSoftware,KiCad,Pcbnew,10.0.0*%
%TF.CreationDate,2026-04-13T14:11:33+02:00*%
%TF.ProjectId,usbaCarrierMM8108,75736261-4361-4727-9269-65724d4d3831,rev?*%
%TF.SameCoordinates,PX7cee6c0PY660b0c0*%
%TF.FileFunction,Soldermask,Top*%
%TF.FilePolarity,Negative*%
%FSLAX46Y46*%
G04 Gerber Fmt 4.6, Leading zero omitted, Abs format (unit mm)*
G04 Created by KiCad (PCBNEW 10.0.0) date 2026-04-13 14:11:33*
%MOMM*%
%LPD*%
G01*
G04 APERTURE LIST*
G04 APERTURE END LIST*
G36*
X9037351Y1863500D02*
G01*
X9046957Y1859021D01*
X9054101Y1857889D01*
X9104993Y1831959D01*
X9143582Y1813964D01*
X9146982Y1810564D01*
X9148008Y1810041D01*
X9222540Y1735509D01*
X9223062Y1734484D01*
X9226464Y1731082D01*
X9244465Y1692477D01*
X9270388Y1641601D01*
X9271518Y1634461D01*
X9276000Y1624851D01*
X9287500Y1537500D01*
X9287500Y1062500D01*
X9276000Y975149D01*
X9271518Y965540D01*
X9270388Y958399D01*
X9244468Y907530D01*
X9226464Y868918D01*
X9223061Y865516D01*
X9222540Y864492D01*
X9148008Y789960D01*
X9146984Y789439D01*
X9143582Y786036D01*
X9104964Y768029D01*
X9054100Y742112D01*
X9046961Y740982D01*
X9037351Y736500D01*
X8950000Y725000D01*
X8450000Y725000D01*
X8362649Y736500D01*
X8353039Y740981D01*
X8345898Y742112D01*
X8295018Y768037D01*
X8256418Y786036D01*
X8253016Y789438D01*
X8251991Y789960D01*
X8177459Y864492D01*
X8176936Y865518D01*
X8173536Y868918D01*
X8155539Y907513D01*
X8129611Y958400D01*
X8128479Y965542D01*
X8124000Y975149D01*
X8112500Y1062500D01*
X8112500Y1537500D01*
X8124000Y1624851D01*
X8128479Y1634458D01*
X8129611Y1641602D01*
X8155547Y1692505D01*
X8173536Y1731082D01*
X8176935Y1734482D01*
X8177459Y1735509D01*
X8251991Y1810041D01*
X8253018Y1810565D01*
X8256418Y1813964D01*
X8295000Y1831956D01*
X8345899Y1857889D01*
X8353042Y1859021D01*
X8362649Y1863500D01*
X8450000Y1875000D01*
X8950000Y1875000D01*
X9037351Y1863500D01*
G37*
G36*
X10862351Y1863500D02*
G01*
X10871957Y1859021D01*
X10879101Y1857889D01*
X10929993Y1831959D01*
X10968582Y1813964D01*
X10971982Y1810564D01*
X10973008Y1810041D01*
X11047540Y1735509D01*
X11048062Y1734484D01*
X11051464Y1731082D01*
X11069465Y1692477D01*
X11095388Y1641601D01*
X11096518Y1634461D01*
X11101000Y1624851D01*
X11112500Y1537500D01*
X11112500Y1062500D01*
X11101000Y975149D01*
X11096518Y965540D01*
X11095388Y958399D01*
X11069468Y907530D01*
X11051464Y868918D01*
X11048061Y865516D01*
X11047540Y864492D01*
X10973008Y789960D01*
X10971984Y789439D01*
X10968582Y786036D01*
X10929964Y768029D01*
X10879100Y742112D01*
X10871961Y740982D01*
X10862351Y736500D01*
X10775000Y725000D01*
X10275000Y725000D01*
X10187649Y736500D01*
X10178039Y740981D01*
X10170898Y742112D01*
X10120018Y768037D01*
X10081418Y786036D01*
X10078016Y789438D01*
X10076991Y789960D01*
X10002459Y864492D01*
X10001936Y865518D01*
X9998536Y868918D01*
X9980539Y907513D01*
X9954611Y958400D01*
X9953479Y965542D01*
X9949000Y975149D01*
X9937500Y1062500D01*
X9937500Y1537500D01*
X9949000Y1624851D01*
X9953479Y1634458D01*
X9954611Y1641602D01*
X9980547Y1692505D01*
X9998536Y1731082D01*
X10001935Y1734482D01*
X10002459Y1735509D01*
X10076991Y1810041D01*
X10078018Y1810565D01*
X10081418Y1813964D01*
X10120000Y1831956D01*
X10170899Y1857889D01*
X10178042Y1859021D01*
X10187649Y1863500D01*
X10275000Y1875000D01*
X10775000Y1875000D01*
X10862351Y1863500D01*
G37*
G36*
X7524851Y1988500D02*
G01*
X7534457Y1984021D01*
X7541601Y1982889D01*
X7592493Y1956959D01*
X7631082Y1938964D01*
X7634482Y1935564D01*
X7635508Y1935041D01*
X7710040Y1860509D01*
X7710562Y1859484D01*
X7713964Y1856082D01*
X7731965Y1817477D01*
X7757888Y1766601D01*
X7759018Y1759461D01*
X7763500Y1749851D01*
X7775000Y1662500D01*
X7775000Y1087500D01*
X7763500Y1000149D01*
X7759018Y990540D01*
X7757888Y983399D01*
X7731968Y932530D01*
X7713964Y893918D01*
X7710561Y890516D01*
X7710040Y889492D01*
X7635508Y814960D01*
X7634484Y814439D01*
X7631082Y811036D01*
X7592464Y793029D01*
X7541600Y767112D01*
X7534461Y765982D01*
X7524851Y761500D01*
X7437500Y750000D01*
X6962500Y750000D01*
X6875149Y761500D01*
X6865539Y765981D01*
X6858398Y767112D01*
X6807518Y793037D01*
X6768918Y811036D01*
X6765516Y814438D01*
X6764491Y814960D01*
X6689959Y889492D01*
X6689436Y890518D01*
X6686036Y893918D01*
X6668039Y932513D01*
X6642111Y983400D01*
X6640979Y990542D01*
X6636500Y1000149D01*
X6625000Y1087500D01*
X6625000Y1662500D01*
X6636500Y1749851D01*
X6640979Y1759458D01*
X6642111Y1766602D01*
X6668047Y1817505D01*
X6686036Y1856082D01*
X6689435Y1859482D01*
X6689959Y1860509D01*
X6764491Y1935041D01*
X6765518Y1935565D01*
X6768918Y1938964D01*
X6807500Y1956956D01*
X6858399Y1982889D01*
X6865542Y1984021D01*
X6875149Y1988500D01*
X6962500Y2000000D01*
X7437500Y2000000D01*
X7524851Y1988500D01*
G37*
G36*
X12659046Y2131696D02*
G01*
X12711553Y2125604D01*
X12729494Y2117682D01*
X12752584Y2113089D01*
X12777304Y2096572D01*
X12798619Y2087160D01*
X12813176Y2072603D01*
X12835312Y2057812D01*
X12850102Y2035677D01*
X12864659Y2021120D01*
X12874069Y1999807D01*
X12890589Y1975084D01*
X12895182Y1951993D01*
X12903103Y1934054D01*
X12909192Y1881558D01*
X12910000Y1877500D01*
X12910000Y1452500D01*
X12909192Y1448442D01*
X12903103Y1395947D01*
X12895182Y1378010D01*
X12890589Y1354916D01*
X12874068Y1330192D01*
X12864659Y1308881D01*
X12850104Y1294327D01*
X12835312Y1272188D01*
X12813173Y1257396D01*
X12798619Y1242841D01*
X12777308Y1233432D01*
X12752584Y1216911D01*
X12729490Y1212318D01*
X12711553Y1204397D01*
X12659058Y1198308D01*
X12655000Y1197500D01*
X12345000Y1197500D01*
X12340942Y1198308D01*
X12288446Y1204397D01*
X12270507Y1212318D01*
X12247416Y1216911D01*
X12222693Y1233431D01*
X12201380Y1242841D01*
X12186823Y1257398D01*
X12164688Y1272188D01*
X12149897Y1294324D01*
X12135340Y1308881D01*
X12125928Y1330196D01*
X12109411Y1354916D01*
X12104818Y1378006D01*
X12096896Y1395947D01*
X12090804Y1448454D01*
X12090000Y1452500D01*
X12090000Y1877500D01*
X12090804Y1881546D01*
X12096896Y1934054D01*
X12104818Y1951997D01*
X12109411Y1975084D01*
X12125927Y1999803D01*
X12135340Y2021120D01*
X12149899Y2035680D01*
X12164688Y2057812D01*
X12186820Y2072601D01*
X12201380Y2087160D01*
X12222697Y2096573D01*
X12247416Y2113089D01*
X12270503Y2117682D01*
X12288446Y2125604D01*
X12340954Y2131696D01*
X12345000Y2132500D01*
X12655000Y2132500D01*
X12659046Y2131696D01*
G37*
G36*
X25659046Y2349196D02*
G01*
X25711553Y2343104D01*
X25729494Y2335182D01*
X25752584Y2330589D01*
X25777304Y2314072D01*
X25798619Y2304660D01*
X25813176Y2290103D01*
X25835312Y2275312D01*
X25850102Y2253177D01*
X25864659Y2238620D01*
X25874069Y2217307D01*
X25890589Y2192584D01*
X25895182Y2169493D01*
X25903103Y2151554D01*
X25909192Y2099058D01*
X25910000Y2095000D01*
X25910000Y1670000D01*
X25909192Y1665942D01*
X25903103Y1613447D01*
X25895182Y1595510D01*
X25890589Y1572416D01*
X25874068Y1547692D01*
X25864659Y1526381D01*
X25850104Y1511827D01*
X25835312Y1489688D01*
X25813173Y1474896D01*
X25798619Y1460341D01*
X25777308Y1450932D01*
X25752584Y1434411D01*
X25729490Y1429818D01*
X25711553Y1421897D01*
X25659058Y1415808D01*
X25655000Y1415000D01*
X25345000Y1415000D01*
X25340942Y1415808D01*
X25288446Y1421897D01*
X25270507Y1429818D01*
X25247416Y1434411D01*
X25222693Y1450931D01*
X25201380Y1460341D01*
X25186823Y1474898D01*
X25164688Y1489688D01*
X25149897Y1511824D01*
X25135340Y1526381D01*
X25125928Y1547696D01*
X25109411Y1572416D01*
X25104818Y1595506D01*
X25096896Y1613447D01*
X25090804Y1665954D01*
X25090000Y1670000D01*
X25090000Y2095000D01*
X25090804Y2099046D01*
X25096896Y2151554D01*
X25104818Y2169497D01*
X25109411Y2192584D01*
X25125927Y2217303D01*
X25135340Y2238620D01*
X25149899Y2253180D01*
X25164688Y2275312D01*
X25186820Y2290101D01*
X25201380Y2304660D01*
X25222697Y2314073D01*
X25247416Y2330589D01*
X25270503Y2335182D01*
X25288446Y2343104D01*
X25340954Y2349196D01*
X25345000Y2350000D01*
X25655000Y2350000D01*
X25659046Y2349196D01*
G37*
G36*
X14838268Y2392388D02*
G01*
X14870711Y2370711D01*
X14892388Y2338268D01*
X14900000Y2300000D01*
X14900000Y1700000D01*
X14892388Y1661732D01*
X14870711Y1629289D01*
X14838268Y1607612D01*
X14800000Y1600000D01*
X14200000Y1600000D01*
X14161732Y1607612D01*
X14129289Y1629289D01*
X14107612Y1661732D01*
X14100000Y1700000D01*
X14100000Y2300000D01*
X14107612Y2338268D01*
X14129289Y2370711D01*
X14161732Y2392388D01*
X14200000Y2400000D01*
X14800000Y2400000D01*
X14838268Y2392388D01*
G37*
G36*
X15838268Y2392388D02*
G01*
X15870711Y2370711D01*
X15892388Y2338268D01*
X15900000Y2300000D01*
X15900000Y1700000D01*
X15892388Y1661732D01*
X15870711Y1629289D01*
X15838268Y1607612D01*
X15800000Y1600000D01*
X15200000Y1600000D01*
X15161732Y1607612D01*
X15129289Y1629289D01*
X15107612Y1661732D01*
X15100000Y1700000D01*
X15100000Y2300000D01*
X15107612Y2338268D01*
X15129289Y2370711D01*
X15161732Y2392388D01*
X15200000Y2400000D01*
X15800000Y2400000D01*
X15838268Y2392388D01*
G37*
G36*
X16838268Y2392388D02*
G01*
X16870711Y2370711D01*
X16892388Y2338268D01*
X16900000Y2300000D01*
X16900000Y1700000D01*
X16892388Y1661732D01*
X16870711Y1629289D01*
X16838268Y1607612D01*
X16800000Y1600000D01*
X16200000Y1600000D01*
X16161732Y1607612D01*
X16129289Y1629289D01*
X16107612Y1661732D01*
X16100000Y1700000D01*
X16100000Y2300000D01*
X16107612Y2338268D01*
X16129289Y2370711D01*
X16161732Y2392388D01*
X16200000Y2400000D01*
X16800000Y2400000D01*
X16838268Y2392388D01*
G37*
G36*
X17838268Y2392388D02*
G01*
X17870711Y2370711D01*
X17892388Y2338268D01*
X17900000Y2300000D01*
X17900000Y1700000D01*
X17892388Y1661732D01*
X17870711Y1629289D01*
X17838268Y1607612D01*
X17800000Y1600000D01*
X17200000Y1600000D01*
X17161732Y1607612D01*
X17129289Y1629289D01*
X17107612Y1661732D01*
X17100000Y1700000D01*
X17100000Y2300000D01*
X17107612Y2338268D01*
X17129289Y2370711D01*
X17161732Y2392388D01*
X17200000Y2400000D01*
X17800000Y2400000D01*
X17838268Y2392388D01*
G37*
G36*
X18838268Y2392388D02*
G01*
X18870711Y2370711D01*
X18892388Y2338268D01*
X18900000Y2300000D01*
X18900000Y1700000D01*
X18892388Y1661732D01*
X18870711Y1629289D01*
X18838268Y1607612D01*
X18800000Y1600000D01*
X18200000Y1600000D01*
X18161732Y1607612D01*
X18129289Y1629289D01*
X18107612Y1661732D01*
X18100000Y1700000D01*
X18100000Y2300000D01*
X18107612Y2338268D01*
X18129289Y2370711D01*
X18161732Y2392388D01*
X18200000Y2400000D01*
X18800000Y2400000D01*
X18838268Y2392388D01*
G37*
G36*
X19838268Y2392388D02*
G01*
X19870711Y2370711D01*
X19892388Y2338268D01*
X19900000Y2300000D01*
X19900000Y1700000D01*
X19892388Y1661732D01*
X19870711Y1629289D01*
X19838268Y1607612D01*
X19800000Y1600000D01*
X19200000Y1600000D01*
X19161732Y1607612D01*
X19129289Y1629289D01*
X19107612Y1661732D01*
X19100000Y1700000D01*
X19100000Y2300000D01*
X19107612Y2338268D01*
X19129289Y2370711D01*
X19161732Y2392388D01*
X19200000Y2400000D01*
X19800000Y2400000D01*
X19838268Y2392388D01*
G37*
G36*
X20838268Y2392388D02*
G01*
X20870711Y2370711D01*
X20892388Y2338268D01*
X20900000Y2300000D01*
X20900000Y1700000D01*
X20892388Y1661732D01*
X20870711Y1629289D01*
X20838268Y1607612D01*
X20800000Y1600000D01*
X20200000Y1600000D01*
X20161732Y1607612D01*
X20129289Y1629289D01*
X20107612Y1661732D01*
X20100000Y1700000D01*
X20100000Y2300000D01*
X20107612Y2338268D01*
X20129289Y2370711D01*
X20161732Y2392388D01*
X20200000Y2400000D01*
X20800000Y2400000D01*
X20838268Y2392388D01*
G37*
G36*
X21838268Y2392388D02*
G01*
X21870711Y2370711D01*
X21892388Y2338268D01*
X21900000Y2300000D01*
X21900000Y1700000D01*
X21892388Y1661732D01*
X21870711Y1629289D01*
X21838268Y1607612D01*
X21800000Y1600000D01*
X21200000Y1600000D01*
X21161732Y1607612D01*
X21129289Y1629289D01*
X21107612Y1661732D01*
X21100000Y1700000D01*
X21100000Y2300000D01*
X21107612Y2338268D01*
X21129289Y2370711D01*
X21161732Y2392388D01*
X21200000Y2400000D01*
X21800000Y2400000D01*
X21838268Y2392388D01*
G37*
G36*
X22838268Y2392388D02*
G01*
X22870711Y2370711D01*
X22892388Y2338268D01*
X22900000Y2300000D01*
X22900000Y1700000D01*
X22892388Y1661732D01*
X22870711Y1629289D01*
X22838268Y1607612D01*
X22800000Y1600000D01*
X22200000Y1600000D01*
X22161732Y1607612D01*
X22129289Y1629289D01*
X22107612Y1661732D01*
X22100000Y1700000D01*
X22100000Y2300000D01*
X22107612Y2338268D01*
X22129289Y2370711D01*
X22161732Y2392388D01*
X22200000Y2400000D01*
X22800000Y2400000D01*
X22838268Y2392388D01*
G37*
G36*
X23838268Y2392388D02*
G01*
X23870711Y2370711D01*
X23892388Y2338268D01*
X23900000Y2300000D01*
X23900000Y1700000D01*
X23892388Y1661732D01*
X23870711Y1629289D01*
X23838268Y1607612D01*
X23800000Y1600000D01*
X23200000Y1600000D01*
X23161732Y1607612D01*
X23129289Y1629289D01*
X23107612Y1661732D01*
X23100000Y1700000D01*
X23100000Y2300000D01*
X23107612Y2338268D01*
X23129289Y2370711D01*
X23161732Y2392388D01*
X23200000Y2400000D01*
X23800000Y2400000D01*
X23838268Y2392388D01*
G37*
G36*
X27668858Y5364867D02*
G01*
X27678316Y5364867D01*
X27705563Y5357567D01*
X27774099Y5343934D01*
X27806448Y5330535D01*
X27829610Y5324328D01*
X27850377Y5312338D01*
X27882722Y5298940D01*
X27940816Y5260123D01*
X27965257Y5246012D01*
X27971946Y5239323D01*
X27980481Y5233620D01*
X28063619Y5150482D01*
X28069321Y5141948D01*
X28076012Y5135257D01*
X28090124Y5110814D01*
X28128939Y5052723D01*
X28142335Y5020382D01*
X28154328Y4999610D01*
X28160535Y4976445D01*
X28173933Y4944100D01*
X28187564Y4875569D01*
X28194867Y4848316D01*
X28194867Y4843382D01*
X28275133Y4843382D01*
X28275133Y4848316D01*
X28282434Y4875564D01*
X28296066Y4944100D01*
X28309466Y4976452D01*
X28315672Y4999610D01*
X28327660Y5020376D01*
X28341060Y5052723D01*
X28379881Y5110825D01*
X28393988Y5135257D01*
X28400675Y5141945D01*
X28406380Y5150482D01*
X28489518Y5233620D01*
X28498055Y5239325D01*
X28504743Y5246012D01*
X28529175Y5260119D01*
X28587277Y5298940D01*
X28619624Y5312340D01*
X28640390Y5324328D01*
X28663548Y5330534D01*
X28695900Y5343934D01*
X28764437Y5357567D01*
X28791684Y5364867D01*
X28801142Y5364867D01*
X28811212Y5366870D01*
X28928788Y5366870D01*
X28938858Y5364867D01*
X28948316Y5364867D01*
X28975563Y5357567D01*
X29044099Y5343934D01*
X29076448Y5330535D01*
X29099610Y5324328D01*
X29120377Y5312338D01*
X29152722Y5298940D01*
X29210816Y5260123D01*
X29235257Y5246012D01*
X29241946Y5239323D01*
X29250481Y5233620D01*
X29333619Y5150482D01*
X29339321Y5141948D01*
X29346012Y5135257D01*
X29360124Y5110814D01*
X29398939Y5052723D01*
X29412335Y5020382D01*
X29424328Y4999610D01*
X29430535Y4976445D01*
X29443933Y4944100D01*
X29457565Y4875567D01*
X29464867Y4848316D01*
X29464867Y4838859D01*
X29466870Y4828789D01*
X29466870Y4711212D01*
X29464867Y4701143D01*
X29464867Y4691684D01*
X29457564Y4664431D01*
X29443933Y4595901D01*
X29430535Y4563559D01*
X29424328Y4540390D01*
X29412334Y4519617D01*
X29398939Y4487278D01*
X29360128Y4429195D01*
X29346012Y4404743D01*
X29339319Y4398051D01*
X29333619Y4389519D01*
X29250481Y4306381D01*
X29241949Y4300681D01*
X29235257Y4293988D01*
X29210805Y4279872D01*
X29152722Y4241061D01*
X29120383Y4227666D01*
X29099610Y4215672D01*
X29076441Y4209465D01*
X29044099Y4196067D01*
X28975571Y4182437D01*
X28948316Y4175133D01*
X28943381Y4175133D01*
X28943381Y4094867D01*
X28948316Y4094867D01*
X28975566Y4087566D01*
X29044099Y4073934D01*
X29076448Y4060535D01*
X29099610Y4054328D01*
X29120377Y4042338D01*
X29152722Y4028940D01*
X29210816Y3990123D01*
X29235257Y3976012D01*
X29241946Y3969323D01*
X29250481Y3963620D01*
X29333619Y3880482D01*
X29339321Y3871948D01*
X29346012Y3865257D01*
X29360124Y3840814D01*
X29398939Y3782723D01*
X29412335Y3750382D01*
X29424328Y3729610D01*
X29430535Y3706445D01*
X29443933Y3674100D01*
X29457565Y3605567D01*
X29464867Y3578316D01*
X29464867Y3568859D01*
X29466870Y3558789D01*
X29466870Y3441212D01*
X29464867Y3431143D01*
X29464867Y3421684D01*
X29457564Y3394431D01*
X29443933Y3325901D01*
X29430535Y3293559D01*
X29424328Y3270390D01*
X29412334Y3249617D01*
X29398939Y3217278D01*
X29360128Y3159195D01*
X29346012Y3134743D01*
X29339319Y3128051D01*
X29333619Y3119519D01*
X29250481Y3036381D01*
X29241949Y3030681D01*
X29235257Y3023988D01*
X29210805Y3009872D01*
X29152722Y2971061D01*
X29120385Y2957667D01*
X29099610Y2945672D01*
X29076438Y2939464D01*
X29006491Y2910490D01*
X29022501Y2830000D01*
X29370000Y2830000D01*
X29408268Y2822388D01*
X29440711Y2800711D01*
X29462388Y2768268D01*
X29470000Y2730000D01*
X29470000Y1730000D01*
X29462388Y1691732D01*
X29440711Y1659289D01*
X29408268Y1637612D01*
X29370000Y1630000D01*
X28370000Y1630000D01*
X28331732Y1637612D01*
X28299289Y1659289D01*
X28277612Y1691732D01*
X28270000Y1730000D01*
X28270000Y2077500D01*
X28189510Y2093510D01*
X28160537Y2023563D01*
X28154328Y2000390D01*
X28142333Y1979615D01*
X28128940Y1947280D01*
X28090129Y1889196D01*
X28076012Y1864743D01*
X28069319Y1858051D01*
X28063619Y1849519D01*
X27980481Y1766381D01*
X27971949Y1760681D01*
X27965257Y1753988D01*
X27940805Y1739872D01*
X27882722Y1701061D01*
X27850383Y1687666D01*
X27829610Y1675672D01*
X27806441Y1669465D01*
X27774099Y1656067D01*
X27705569Y1642436D01*
X27678316Y1635133D01*
X27668858Y1635133D01*
X27658788Y1633130D01*
X27541212Y1633130D01*
X27531142Y1635133D01*
X27521684Y1635133D01*
X27494432Y1642436D01*
X27425900Y1656067D01*
X27393555Y1669465D01*
X27370390Y1675672D01*
X27349618Y1687665D01*
X27317277Y1701061D01*
X27259186Y1739876D01*
X27234743Y1753988D01*
X27228052Y1760679D01*
X27219518Y1766381D01*
X27136380Y1849519D01*
X27130677Y1858054D01*
X27123988Y1864743D01*
X27109877Y1889184D01*
X27071060Y1947278D01*
X27057662Y1979623D01*
X27045672Y2000390D01*
X27039465Y2023552D01*
X27026066Y2055901D01*
X27012433Y2124437D01*
X27005133Y2151684D01*
X27005133Y2161142D01*
X27003130Y2171212D01*
X27003130Y2288789D01*
X27005133Y2298860D01*
X27005133Y2308316D01*
X27012433Y2335561D01*
X27026066Y2404100D01*
X27039466Y2436452D01*
X27045672Y2459610D01*
X27057660Y2480376D01*
X27071060Y2512723D01*
X27109881Y2570825D01*
X27123988Y2595257D01*
X27130675Y2601945D01*
X27136380Y2610482D01*
X27219518Y2693620D01*
X27228055Y2699325D01*
X27234743Y2706012D01*
X27259175Y2720119D01*
X27317277Y2758940D01*
X27349624Y2772340D01*
X27370390Y2784328D01*
X27393548Y2790534D01*
X27425900Y2803934D01*
X27494436Y2817566D01*
X27521684Y2824867D01*
X27526618Y2824867D01*
X27526618Y2905133D01*
X27673381Y2905133D01*
X27673381Y2824867D01*
X27678316Y2824867D01*
X27705566Y2817566D01*
X27774099Y2803934D01*
X27806448Y2790535D01*
X27829610Y2784328D01*
X27850377Y2772338D01*
X27882722Y2758940D01*
X27940816Y2720123D01*
X27965257Y2706012D01*
X27971946Y2699323D01*
X27980481Y2693620D01*
X28063619Y2610482D01*
X28069321Y2601948D01*
X28076012Y2595257D01*
X28090122Y2570818D01*
X28128940Y2512723D01*
X28142338Y2480377D01*
X28154328Y2459610D01*
X28160534Y2436448D01*
X28189511Y2366492D01*
X28270000Y2382502D01*
X28270000Y2725078D01*
X28270000Y2730000D01*
X28277612Y2768268D01*
X28299289Y2800711D01*
X28331732Y2822388D01*
X28370000Y2830000D01*
X28717499Y2830000D01*
X28733509Y2910490D01*
X28663560Y2939464D01*
X28640390Y2945672D01*
X28619616Y2957666D01*
X28587277Y2971061D01*
X28529186Y3009876D01*
X28504743Y3023988D01*
X28498052Y3030679D01*
X28489518Y3036381D01*
X28406380Y3119519D01*
X28400677Y3128054D01*
X28393988Y3134743D01*
X28379877Y3159184D01*
X28341060Y3217278D01*
X28327662Y3249623D01*
X28315672Y3270390D01*
X28309465Y3293552D01*
X28296066Y3325901D01*
X28282434Y3394434D01*
X28275133Y3421684D01*
X28275133Y3426619D01*
X28194867Y3426619D01*
X28194867Y3421684D01*
X28187563Y3394429D01*
X28173933Y3325901D01*
X28160535Y3293559D01*
X28154328Y3270390D01*
X28142334Y3249617D01*
X28128939Y3217278D01*
X28090128Y3159195D01*
X28076012Y3134743D01*
X28069319Y3128051D01*
X28063619Y3119519D01*
X27980481Y3036381D01*
X27971949Y3030681D01*
X27965257Y3023988D01*
X27940805Y3009872D01*
X27882722Y2971061D01*
X27850383Y2957666D01*
X27829610Y2945672D01*
X27806441Y2939465D01*
X27774099Y2926067D01*
X27705571Y2912437D01*
X27678316Y2905133D01*
X27673381Y2905133D01*
X27526618Y2905133D01*
X27521684Y2905133D01*
X27494431Y2912436D01*
X27425900Y2926067D01*
X27393555Y2939465D01*
X27370390Y2945672D01*
X27349618Y2957665D01*
X27317277Y2971061D01*
X27259186Y3009876D01*
X27234743Y3023988D01*
X27228052Y3030679D01*
X27219518Y3036381D01*
X27136380Y3119519D01*
X27130677Y3128054D01*
X27123988Y3134743D01*
X27109877Y3159184D01*
X27071060Y3217278D01*
X27057662Y3249623D01*
X27045672Y3270390D01*
X27039465Y3293552D01*
X27026066Y3325901D01*
X27012433Y3394437D01*
X27005133Y3421684D01*
X27005133Y3431142D01*
X27003130Y3441212D01*
X27003130Y3558789D01*
X27005133Y3568860D01*
X27005133Y3578316D01*
X27012433Y3605561D01*
X27026066Y3674100D01*
X27039466Y3706452D01*
X27045672Y3729610D01*
X27057660Y3750376D01*
X27071060Y3782723D01*
X27109881Y3840825D01*
X27123988Y3865257D01*
X27130675Y3871945D01*
X27136380Y3880482D01*
X27219518Y3963620D01*
X27228055Y3969325D01*
X27234743Y3976012D01*
X27259175Y3990119D01*
X27317277Y4028940D01*
X27349624Y4042340D01*
X27370390Y4054328D01*
X27393548Y4060534D01*
X27425900Y4073934D01*
X27494436Y4087566D01*
X27521684Y4094867D01*
X27526618Y4094867D01*
X27526618Y4175133D01*
X27673381Y4175133D01*
X27673381Y4094867D01*
X27678316Y4094867D01*
X27705566Y4087566D01*
X27774099Y4073934D01*
X27806448Y4060535D01*
X27829610Y4054328D01*
X27850377Y4042338D01*
X27882722Y4028940D01*
X27940816Y3990123D01*
X27965257Y3976012D01*
X27971946Y3969323D01*
X27980481Y3963620D01*
X28063619Y3880482D01*
X28069321Y3871948D01*
X28076012Y3865257D01*
X28090124Y3840814D01*
X28128939Y3782723D01*
X28142335Y3750382D01*
X28154328Y3729610D01*
X28160535Y3706445D01*
X28173933Y3674100D01*
X28187564Y3605569D01*
X28194867Y3578316D01*
X28194867Y3573382D01*
X28275133Y3573382D01*
X28275133Y3578316D01*
X28282434Y3605564D01*
X28296066Y3674100D01*
X28309466Y3706452D01*
X28315672Y3729610D01*
X28327660Y3750376D01*
X28341060Y3782723D01*
X28379881Y3840825D01*
X28393988Y3865257D01*
X28400675Y3871945D01*
X28406380Y3880482D01*
X28489518Y3963620D01*
X28498055Y3969325D01*
X28504743Y3976012D01*
X28529175Y3990119D01*
X28587277Y4028940D01*
X28619624Y4042340D01*
X28640390Y4054328D01*
X28663548Y4060534D01*
X28695900Y4073934D01*
X28764436Y4087566D01*
X28791684Y4094867D01*
X28796618Y4094867D01*
X28796618Y4175133D01*
X28791684Y4175133D01*
X28764431Y4182436D01*
X28695900Y4196067D01*
X28663555Y4209465D01*
X28640390Y4215672D01*
X28619618Y4227665D01*
X28587277Y4241061D01*
X28529186Y4279876D01*
X28504743Y4293988D01*
X28498052Y4300679D01*
X28489518Y4306381D01*
X28406380Y4389519D01*
X28400677Y4398054D01*
X28393988Y4404743D01*
X28379877Y4429184D01*
X28341060Y4487278D01*
X28327662Y4519623D01*
X28315672Y4540390D01*
X28309465Y4563552D01*
X28296066Y4595901D01*
X28282434Y4664434D01*
X28275133Y4691684D01*
X28275133Y4696619D01*
X28194867Y4696619D01*
X28194867Y4691684D01*
X28187563Y4664429D01*
X28173933Y4595901D01*
X28160535Y4563559D01*
X28154328Y4540390D01*
X28142334Y4519617D01*
X28128939Y4487278D01*
X28090128Y4429195D01*
X28076012Y4404743D01*
X28069319Y4398051D01*
X28063619Y4389519D01*
X27980481Y4306381D01*
X27971949Y4300681D01*
X27965257Y4293988D01*
X27940805Y4279872D01*
X27882722Y4241061D01*
X27850383Y4227666D01*
X27829610Y4215672D01*
X27806441Y4209465D01*
X27774099Y4196067D01*
X27705571Y4182437D01*
X27678316Y4175133D01*
X27673381Y4175133D01*
X27526618Y4175133D01*
X27521684Y4175133D01*
X27494431Y4182436D01*
X27425900Y4196067D01*
X27393555Y4209465D01*
X27370390Y4215672D01*
X27349618Y4227665D01*
X27317277Y4241061D01*
X27259186Y4279876D01*
X27234743Y4293988D01*
X27228052Y4300679D01*
X27219518Y4306381D01*
X27136380Y4389519D01*
X27130677Y4398054D01*
X27123988Y4404743D01*
X27109877Y4429184D01*
X27071060Y4487278D01*
X27057662Y4519623D01*
X27045672Y4540390D01*
X27039465Y4563552D01*
X27026066Y4595901D01*
X27012433Y4664437D01*
X27005133Y4691684D01*
X27005133Y4701142D01*
X27003130Y4711212D01*
X27003130Y4828789D01*
X27005133Y4838860D01*
X27005133Y4848316D01*
X27012433Y4875561D01*
X27026066Y4944100D01*
X27039466Y4976452D01*
X27045672Y4999610D01*
X27057660Y5020376D01*
X27071060Y5052723D01*
X27109881Y5110825D01*
X27123988Y5135257D01*
X27130675Y5141945D01*
X27136380Y5150482D01*
X27219518Y5233620D01*
X27228055Y5239325D01*
X27234743Y5246012D01*
X27259175Y5260119D01*
X27317277Y5298940D01*
X27349624Y5312340D01*
X27370390Y5324328D01*
X27393548Y5330534D01*
X27425900Y5343934D01*
X27494437Y5357567D01*
X27521684Y5364867D01*
X27531142Y5364867D01*
X27541212Y5366870D01*
X27658788Y5366870D01*
X27668858Y5364867D01*
G37*
G36*
X3978873Y3849810D02*
G01*
X4056394Y3846764D01*
X4063374Y3845659D01*
X4077918Y3844944D01*
X4117116Y3837147D01*
X4220078Y3820840D01*
X4253200Y3810078D01*
X4279799Y3804787D01*
X4317335Y3789240D01*
X4376762Y3769930D01*
X4432433Y3741565D01*
X4469967Y3726017D01*
X4492517Y3710950D01*
X4523539Y3695143D01*
X4607866Y3633876D01*
X4641113Y3611661D01*
X4648208Y3604566D01*
X4656817Y3598311D01*
X4773310Y3481818D01*
X4779564Y3473210D01*
X4786661Y3466113D01*
X4808878Y3432862D01*
X4870142Y3348540D01*
X4885947Y3317521D01*
X4901017Y3294967D01*
X4916566Y3257428D01*
X4944929Y3201763D01*
X4964235Y3142343D01*
X4979787Y3104799D01*
X4985078Y3078195D01*
X4995839Y3045079D01*
X5012145Y2942124D01*
X5019944Y2902918D01*
X5019944Y2892886D01*
X5021609Y2882373D01*
X5021609Y2717628D01*
X5019944Y2707116D01*
X5019944Y2697082D01*
X5012144Y2657874D01*
X4995839Y2554922D01*
X4985079Y2521808D01*
X4979787Y2495201D01*
X4964234Y2457654D01*
X4944929Y2398238D01*
X4916568Y2342578D01*
X4901017Y2305033D01*
X4885945Y2282477D01*
X4870142Y2251461D01*
X4808887Y2167151D01*
X4786661Y2133887D01*
X4779561Y2126788D01*
X4773310Y2118183D01*
X4656817Y2001690D01*
X4648212Y1995439D01*
X4641113Y1988339D01*
X4607849Y1966113D01*
X4523539Y1904858D01*
X4492523Y1889055D01*
X4469967Y1873983D01*
X4432422Y1858432D01*
X4376762Y1830071D01*
X4317346Y1810766D01*
X4279799Y1795213D01*
X4253192Y1789921D01*
X4220078Y1779161D01*
X4117140Y1762858D01*
X4077918Y1755056D01*
X4063365Y1754342D01*
X4056394Y1753237D01*
X3978879Y1750191D01*
X3975000Y1750000D01*
X3974030Y1750000D01*
X2375970Y1750000D01*
X2375000Y1750000D01*
X2371120Y1750191D01*
X2293605Y1753237D01*
X2286633Y1754342D01*
X2272082Y1755056D01*
X2232862Y1762858D01*
X2129921Y1779161D01*
X2096805Y1789922D01*
X2070201Y1795213D01*
X2032657Y1810765D01*
X1973237Y1830071D01*
X1917572Y1858434D01*
X1880033Y1873983D01*
X1857479Y1889053D01*
X1826460Y1904858D01*
X1742138Y1966122D01*
X1708887Y1988339D01*
X1701790Y1995436D01*
X1693182Y2001690D01*
X1576689Y2118183D01*
X1570434Y2126792D01*
X1563339Y2133887D01*
X1541124Y2167134D01*
X1479857Y2251461D01*
X1464050Y2282483D01*
X1448983Y2305033D01*
X1433435Y2342567D01*
X1405070Y2398238D01*
X1385760Y2457665D01*
X1370213Y2495201D01*
X1364922Y2521800D01*
X1354160Y2554922D01*
X1337853Y2657883D01*
X1330056Y2697082D01*
X1330056Y2707116D01*
X1328391Y2717628D01*
X1328391Y2882373D01*
X1330056Y2892886D01*
X1330056Y2902918D01*
X1337852Y2942114D01*
X1354160Y3045079D01*
X1364922Y3078203D01*
X1370213Y3104799D01*
X1385759Y3142332D01*
X1405070Y3201763D01*
X1433438Y3257439D01*
X1448983Y3294967D01*
X1464048Y3317514D01*
X1479857Y3348540D01*
X1541132Y3432879D01*
X1563339Y3466113D01*
X1570432Y3473207D01*
X1576689Y3481818D01*
X1693182Y3598311D01*
X1701793Y3604568D01*
X1708887Y3611661D01*
X1742121Y3633868D01*
X1826460Y3695143D01*
X1857486Y3710952D01*
X1880033Y3726017D01*
X1917561Y3741562D01*
X1973237Y3769930D01*
X2032668Y3789241D01*
X2070201Y3804787D01*
X2096797Y3810078D01*
X2129921Y3820840D01*
X2232887Y3837148D01*
X2272082Y3844944D01*
X2286624Y3845659D01*
X2293605Y3846764D01*
X2371126Y3849810D01*
X2375000Y3850000D01*
X3975000Y3850000D01*
X3978873Y3849810D01*
G37*
G36*
X9149851Y3363500D02*
G01*
X9159457Y3359021D01*
X9166601Y3357889D01*
X9217493Y3331959D01*
X9256082Y3313964D01*
X9259482Y3310564D01*
X9260508Y3310041D01*
X9335040Y3235509D01*
X9335562Y3234484D01*
X9338964Y3231082D01*
X9356965Y3192477D01*
X9382888Y3141601D01*
X9384018Y3134461D01*
X9388500Y3124851D01*
X9400000Y3037500D01*
X9400000Y2562500D01*
X9388500Y2475149D01*
X9384018Y2465540D01*
X9382888Y2458399D01*
X9356968Y2407530D01*
X9338964Y2368918D01*
X9335561Y2365516D01*
X9335040Y2364492D01*
X9260508Y2289960D01*
X9259484Y2289439D01*
X9256082Y2286036D01*
X9217464Y2268029D01*
X9166600Y2242112D01*
X9159461Y2240982D01*
X9149851Y2236500D01*
X9062500Y2225000D01*
X8487500Y2225000D01*
X8400149Y2236500D01*
X8390539Y2240981D01*
X8383398Y2242112D01*
X8332518Y2268037D01*
X8293918Y2286036D01*
X8290516Y2289438D01*
X8289491Y2289960D01*
X8214959Y2364492D01*
X8214436Y2365518D01*
X8211036Y2368918D01*
X8193039Y2407513D01*
X8167111Y2458400D01*
X8165979Y2465542D01*
X8161500Y2475149D01*
X8150000Y2562500D01*
X8150000Y3037500D01*
X8161500Y3124851D01*
X8165979Y3134458D01*
X8167111Y3141602D01*
X8193047Y3192505D01*
X8211036Y3231082D01*
X8214435Y3234482D01*
X8214959Y3235509D01*
X8289491Y3310041D01*
X8290518Y3310565D01*
X8293918Y3313964D01*
X8332500Y3331956D01*
X8383399Y3357889D01*
X8390542Y3359021D01*
X8400149Y3363500D01*
X8487500Y3375000D01*
X9062500Y3375000D01*
X9149851Y3363500D01*
G37*
G36*
X10899851Y3363500D02*
G01*
X10909457Y3359021D01*
X10916601Y3357889D01*
X10967493Y3331959D01*
X11006082Y3313964D01*
X11009482Y3310564D01*
X11010508Y3310041D01*
X11085040Y3235509D01*
X11085562Y3234484D01*
X11088964Y3231082D01*
X11106965Y3192477D01*
X11132888Y3141601D01*
X11134018Y3134461D01*
X11138500Y3124851D01*
X11150000Y3037500D01*
X11150000Y2562500D01*
X11138500Y2475149D01*
X11134018Y2465540D01*
X11132888Y2458399D01*
X11106968Y2407530D01*
X11088964Y2368918D01*
X11085561Y2365516D01*
X11085040Y2364492D01*
X11010508Y2289960D01*
X11009484Y2289439D01*
X11006082Y2286036D01*
X10967464Y2268029D01*
X10916600Y2242112D01*
X10909461Y2240982D01*
X10899851Y2236500D01*
X10812500Y2225000D01*
X10237500Y2225000D01*
X10150149Y2236500D01*
X10140539Y2240981D01*
X10133398Y2242112D01*
X10082518Y2268037D01*
X10043918Y2286036D01*
X10040516Y2289438D01*
X10039491Y2289960D01*
X9964959Y2364492D01*
X9964436Y2365518D01*
X9961036Y2368918D01*
X9943039Y2407513D01*
X9917111Y2458400D01*
X9915979Y2465542D01*
X9911500Y2475149D01*
X9900000Y2562500D01*
X9900000Y3037500D01*
X9911500Y3124851D01*
X9915979Y3134458D01*
X9917111Y3141602D01*
X9943047Y3192505D01*
X9961036Y3231082D01*
X9964435Y3234482D01*
X9964959Y3235509D01*
X10039491Y3310041D01*
X10040518Y3310565D01*
X10043918Y3313964D01*
X10082500Y3331956D01*
X10133399Y3357889D01*
X10140542Y3359021D01*
X10150149Y3363500D01*
X10237500Y3375000D01*
X10812500Y3375000D01*
X10899851Y3363500D01*
G37*
G36*
X12659046Y3266696D02*
G01*
X12711553Y3260604D01*
X12729494Y3252682D01*
X12752584Y3248089D01*
X12777304Y3231572D01*
X12798619Y3222160D01*
X12813176Y3207603D01*
X12835312Y3192812D01*
X12850102Y3170677D01*
X12864659Y3156120D01*
X12874069Y3134807D01*
X12890589Y3110084D01*
X12895182Y3086993D01*
X12903103Y3069054D01*
X12909192Y3016558D01*
X12910000Y3012500D01*
X12910000Y2587500D01*
X12909192Y2583442D01*
X12903103Y2530947D01*
X12895182Y2513010D01*
X12890589Y2489916D01*
X12874068Y2465192D01*
X12864659Y2443881D01*
X12850104Y2429327D01*
X12835312Y2407188D01*
X12813173Y2392396D01*
X12798619Y2377841D01*
X12777308Y2368432D01*
X12752584Y2351911D01*
X12729490Y2347318D01*
X12711553Y2339397D01*
X12659058Y2333308D01*
X12655000Y2332500D01*
X12345000Y2332500D01*
X12340942Y2333308D01*
X12288446Y2339397D01*
X12270507Y2347318D01*
X12247416Y2351911D01*
X12222693Y2368431D01*
X12201380Y2377841D01*
X12186823Y2392398D01*
X12164688Y2407188D01*
X12149897Y2429324D01*
X12135340Y2443881D01*
X12125928Y2465196D01*
X12109411Y2489916D01*
X12104818Y2513006D01*
X12096896Y2530947D01*
X12090804Y2583454D01*
X12090000Y2587500D01*
X12090000Y3012500D01*
X12090804Y3016546D01*
X12096896Y3069054D01*
X12104818Y3086997D01*
X12109411Y3110084D01*
X12125927Y3134803D01*
X12135340Y3156120D01*
X12149899Y3170680D01*
X12164688Y3192812D01*
X12186820Y3207601D01*
X12201380Y3222160D01*
X12222697Y3231573D01*
X12247416Y3248089D01*
X12270503Y3252682D01*
X12288446Y3260604D01*
X12340954Y3266696D01*
X12345000Y3267500D01*
X12655000Y3267500D01*
X12659046Y3266696D01*
G37*
G36*
X7524851Y3738500D02*
G01*
X7534457Y3734021D01*
X7541601Y3732889D01*
X7592493Y3706959D01*
X7631082Y3688964D01*
X7634482Y3685564D01*
X7635508Y3685041D01*
X7710040Y3610509D01*
X7710562Y3609484D01*
X7713964Y3606082D01*
X7731965Y3567477D01*
X7757888Y3516601D01*
X7759018Y3509461D01*
X7763500Y3499851D01*
X7775000Y3412500D01*
X7775000Y2837500D01*
X7763500Y2750149D01*
X7759018Y2740540D01*
X7757888Y2733399D01*
X7731968Y2682530D01*
X7713964Y2643918D01*
X7710561Y2640516D01*
X7710040Y2639492D01*
X7635508Y2564960D01*
X7634484Y2564439D01*
X7631082Y2561036D01*
X7592464Y2543029D01*
X7541600Y2517112D01*
X7534461Y2515982D01*
X7524851Y2511500D01*
X7437500Y2500000D01*
X6962500Y2500000D01*
X6875149Y2511500D01*
X6865539Y2515981D01*
X6858398Y2517112D01*
X6807518Y2543037D01*
X6768918Y2561036D01*
X6765516Y2564438D01*
X6764491Y2564960D01*
X6689959Y2639492D01*
X6689436Y2640518D01*
X6686036Y2643918D01*
X6668039Y2682513D01*
X6642111Y2733400D01*
X6640979Y2740542D01*
X6636500Y2750149D01*
X6625000Y2837500D01*
X6625000Y3412500D01*
X6636500Y3499851D01*
X6640979Y3509458D01*
X6642111Y3516602D01*
X6668047Y3567505D01*
X6686036Y3606082D01*
X6689435Y3609482D01*
X6689959Y3610509D01*
X6764491Y3685041D01*
X6765518Y3685565D01*
X6768918Y3688964D01*
X6807500Y3706956D01*
X6858399Y3732889D01*
X6865542Y3734021D01*
X6875149Y3738500D01*
X6962500Y3750000D01*
X7437500Y3750000D01*
X7524851Y3738500D01*
G37*
G36*
X25659046Y3484196D02*
G01*
X25711553Y3478104D01*
X25729494Y3470182D01*
X25752584Y3465589D01*
X25777304Y3449072D01*
X25798619Y3439660D01*
X25813176Y3425103D01*
X25835312Y3410312D01*
X25850102Y3388177D01*
X25864659Y3373620D01*
X25874069Y3352307D01*
X25890589Y3327584D01*
X25895182Y3304493D01*
X25903103Y3286554D01*
X25909192Y3234058D01*
X25910000Y3230000D01*
X25910000Y2805000D01*
X25909192Y2800942D01*
X25903103Y2748447D01*
X25895182Y2730510D01*
X25890589Y2707416D01*
X25874068Y2682692D01*
X25864659Y2661381D01*
X25850104Y2646827D01*
X25835312Y2624688D01*
X25813173Y2609896D01*
X25798619Y2595341D01*
X25777308Y2585932D01*
X25752584Y2569411D01*
X25729490Y2564818D01*
X25711553Y2556897D01*
X25659058Y2550808D01*
X25655000Y2550000D01*
X25345000Y2550000D01*
X25340942Y2550808D01*
X25288446Y2556897D01*
X25270507Y2564818D01*
X25247416Y2569411D01*
X25222693Y2585931D01*
X25201380Y2595341D01*
X25186823Y2609898D01*
X25164688Y2624688D01*
X25149897Y2646824D01*
X25135340Y2661381D01*
X25125928Y2682696D01*
X25109411Y2707416D01*
X25104818Y2730506D01*
X25096896Y2748447D01*
X25090804Y2800954D01*
X25090000Y2805000D01*
X25090000Y3230000D01*
X25090804Y3234046D01*
X25096896Y3286554D01*
X25104818Y3304497D01*
X25109411Y3327584D01*
X25125927Y3352303D01*
X25135340Y3373620D01*
X25149899Y3388180D01*
X25164688Y3410312D01*
X25186820Y3425101D01*
X25201380Y3439660D01*
X25222697Y3449073D01*
X25247416Y3465589D01*
X25270503Y3470182D01*
X25288446Y3478104D01*
X25340954Y3484196D01*
X25345000Y3485000D01*
X25655000Y3485000D01*
X25659046Y3484196D01*
G37*
G36*
X14838268Y3392388D02*
G01*
X14870711Y3370711D01*
X14892388Y3338268D01*
X14900000Y3300000D01*
X14900000Y2700000D01*
X14892388Y2661732D01*
X14870711Y2629289D01*
X14838268Y2607612D01*
X14800000Y2600000D01*
X14200000Y2600000D01*
X14161732Y2607612D01*
X14129289Y2629289D01*
X14107612Y2661732D01*
X14100000Y2700000D01*
X14100000Y3300000D01*
X14107612Y3338268D01*
X14129289Y3370711D01*
X14161732Y3392388D01*
X14200000Y3400000D01*
X14800000Y3400000D01*
X14838268Y3392388D01*
G37*
G36*
X23838268Y3392388D02*
G01*
X23870711Y3370711D01*
X23892388Y3338268D01*
X23900000Y3300000D01*
X23900000Y2700000D01*
X23892388Y2661732D01*
X23870711Y2629289D01*
X23838268Y2607612D01*
X23800000Y2600000D01*
X23200000Y2600000D01*
X23161732Y2607612D01*
X23129289Y2629289D01*
X23107612Y2661732D01*
X23100000Y2700000D01*
X23100000Y3300000D01*
X23107612Y3338268D01*
X23129289Y3370711D01*
X23161732Y3392388D01*
X23200000Y3400000D01*
X23800000Y3400000D01*
X23838268Y3392388D01*
G37*
G36*
X14838268Y4392388D02*
G01*
X14870711Y4370711D01*
X14892388Y4338268D01*
X14900000Y4300000D01*
X14900000Y3700000D01*
X14892388Y3661732D01*
X14870711Y3629289D01*
X14838268Y3607612D01*
X14800000Y3600000D01*
X14200000Y3600000D01*
X14161732Y3607612D01*
X14129289Y3629289D01*
X14107612Y3661732D01*
X14100000Y3700000D01*
X14100000Y4300000D01*
X14107612Y4338268D01*
X14129289Y4370711D01*
X14161732Y4392388D01*
X14200000Y4400000D01*
X14800000Y4400000D01*
X14838268Y4392388D01*
G37*
G36*
X23838268Y4392388D02*
G01*
X23870711Y4370711D01*
X23892388Y4338268D01*
X23900000Y4300000D01*
X23900000Y3700000D01*
X23892388Y3661732D01*
X23870711Y3629289D01*
X23838268Y3607612D01*
X23800000Y3600000D01*
X23200000Y3600000D01*
X23161732Y3607612D01*
X23129289Y3629289D01*
X23107612Y3661732D01*
X23100000Y3700000D01*
X23100000Y4300000D01*
X23107612Y4338268D01*
X23129289Y4370711D01*
X23161732Y4392388D01*
X23200000Y4400000D01*
X23800000Y4400000D01*
X23838268Y4392388D01*
G37*
G36*
X9616546Y4809196D02*
G01*
X9669053Y4803104D01*
X9686994Y4795182D01*
X9710084Y4790589D01*
X9734804Y4774072D01*
X9756119Y4764660D01*
X9770676Y4750103D01*
X9792812Y4735312D01*
X9807602Y4713177D01*
X9822159Y4698620D01*
X9831569Y4677307D01*
X9848089Y4652584D01*
X9852682Y4629493D01*
X9860603Y4611554D01*
X9866692Y4559058D01*
X9867500Y4555000D01*
X9867500Y4245000D01*
X9866692Y4240942D01*
X9860603Y4188447D01*
X9852682Y4170510D01*
X9848089Y4147416D01*
X9831568Y4122692D01*
X9822159Y4101381D01*
X9807604Y4086827D01*
X9792812Y4064688D01*
X9770673Y4049896D01*
X9756119Y4035341D01*
X9734808Y4025932D01*
X9710084Y4009411D01*
X9686990Y4004818D01*
X9669053Y3996897D01*
X9616558Y3990808D01*
X9612500Y3990000D01*
X9187500Y3990000D01*
X9183442Y3990808D01*
X9130946Y3996897D01*
X9113007Y4004818D01*
X9089916Y4009411D01*
X9065193Y4025931D01*
X9043880Y4035341D01*
X9029323Y4049898D01*
X9007188Y4064688D01*
X8992397Y4086824D01*
X8977840Y4101381D01*
X8968428Y4122696D01*
X8951911Y4147416D01*
X8947318Y4170506D01*
X8939396Y4188447D01*
X8933304Y4240954D01*
X8932500Y4245000D01*
X8932500Y4555000D01*
X8933304Y4559046D01*
X8939396Y4611554D01*
X8947318Y4629497D01*
X8951911Y4652584D01*
X8968427Y4677303D01*
X8977840Y4698620D01*
X8992399Y4713180D01*
X9007188Y4735312D01*
X9029320Y4750101D01*
X9043880Y4764660D01*
X9065197Y4774073D01*
X9089916Y4790589D01*
X9113003Y4795182D01*
X9130946Y4803104D01*
X9183454Y4809196D01*
X9187500Y4810000D01*
X9612500Y4810000D01*
X9616546Y4809196D01*
G37*
G36*
X10751546Y4809196D02*
G01*
X10804053Y4803104D01*
X10821994Y4795182D01*
X10845084Y4790589D01*
X10869804Y4774072D01*
X10891119Y4764660D01*
X10905676Y4750103D01*
X10927812Y4735312D01*
X10942602Y4713177D01*
X10957159Y4698620D01*
X10966569Y4677307D01*
X10983089Y4652584D01*
X10987682Y4629493D01*
X10995603Y4611554D01*
X11001692Y4559058D01*
X11002500Y4555000D01*
X11002500Y4245000D01*
X11001692Y4240942D01*
X10995603Y4188447D01*
X10987682Y4170510D01*
X10983089Y4147416D01*
X10966568Y4122692D01*
X10957159Y4101381D01*
X10942604Y4086827D01*
X10927812Y4064688D01*
X10905673Y4049896D01*
X10891119Y4035341D01*
X10869808Y4025932D01*
X10845084Y4009411D01*
X10821990Y4004818D01*
X10804053Y3996897D01*
X10751558Y3990808D01*
X10747500Y3990000D01*
X10322500Y3990000D01*
X10318442Y3990808D01*
X10265946Y3996897D01*
X10248007Y4004818D01*
X10224916Y4009411D01*
X10200193Y4025931D01*
X10178880Y4035341D01*
X10164323Y4049898D01*
X10142188Y4064688D01*
X10127397Y4086824D01*
X10112840Y4101381D01*
X10103428Y4122696D01*
X10086911Y4147416D01*
X10082318Y4170506D01*
X10074396Y4188447D01*
X10068304Y4240954D01*
X10067500Y4245000D01*
X10067500Y4555000D01*
X10068304Y4559046D01*
X10074396Y4611554D01*
X10082318Y4629497D01*
X10086911Y4652584D01*
X10103427Y4677303D01*
X10112840Y4698620D01*
X10127399Y4713180D01*
X10142188Y4735312D01*
X10164320Y4750101D01*
X10178880Y4764660D01*
X10200197Y4774073D01*
X10224916Y4790589D01*
X10248003Y4795182D01*
X10265946Y4803104D01*
X10318454Y4809196D01*
X10322500Y4810000D01*
X10747500Y4810000D01*
X10751546Y4809196D01*
G37*
G36*
X12709046Y4999196D02*
G01*
X12761553Y4993104D01*
X12779494Y4985182D01*
X12802584Y4980589D01*
X12827304Y4964072D01*
X12848619Y4954660D01*
X12863176Y4940103D01*
X12885312Y4925312D01*
X12900102Y4903177D01*
X12914659Y4888620D01*
X12924069Y4867307D01*
X12940589Y4842584D01*
X12945182Y4819493D01*
X12953103Y4801554D01*
X12959192Y4749058D01*
X12960000Y4745000D01*
X12960000Y4320000D01*
X12959192Y4315942D01*
X12953103Y4263447D01*
X12945182Y4245510D01*
X12940589Y4222416D01*
X12924068Y4197692D01*
X12914659Y4176381D01*
X12900104Y4161827D01*
X12885312Y4139688D01*
X12863173Y4124896D01*
X12848619Y4110341D01*
X12827308Y4100932D01*
X12802584Y4084411D01*
X12779490Y4079818D01*
X12761553Y4071897D01*
X12709058Y4065808D01*
X12705000Y4065000D01*
X12395000Y4065000D01*
X12390942Y4065808D01*
X12338446Y4071897D01*
X12320507Y4079818D01*
X12297416Y4084411D01*
X12272693Y4100931D01*
X12251380Y4110341D01*
X12236823Y4124898D01*
X12214688Y4139688D01*
X12199897Y4161824D01*
X12185340Y4176381D01*
X12175928Y4197696D01*
X12159411Y4222416D01*
X12154818Y4245506D01*
X12146896Y4263447D01*
X12140804Y4315954D01*
X12140000Y4320000D01*
X12140000Y4745000D01*
X12140804Y4749046D01*
X12146896Y4801554D01*
X12154818Y4819497D01*
X12159411Y4842584D01*
X12175927Y4867303D01*
X12185340Y4888620D01*
X12199899Y4903180D01*
X12214688Y4925312D01*
X12236820Y4940101D01*
X12251380Y4954660D01*
X12272697Y4964073D01*
X12297416Y4980589D01*
X12320503Y4985182D01*
X12338446Y4993104D01*
X12390954Y4999196D01*
X12395000Y5000000D01*
X12705000Y5000000D01*
X12709046Y4999196D01*
G37*
G36*
X7024868Y5635450D02*
G01*
X7030586Y5632655D01*
X7032962Y5632278D01*
X7070987Y5612904D01*
X7128377Y5584847D01*
X7209847Y5503377D01*
X7237907Y5445980D01*
X7257276Y5407966D01*
X7257652Y5405592D01*
X7260450Y5399868D01*
X7275000Y5300000D01*
X7275000Y4700000D01*
X7260450Y4600132D01*
X7257652Y4594411D01*
X7257277Y4592038D01*
X7237926Y4554061D01*
X7209847Y4496623D01*
X7128377Y4415153D01*
X7070955Y4387081D01*
X7032965Y4367724D01*
X7030591Y4367349D01*
X7024868Y4364550D01*
X6925000Y4350000D01*
X4925000Y4350000D01*
X4825132Y4364550D01*
X4819410Y4367348D01*
X4817037Y4367723D01*
X4779035Y4387086D01*
X4721623Y4415153D01*
X4640153Y4496623D01*
X4612104Y4553997D01*
X4592723Y4592035D01*
X4592346Y4594412D01*
X4589550Y4600132D01*
X4575000Y4700000D01*
X4575000Y5300000D01*
X4589550Y5399868D01*
X4592345Y5405587D01*
X4592722Y5407963D01*
X4612108Y5446013D01*
X4640153Y5503377D01*
X4721623Y5584847D01*
X4778971Y5612884D01*
X4817034Y5632277D01*
X4819411Y5632654D01*
X4825132Y5635450D01*
X4925000Y5650000D01*
X6925000Y5650000D01*
X7024868Y5635450D01*
G37*
G36*
X14838268Y5392388D02*
G01*
X14870711Y5370711D01*
X14892388Y5338268D01*
X14900000Y5300000D01*
X14900000Y4700000D01*
X14892388Y4661732D01*
X14870711Y4629289D01*
X14838268Y4607612D01*
X14800000Y4600000D01*
X14200000Y4600000D01*
X14161732Y4607612D01*
X14129289Y4629289D01*
X14107612Y4661732D01*
X14100000Y4700000D01*
X14100000Y5300000D01*
X14107612Y5338268D01*
X14129289Y5370711D01*
X14161732Y5392388D01*
X14200000Y5400000D01*
X14800000Y5400000D01*
X14838268Y5392388D01*
G37*
G36*
X23838268Y5392388D02*
G01*
X23870711Y5370711D01*
X23892388Y5338268D01*
X23900000Y5300000D01*
X23900000Y4700000D01*
X23892388Y4661732D01*
X23870711Y4629289D01*
X23838268Y4607612D01*
X23800000Y4600000D01*
X23200000Y4600000D01*
X23161732Y4607612D01*
X23129289Y4629289D01*
X23107612Y4661732D01*
X23100000Y4700000D01*
X23100000Y5300000D01*
X23107612Y5338268D01*
X23129289Y5370711D01*
X23161732Y5392388D01*
X23200000Y5400000D01*
X23800000Y5400000D01*
X23838268Y5392388D01*
G37*
G36*
X9580395Y7447752D02*
G01*
X9643252Y7405752D01*
X9685252Y7342895D01*
X9685741Y7340434D01*
X9698275Y7321676D01*
X9751725Y7321676D01*
X9764258Y7340434D01*
X9764748Y7342895D01*
X9806748Y7405752D01*
X9869605Y7447752D01*
X9943750Y7462500D01*
X10156250Y7462500D01*
X10230395Y7447752D01*
X10293252Y7405752D01*
X10335252Y7342895D01*
X10335741Y7340434D01*
X10348275Y7321676D01*
X10401725Y7321676D01*
X10414258Y7340434D01*
X10414748Y7342895D01*
X10456748Y7405752D01*
X10519605Y7447752D01*
X10593750Y7462500D01*
X10806250Y7462500D01*
X10880395Y7447752D01*
X10943252Y7405752D01*
X10985252Y7342895D01*
X11000000Y7268750D01*
X11000000Y7081250D01*
X10985252Y7007105D01*
X10943252Y6944248D01*
X10905838Y6919249D01*
X10905893Y6868112D01*
X10920711Y6858211D01*
X10942388Y6825768D01*
X10950000Y6787500D01*
X10950000Y5787500D01*
X10942388Y5749232D01*
X10920711Y5716789D01*
X10905938Y5706919D01*
X10905793Y5655782D01*
X10943252Y5630752D01*
X10985252Y5567895D01*
X11000000Y5493750D01*
X11000000Y5306250D01*
X10985252Y5232105D01*
X10943252Y5169248D01*
X10880395Y5127248D01*
X10806250Y5112500D01*
X10593750Y5112500D01*
X10519605Y5127248D01*
X10456748Y5169248D01*
X10414748Y5232105D01*
X10414258Y5234568D01*
X10401725Y5253325D01*
X10348275Y5253325D01*
X10335741Y5234569D01*
X10335252Y5232105D01*
X10293252Y5169248D01*
X10230395Y5127248D01*
X10156250Y5112500D01*
X9943750Y5112500D01*
X9869605Y5127248D01*
X9806748Y5169248D01*
X9764748Y5232105D01*
X9764258Y5234568D01*
X9751725Y5253325D01*
X9698275Y5253325D01*
X9685741Y5234569D01*
X9685252Y5232105D01*
X9643252Y5169248D01*
X9580395Y5127248D01*
X9506250Y5112500D01*
X9293750Y5112500D01*
X9219605Y5127248D01*
X9156748Y5169248D01*
X9114748Y5232105D01*
X9100000Y5306250D01*
X9100000Y5493750D01*
X9114748Y5567895D01*
X9156748Y5630752D01*
X9162570Y5634642D01*
X9639498Y5634642D01*
X9641165Y5632146D01*
X9643252Y5630752D01*
X9685252Y5567895D01*
X9685741Y5565434D01*
X9698275Y5546676D01*
X9751726Y5546676D01*
X9764258Y5565433D01*
X9764748Y5567895D01*
X9806748Y5630752D01*
X9808832Y5632145D01*
X9810501Y5634642D01*
X10289498Y5634642D01*
X10291165Y5632146D01*
X10293252Y5630752D01*
X10335252Y5567895D01*
X10335741Y5565434D01*
X10348275Y5546676D01*
X10401726Y5546676D01*
X10414258Y5565433D01*
X10414748Y5567895D01*
X10456748Y5630752D01*
X10458832Y5632145D01*
X10460501Y5634642D01*
X10432248Y5687500D01*
X10317751Y5687500D01*
X10289498Y5634642D01*
X9810501Y5634642D01*
X9782248Y5687500D01*
X9667751Y5687500D01*
X9639498Y5634642D01*
X9162570Y5634642D01*
X9194176Y5655761D01*
X9194089Y5706901D01*
X9179289Y5716789D01*
X9157612Y5749232D01*
X9150000Y5787500D01*
X9150000Y6787500D01*
X9157612Y6825768D01*
X9179289Y6858211D01*
X9194134Y6868131D01*
X9194131Y6919270D01*
X9162568Y6940359D01*
X9639498Y6940359D01*
X9667752Y6887500D01*
X9782247Y6887500D01*
X9810501Y6940359D01*
X10289498Y6940359D01*
X10317752Y6887500D01*
X10432247Y6887500D01*
X10460501Y6940359D01*
X10458833Y6942855D01*
X10456748Y6944248D01*
X10414748Y7007105D01*
X10414257Y7009570D01*
X10401726Y7028325D01*
X10348275Y7028325D01*
X10335741Y7009568D01*
X10335252Y7007105D01*
X10293252Y6944248D01*
X10291164Y6942854D01*
X10289498Y6940359D01*
X9810501Y6940359D01*
X9808833Y6942855D01*
X9806748Y6944248D01*
X9764748Y7007105D01*
X9764257Y7009570D01*
X9751726Y7028325D01*
X9698275Y7028325D01*
X9685741Y7009568D01*
X9685252Y7007105D01*
X9643252Y6944248D01*
X9641164Y6942854D01*
X9639498Y6940359D01*
X9162568Y6940359D01*
X9156748Y6944248D01*
X9114748Y7007105D01*
X9100000Y7081250D01*
X9100000Y7268750D01*
X9114748Y7342895D01*
X9156748Y7405752D01*
X9219605Y7447752D01*
X9293750Y7462500D01*
X9506250Y7462500D01*
X9580395Y7447752D01*
G37*
G36*
X12709046Y6134196D02*
G01*
X12761553Y6128104D01*
X12779494Y6120182D01*
X12802584Y6115589D01*
X12827304Y6099072D01*
X12848619Y6089660D01*
X12863176Y6075103D01*
X12885312Y6060312D01*
X12900102Y6038177D01*
X12914659Y6023620D01*
X12924069Y6002307D01*
X12940589Y5977584D01*
X12945182Y5954493D01*
X12953103Y5936554D01*
X12959192Y5884058D01*
X12960000Y5880000D01*
X12960000Y5455000D01*
X12959192Y5450942D01*
X12953103Y5398447D01*
X12945182Y5380510D01*
X12940589Y5357416D01*
X12924068Y5332692D01*
X12914659Y5311381D01*
X12900104Y5296827D01*
X12885312Y5274688D01*
X12863173Y5259896D01*
X12848619Y5245341D01*
X12827308Y5235932D01*
X12802584Y5219411D01*
X12779490Y5214818D01*
X12761553Y5206897D01*
X12709058Y5200808D01*
X12705000Y5200000D01*
X12395000Y5200000D01*
X12390942Y5200808D01*
X12338446Y5206897D01*
X12320507Y5214818D01*
X12297416Y5219411D01*
X12272693Y5235931D01*
X12251380Y5245341D01*
X12236823Y5259898D01*
X12214688Y5274688D01*
X12199897Y5296824D01*
X12185340Y5311381D01*
X12175928Y5332696D01*
X12159411Y5357416D01*
X12154818Y5380506D01*
X12146896Y5398447D01*
X12140804Y5450954D01*
X12140000Y5455000D01*
X12140000Y5880000D01*
X12140804Y5884046D01*
X12146896Y5936554D01*
X12154818Y5954497D01*
X12159411Y5977584D01*
X12175927Y6002303D01*
X12185340Y6023620D01*
X12199899Y6038180D01*
X12214688Y6060312D01*
X12236820Y6075101D01*
X12251380Y6089660D01*
X12272697Y6099073D01*
X12297416Y6115589D01*
X12320503Y6120182D01*
X12338446Y6128104D01*
X12390954Y6134196D01*
X12395000Y6135000D01*
X12705000Y6135000D01*
X12709046Y6134196D01*
G37*
G36*
X25714047Y6134195D02*
G01*
X25767697Y6127971D01*
X25786026Y6119878D01*
X25809498Y6115209D01*
X25834625Y6098420D01*
X25856445Y6088785D01*
X25871347Y6073883D01*
X25893848Y6058848D01*
X25908882Y6036348D01*
X25923784Y6021446D01*
X25933417Y5999629D01*
X25950209Y5974498D01*
X25954878Y5951025D01*
X25962970Y5932698D01*
X25969192Y5879058D01*
X25970000Y5875000D01*
X25970000Y5480000D01*
X25969192Y5475941D01*
X25962970Y5422303D01*
X25954878Y5403978D01*
X25950209Y5380502D01*
X25933416Y5355370D01*
X25923784Y5333555D01*
X25908884Y5318656D01*
X25893848Y5296152D01*
X25871344Y5281116D01*
X25856445Y5266216D01*
X25834630Y5256584D01*
X25809498Y5239791D01*
X25786022Y5235122D01*
X25767697Y5227030D01*
X25714059Y5220808D01*
X25710000Y5220000D01*
X25390000Y5220000D01*
X25385942Y5220808D01*
X25332302Y5227030D01*
X25313975Y5235122D01*
X25290502Y5239791D01*
X25265371Y5256583D01*
X25243554Y5266216D01*
X25228652Y5281118D01*
X25206152Y5296152D01*
X25191117Y5318653D01*
X25176215Y5333555D01*
X25166580Y5355375D01*
X25149791Y5380502D01*
X25145122Y5403974D01*
X25137029Y5422303D01*
X25130805Y5475953D01*
X25130000Y5480000D01*
X25130000Y5875000D01*
X25130804Y5879046D01*
X25137029Y5932698D01*
X25145122Y5951029D01*
X25149791Y5974498D01*
X25166579Y5999624D01*
X25176215Y6021446D01*
X25191119Y6036351D01*
X25206152Y6058848D01*
X25228649Y6073881D01*
X25243554Y6088785D01*
X25265376Y6098421D01*
X25290502Y6115209D01*
X25313971Y6119878D01*
X25332302Y6127971D01*
X25385954Y6134196D01*
X25390000Y6135000D01*
X25710000Y6135000D01*
X25714047Y6134195D01*
G37*
G36*
X8359046Y6199196D02*
G01*
X8411553Y6193104D01*
X8429494Y6185182D01*
X8452584Y6180589D01*
X8477304Y6164072D01*
X8498619Y6154660D01*
X8513176Y6140103D01*
X8535312Y6125312D01*
X8550102Y6103177D01*
X8564659Y6088620D01*
X8574069Y6067307D01*
X8590589Y6042584D01*
X8595182Y6019493D01*
X8603103Y6001554D01*
X8609192Y5949058D01*
X8610000Y5945000D01*
X8610000Y5520000D01*
X8609192Y5515942D01*
X8603103Y5463447D01*
X8595182Y5445510D01*
X8590589Y5422416D01*
X8574068Y5397692D01*
X8564659Y5376381D01*
X8550104Y5361827D01*
X8535312Y5339688D01*
X8513173Y5324896D01*
X8498619Y5310341D01*
X8477308Y5300932D01*
X8452584Y5284411D01*
X8429490Y5279818D01*
X8411553Y5271897D01*
X8359058Y5265808D01*
X8355000Y5265000D01*
X8045000Y5265000D01*
X8040942Y5265808D01*
X7988446Y5271897D01*
X7970507Y5279818D01*
X7947416Y5284411D01*
X7922693Y5300931D01*
X7901380Y5310341D01*
X7886823Y5324898D01*
X7864688Y5339688D01*
X7849897Y5361824D01*
X7835340Y5376381D01*
X7825928Y5397696D01*
X7809411Y5422416D01*
X7804818Y5445506D01*
X7796896Y5463447D01*
X7790804Y5515954D01*
X7790000Y5520000D01*
X7790000Y5945000D01*
X7790804Y5949046D01*
X7796896Y6001554D01*
X7804818Y6019497D01*
X7809411Y6042584D01*
X7825927Y6067303D01*
X7835340Y6088620D01*
X7849899Y6103180D01*
X7864688Y6125312D01*
X7886820Y6140101D01*
X7901380Y6154660D01*
X7922697Y6164073D01*
X7947416Y6180589D01*
X7970503Y6185182D01*
X7988446Y6193104D01*
X8040954Y6199196D01*
X8045000Y6200000D01*
X8355000Y6200000D01*
X8359046Y6199196D01*
G37*
G36*
X3363685Y6822011D02*
G01*
X3481408Y6773249D01*
X3587356Y6702457D01*
X3677457Y6612356D01*
X3748249Y6506408D01*
X3797011Y6388685D01*
X3821870Y6263711D01*
X3821870Y6136289D01*
X3797011Y6011315D01*
X3748249Y5893592D01*
X3677457Y5787644D01*
X3587356Y5697543D01*
X3481408Y5626751D01*
X3363685Y5577989D01*
X3238711Y5553130D01*
X3111289Y5553130D01*
X2986315Y5577989D01*
X2868592Y5626751D01*
X2762644Y5697543D01*
X2672543Y5787644D01*
X2601751Y5893592D01*
X2552989Y6011315D01*
X2528130Y6136289D01*
X2528130Y6263711D01*
X2552989Y6388685D01*
X2601751Y6506408D01*
X2672543Y6612356D01*
X2762644Y6702457D01*
X2868592Y6773249D01*
X2986315Y6822011D01*
X3111289Y6846870D01*
X3238711Y6846870D01*
X3363685Y6822011D01*
G37*
G36*
X14838268Y6392388D02*
G01*
X14870711Y6370711D01*
X14892388Y6338268D01*
X14900000Y6300000D01*
X14900000Y5700000D01*
X14892388Y5661732D01*
X14870711Y5629289D01*
X14838268Y5607612D01*
X14800000Y5600000D01*
X14200000Y5600000D01*
X14161732Y5607612D01*
X14129289Y5629289D01*
X14107612Y5661732D01*
X14100000Y5700000D01*
X14100000Y6300000D01*
X14107612Y6338268D01*
X14129289Y6370711D01*
X14161732Y6392388D01*
X14200000Y6400000D01*
X14800000Y6400000D01*
X14838268Y6392388D01*
G37*
G36*
X23838268Y6392388D02*
G01*
X23870711Y6370711D01*
X23892388Y6338268D01*
X23900000Y6300000D01*
X23900000Y5700000D01*
X23892388Y5661732D01*
X23870711Y5629289D01*
X23838268Y5607612D01*
X23800000Y5600000D01*
X23200000Y5600000D01*
X23161732Y5607612D01*
X23129289Y5629289D01*
X23107612Y5661732D01*
X23100000Y5700000D01*
X23100000Y6300000D01*
X23107612Y6338268D01*
X23129289Y6370711D01*
X23161732Y6392388D01*
X23200000Y6400000D01*
X23800000Y6400000D01*
X23838268Y6392388D01*
G37*
G36*
X12709046Y7249196D02*
G01*
X12761553Y7243104D01*
X12779494Y7235182D01*
X12802584Y7230589D01*
X12827304Y7214072D01*
X12848619Y7204660D01*
X12863176Y7190103D01*
X12885312Y7175312D01*
X12900102Y7153177D01*
X12914659Y7138620D01*
X12924069Y7117307D01*
X12940589Y7092584D01*
X12945182Y7069493D01*
X12953103Y7051554D01*
X12959192Y6999058D01*
X12960000Y6995000D01*
X12960000Y6570000D01*
X12959192Y6565942D01*
X12953103Y6513447D01*
X12945182Y6495510D01*
X12940589Y6472416D01*
X12924068Y6447692D01*
X12914659Y6426381D01*
X12900104Y6411827D01*
X12885312Y6389688D01*
X12863173Y6374896D01*
X12848619Y6360341D01*
X12827308Y6350932D01*
X12802584Y6334411D01*
X12779490Y6329818D01*
X12761553Y6321897D01*
X12709058Y6315808D01*
X12705000Y6315000D01*
X12395000Y6315000D01*
X12390942Y6315808D01*
X12338446Y6321897D01*
X12320507Y6329818D01*
X12297416Y6334411D01*
X12272693Y6350931D01*
X12251380Y6360341D01*
X12236823Y6374898D01*
X12214688Y6389688D01*
X12199897Y6411824D01*
X12185340Y6426381D01*
X12175928Y6447696D01*
X12159411Y6472416D01*
X12154818Y6495506D01*
X12146896Y6513447D01*
X12140804Y6565954D01*
X12140000Y6570000D01*
X12140000Y6995000D01*
X12140804Y6999046D01*
X12146896Y7051554D01*
X12154818Y7069497D01*
X12159411Y7092584D01*
X12175927Y7117303D01*
X12185340Y7138620D01*
X12199899Y7153180D01*
X12214688Y7175312D01*
X12236820Y7190101D01*
X12251380Y7204660D01*
X12272697Y7214073D01*
X12297416Y7230589D01*
X12320503Y7235182D01*
X12338446Y7243104D01*
X12390954Y7249196D01*
X12395000Y7250000D01*
X12705000Y7250000D01*
X12709046Y7249196D01*
G37*
G36*
X8359046Y7334196D02*
G01*
X8411553Y7328104D01*
X8429494Y7320182D01*
X8452584Y7315589D01*
X8477304Y7299072D01*
X8498619Y7289660D01*
X8513176Y7275103D01*
X8535312Y7260312D01*
X8550102Y7238177D01*
X8564659Y7223620D01*
X8574069Y7202307D01*
X8590589Y7177584D01*
X8595182Y7154493D01*
X8603103Y7136554D01*
X8609192Y7084058D01*
X8610000Y7080000D01*
X8610000Y6655000D01*
X8609192Y6650942D01*
X8603103Y6598447D01*
X8595182Y6580510D01*
X8590589Y6557416D01*
X8574068Y6532692D01*
X8564659Y6511381D01*
X8550104Y6496827D01*
X8535312Y6474688D01*
X8513173Y6459896D01*
X8498619Y6445341D01*
X8477308Y6435932D01*
X8452584Y6419411D01*
X8429490Y6414818D01*
X8411553Y6406897D01*
X8359058Y6400808D01*
X8355000Y6400000D01*
X8045000Y6400000D01*
X8040942Y6400808D01*
X7988446Y6406897D01*
X7970507Y6414818D01*
X7947416Y6419411D01*
X7922693Y6435931D01*
X7901380Y6445341D01*
X7886823Y6459898D01*
X7864688Y6474688D01*
X7849897Y6496824D01*
X7835340Y6511381D01*
X7825928Y6532696D01*
X7809411Y6557416D01*
X7804818Y6580506D01*
X7796896Y6598447D01*
X7790804Y6650954D01*
X7790000Y6655000D01*
X7790000Y7080000D01*
X7790804Y7084046D01*
X7796896Y7136554D01*
X7804818Y7154497D01*
X7809411Y7177584D01*
X7825927Y7202303D01*
X7835340Y7223620D01*
X7849899Y7238180D01*
X7864688Y7260312D01*
X7886820Y7275101D01*
X7901380Y7289660D01*
X7922697Y7299073D01*
X7947416Y7315589D01*
X7970503Y7320182D01*
X7988446Y7328104D01*
X8040954Y7334196D01*
X8045000Y7335000D01*
X8355000Y7335000D01*
X8359046Y7334196D01*
G37*
G36*
X25714047Y7329195D02*
G01*
X25767697Y7322971D01*
X25786026Y7314878D01*
X25809498Y7310209D01*
X25834625Y7293420D01*
X25856445Y7283785D01*
X25871347Y7268883D01*
X25893848Y7253848D01*
X25908882Y7231348D01*
X25923784Y7216446D01*
X25933417Y7194629D01*
X25950209Y7169498D01*
X25954878Y7146025D01*
X25962970Y7127698D01*
X25969192Y7074058D01*
X25970000Y7070000D01*
X25970000Y6675000D01*
X25969192Y6670941D01*
X25962970Y6617303D01*
X25954878Y6598978D01*
X25950209Y6575502D01*
X25933416Y6550370D01*
X25923784Y6528555D01*
X25908884Y6513656D01*
X25893848Y6491152D01*
X25871344Y6476116D01*
X25856445Y6461216D01*
X25834630Y6451584D01*
X25809498Y6434791D01*
X25786022Y6430122D01*
X25767697Y6422030D01*
X25714059Y6415808D01*
X25710000Y6415000D01*
X25390000Y6415000D01*
X25385942Y6415808D01*
X25332302Y6422030D01*
X25313975Y6430122D01*
X25290502Y6434791D01*
X25265371Y6451583D01*
X25243554Y6461216D01*
X25228652Y6476118D01*
X25206152Y6491152D01*
X25191117Y6513653D01*
X25176215Y6528555D01*
X25166580Y6550375D01*
X25149791Y6575502D01*
X25145122Y6598974D01*
X25137029Y6617303D01*
X25130805Y6670953D01*
X25130000Y6675000D01*
X25130000Y7070000D01*
X25130804Y7074046D01*
X25137029Y7127698D01*
X25145122Y7146029D01*
X25149791Y7169498D01*
X25166579Y7194624D01*
X25176215Y7216446D01*
X25191119Y7231351D01*
X25206152Y7253848D01*
X25228649Y7268881D01*
X25243554Y7283785D01*
X25265376Y7293421D01*
X25290502Y7310209D01*
X25313971Y7314878D01*
X25332302Y7322971D01*
X25385954Y7329196D01*
X25390000Y7330000D01*
X25710000Y7330000D01*
X25714047Y7329195D01*
G37*
G36*
X14838268Y7392388D02*
G01*
X14870711Y7370711D01*
X14892388Y7338268D01*
X14900000Y7300000D01*
X14900000Y6700000D01*
X14892388Y6661732D01*
X14870711Y6629289D01*
X14838268Y6607612D01*
X14800000Y6600000D01*
X14200000Y6600000D01*
X14161732Y6607612D01*
X14129289Y6629289D01*
X14107612Y6661732D01*
X14100000Y6700000D01*
X14100000Y7300000D01*
X14107612Y7338268D01*
X14129289Y7370711D01*
X14161732Y7392388D01*
X14200000Y7400000D01*
X14800000Y7400000D01*
X14838268Y7392388D01*
G37*
G36*
X23838268Y7392388D02*
G01*
X23870711Y7370711D01*
X23892388Y7338268D01*
X23900000Y7300000D01*
X23900000Y6700000D01*
X23892388Y6661732D01*
X23870711Y6629289D01*
X23838268Y6607612D01*
X23800000Y6600000D01*
X23200000Y6600000D01*
X23161732Y6607612D01*
X23129289Y6629289D01*
X23107612Y6661732D01*
X23100000Y6700000D01*
X23100000Y7300000D01*
X23107612Y7338268D01*
X23129289Y7370711D01*
X23161732Y7392388D01*
X23200000Y7400000D01*
X23800000Y7400000D01*
X23838268Y7392388D01*
G37*
G36*
X7024868Y8135450D02*
G01*
X7030586Y8132655D01*
X7032962Y8132278D01*
X7070987Y8112904D01*
X7128377Y8084847D01*
X7209847Y8003377D01*
X7237907Y7945980D01*
X7257276Y7907966D01*
X7257652Y7905592D01*
X7260450Y7899868D01*
X7275000Y7800000D01*
X7275000Y7200000D01*
X7260450Y7100132D01*
X7257652Y7094411D01*
X7257277Y7092038D01*
X7237926Y7054061D01*
X7209847Y6996623D01*
X7128377Y6915153D01*
X7070955Y6887081D01*
X7032965Y6867724D01*
X7030591Y6867349D01*
X7024868Y6864550D01*
X6925000Y6850000D01*
X4925000Y6850000D01*
X4825132Y6864550D01*
X4819410Y6867348D01*
X4817037Y6867723D01*
X4779035Y6887086D01*
X4721623Y6915153D01*
X4640153Y6996623D01*
X4612104Y7053997D01*
X4592723Y7092035D01*
X4592346Y7094412D01*
X4589550Y7100132D01*
X4575000Y7200000D01*
X4575000Y7800000D01*
X4589550Y7899868D01*
X4592345Y7905587D01*
X4592722Y7907963D01*
X4612108Y7946013D01*
X4640153Y8003377D01*
X4721623Y8084847D01*
X4778971Y8112884D01*
X4817034Y8132277D01*
X4819411Y8132654D01*
X4825132Y8135450D01*
X4925000Y8150000D01*
X6925000Y8150000D01*
X7024868Y8135450D01*
G37*
G36*
X30374868Y8935450D02*
G01*
X30380586Y8932655D01*
X30382962Y8932278D01*
X30420987Y8912904D01*
X30478377Y8884847D01*
X30559847Y8803377D01*
X30587907Y8745980D01*
X30607276Y8707966D01*
X30607652Y8705592D01*
X30610450Y8699868D01*
X30625000Y8600000D01*
X30625000Y7750000D01*
X30610450Y7650132D01*
X30607652Y7644411D01*
X30607277Y7642038D01*
X30587926Y7604061D01*
X30559847Y7546623D01*
X30478377Y7465153D01*
X30420955Y7437081D01*
X30382965Y7417724D01*
X30380591Y7417349D01*
X30374868Y7414550D01*
X30275000Y7400000D01*
X27075000Y7400000D01*
X26975132Y7414550D01*
X26969410Y7417348D01*
X26967037Y7417723D01*
X26929035Y7437086D01*
X26871623Y7465153D01*
X26790153Y7546623D01*
X26762104Y7603997D01*
X26742723Y7642035D01*
X26742346Y7644412D01*
X26739550Y7650132D01*
X26725000Y7750000D01*
X26725000Y8600000D01*
X26739550Y8699868D01*
X26742345Y8705587D01*
X26742722Y8707963D01*
X26762108Y8746013D01*
X26790153Y8803377D01*
X26871623Y8884847D01*
X26928971Y8912884D01*
X26967034Y8932277D01*
X26969411Y8932654D01*
X26975132Y8935450D01*
X27075000Y8950000D01*
X30275000Y8950000D01*
X30374868Y8935450D01*
G37*
G36*
X12709046Y8384196D02*
G01*
X12761553Y8378104D01*
X12779494Y8370182D01*
X12802584Y8365589D01*
X12827304Y8349072D01*
X12848619Y8339660D01*
X12863176Y8325103D01*
X12885312Y8310312D01*
X12900102Y8288177D01*
X12914659Y8273620D01*
X12924069Y8252307D01*
X12940589Y8227584D01*
X12945182Y8204493D01*
X12953103Y8186554D01*
X12959192Y8134058D01*
X12960000Y8130000D01*
X12960000Y7705000D01*
X12959192Y7700942D01*
X12953103Y7648447D01*
X12945182Y7630510D01*
X12940589Y7607416D01*
X12924068Y7582692D01*
X12914659Y7561381D01*
X12900104Y7546827D01*
X12885312Y7524688D01*
X12863173Y7509896D01*
X12848619Y7495341D01*
X12827308Y7485932D01*
X12802584Y7469411D01*
X12779490Y7464818D01*
X12761553Y7456897D01*
X12709058Y7450808D01*
X12705000Y7450000D01*
X12395000Y7450000D01*
X12390942Y7450808D01*
X12338446Y7456897D01*
X12320507Y7464818D01*
X12297416Y7469411D01*
X12272693Y7485931D01*
X12251380Y7495341D01*
X12236823Y7509898D01*
X12214688Y7524688D01*
X12199897Y7546824D01*
X12185340Y7561381D01*
X12175928Y7582696D01*
X12159411Y7607416D01*
X12154818Y7630506D01*
X12146896Y7648447D01*
X12140804Y7700954D01*
X12140000Y7705000D01*
X12140000Y8130000D01*
X12140804Y8134046D01*
X12146896Y8186554D01*
X12154818Y8204497D01*
X12159411Y8227584D01*
X12175927Y8252303D01*
X12185340Y8273620D01*
X12199899Y8288180D01*
X12214688Y8310312D01*
X12236820Y8325101D01*
X12251380Y8339660D01*
X12272697Y8349073D01*
X12297416Y8365589D01*
X12320503Y8370182D01*
X12338446Y8378104D01*
X12390954Y8384196D01*
X12395000Y8385000D01*
X12705000Y8385000D01*
X12709046Y8384196D01*
G37*
G36*
X25859046Y8399196D02*
G01*
X25911553Y8393104D01*
X25929494Y8385182D01*
X25952584Y8380589D01*
X25977304Y8364072D01*
X25998619Y8354660D01*
X26013176Y8340103D01*
X26035312Y8325312D01*
X26050102Y8303177D01*
X26064659Y8288620D01*
X26074069Y8267307D01*
X26090589Y8242584D01*
X26095182Y8219493D01*
X26103103Y8201554D01*
X26109192Y8149058D01*
X26110000Y8145000D01*
X26110000Y7720000D01*
X26109192Y7715942D01*
X26103103Y7663447D01*
X26095182Y7645510D01*
X26090589Y7622416D01*
X26074068Y7597692D01*
X26064659Y7576381D01*
X26050104Y7561827D01*
X26035312Y7539688D01*
X26013173Y7524896D01*
X25998619Y7510341D01*
X25977308Y7500932D01*
X25952584Y7484411D01*
X25929490Y7479818D01*
X25911553Y7471897D01*
X25859058Y7465808D01*
X25855000Y7465000D01*
X25545000Y7465000D01*
X25540942Y7465808D01*
X25488446Y7471897D01*
X25470507Y7479818D01*
X25447416Y7484411D01*
X25422693Y7500931D01*
X25401380Y7510341D01*
X25386823Y7524898D01*
X25364688Y7539688D01*
X25349897Y7561824D01*
X25335340Y7576381D01*
X25325928Y7597696D01*
X25309411Y7622416D01*
X25304818Y7645506D01*
X25296896Y7663447D01*
X25290804Y7715954D01*
X25290000Y7720000D01*
X25290000Y8145000D01*
X25290804Y8149046D01*
X25296896Y8201554D01*
X25304818Y8219497D01*
X25309411Y8242584D01*
X25325927Y8267303D01*
X25335340Y8288620D01*
X25349899Y8303180D01*
X25364688Y8325312D01*
X25386820Y8340101D01*
X25401380Y8354660D01*
X25422697Y8364073D01*
X25447416Y8380589D01*
X25470503Y8385182D01*
X25488446Y8393104D01*
X25540954Y8399196D01*
X25545000Y8400000D01*
X25855000Y8400000D01*
X25859046Y8399196D01*
G37*
G36*
X14838268Y8392388D02*
G01*
X14870711Y8370711D01*
X14892388Y8338268D01*
X14900000Y8300000D01*
X14900000Y7700000D01*
X14892388Y7661732D01*
X14870711Y7629289D01*
X14838268Y7607612D01*
X14800000Y7600000D01*
X14200000Y7600000D01*
X14161732Y7607612D01*
X14129289Y7629289D01*
X14107612Y7661732D01*
X14100000Y7700000D01*
X14100000Y8300000D01*
X14107612Y8338268D01*
X14129289Y8370711D01*
X14161732Y8392388D01*
X14200000Y8400000D01*
X14800000Y8400000D01*
X14838268Y8392388D01*
G37*
G36*
X23838268Y8392388D02*
G01*
X23870711Y8370711D01*
X23892388Y8338268D01*
X23900000Y8300000D01*
X23900000Y7700000D01*
X23892388Y7661732D01*
X23870711Y7629289D01*
X23838268Y7607612D01*
X23800000Y7600000D01*
X23200000Y7600000D01*
X23161732Y7607612D01*
X23129289Y7629289D01*
X23107612Y7661732D01*
X23100000Y7700000D01*
X23100000Y8300000D01*
X23107612Y8338268D01*
X23129289Y8370711D01*
X23161732Y8392388D01*
X23200000Y8400000D01*
X23800000Y8400000D01*
X23838268Y8392388D01*
G37*
G36*
X14838268Y9392388D02*
G01*
X14870711Y9370711D01*
X14892388Y9338268D01*
X14900000Y9300000D01*
X14900000Y8700000D01*
X14892388Y8661732D01*
X14870711Y8629289D01*
X14838268Y8607612D01*
X14800000Y8600000D01*
X14200000Y8600000D01*
X14161732Y8607612D01*
X14129289Y8629289D01*
X14107612Y8661732D01*
X14100000Y8700000D01*
X14100000Y9300000D01*
X14107612Y9338268D01*
X14129289Y9370711D01*
X14161732Y9392388D01*
X14200000Y9400000D01*
X14800000Y9400000D01*
X14838268Y9392388D01*
G37*
G36*
X23838268Y9392388D02*
G01*
X23870711Y9370711D01*
X23892388Y9338268D01*
X23900000Y9300000D01*
X23900000Y8700000D01*
X23892388Y8661732D01*
X23870711Y8629289D01*
X23838268Y8607612D01*
X23800000Y8600000D01*
X23200000Y8600000D01*
X23161732Y8607612D01*
X23129289Y8629289D01*
X23107612Y8661732D01*
X23100000Y8700000D01*
X23100000Y9300000D01*
X23107612Y9338268D01*
X23129289Y9370711D01*
X23161732Y9392388D01*
X23200000Y9400000D01*
X23800000Y9400000D01*
X23838268Y9392388D01*
G37*
G36*
X25859046Y9534196D02*
G01*
X25911553Y9528104D01*
X25929494Y9520182D01*
X25952584Y9515589D01*
X25977304Y9499072D01*
X25998619Y9489660D01*
X26013176Y9475103D01*
X26035312Y9460312D01*
X26050102Y9438177D01*
X26064659Y9423620D01*
X26074069Y9402307D01*
X26090589Y9377584D01*
X26095182Y9354493D01*
X26103103Y9336554D01*
X26109192Y9284058D01*
X26110000Y9280000D01*
X26110000Y8855000D01*
X26109192Y8850942D01*
X26103103Y8798447D01*
X26095182Y8780510D01*
X26090589Y8757416D01*
X26074068Y8732692D01*
X26064659Y8711381D01*
X26050104Y8696827D01*
X26035312Y8674688D01*
X26013173Y8659896D01*
X25998619Y8645341D01*
X25977308Y8635932D01*
X25952584Y8619411D01*
X25929490Y8614818D01*
X25911553Y8606897D01*
X25859058Y8600808D01*
X25855000Y8600000D01*
X25545000Y8600000D01*
X25540942Y8600808D01*
X25488446Y8606897D01*
X25470507Y8614818D01*
X25447416Y8619411D01*
X25422693Y8635931D01*
X25401380Y8645341D01*
X25386823Y8659898D01*
X25364688Y8674688D01*
X25349897Y8696824D01*
X25335340Y8711381D01*
X25325928Y8732696D01*
X25309411Y8757416D01*
X25304818Y8780506D01*
X25296896Y8798447D01*
X25290804Y8850954D01*
X25290000Y8855000D01*
X25290000Y9280000D01*
X25290804Y9284046D01*
X25296896Y9336554D01*
X25304818Y9354497D01*
X25309411Y9377584D01*
X25325927Y9402303D01*
X25335340Y9423620D01*
X25349899Y9438180D01*
X25364688Y9460312D01*
X25386820Y9475101D01*
X25401380Y9489660D01*
X25422697Y9499073D01*
X25447416Y9515589D01*
X25470503Y9520182D01*
X25488446Y9528104D01*
X25540954Y9534196D01*
X25545000Y9535000D01*
X25855000Y9535000D01*
X25859046Y9534196D01*
G37*
G36*
X7024868Y10135450D02*
G01*
X7030586Y10132655D01*
X7032962Y10132278D01*
X7070987Y10112904D01*
X7128377Y10084847D01*
X7209847Y10003377D01*
X7237907Y9945980D01*
X7257276Y9907966D01*
X7257652Y9905592D01*
X7260450Y9899868D01*
X7275000Y9800000D01*
X7275000Y9200000D01*
X7260450Y9100132D01*
X7257652Y9094411D01*
X7257277Y9092038D01*
X7237926Y9054061D01*
X7209847Y8996623D01*
X7128377Y8915153D01*
X7070955Y8887081D01*
X7032965Y8867724D01*
X7030591Y8867349D01*
X7024868Y8864550D01*
X6925000Y8850000D01*
X4925000Y8850000D01*
X4825132Y8864550D01*
X4819410Y8867348D01*
X4817037Y8867723D01*
X4779035Y8887086D01*
X4721623Y8915153D01*
X4640153Y8996623D01*
X4612104Y9053997D01*
X4592723Y9092035D01*
X4592346Y9094412D01*
X4589550Y9100132D01*
X4575000Y9200000D01*
X4575000Y9800000D01*
X4589550Y9899868D01*
X4592345Y9905587D01*
X4592722Y9907963D01*
X4612108Y9946013D01*
X4640153Y10003377D01*
X4721623Y10084847D01*
X4778971Y10112884D01*
X4817034Y10132277D01*
X4819411Y10132654D01*
X4825132Y10135450D01*
X4925000Y10150000D01*
X6925000Y10150000D01*
X7024868Y10135450D01*
G37*
G36*
X14838268Y10392388D02*
G01*
X14870711Y10370711D01*
X14892388Y10338268D01*
X14900000Y10300000D01*
X14900000Y9700000D01*
X14892388Y9661732D01*
X14870711Y9629289D01*
X14838268Y9607612D01*
X14800000Y9600000D01*
X14200000Y9600000D01*
X14161732Y9607612D01*
X14129289Y9629289D01*
X14107612Y9661732D01*
X14100000Y9700000D01*
X14100000Y10300000D01*
X14107612Y10338268D01*
X14129289Y10370711D01*
X14161732Y10392388D01*
X14200000Y10400000D01*
X14800000Y10400000D01*
X14838268Y10392388D01*
G37*
G36*
X23838268Y10392388D02*
G01*
X23870711Y10370711D01*
X23892388Y10338268D01*
X23900000Y10300000D01*
X23900000Y9700000D01*
X23892388Y9661732D01*
X23870711Y9629289D01*
X23838268Y9607612D01*
X23800000Y9600000D01*
X23200000Y9600000D01*
X23161732Y9607612D01*
X23129289Y9629289D01*
X23107612Y9661732D01*
X23100000Y9700000D01*
X23100000Y10300000D01*
X23107612Y10338268D01*
X23129289Y10370711D01*
X23161732Y10392388D01*
X23200000Y10400000D01*
X23800000Y10400000D01*
X23838268Y10392388D01*
G37*
G36*
X3363685Y11422011D02*
G01*
X3481408Y11373249D01*
X3587356Y11302457D01*
X3677457Y11212356D01*
X3748249Y11106408D01*
X3797011Y10988685D01*
X3821870Y10863711D01*
X3821870Y10736289D01*
X3797011Y10611315D01*
X3748249Y10493592D01*
X3677457Y10387644D01*
X3587356Y10297543D01*
X3481408Y10226751D01*
X3363685Y10177989D01*
X3238711Y10153130D01*
X3111289Y10153130D01*
X2986315Y10177989D01*
X2868592Y10226751D01*
X2762644Y10297543D01*
X2672543Y10387644D01*
X2601751Y10493592D01*
X2552989Y10611315D01*
X2528130Y10736289D01*
X2528130Y10863711D01*
X2552989Y10988685D01*
X2601751Y11106408D01*
X2672543Y11212356D01*
X2762644Y11302457D01*
X2868592Y11373249D01*
X2986315Y11422011D01*
X3111289Y11446870D01*
X3238711Y11446870D01*
X3363685Y11422011D01*
G37*
G36*
X30374868Y11720450D02*
G01*
X30380586Y11717655D01*
X30382962Y11717278D01*
X30420987Y11697904D01*
X30478377Y11669847D01*
X30559847Y11588377D01*
X30587907Y11530980D01*
X30607276Y11492966D01*
X30607652Y11490592D01*
X30610450Y11484868D01*
X30625000Y11385000D01*
X30625000Y10615000D01*
X30610450Y10515132D01*
X30607652Y10509411D01*
X30607277Y10507038D01*
X30587926Y10469061D01*
X30559847Y10411623D01*
X30478377Y10330153D01*
X30420955Y10302081D01*
X30382965Y10282724D01*
X30380591Y10282349D01*
X30374868Y10279550D01*
X30275000Y10265000D01*
X27575000Y10265000D01*
X27475132Y10279550D01*
X27469410Y10282348D01*
X27467037Y10282723D01*
X27429035Y10302086D01*
X27371623Y10330153D01*
X27290153Y10411623D01*
X27262104Y10468997D01*
X27242723Y10507035D01*
X27242346Y10509412D01*
X27239550Y10515132D01*
X27225000Y10615000D01*
X27225000Y11385000D01*
X27239550Y11484868D01*
X27242345Y11490587D01*
X27242722Y11492963D01*
X27262108Y11531013D01*
X27290153Y11588377D01*
X27371623Y11669847D01*
X27428971Y11697884D01*
X27467034Y11717277D01*
X27469411Y11717654D01*
X27475132Y11720450D01*
X27575000Y11735000D01*
X30275000Y11735000D01*
X30374868Y11720450D01*
G37*
G36*
X14838268Y11392388D02*
G01*
X14870711Y11370711D01*
X14892388Y11338268D01*
X14900000Y11300000D01*
X14900000Y10700000D01*
X14892388Y10661732D01*
X14870711Y10629289D01*
X14838268Y10607612D01*
X14800000Y10600000D01*
X14200000Y10600000D01*
X14161732Y10607612D01*
X14129289Y10629289D01*
X14107612Y10661732D01*
X14100000Y10700000D01*
X14100000Y11300000D01*
X14107612Y11338268D01*
X14129289Y11370711D01*
X14161732Y11392388D01*
X14200000Y11400000D01*
X14800000Y11400000D01*
X14838268Y11392388D01*
G37*
G36*
X23838268Y11392388D02*
G01*
X23870711Y11370711D01*
X23892388Y11338268D01*
X23900000Y11300000D01*
X23900000Y10700000D01*
X23892388Y10661732D01*
X23870711Y10629289D01*
X23838268Y10607612D01*
X23800000Y10600000D01*
X23200000Y10600000D01*
X23161732Y10607612D01*
X23129289Y10629289D01*
X23107612Y10661732D01*
X23100000Y10700000D01*
X23100000Y11300000D01*
X23107612Y11338268D01*
X23129289Y11370711D01*
X23161732Y11392388D01*
X23200000Y11400000D01*
X23800000Y11400000D01*
X23838268Y11392388D01*
G37*
G36*
X10749851Y11863500D02*
G01*
X10759457Y11859021D01*
X10766601Y11857889D01*
X10817493Y11831959D01*
X10856082Y11813964D01*
X10859482Y11810564D01*
X10860508Y11810041D01*
X10935040Y11735509D01*
X10935562Y11734484D01*
X10938964Y11731082D01*
X10956965Y11692477D01*
X10982888Y11641601D01*
X10984018Y11634461D01*
X10988500Y11624851D01*
X11000000Y11537500D01*
X11000000Y11062500D01*
X10988500Y10975149D01*
X10984018Y10965540D01*
X10982888Y10958399D01*
X10956968Y10907530D01*
X10938964Y10868918D01*
X10935561Y10865516D01*
X10935040Y10864492D01*
X10860508Y10789960D01*
X10859484Y10789439D01*
X10856082Y10786036D01*
X10817464Y10768029D01*
X10766600Y10742112D01*
X10759461Y10740982D01*
X10749851Y10736500D01*
X10662500Y10725000D01*
X10162500Y10725000D01*
X10075149Y10736500D01*
X10065539Y10740981D01*
X10058398Y10742112D01*
X10007518Y10768037D01*
X9968918Y10786036D01*
X9965516Y10789438D01*
X9964491Y10789960D01*
X9889959Y10864492D01*
X9889436Y10865518D01*
X9886036Y10868918D01*
X9868039Y10907513D01*
X9842111Y10958400D01*
X9840979Y10965542D01*
X9836500Y10975149D01*
X9825000Y11062500D01*
X9825000Y11537500D01*
X9836500Y11624851D01*
X9840979Y11634458D01*
X9842111Y11641602D01*
X9868047Y11692505D01*
X9886036Y11731082D01*
X9889435Y11734482D01*
X9889959Y11735509D01*
X9964491Y11810041D01*
X9965518Y11810565D01*
X9968918Y11813964D01*
X10007500Y11831956D01*
X10058399Y11857889D01*
X10065542Y11859021D01*
X10075149Y11863500D01*
X10162500Y11875000D01*
X10662500Y11875000D01*
X10749851Y11863500D01*
G37*
G36*
X12574851Y11863500D02*
G01*
X12584457Y11859021D01*
X12591601Y11857889D01*
X12642493Y11831959D01*
X12681082Y11813964D01*
X12684482Y11810564D01*
X12685508Y11810041D01*
X12760040Y11735509D01*
X12760562Y11734484D01*
X12763964Y11731082D01*
X12781965Y11692477D01*
X12807888Y11641601D01*
X12809018Y11634461D01*
X12813500Y11624851D01*
X12825000Y11537500D01*
X12825000Y11062500D01*
X12813500Y10975149D01*
X12809018Y10965540D01*
X12807888Y10958399D01*
X12781968Y10907530D01*
X12763964Y10868918D01*
X12760561Y10865516D01*
X12760040Y10864492D01*
X12685508Y10789960D01*
X12684484Y10789439D01*
X12681082Y10786036D01*
X12642464Y10768029D01*
X12591600Y10742112D01*
X12584461Y10740982D01*
X12574851Y10736500D01*
X12487500Y10725000D01*
X11987500Y10725000D01*
X11900149Y10736500D01*
X11890539Y10740981D01*
X11883398Y10742112D01*
X11832518Y10768037D01*
X11793918Y10786036D01*
X11790516Y10789438D01*
X11789491Y10789960D01*
X11714959Y10864492D01*
X11714436Y10865518D01*
X11711036Y10868918D01*
X11693039Y10907513D01*
X11667111Y10958400D01*
X11665979Y10965542D01*
X11661500Y10975149D01*
X11650000Y11062500D01*
X11650000Y11537500D01*
X11661500Y11624851D01*
X11665979Y11634458D01*
X11667111Y11641602D01*
X11693047Y11692505D01*
X11711036Y11731082D01*
X11714435Y11734482D01*
X11714959Y11735509D01*
X11789491Y11810041D01*
X11790518Y11810565D01*
X11793918Y11813964D01*
X11832500Y11831956D01*
X11883399Y11857889D01*
X11890542Y11859021D01*
X11900149Y11863500D01*
X11987500Y11875000D01*
X12487500Y11875000D01*
X12574851Y11863500D01*
G37*
G36*
X7024868Y12635450D02*
G01*
X7030586Y12632655D01*
X7032962Y12632278D01*
X7070987Y12612904D01*
X7128377Y12584847D01*
X7209847Y12503377D01*
X7237907Y12445980D01*
X7257276Y12407966D01*
X7257652Y12405592D01*
X7260450Y12399868D01*
X7275000Y12300000D01*
X7275000Y11700000D01*
X7260450Y11600132D01*
X7257652Y11594411D01*
X7257277Y11592038D01*
X7237926Y11554061D01*
X7209847Y11496623D01*
X7128377Y11415153D01*
X7070955Y11387081D01*
X7032965Y11367724D01*
X7030591Y11367349D01*
X7024868Y11364550D01*
X6925000Y11350000D01*
X4925000Y11350000D01*
X4825132Y11364550D01*
X4819410Y11367348D01*
X4817037Y11367723D01*
X4779035Y11387086D01*
X4721623Y11415153D01*
X4640153Y11496623D01*
X4612104Y11553997D01*
X4592723Y11592035D01*
X4592346Y11594412D01*
X4589550Y11600132D01*
X4575000Y11700000D01*
X4575000Y12300000D01*
X4589550Y12399868D01*
X4592345Y12405587D01*
X4592722Y12407963D01*
X4612108Y12446013D01*
X4640153Y12503377D01*
X4721623Y12584847D01*
X4778971Y12612884D01*
X4817034Y12632277D01*
X4819411Y12632654D01*
X4825132Y12635450D01*
X4925000Y12650000D01*
X6925000Y12650000D01*
X7024868Y12635450D01*
G37*
G36*
X14838268Y12392388D02*
G01*
X14870711Y12370711D01*
X14892388Y12338268D01*
X14900000Y12300000D01*
X14900000Y11700000D01*
X14892388Y11661732D01*
X14870711Y11629289D01*
X14838268Y11607612D01*
X14800000Y11600000D01*
X14200000Y11600000D01*
X14161732Y11607612D01*
X14129289Y11629289D01*
X14107612Y11661732D01*
X14100000Y11700000D01*
X14100000Y12300000D01*
X14107612Y12338268D01*
X14129289Y12370711D01*
X14161732Y12392388D01*
X14200000Y12400000D01*
X14800000Y12400000D01*
X14838268Y12392388D01*
G37*
G36*
X15838268Y12392388D02*
G01*
X15870711Y12370711D01*
X15892388Y12338268D01*
X15900000Y12300000D01*
X15900000Y11700000D01*
X15892388Y11661732D01*
X15870711Y11629289D01*
X15838268Y11607612D01*
X15800000Y11600000D01*
X15200000Y11600000D01*
X15161732Y11607612D01*
X15129289Y11629289D01*
X15107612Y11661732D01*
X15100000Y11700000D01*
X15100000Y12300000D01*
X15107612Y12338268D01*
X15129289Y12370711D01*
X15161732Y12392388D01*
X15200000Y12400000D01*
X15800000Y12400000D01*
X15838268Y12392388D01*
G37*
G36*
X16838268Y12392388D02*
G01*
X16870711Y12370711D01*
X16892388Y12338268D01*
X16900000Y12300000D01*
X16900000Y11700000D01*
X16892388Y11661732D01*
X16870711Y11629289D01*
X16838268Y11607612D01*
X16800000Y11600000D01*
X16200000Y11600000D01*
X16161732Y11607612D01*
X16129289Y11629289D01*
X16107612Y11661732D01*
X16100000Y11700000D01*
X16100000Y12300000D01*
X16107612Y12338268D01*
X16129289Y12370711D01*
X16161732Y12392388D01*
X16200000Y12400000D01*
X16800000Y12400000D01*
X16838268Y12392388D01*
G37*
G36*
X17838268Y12392388D02*
G01*
X17870711Y12370711D01*
X17892388Y12338268D01*
X17900000Y12300000D01*
X17900000Y11700000D01*
X17892388Y11661732D01*
X17870711Y11629289D01*
X17838268Y11607612D01*
X17800000Y11600000D01*
X17200000Y11600000D01*
X17161732Y11607612D01*
X17129289Y11629289D01*
X17107612Y11661732D01*
X17100000Y11700000D01*
X17100000Y12300000D01*
X17107612Y12338268D01*
X17129289Y12370711D01*
X17161732Y12392388D01*
X17200000Y12400000D01*
X17800000Y12400000D01*
X17838268Y12392388D01*
G37*
G36*
X18838268Y12392388D02*
G01*
X18870711Y12370711D01*
X18892388Y12338268D01*
X18900000Y12300000D01*
X18900000Y11700000D01*
X18892388Y11661732D01*
X18870711Y11629289D01*
X18838268Y11607612D01*
X18800000Y11600000D01*
X18200000Y11600000D01*
X18161732Y11607612D01*
X18129289Y11629289D01*
X18107612Y11661732D01*
X18100000Y11700000D01*
X18100000Y12300000D01*
X18107612Y12338268D01*
X18129289Y12370711D01*
X18161732Y12392388D01*
X18200000Y12400000D01*
X18800000Y12400000D01*
X18838268Y12392388D01*
G37*
G36*
X19838268Y12392388D02*
G01*
X19870711Y12370711D01*
X19892388Y12338268D01*
X19900000Y12300000D01*
X19900000Y11700000D01*
X19892388Y11661732D01*
X19870711Y11629289D01*
X19838268Y11607612D01*
X19800000Y11600000D01*
X19200000Y11600000D01*
X19161732Y11607612D01*
X19129289Y11629289D01*
X19107612Y11661732D01*
X19100000Y11700000D01*
X19100000Y12300000D01*
X19107612Y12338268D01*
X19129289Y12370711D01*
X19161732Y12392388D01*
X19200000Y12400000D01*
X19800000Y12400000D01*
X19838268Y12392388D01*
G37*
G36*
X20838268Y12392388D02*
G01*
X20870711Y12370711D01*
X20892388Y12338268D01*
X20900000Y12300000D01*
X20900000Y11700000D01*
X20892388Y11661732D01*
X20870711Y11629289D01*
X20838268Y11607612D01*
X20800000Y11600000D01*
X20200000Y11600000D01*
X20161732Y11607612D01*
X20129289Y11629289D01*
X20107612Y11661732D01*
X20100000Y11700000D01*
X20100000Y12300000D01*
X20107612Y12338268D01*
X20129289Y12370711D01*
X20161732Y12392388D01*
X20200000Y12400000D01*
X20800000Y12400000D01*
X20838268Y12392388D01*
G37*
G36*
X21838268Y12392388D02*
G01*
X21870711Y12370711D01*
X21892388Y12338268D01*
X21900000Y12300000D01*
X21900000Y11700000D01*
X21892388Y11661732D01*
X21870711Y11629289D01*
X21838268Y11607612D01*
X21800000Y11600000D01*
X21200000Y11600000D01*
X21161732Y11607612D01*
X21129289Y11629289D01*
X21107612Y11661732D01*
X21100000Y11700000D01*
X21100000Y12300000D01*
X21107612Y12338268D01*
X21129289Y12370711D01*
X21161732Y12392388D01*
X21200000Y12400000D01*
X21800000Y12400000D01*
X21838268Y12392388D01*
G37*
G36*
X22838268Y12392388D02*
G01*
X22870711Y12370711D01*
X22892388Y12338268D01*
X22900000Y12300000D01*
X22900000Y11700000D01*
X22892388Y11661732D01*
X22870711Y11629289D01*
X22838268Y11607612D01*
X22800000Y11600000D01*
X22200000Y11600000D01*
X22161732Y11607612D01*
X22129289Y11629289D01*
X22107612Y11661732D01*
X22100000Y11700000D01*
X22100000Y12300000D01*
X22107612Y12338268D01*
X22129289Y12370711D01*
X22161732Y12392388D01*
X22200000Y12400000D01*
X22800000Y12400000D01*
X22838268Y12392388D01*
G37*
G36*
X23838268Y12392388D02*
G01*
X23870711Y12370711D01*
X23892388Y12338268D01*
X23900000Y12300000D01*
X23900000Y11700000D01*
X23892388Y11661732D01*
X23870711Y11629289D01*
X23838268Y11607612D01*
X23800000Y11600000D01*
X23200000Y11600000D01*
X23161732Y11607612D01*
X23129289Y11629289D01*
X23107612Y11661732D01*
X23100000Y11700000D01*
X23100000Y12300000D01*
X23107612Y12338268D01*
X23129289Y12370711D01*
X23161732Y12392388D01*
X23200000Y12400000D01*
X23800000Y12400000D01*
X23838268Y12392388D01*
G37*
G36*
X8999851Y13318600D02*
G01*
X9009457Y13314121D01*
X9016601Y13312989D01*
X9067493Y13287059D01*
X9106082Y13269064D01*
X9109482Y13265664D01*
X9110508Y13265141D01*
X9185040Y13190609D01*
X9185562Y13189584D01*
X9188964Y13186182D01*
X9206965Y13147577D01*
X9232888Y13096701D01*
X9234018Y13089561D01*
X9238500Y13079951D01*
X9250000Y12992600D01*
X9250000Y12517600D01*
X9238500Y12430249D01*
X9234018Y12420640D01*
X9232888Y12413499D01*
X9206968Y12362630D01*
X9188964Y12324018D01*
X9185561Y12320616D01*
X9185040Y12319592D01*
X9110508Y12245060D01*
X9109484Y12244539D01*
X9106082Y12241136D01*
X9067464Y12223129D01*
X9016600Y12197212D01*
X9009461Y12196082D01*
X8999851Y12191600D01*
X8912500Y12180100D01*
X8337500Y12180100D01*
X8250149Y12191600D01*
X8240539Y12196081D01*
X8233398Y12197212D01*
X8182518Y12223137D01*
X8143918Y12241136D01*
X8140516Y12244538D01*
X8139491Y12245060D01*
X8064959Y12319592D01*
X8064436Y12320618D01*
X8061036Y12324018D01*
X8043039Y12362613D01*
X8017111Y12413500D01*
X8015979Y12420642D01*
X8011500Y12430249D01*
X8000000Y12517600D01*
X8000000Y12992600D01*
X8011500Y13079951D01*
X8015979Y13089558D01*
X8017111Y13096702D01*
X8043047Y13147605D01*
X8061036Y13186182D01*
X8064435Y13189582D01*
X8064959Y13190609D01*
X8139491Y13265141D01*
X8140518Y13265665D01*
X8143918Y13269064D01*
X8182500Y13287056D01*
X8233399Y13312989D01*
X8240542Y13314121D01*
X8250149Y13318600D01*
X8337500Y13330100D01*
X8912500Y13330100D01*
X8999851Y13318600D01*
G37*
G36*
X10749851Y13318600D02*
G01*
X10759457Y13314121D01*
X10766601Y13312989D01*
X10817493Y13287059D01*
X10856082Y13269064D01*
X10859482Y13265664D01*
X10860508Y13265141D01*
X10935040Y13190609D01*
X10935562Y13189584D01*
X10938964Y13186182D01*
X10956965Y13147577D01*
X10982888Y13096701D01*
X10984018Y13089561D01*
X10988500Y13079951D01*
X11000000Y12992600D01*
X11000000Y12517600D01*
X10988500Y12430249D01*
X10984018Y12420640D01*
X10982888Y12413499D01*
X10956968Y12362630D01*
X10938964Y12324018D01*
X10935561Y12320616D01*
X10935040Y12319592D01*
X10860508Y12245060D01*
X10859484Y12244539D01*
X10856082Y12241136D01*
X10817464Y12223129D01*
X10766600Y12197212D01*
X10759461Y12196082D01*
X10749851Y12191600D01*
X10662500Y12180100D01*
X10087500Y12180100D01*
X10000149Y12191600D01*
X9990539Y12196081D01*
X9983398Y12197212D01*
X9932518Y12223137D01*
X9893918Y12241136D01*
X9890516Y12244538D01*
X9889491Y12245060D01*
X9814959Y12319592D01*
X9814436Y12320618D01*
X9811036Y12324018D01*
X9793039Y12362613D01*
X9767111Y12413500D01*
X9765979Y12420642D01*
X9761500Y12430249D01*
X9750000Y12517600D01*
X9750000Y12992600D01*
X9761500Y13079951D01*
X9765979Y13089558D01*
X9767111Y13096702D01*
X9793047Y13147605D01*
X9811036Y13186182D01*
X9814435Y13189582D01*
X9814959Y13190609D01*
X9889491Y13265141D01*
X9890518Y13265665D01*
X9893918Y13269064D01*
X9932500Y13287056D01*
X9983399Y13312989D01*
X9990542Y13314121D01*
X10000149Y13318600D01*
X10087500Y13330100D01*
X10662500Y13330100D01*
X10749851Y13318600D01*
G37*
G36*
X30374868Y14585450D02*
G01*
X30380586Y14582655D01*
X30382962Y14582278D01*
X30420987Y14562904D01*
X30478377Y14534847D01*
X30559847Y14453377D01*
X30587907Y14395980D01*
X30607276Y14357966D01*
X30607652Y14355592D01*
X30610450Y14349868D01*
X30625000Y14250000D01*
X30625000Y13400000D01*
X30610450Y13300132D01*
X30607652Y13294411D01*
X30607277Y13292038D01*
X30587926Y13254061D01*
X30559847Y13196623D01*
X30478377Y13115153D01*
X30420955Y13087081D01*
X30382965Y13067724D01*
X30380591Y13067349D01*
X30374868Y13064550D01*
X30275000Y13050000D01*
X27075000Y13050000D01*
X26975132Y13064550D01*
X26969410Y13067348D01*
X26967037Y13067723D01*
X26929035Y13087086D01*
X26871623Y13115153D01*
X26790153Y13196623D01*
X26762104Y13253997D01*
X26742723Y13292035D01*
X26742346Y13294412D01*
X26739550Y13300132D01*
X26725000Y13400000D01*
X26725000Y14250000D01*
X26739550Y14349868D01*
X26742345Y14355587D01*
X26742722Y14357963D01*
X26762108Y14396013D01*
X26790153Y14453377D01*
X26871623Y14534847D01*
X26928971Y14562884D01*
X26967034Y14582277D01*
X26969411Y14582654D01*
X26975132Y14585450D01*
X27075000Y14600000D01*
X30275000Y14600000D01*
X30374868Y14585450D01*
G37*
G36*
X3978873Y15249810D02*
G01*
X4056394Y15246764D01*
X4063374Y15245659D01*
X4077918Y15244944D01*
X4117116Y15237147D01*
X4220078Y15220840D01*
X4253200Y15210078D01*
X4279799Y15204787D01*
X4317335Y15189240D01*
X4376762Y15169930D01*
X4432433Y15141565D01*
X4469967Y15126017D01*
X4492517Y15110950D01*
X4523539Y15095143D01*
X4607866Y15033876D01*
X4641113Y15011661D01*
X4648208Y15004566D01*
X4656817Y14998311D01*
X4773310Y14881818D01*
X4779564Y14873210D01*
X4786661Y14866113D01*
X4808878Y14832862D01*
X4870142Y14748540D01*
X4885947Y14717521D01*
X4901017Y14694967D01*
X4916566Y14657428D01*
X4944929Y14601763D01*
X4964235Y14542343D01*
X4979787Y14504799D01*
X4985078Y14478195D01*
X4995839Y14445079D01*
X5012145Y14342124D01*
X5019944Y14302918D01*
X5019944Y14292886D01*
X5021609Y14282373D01*
X5021609Y14117628D01*
X5019944Y14107116D01*
X5019944Y14097082D01*
X5012144Y14057874D01*
X4995839Y13954922D01*
X4985079Y13921808D01*
X4979787Y13895201D01*
X4964234Y13857654D01*
X4944929Y13798238D01*
X4916568Y13742578D01*
X4901017Y13705033D01*
X4885945Y13682477D01*
X4870142Y13651461D01*
X4808887Y13567151D01*
X4786661Y13533887D01*
X4779561Y13526788D01*
X4773310Y13518183D01*
X4656817Y13401690D01*
X4648212Y13395439D01*
X4641113Y13388339D01*
X4607849Y13366113D01*
X4523539Y13304858D01*
X4492523Y13289055D01*
X4469967Y13273983D01*
X4432422Y13258432D01*
X4376762Y13230071D01*
X4317346Y13210766D01*
X4279799Y13195213D01*
X4253192Y13189921D01*
X4220078Y13179161D01*
X4117140Y13162858D01*
X4077918Y13155056D01*
X4063365Y13154342D01*
X4056394Y13153237D01*
X3978879Y13150191D01*
X3975000Y13150000D01*
X3974030Y13150000D01*
X2375970Y13150000D01*
X2375000Y13150000D01*
X2371120Y13150191D01*
X2293605Y13153237D01*
X2286633Y13154342D01*
X2272082Y13155056D01*
X2232862Y13162858D01*
X2129921Y13179161D01*
X2096805Y13189922D01*
X2070201Y13195213D01*
X2032657Y13210765D01*
X1973237Y13230071D01*
X1917572Y13258434D01*
X1880033Y13273983D01*
X1857479Y13289053D01*
X1826460Y13304858D01*
X1742138Y13366122D01*
X1708887Y13388339D01*
X1701790Y13395436D01*
X1693182Y13401690D01*
X1576689Y13518183D01*
X1570434Y13526792D01*
X1563339Y13533887D01*
X1541124Y13567134D01*
X1479857Y13651461D01*
X1464050Y13682483D01*
X1448983Y13705033D01*
X1433435Y13742567D01*
X1405070Y13798238D01*
X1385760Y13857665D01*
X1370213Y13895201D01*
X1364922Y13921800D01*
X1354160Y13954922D01*
X1337853Y14057883D01*
X1330056Y14097082D01*
X1330056Y14107116D01*
X1328391Y14117628D01*
X1328391Y14282373D01*
X1330056Y14292886D01*
X1330056Y14302918D01*
X1337852Y14342114D01*
X1354160Y14445079D01*
X1364922Y14478203D01*
X1370213Y14504799D01*
X1385759Y14542332D01*
X1405070Y14601763D01*
X1433438Y14657439D01*
X1448983Y14694967D01*
X1464048Y14717514D01*
X1479857Y14748540D01*
X1541132Y14832879D01*
X1563339Y14866113D01*
X1570432Y14873207D01*
X1576689Y14881818D01*
X1693182Y14998311D01*
X1701793Y15004568D01*
X1708887Y15011661D01*
X1742121Y15033868D01*
X1826460Y15095143D01*
X1857486Y15110952D01*
X1880033Y15126017D01*
X1917561Y15141562D01*
X1973237Y15169930D01*
X2032668Y15189241D01*
X2070201Y15204787D01*
X2096797Y15210078D01*
X2129921Y15220840D01*
X2232887Y15237148D01*
X2272082Y15244944D01*
X2286624Y15245659D01*
X2293605Y15246764D01*
X2371126Y15249810D01*
X2375000Y15250000D01*
X3975000Y15250000D01*
X3978873Y15249810D01*
G37*
G36*
X6899851Y14818600D02*
G01*
X6909457Y14814121D01*
X6916601Y14812989D01*
X6967493Y14787059D01*
X7006082Y14769064D01*
X7009482Y14765664D01*
X7010508Y14765141D01*
X7085040Y14690609D01*
X7085562Y14689584D01*
X7088964Y14686182D01*
X7106965Y14647577D01*
X7132888Y14596701D01*
X7134018Y14589561D01*
X7138500Y14579951D01*
X7150000Y14492600D01*
X7150000Y14017600D01*
X7138500Y13930249D01*
X7134018Y13920640D01*
X7132888Y13913499D01*
X7106968Y13862630D01*
X7088964Y13824018D01*
X7085561Y13820616D01*
X7085040Y13819592D01*
X7010508Y13745060D01*
X7009484Y13744539D01*
X7006082Y13741136D01*
X6967464Y13723129D01*
X6916600Y13697212D01*
X6909461Y13696082D01*
X6899851Y13691600D01*
X6812500Y13680100D01*
X6237500Y13680100D01*
X6150149Y13691600D01*
X6140539Y13696081D01*
X6133398Y13697212D01*
X6082518Y13723137D01*
X6043918Y13741136D01*
X6040516Y13744538D01*
X6039491Y13745060D01*
X5964959Y13819592D01*
X5964436Y13820618D01*
X5961036Y13824018D01*
X5943039Y13862613D01*
X5917111Y13913500D01*
X5915979Y13920642D01*
X5911500Y13930249D01*
X5900000Y14017600D01*
X5900000Y14492600D01*
X5911500Y14579951D01*
X5915979Y14589558D01*
X5917111Y14596702D01*
X5943047Y14647605D01*
X5961036Y14686182D01*
X5964435Y14689582D01*
X5964959Y14690609D01*
X6039491Y14765141D01*
X6040518Y14765665D01*
X6043918Y14769064D01*
X6082500Y14787056D01*
X6133399Y14812989D01*
X6140542Y14814121D01*
X6150149Y14818600D01*
X6237500Y14830100D01*
X6812500Y14830100D01*
X6899851Y14818600D01*
G37*
G36*
X8649851Y14818600D02*
G01*
X8659457Y14814121D01*
X8666601Y14812989D01*
X8717493Y14787059D01*
X8756082Y14769064D01*
X8759482Y14765664D01*
X8760508Y14765141D01*
X8835040Y14690609D01*
X8835562Y14689584D01*
X8838964Y14686182D01*
X8856965Y14647577D01*
X8882888Y14596701D01*
X8884018Y14589561D01*
X8888500Y14579951D01*
X8900000Y14492600D01*
X8900000Y14017600D01*
X8888500Y13930249D01*
X8884018Y13920640D01*
X8882888Y13913499D01*
X8856968Y13862630D01*
X8838964Y13824018D01*
X8835561Y13820616D01*
X8835040Y13819592D01*
X8760508Y13745060D01*
X8759484Y13744539D01*
X8756082Y13741136D01*
X8717464Y13723129D01*
X8666600Y13697212D01*
X8659461Y13696082D01*
X8649851Y13691600D01*
X8562500Y13680100D01*
X7987500Y13680100D01*
X7900149Y13691600D01*
X7890539Y13696081D01*
X7883398Y13697212D01*
X7832518Y13723137D01*
X7793918Y13741136D01*
X7790516Y13744538D01*
X7789491Y13745060D01*
X7714959Y13819592D01*
X7714436Y13820618D01*
X7711036Y13824018D01*
X7693039Y13862613D01*
X7667111Y13913500D01*
X7665979Y13920642D01*
X7661500Y13930249D01*
X7650000Y14017600D01*
X7650000Y14492600D01*
X7661500Y14579951D01*
X7665979Y14589558D01*
X7667111Y14596702D01*
X7693047Y14647605D01*
X7711036Y14686182D01*
X7714435Y14689582D01*
X7714959Y14690609D01*
X7789491Y14765141D01*
X7790518Y14765665D01*
X7793918Y14769064D01*
X7832500Y14787056D01*
X7883399Y14812989D01*
X7890542Y14814121D01*
X7900149Y14818600D01*
X7987500Y14830100D01*
X8562500Y14830100D01*
X8649851Y14818600D01*
G37*
G36*
X10124851Y14818600D02*
G01*
X10134457Y14814121D01*
X10141601Y14812989D01*
X10192493Y14787059D01*
X10231082Y14769064D01*
X10234482Y14765664D01*
X10235508Y14765141D01*
X10310040Y14690609D01*
X10310562Y14689584D01*
X10313964Y14686182D01*
X10331965Y14647577D01*
X10357888Y14596701D01*
X10359018Y14589561D01*
X10363500Y14579951D01*
X10375000Y14492600D01*
X10375000Y14017600D01*
X10363500Y13930249D01*
X10359018Y13920640D01*
X10357888Y13913499D01*
X10331968Y13862630D01*
X10313964Y13824018D01*
X10310561Y13820616D01*
X10310040Y13819592D01*
X10235508Y13745060D01*
X10234484Y13744539D01*
X10231082Y13741136D01*
X10192464Y13723129D01*
X10141600Y13697212D01*
X10134461Y13696082D01*
X10124851Y13691600D01*
X10037500Y13680100D01*
X9537500Y13680100D01*
X9450149Y13691600D01*
X9440539Y13696081D01*
X9433398Y13697212D01*
X9382518Y13723137D01*
X9343918Y13741136D01*
X9340516Y13744538D01*
X9339491Y13745060D01*
X9264959Y13819592D01*
X9264436Y13820618D01*
X9261036Y13824018D01*
X9243039Y13862613D01*
X9217111Y13913500D01*
X9215979Y13920642D01*
X9211500Y13930249D01*
X9200000Y14017600D01*
X9200000Y14492600D01*
X9211500Y14579951D01*
X9215979Y14589558D01*
X9217111Y14596702D01*
X9243047Y14647605D01*
X9261036Y14686182D01*
X9264435Y14689582D01*
X9264959Y14690609D01*
X9339491Y14765141D01*
X9340518Y14765665D01*
X9343918Y14769064D01*
X9382500Y14787056D01*
X9433399Y14812989D01*
X9440542Y14814121D01*
X9450149Y14818600D01*
X9537500Y14830100D01*
X10037500Y14830100D01*
X10124851Y14818600D01*
G37*
G36*
X11949851Y14818600D02*
G01*
X11959457Y14814121D01*
X11966601Y14812989D01*
X12017493Y14787059D01*
X12056082Y14769064D01*
X12059482Y14765664D01*
X12060508Y14765141D01*
X12135040Y14690609D01*
X12135562Y14689584D01*
X12138964Y14686182D01*
X12156965Y14647577D01*
X12182888Y14596701D01*
X12184018Y14589561D01*
X12188500Y14579951D01*
X12200000Y14492600D01*
X12200000Y14017600D01*
X12188500Y13930249D01*
X12184018Y13920640D01*
X12182888Y13913499D01*
X12156968Y13862630D01*
X12138964Y13824018D01*
X12135561Y13820616D01*
X12135040Y13819592D01*
X12060508Y13745060D01*
X12059484Y13744539D01*
X12056082Y13741136D01*
X12017464Y13723129D01*
X11966600Y13697212D01*
X11959461Y13696082D01*
X11949851Y13691600D01*
X11862500Y13680100D01*
X11362500Y13680100D01*
X11275149Y13691600D01*
X11265539Y13696081D01*
X11258398Y13697212D01*
X11207518Y13723137D01*
X11168918Y13741136D01*
X11165516Y13744538D01*
X11164491Y13745060D01*
X11089959Y13819592D01*
X11089436Y13820618D01*
X11086036Y13824018D01*
X11068039Y13862613D01*
X11042111Y13913500D01*
X11040979Y13920642D01*
X11036500Y13930249D01*
X11025000Y14017600D01*
X11025000Y14492600D01*
X11036500Y14579951D01*
X11040979Y14589558D01*
X11042111Y14596702D01*
X11068047Y14647605D01*
X11086036Y14686182D01*
X11089435Y14689582D01*
X11089959Y14690609D01*
X11164491Y14765141D01*
X11165518Y14765665D01*
X11168918Y14769064D01*
X11207500Y14787056D01*
X11258399Y14812989D01*
X11265542Y14814121D01*
X11275149Y14818600D01*
X11362500Y14830100D01*
X11862500Y14830100D01*
X11949851Y14818600D01*
G37*
G36*
X14108268Y15692388D02*
G01*
X14140711Y15670711D01*
X14162388Y15638268D01*
X14170000Y15600000D01*
X14170000Y15252501D01*
X14250488Y15236491D01*
X14279467Y15306454D01*
X14285672Y15329610D01*
X14297658Y15350372D01*
X14311059Y15382723D01*
X14349884Y15440829D01*
X14363988Y15465257D01*
X14370675Y15471945D01*
X14376380Y15480482D01*
X14459518Y15563620D01*
X14468055Y15569325D01*
X14474743Y15576012D01*
X14499175Y15590119D01*
X14557277Y15628940D01*
X14589624Y15642340D01*
X14610390Y15654328D01*
X14633548Y15660534D01*
X14665900Y15673934D01*
X14734437Y15687567D01*
X14761684Y15694867D01*
X14771142Y15694867D01*
X14781212Y15696870D01*
X14898788Y15696870D01*
X14908858Y15694867D01*
X14918316Y15694867D01*
X14945563Y15687567D01*
X15014099Y15673934D01*
X15046448Y15660535D01*
X15069610Y15654328D01*
X15090377Y15642338D01*
X15122722Y15628940D01*
X15180816Y15590123D01*
X15205257Y15576012D01*
X15211946Y15569323D01*
X15220481Y15563620D01*
X15303619Y15480482D01*
X15309321Y15471948D01*
X15316012Y15465257D01*
X15330124Y15440814D01*
X15368939Y15382723D01*
X15382335Y15350382D01*
X15394328Y15329610D01*
X15400535Y15306445D01*
X15413933Y15274100D01*
X15427564Y15205569D01*
X15434867Y15178316D01*
X15434867Y15173382D01*
X15515133Y15173382D01*
X15515133Y15178316D01*
X15522434Y15205564D01*
X15536066Y15274100D01*
X15549466Y15306452D01*
X15555672Y15329610D01*
X15567660Y15350376D01*
X15581060Y15382723D01*
X15619881Y15440825D01*
X15633988Y15465257D01*
X15640675Y15471945D01*
X15646380Y15480482D01*
X15729518Y15563620D01*
X15738055Y15569325D01*
X15744743Y15576012D01*
X15769175Y15590119D01*
X15827277Y15628940D01*
X15859624Y15642340D01*
X15880390Y15654328D01*
X15903548Y15660534D01*
X15935900Y15673934D01*
X16004437Y15687567D01*
X16031684Y15694867D01*
X16041142Y15694867D01*
X16051212Y15696870D01*
X16168788Y15696870D01*
X16178858Y15694867D01*
X16188316Y15694867D01*
X16215563Y15687567D01*
X16284099Y15673934D01*
X16316448Y15660535D01*
X16339610Y15654328D01*
X16360377Y15642338D01*
X16392722Y15628940D01*
X16450816Y15590123D01*
X16475257Y15576012D01*
X16481946Y15569323D01*
X16490481Y15563620D01*
X16573619Y15480482D01*
X16579321Y15471948D01*
X16586012Y15465257D01*
X16600124Y15440814D01*
X16638939Y15382723D01*
X16652335Y15350382D01*
X16664328Y15329610D01*
X16670535Y15306445D01*
X16683933Y15274100D01*
X16697564Y15205569D01*
X16704867Y15178316D01*
X16704867Y15173382D01*
X16785133Y15173382D01*
X16785133Y15178316D01*
X16792434Y15205564D01*
X16806066Y15274100D01*
X16819466Y15306452D01*
X16825672Y15329610D01*
X16837660Y15350376D01*
X16851060Y15382723D01*
X16889881Y15440825D01*
X16903988Y15465257D01*
X16910675Y15471945D01*
X16916380Y15480482D01*
X16999518Y15563620D01*
X17008055Y15569325D01*
X17014743Y15576012D01*
X17039175Y15590119D01*
X17097277Y15628940D01*
X17129624Y15642340D01*
X17150390Y15654328D01*
X17173548Y15660534D01*
X17205900Y15673934D01*
X17274437Y15687567D01*
X17301684Y15694867D01*
X17311142Y15694867D01*
X17321212Y15696870D01*
X17438788Y15696870D01*
X17448858Y15694867D01*
X17458316Y15694867D01*
X17485563Y15687567D01*
X17554099Y15673934D01*
X17586448Y15660535D01*
X17609610Y15654328D01*
X17630377Y15642338D01*
X17662722Y15628940D01*
X17720816Y15590123D01*
X17745257Y15576012D01*
X17751946Y15569323D01*
X17760481Y15563620D01*
X17843619Y15480482D01*
X17849321Y15471948D01*
X17856012Y15465257D01*
X17870124Y15440814D01*
X17908939Y15382723D01*
X17922335Y15350382D01*
X17934328Y15329610D01*
X17940535Y15306445D01*
X17953933Y15274100D01*
X17967564Y15205569D01*
X17974867Y15178316D01*
X17974867Y15173382D01*
X18055133Y15173382D01*
X18055133Y15178316D01*
X18062434Y15205564D01*
X18076066Y15274100D01*
X18089466Y15306452D01*
X18095672Y15329610D01*
X18107660Y15350376D01*
X18121060Y15382723D01*
X18159881Y15440825D01*
X18173988Y15465257D01*
X18180675Y15471945D01*
X18186380Y15480482D01*
X18269518Y15563620D01*
X18278055Y15569325D01*
X18284743Y15576012D01*
X18309175Y15590119D01*
X18367277Y15628940D01*
X18399624Y15642340D01*
X18420390Y15654328D01*
X18443548Y15660534D01*
X18475900Y15673934D01*
X18544437Y15687567D01*
X18571684Y15694867D01*
X18581142Y15694867D01*
X18591212Y15696870D01*
X18708788Y15696870D01*
X18718858Y15694867D01*
X18728316Y15694867D01*
X18755563Y15687567D01*
X18824099Y15673934D01*
X18856448Y15660535D01*
X18879610Y15654328D01*
X18900377Y15642338D01*
X18932722Y15628940D01*
X18990816Y15590123D01*
X19015257Y15576012D01*
X19021946Y15569323D01*
X19030481Y15563620D01*
X19113619Y15480482D01*
X19119321Y15471948D01*
X19126012Y15465257D01*
X19140124Y15440814D01*
X19178939Y15382723D01*
X19192335Y15350382D01*
X19204328Y15329610D01*
X19210535Y15306445D01*
X19223933Y15274100D01*
X19237564Y15205569D01*
X19244867Y15178316D01*
X19244867Y15173382D01*
X19325133Y15173382D01*
X19325133Y15178316D01*
X19332434Y15205564D01*
X19346066Y15274100D01*
X19359466Y15306452D01*
X19365672Y15329610D01*
X19377660Y15350376D01*
X19391060Y15382723D01*
X19429881Y15440825D01*
X19443988Y15465257D01*
X19450675Y15471945D01*
X19456380Y15480482D01*
X19539518Y15563620D01*
X19548055Y15569325D01*
X19554743Y15576012D01*
X19579175Y15590119D01*
X19637277Y15628940D01*
X19669624Y15642340D01*
X19690390Y15654328D01*
X19713548Y15660534D01*
X19745900Y15673934D01*
X19814437Y15687567D01*
X19841684Y15694867D01*
X19851142Y15694867D01*
X19861212Y15696870D01*
X19978788Y15696870D01*
X19988858Y15694867D01*
X19998316Y15694867D01*
X20025563Y15687567D01*
X20094099Y15673934D01*
X20126448Y15660535D01*
X20149610Y15654328D01*
X20170377Y15642338D01*
X20202722Y15628940D01*
X20260816Y15590123D01*
X20285257Y15576012D01*
X20291946Y15569323D01*
X20300481Y15563620D01*
X20383619Y15480482D01*
X20389321Y15471948D01*
X20396012Y15465257D01*
X20410124Y15440814D01*
X20448939Y15382723D01*
X20462335Y15350382D01*
X20474328Y15329610D01*
X20480535Y15306445D01*
X20493933Y15274100D01*
X20507564Y15205569D01*
X20514867Y15178316D01*
X20514867Y15173382D01*
X20595133Y15173382D01*
X20595133Y15178316D01*
X20602434Y15205564D01*
X20616066Y15274100D01*
X20629466Y15306452D01*
X20635672Y15329610D01*
X20647660Y15350376D01*
X20661060Y15382723D01*
X20699881Y15440825D01*
X20713988Y15465257D01*
X20720675Y15471945D01*
X20726380Y15480482D01*
X20809518Y15563620D01*
X20818055Y15569325D01*
X20824743Y15576012D01*
X20849175Y15590119D01*
X20907277Y15628940D01*
X20939624Y15642340D01*
X20960390Y15654328D01*
X20983548Y15660534D01*
X21015900Y15673934D01*
X21084437Y15687567D01*
X21111684Y15694867D01*
X21121142Y15694867D01*
X21131212Y15696870D01*
X21248788Y15696870D01*
X21258858Y15694867D01*
X21268316Y15694867D01*
X21295563Y15687567D01*
X21364099Y15673934D01*
X21396448Y15660535D01*
X21419610Y15654328D01*
X21440377Y15642338D01*
X21472722Y15628940D01*
X21530816Y15590123D01*
X21555257Y15576012D01*
X21561946Y15569323D01*
X21570481Y15563620D01*
X21653619Y15480482D01*
X21659321Y15471948D01*
X21666012Y15465257D01*
X21680124Y15440814D01*
X21718939Y15382723D01*
X21732335Y15350382D01*
X21744328Y15329610D01*
X21750535Y15306445D01*
X21763933Y15274100D01*
X21777564Y15205569D01*
X21784867Y15178316D01*
X21784867Y15173382D01*
X21865133Y15173382D01*
X21865133Y15178316D01*
X21872434Y15205564D01*
X21886066Y15274100D01*
X21899466Y15306452D01*
X21905672Y15329610D01*
X21917660Y15350376D01*
X21931060Y15382723D01*
X21969881Y15440825D01*
X21983988Y15465257D01*
X21990675Y15471945D01*
X21996380Y15480482D01*
X22079518Y15563620D01*
X22088055Y15569325D01*
X22094743Y15576012D01*
X22119175Y15590119D01*
X22177277Y15628940D01*
X22209624Y15642340D01*
X22230390Y15654328D01*
X22253548Y15660534D01*
X22285900Y15673934D01*
X22354437Y15687567D01*
X22381684Y15694867D01*
X22391142Y15694867D01*
X22401212Y15696870D01*
X22518788Y15696870D01*
X22528858Y15694867D01*
X22538316Y15694867D01*
X22565563Y15687567D01*
X22634099Y15673934D01*
X22666448Y15660535D01*
X22689610Y15654328D01*
X22710377Y15642338D01*
X22742722Y15628940D01*
X22800816Y15590123D01*
X22825257Y15576012D01*
X22831946Y15569323D01*
X22840481Y15563620D01*
X22923619Y15480482D01*
X22929321Y15471948D01*
X22936012Y15465257D01*
X22950124Y15440814D01*
X22988939Y15382723D01*
X23002335Y15350382D01*
X23014328Y15329610D01*
X23020535Y15306445D01*
X23033933Y15274100D01*
X23047564Y15205569D01*
X23054867Y15178316D01*
X23054867Y15173382D01*
X23135133Y15173382D01*
X23135133Y15178316D01*
X23142434Y15205564D01*
X23156066Y15274100D01*
X23169466Y15306452D01*
X23175672Y15329610D01*
X23187660Y15350376D01*
X23201060Y15382723D01*
X23239881Y15440825D01*
X23253988Y15465257D01*
X23260675Y15471945D01*
X23266380Y15480482D01*
X23349518Y15563620D01*
X23358055Y15569325D01*
X23364743Y15576012D01*
X23389175Y15590119D01*
X23447277Y15628940D01*
X23479624Y15642340D01*
X23500390Y15654328D01*
X23523548Y15660534D01*
X23555900Y15673934D01*
X23624437Y15687567D01*
X23651684Y15694867D01*
X23661142Y15694867D01*
X23671212Y15696870D01*
X23788788Y15696870D01*
X23798858Y15694867D01*
X23808316Y15694867D01*
X23835563Y15687567D01*
X23904099Y15673934D01*
X23936448Y15660535D01*
X23959610Y15654328D01*
X23980377Y15642338D01*
X24012722Y15628940D01*
X24070816Y15590123D01*
X24095257Y15576012D01*
X24101946Y15569323D01*
X24110481Y15563620D01*
X24193619Y15480482D01*
X24199321Y15471948D01*
X24206012Y15465257D01*
X24220124Y15440814D01*
X24258939Y15382723D01*
X24272335Y15350382D01*
X24284328Y15329610D01*
X24290535Y15306445D01*
X24303933Y15274100D01*
X24317564Y15205569D01*
X24324867Y15178316D01*
X24324867Y15173382D01*
X24405133Y15173382D01*
X24405133Y15178316D01*
X24412434Y15205564D01*
X24426066Y15274100D01*
X24439466Y15306452D01*
X24445672Y15329610D01*
X24457660Y15350376D01*
X24471060Y15382723D01*
X24509881Y15440825D01*
X24523988Y15465257D01*
X24530675Y15471945D01*
X24536380Y15480482D01*
X24619518Y15563620D01*
X24628055Y15569325D01*
X24634743Y15576012D01*
X24659175Y15590119D01*
X24717277Y15628940D01*
X24749624Y15642340D01*
X24770390Y15654328D01*
X24793548Y15660534D01*
X24825900Y15673934D01*
X24894437Y15687567D01*
X24921684Y15694867D01*
X24931142Y15694867D01*
X24941212Y15696870D01*
X25058788Y15696870D01*
X25068858Y15694867D01*
X25078316Y15694867D01*
X25105563Y15687567D01*
X25174099Y15673934D01*
X25206448Y15660535D01*
X25229610Y15654328D01*
X25250377Y15642338D01*
X25282722Y15628940D01*
X25340816Y15590123D01*
X25365257Y15576012D01*
X25371946Y15569323D01*
X25380481Y15563620D01*
X25463619Y15480482D01*
X25469321Y15471948D01*
X25476012Y15465257D01*
X25490124Y15440814D01*
X25528939Y15382723D01*
X25542335Y15350382D01*
X25554328Y15329610D01*
X25560535Y15306445D01*
X25573933Y15274100D01*
X25587565Y15205567D01*
X25594867Y15178316D01*
X25594867Y15168859D01*
X25596870Y15158789D01*
X25596870Y15041212D01*
X25594867Y15031143D01*
X25594867Y15021684D01*
X25587564Y14994431D01*
X25573933Y14925901D01*
X25560535Y14893559D01*
X25554328Y14870390D01*
X25542334Y14849617D01*
X25528939Y14817278D01*
X25490128Y14759195D01*
X25476012Y14734743D01*
X25469319Y14728051D01*
X25463619Y14719519D01*
X25380481Y14636381D01*
X25371949Y14630681D01*
X25365257Y14623988D01*
X25340805Y14609872D01*
X25282722Y14571061D01*
X25250383Y14557666D01*
X25229610Y14545672D01*
X25206441Y14539465D01*
X25174099Y14526067D01*
X25105569Y14512436D01*
X25078316Y14505133D01*
X25068858Y14505133D01*
X25058788Y14503130D01*
X24941212Y14503130D01*
X24931142Y14505133D01*
X24921684Y14505133D01*
X24894432Y14512436D01*
X24825900Y14526067D01*
X24793555Y14539465D01*
X24770390Y14545672D01*
X24749618Y14557665D01*
X24717277Y14571061D01*
X24659186Y14609876D01*
X24634743Y14623988D01*
X24628052Y14630679D01*
X24619518Y14636381D01*
X24536380Y14719519D01*
X24530677Y14728054D01*
X24523988Y14734743D01*
X24509877Y14759184D01*
X24471060Y14817278D01*
X24457662Y14849623D01*
X24445672Y14870390D01*
X24439465Y14893552D01*
X24426066Y14925901D01*
X24412434Y14994434D01*
X24405133Y15021684D01*
X24405133Y15026619D01*
X24324867Y15026619D01*
X24324867Y15021684D01*
X24317563Y14994429D01*
X24303933Y14925901D01*
X24290535Y14893559D01*
X24284328Y14870390D01*
X24272334Y14849617D01*
X24258939Y14817278D01*
X24220128Y14759195D01*
X24206012Y14734743D01*
X24199319Y14728051D01*
X24193619Y14719519D01*
X24110481Y14636381D01*
X24101949Y14630681D01*
X24095257Y14623988D01*
X24070805Y14609872D01*
X24012722Y14571061D01*
X23980383Y14557666D01*
X23959610Y14545672D01*
X23936441Y14539465D01*
X23904099Y14526067D01*
X23835569Y14512436D01*
X23808316Y14505133D01*
X23798858Y14505133D01*
X23788788Y14503130D01*
X23671212Y14503130D01*
X23661142Y14505133D01*
X23651684Y14505133D01*
X23624432Y14512436D01*
X23555900Y14526067D01*
X23523555Y14539465D01*
X23500390Y14545672D01*
X23479618Y14557665D01*
X23447277Y14571061D01*
X23389186Y14609876D01*
X23364743Y14623988D01*
X23358052Y14630679D01*
X23349518Y14636381D01*
X23266380Y14719519D01*
X23260677Y14728054D01*
X23253988Y14734743D01*
X23239877Y14759184D01*
X23201060Y14817278D01*
X23187662Y14849623D01*
X23175672Y14870390D01*
X23169465Y14893552D01*
X23156066Y14925901D01*
X23142434Y14994434D01*
X23135133Y15021684D01*
X23135133Y15026619D01*
X23054867Y15026619D01*
X23054867Y15021684D01*
X23047563Y14994429D01*
X23033933Y14925901D01*
X23020535Y14893559D01*
X23014328Y14870390D01*
X23002334Y14849617D01*
X22988939Y14817278D01*
X22950128Y14759195D01*
X22936012Y14734743D01*
X22929319Y14728051D01*
X22923619Y14719519D01*
X22840481Y14636381D01*
X22831949Y14630681D01*
X22825257Y14623988D01*
X22800805Y14609872D01*
X22742722Y14571061D01*
X22710383Y14557666D01*
X22689610Y14545672D01*
X22666441Y14539465D01*
X22634099Y14526067D01*
X22565569Y14512436D01*
X22538316Y14505133D01*
X22528858Y14505133D01*
X22518788Y14503130D01*
X22401212Y14503130D01*
X22391142Y14505133D01*
X22381684Y14505133D01*
X22354432Y14512436D01*
X22285900Y14526067D01*
X22253555Y14539465D01*
X22230390Y14545672D01*
X22209618Y14557665D01*
X22177277Y14571061D01*
X22119186Y14609876D01*
X22094743Y14623988D01*
X22088052Y14630679D01*
X22079518Y14636381D01*
X21996380Y14719519D01*
X21990677Y14728054D01*
X21983988Y14734743D01*
X21969877Y14759184D01*
X21931060Y14817278D01*
X21917662Y14849623D01*
X21905672Y14870390D01*
X21899465Y14893552D01*
X21886066Y14925901D01*
X21872434Y14994434D01*
X21865133Y15021684D01*
X21865133Y15026619D01*
X21784867Y15026619D01*
X21784867Y15021684D01*
X21777563Y14994429D01*
X21763933Y14925901D01*
X21750535Y14893559D01*
X21744328Y14870390D01*
X21732334Y14849617D01*
X21718939Y14817278D01*
X21680128Y14759195D01*
X21666012Y14734743D01*
X21659319Y14728051D01*
X21653619Y14719519D01*
X21570481Y14636381D01*
X21561949Y14630681D01*
X21555257Y14623988D01*
X21530805Y14609872D01*
X21472722Y14571061D01*
X21440383Y14557666D01*
X21419610Y14545672D01*
X21396441Y14539465D01*
X21364099Y14526067D01*
X21295569Y14512436D01*
X21268316Y14505133D01*
X21258858Y14505133D01*
X21248788Y14503130D01*
X21131212Y14503130D01*
X21121142Y14505133D01*
X21111684Y14505133D01*
X21084432Y14512436D01*
X21015900Y14526067D01*
X20983555Y14539465D01*
X20960390Y14545672D01*
X20939618Y14557665D01*
X20907277Y14571061D01*
X20849186Y14609876D01*
X20824743Y14623988D01*
X20818052Y14630679D01*
X20809518Y14636381D01*
X20726380Y14719519D01*
X20720677Y14728054D01*
X20713988Y14734743D01*
X20699877Y14759184D01*
X20661060Y14817278D01*
X20647662Y14849623D01*
X20635672Y14870390D01*
X20629465Y14893552D01*
X20616066Y14925901D01*
X20602434Y14994434D01*
X20595133Y15021684D01*
X20595133Y15026619D01*
X20514867Y15026619D01*
X20514867Y15021684D01*
X20507563Y14994429D01*
X20493933Y14925901D01*
X20480535Y14893559D01*
X20474328Y14870390D01*
X20462334Y14849617D01*
X20448939Y14817278D01*
X20410128Y14759195D01*
X20396012Y14734743D01*
X20389319Y14728051D01*
X20383619Y14719519D01*
X20300481Y14636381D01*
X20291949Y14630681D01*
X20285257Y14623988D01*
X20260805Y14609872D01*
X20202722Y14571061D01*
X20170383Y14557666D01*
X20149610Y14545672D01*
X20126441Y14539465D01*
X20094099Y14526067D01*
X20025569Y14512436D01*
X19998316Y14505133D01*
X19988858Y14505133D01*
X19978788Y14503130D01*
X19861212Y14503130D01*
X19851142Y14505133D01*
X19841684Y14505133D01*
X19814432Y14512436D01*
X19745900Y14526067D01*
X19713555Y14539465D01*
X19690390Y14545672D01*
X19669618Y14557665D01*
X19637277Y14571061D01*
X19579186Y14609876D01*
X19554743Y14623988D01*
X19548052Y14630679D01*
X19539518Y14636381D01*
X19456380Y14719519D01*
X19450677Y14728054D01*
X19443988Y14734743D01*
X19429877Y14759184D01*
X19391060Y14817278D01*
X19377662Y14849623D01*
X19365672Y14870390D01*
X19359465Y14893552D01*
X19346066Y14925901D01*
X19332434Y14994434D01*
X19325133Y15021684D01*
X19325133Y15026619D01*
X19244867Y15026619D01*
X19244867Y15021684D01*
X19237563Y14994429D01*
X19223933Y14925901D01*
X19210535Y14893559D01*
X19204328Y14870390D01*
X19192334Y14849617D01*
X19178939Y14817278D01*
X19140128Y14759195D01*
X19126012Y14734743D01*
X19119319Y14728051D01*
X19113619Y14719519D01*
X19030481Y14636381D01*
X19021949Y14630681D01*
X19015257Y14623988D01*
X18990805Y14609872D01*
X18932722Y14571061D01*
X18900383Y14557666D01*
X18879610Y14545672D01*
X18856441Y14539465D01*
X18824099Y14526067D01*
X18755569Y14512436D01*
X18728316Y14505133D01*
X18718858Y14505133D01*
X18708788Y14503130D01*
X18591212Y14503130D01*
X18581142Y14505133D01*
X18571684Y14505133D01*
X18544432Y14512436D01*
X18475900Y14526067D01*
X18443555Y14539465D01*
X18420390Y14545672D01*
X18399618Y14557665D01*
X18367277Y14571061D01*
X18309186Y14609876D01*
X18284743Y14623988D01*
X18278052Y14630679D01*
X18269518Y14636381D01*
X18186380Y14719519D01*
X18180677Y14728054D01*
X18173988Y14734743D01*
X18159877Y14759184D01*
X18121060Y14817278D01*
X18107662Y14849623D01*
X18095672Y14870390D01*
X18089465Y14893552D01*
X18076066Y14925901D01*
X18062434Y14994434D01*
X18055133Y15021684D01*
X18055133Y15026619D01*
X17974867Y15026619D01*
X17974867Y15021684D01*
X17967563Y14994429D01*
X17953933Y14925901D01*
X17940535Y14893559D01*
X17934328Y14870390D01*
X17922334Y14849617D01*
X17908939Y14817278D01*
X17870128Y14759195D01*
X17856012Y14734743D01*
X17849319Y14728051D01*
X17843619Y14719519D01*
X17760481Y14636381D01*
X17751949Y14630681D01*
X17745257Y14623988D01*
X17720805Y14609872D01*
X17662722Y14571061D01*
X17630383Y14557666D01*
X17609610Y14545672D01*
X17586441Y14539465D01*
X17554099Y14526067D01*
X17485569Y14512436D01*
X17458316Y14505133D01*
X17448858Y14505133D01*
X17438788Y14503130D01*
X17321212Y14503130D01*
X17311142Y14505133D01*
X17301684Y14505133D01*
X17274432Y14512436D01*
X17205900Y14526067D01*
X17173555Y14539465D01*
X17150390Y14545672D01*
X17129618Y14557665D01*
X17097277Y14571061D01*
X17039186Y14609876D01*
X17014743Y14623988D01*
X17008052Y14630679D01*
X16999518Y14636381D01*
X16916380Y14719519D01*
X16910677Y14728054D01*
X16903988Y14734743D01*
X16889877Y14759184D01*
X16851060Y14817278D01*
X16837662Y14849623D01*
X16825672Y14870390D01*
X16819465Y14893552D01*
X16806066Y14925901D01*
X16792434Y14994434D01*
X16785133Y15021684D01*
X16785133Y15026619D01*
X16704867Y15026619D01*
X16704867Y15021684D01*
X16697563Y14994429D01*
X16683933Y14925901D01*
X16670535Y14893559D01*
X16664328Y14870390D01*
X16652334Y14849617D01*
X16638939Y14817278D01*
X16600128Y14759195D01*
X16586012Y14734743D01*
X16579319Y14728051D01*
X16573619Y14719519D01*
X16490481Y14636381D01*
X16481949Y14630681D01*
X16475257Y14623988D01*
X16450805Y14609872D01*
X16392722Y14571061D01*
X16360383Y14557666D01*
X16339610Y14545672D01*
X16316441Y14539465D01*
X16284099Y14526067D01*
X16215569Y14512436D01*
X16188316Y14505133D01*
X16178858Y14505133D01*
X16168788Y14503130D01*
X16051212Y14503130D01*
X16041142Y14505133D01*
X16031684Y14505133D01*
X16004432Y14512436D01*
X15935900Y14526067D01*
X15903555Y14539465D01*
X15880390Y14545672D01*
X15859618Y14557665D01*
X15827277Y14571061D01*
X15769186Y14609876D01*
X15744743Y14623988D01*
X15738052Y14630679D01*
X15729518Y14636381D01*
X15646380Y14719519D01*
X15640677Y14728054D01*
X15633988Y14734743D01*
X15619877Y14759184D01*
X15581060Y14817278D01*
X15567662Y14849623D01*
X15555672Y14870390D01*
X15549465Y14893552D01*
X15536066Y14925901D01*
X15522434Y14994434D01*
X15515133Y15021684D01*
X15515133Y15026619D01*
X15434867Y15026619D01*
X15434867Y15021684D01*
X15427563Y14994429D01*
X15413933Y14925901D01*
X15400535Y14893559D01*
X15394328Y14870390D01*
X15382334Y14849617D01*
X15368939Y14817278D01*
X15330128Y14759195D01*
X15316012Y14734743D01*
X15309319Y14728051D01*
X15303619Y14719519D01*
X15220481Y14636381D01*
X15211949Y14630681D01*
X15205257Y14623988D01*
X15180805Y14609872D01*
X15122722Y14571061D01*
X15090383Y14557666D01*
X15069610Y14545672D01*
X15046441Y14539465D01*
X15014099Y14526067D01*
X14945569Y14512436D01*
X14918316Y14505133D01*
X14908858Y14505133D01*
X14898788Y14503130D01*
X14781212Y14503130D01*
X14771142Y14505133D01*
X14761684Y14505133D01*
X14734432Y14512436D01*
X14665900Y14526067D01*
X14633555Y14539465D01*
X14610390Y14545672D01*
X14589618Y14557665D01*
X14557277Y14571061D01*
X14499186Y14609876D01*
X14474743Y14623988D01*
X14468052Y14630679D01*
X14459518Y14636381D01*
X14376380Y14719519D01*
X14370677Y14728054D01*
X14363988Y14734743D01*
X14349879Y14759179D01*
X14311059Y14817278D01*
X14297659Y14849627D01*
X14285672Y14870390D01*
X14279466Y14893550D01*
X14250488Y14963510D01*
X14170000Y14947500D01*
X14170000Y14600000D01*
X14162388Y14561732D01*
X14140711Y14529289D01*
X14108268Y14507612D01*
X14070000Y14500000D01*
X13070000Y14500000D01*
X13031732Y14507612D01*
X12999289Y14529289D01*
X12977612Y14561732D01*
X12970000Y14600000D01*
X12970000Y15600000D01*
X12977612Y15638268D01*
X12999289Y15670711D01*
X13031732Y15692388D01*
X13070000Y15700000D01*
X14070000Y15700000D01*
X14108268Y15692388D01*
G37*
G36*
X6899851Y16318600D02*
G01*
X6909457Y16314121D01*
X6916601Y16312989D01*
X6967493Y16287059D01*
X7006082Y16269064D01*
X7009482Y16265664D01*
X7010508Y16265141D01*
X7085040Y16190609D01*
X7085562Y16189584D01*
X7088964Y16186182D01*
X7106965Y16147577D01*
X7132888Y16096701D01*
X7134018Y16089561D01*
X7138500Y16079951D01*
X7150000Y15992600D01*
X7150000Y15517600D01*
X7138500Y15430249D01*
X7134018Y15420640D01*
X7132888Y15413499D01*
X7106968Y15362630D01*
X7088964Y15324018D01*
X7085561Y15320616D01*
X7085040Y15319592D01*
X7010508Y15245060D01*
X7009484Y15244539D01*
X7006082Y15241136D01*
X6967464Y15223129D01*
X6916600Y15197212D01*
X6909461Y15196082D01*
X6899851Y15191600D01*
X6812500Y15180100D01*
X6237500Y15180100D01*
X6150149Y15191600D01*
X6140539Y15196081D01*
X6133398Y15197212D01*
X6082518Y15223137D01*
X6043918Y15241136D01*
X6040516Y15244538D01*
X6039491Y15245060D01*
X5964959Y15319592D01*
X5964436Y15320618D01*
X5961036Y15324018D01*
X5943039Y15362613D01*
X5917111Y15413500D01*
X5915979Y15420642D01*
X5911500Y15430249D01*
X5900000Y15517600D01*
X5900000Y15992600D01*
X5911500Y16079951D01*
X5915979Y16089558D01*
X5917111Y16096702D01*
X5943047Y16147605D01*
X5961036Y16186182D01*
X5964435Y16189582D01*
X5964959Y16190609D01*
X6039491Y16265141D01*
X6040518Y16265665D01*
X6043918Y16269064D01*
X6082500Y16287056D01*
X6133399Y16312989D01*
X6140542Y16314121D01*
X6150149Y16318600D01*
X6237500Y16330100D01*
X6812500Y16330100D01*
X6899851Y16318600D01*
G37*
G36*
X8649851Y16318600D02*
G01*
X8659457Y16314121D01*
X8666601Y16312989D01*
X8717493Y16287059D01*
X8756082Y16269064D01*
X8759482Y16265664D01*
X8760508Y16265141D01*
X8835040Y16190609D01*
X8835562Y16189584D01*
X8838964Y16186182D01*
X8856965Y16147577D01*
X8882888Y16096701D01*
X8884018Y16089561D01*
X8888500Y16079951D01*
X8900000Y15992600D01*
X8900000Y15517600D01*
X8888500Y15430249D01*
X8884018Y15420640D01*
X8882888Y15413499D01*
X8856968Y15362630D01*
X8838964Y15324018D01*
X8835561Y15320616D01*
X8835040Y15319592D01*
X8760508Y15245060D01*
X8759484Y15244539D01*
X8756082Y15241136D01*
X8717464Y15223129D01*
X8666600Y15197212D01*
X8659461Y15196082D01*
X8649851Y15191600D01*
X8562500Y15180100D01*
X7987500Y15180100D01*
X7900149Y15191600D01*
X7890539Y15196081D01*
X7883398Y15197212D01*
X7832518Y15223137D01*
X7793918Y15241136D01*
X7790516Y15244538D01*
X7789491Y15245060D01*
X7714959Y15319592D01*
X7714436Y15320618D01*
X7711036Y15324018D01*
X7693039Y15362613D01*
X7667111Y15413500D01*
X7665979Y15420642D01*
X7661500Y15430249D01*
X7650000Y15517600D01*
X7650000Y15992600D01*
X7661500Y16079951D01*
X7665979Y16089558D01*
X7667111Y16096702D01*
X7693047Y16147605D01*
X7711036Y16186182D01*
X7714435Y16189582D01*
X7714959Y16190609D01*
X7789491Y16265141D01*
X7790518Y16265665D01*
X7793918Y16269064D01*
X7832500Y16287056D01*
X7883399Y16312989D01*
X7890542Y16314121D01*
X7900149Y16318600D01*
X7987500Y16330100D01*
X8562500Y16330100D01*
X8649851Y16318600D01*
G37*
G36*
X10124851Y16318600D02*
G01*
X10134457Y16314121D01*
X10141601Y16312989D01*
X10192493Y16287059D01*
X10231082Y16269064D01*
X10234482Y16265664D01*
X10235508Y16265141D01*
X10310040Y16190609D01*
X10310562Y16189584D01*
X10313964Y16186182D01*
X10331965Y16147577D01*
X10357888Y16096701D01*
X10359018Y16089561D01*
X10363500Y16079951D01*
X10375000Y15992600D01*
X10375000Y15517600D01*
X10363500Y15430249D01*
X10359018Y15420640D01*
X10357888Y15413499D01*
X10331968Y15362630D01*
X10313964Y15324018D01*
X10310561Y15320616D01*
X10310040Y15319592D01*
X10235508Y15245060D01*
X10234484Y15244539D01*
X10231082Y15241136D01*
X10192464Y15223129D01*
X10141600Y15197212D01*
X10134461Y15196082D01*
X10124851Y15191600D01*
X10037500Y15180100D01*
X9537500Y15180100D01*
X9450149Y15191600D01*
X9440539Y15196081D01*
X9433398Y15197212D01*
X9382518Y15223137D01*
X9343918Y15241136D01*
X9340516Y15244538D01*
X9339491Y15245060D01*
X9264959Y15319592D01*
X9264436Y15320618D01*
X9261036Y15324018D01*
X9243039Y15362613D01*
X9217111Y15413500D01*
X9215979Y15420642D01*
X9211500Y15430249D01*
X9200000Y15517600D01*
X9200000Y15992600D01*
X9211500Y16079951D01*
X9215979Y16089558D01*
X9217111Y16096702D01*
X9243047Y16147605D01*
X9261036Y16186182D01*
X9264435Y16189582D01*
X9264959Y16190609D01*
X9339491Y16265141D01*
X9340518Y16265665D01*
X9343918Y16269064D01*
X9382500Y16287056D01*
X9433399Y16312989D01*
X9440542Y16314121D01*
X9450149Y16318600D01*
X9537500Y16330100D01*
X10037500Y16330100D01*
X10124851Y16318600D01*
G37*
G36*
X11949851Y16318600D02*
G01*
X11959457Y16314121D01*
X11966601Y16312989D01*
X12017493Y16287059D01*
X12056082Y16269064D01*
X12059482Y16265664D01*
X12060508Y16265141D01*
X12135040Y16190609D01*
X12135562Y16189584D01*
X12138964Y16186182D01*
X12156965Y16147577D01*
X12182888Y16096701D01*
X12184018Y16089561D01*
X12188500Y16079951D01*
X12200000Y15992600D01*
X12200000Y15517600D01*
X12188500Y15430249D01*
X12184018Y15420640D01*
X12182888Y15413499D01*
X12156968Y15362630D01*
X12138964Y15324018D01*
X12135561Y15320616D01*
X12135040Y15319592D01*
X12060508Y15245060D01*
X12059484Y15244539D01*
X12056082Y15241136D01*
X12017464Y15223129D01*
X11966600Y15197212D01*
X11959461Y15196082D01*
X11949851Y15191600D01*
X11862500Y15180100D01*
X11362500Y15180100D01*
X11275149Y15191600D01*
X11265539Y15196081D01*
X11258398Y15197212D01*
X11207518Y15223137D01*
X11168918Y15241136D01*
X11165516Y15244538D01*
X11164491Y15245060D01*
X11089959Y15319592D01*
X11089436Y15320618D01*
X11086036Y15324018D01*
X11068039Y15362613D01*
X11042111Y15413500D01*
X11040979Y15420642D01*
X11036500Y15430249D01*
X11025000Y15517600D01*
X11025000Y15992600D01*
X11036500Y16079951D01*
X11040979Y16089558D01*
X11042111Y16096702D01*
X11068047Y16147605D01*
X11086036Y16186182D01*
X11089435Y16189582D01*
X11089959Y16190609D01*
X11164491Y16265141D01*
X11165518Y16265665D01*
X11168918Y16269064D01*
X11207500Y16287056D01*
X11258399Y16312989D01*
X11265542Y16314121D01*
X11275149Y16318600D01*
X11362500Y16330100D01*
X11862500Y16330100D01*
X11949851Y16318600D01*
G37*
M02*
