%TF.GenerationSoftware,KiCad,Pcbnew,10.0.0*%
%TF.CreationDate,2026-04-12T22:52:04+02:00*%
%TF.ProjectId,usbCarrierMM8108,75736243-6172-4726-9965-724d4d383130,rev?*%
%TF.SameCoordinates,PX7cee6c0PY660b0c0*%
%TF.FileFunction,Soldermask,Top*%
%TF.FilePolarity,Negative*%
%FSLAX46Y46*%
G04 Gerber Fmt 4.6, Leading zero omitted, Abs format (unit mm)*
G04 Created by KiCad (PCBNEW 10.0.0) date 2026-04-12 22:52:04*
%MOMM*%
%LPD*%
G01*
G04 APERTURE LIST*
G04 APERTURE END LIST*
G36*
X8426537Y2809776D02*
G01*
X8491421Y2766421D01*
X8534776Y2701537D01*
X8550000Y2625000D01*
X8550000Y2190000D01*
X8534776Y2113463D01*
X8491421Y2048579D01*
X8456985Y2025570D01*
X8456985Y1974431D01*
X8491421Y1951421D01*
X8534776Y1886537D01*
X8550000Y1810000D01*
X8550000Y1375000D01*
X8534776Y1298463D01*
X8491421Y1233579D01*
X8426537Y1190224D01*
X8350000Y1175000D01*
X8150000Y1175000D01*
X8073463Y1190224D01*
X8008579Y1233579D01*
X7965224Y1298463D01*
X7950000Y1375000D01*
X7950000Y1810000D01*
X7965224Y1886537D01*
X8008579Y1951421D01*
X8043014Y1974431D01*
X8043014Y2025570D01*
X8008579Y2048579D01*
X7965224Y2113463D01*
X7950000Y2190000D01*
X7950000Y2625000D01*
X7965224Y2701537D01*
X8008579Y2766421D01*
X8073463Y2809776D01*
X8150000Y2825000D01*
X8350000Y2825000D01*
X8426537Y2809776D01*
G37*
G36*
X25659046Y2349196D02*
G01*
X25711553Y2343104D01*
X25729494Y2335182D01*
X25752584Y2330589D01*
X25777304Y2314072D01*
X25798619Y2304660D01*
X25813176Y2290103D01*
X25835312Y2275312D01*
X25850102Y2253177D01*
X25864659Y2238620D01*
X25874069Y2217307D01*
X25890589Y2192584D01*
X25895182Y2169493D01*
X25903103Y2151554D01*
X25909192Y2099058D01*
X25910000Y2095000D01*
X25910000Y1670000D01*
X25909192Y1665942D01*
X25903103Y1613447D01*
X25895182Y1595510D01*
X25890589Y1572416D01*
X25874068Y1547692D01*
X25864659Y1526381D01*
X25850104Y1511827D01*
X25835312Y1489688D01*
X25813173Y1474896D01*
X25798619Y1460341D01*
X25777308Y1450932D01*
X25752584Y1434411D01*
X25729490Y1429818D01*
X25711553Y1421897D01*
X25659058Y1415808D01*
X25655000Y1415000D01*
X25345000Y1415000D01*
X25340942Y1415808D01*
X25288446Y1421897D01*
X25270507Y1429818D01*
X25247416Y1434411D01*
X25222693Y1450931D01*
X25201380Y1460341D01*
X25186823Y1474898D01*
X25164688Y1489688D01*
X25149897Y1511824D01*
X25135340Y1526381D01*
X25125928Y1547696D01*
X25109411Y1572416D01*
X25104818Y1595506D01*
X25096896Y1613447D01*
X25090804Y1665954D01*
X25090000Y1670000D01*
X25090000Y2095000D01*
X25090804Y2099046D01*
X25096896Y2151554D01*
X25104818Y2169497D01*
X25109411Y2192584D01*
X25125927Y2217303D01*
X25135340Y2238620D01*
X25149899Y2253180D01*
X25164688Y2275312D01*
X25186820Y2290101D01*
X25201380Y2304660D01*
X25222697Y2314073D01*
X25247416Y2330589D01*
X25270503Y2335182D01*
X25288446Y2343104D01*
X25340954Y2349196D01*
X25345000Y2350000D01*
X25655000Y2350000D01*
X25659046Y2349196D01*
G37*
G36*
X14838268Y2392388D02*
G01*
X14870711Y2370711D01*
X14892388Y2338268D01*
X14900000Y2300000D01*
X14900000Y1700000D01*
X14892388Y1661732D01*
X14870711Y1629289D01*
X14838268Y1607612D01*
X14800000Y1600000D01*
X14200000Y1600000D01*
X14161732Y1607612D01*
X14129289Y1629289D01*
X14107612Y1661732D01*
X14100000Y1700000D01*
X14100000Y2300000D01*
X14107612Y2338268D01*
X14129289Y2370711D01*
X14161732Y2392388D01*
X14200000Y2400000D01*
X14800000Y2400000D01*
X14838268Y2392388D01*
G37*
G36*
X15838268Y2392388D02*
G01*
X15870711Y2370711D01*
X15892388Y2338268D01*
X15900000Y2300000D01*
X15900000Y1700000D01*
X15892388Y1661732D01*
X15870711Y1629289D01*
X15838268Y1607612D01*
X15800000Y1600000D01*
X15200000Y1600000D01*
X15161732Y1607612D01*
X15129289Y1629289D01*
X15107612Y1661732D01*
X15100000Y1700000D01*
X15100000Y2300000D01*
X15107612Y2338268D01*
X15129289Y2370711D01*
X15161732Y2392388D01*
X15200000Y2400000D01*
X15800000Y2400000D01*
X15838268Y2392388D01*
G37*
G36*
X16838268Y2392388D02*
G01*
X16870711Y2370711D01*
X16892388Y2338268D01*
X16900000Y2300000D01*
X16900000Y1700000D01*
X16892388Y1661732D01*
X16870711Y1629289D01*
X16838268Y1607612D01*
X16800000Y1600000D01*
X16200000Y1600000D01*
X16161732Y1607612D01*
X16129289Y1629289D01*
X16107612Y1661732D01*
X16100000Y1700000D01*
X16100000Y2300000D01*
X16107612Y2338268D01*
X16129289Y2370711D01*
X16161732Y2392388D01*
X16200000Y2400000D01*
X16800000Y2400000D01*
X16838268Y2392388D01*
G37*
G36*
X17838268Y2392388D02*
G01*
X17870711Y2370711D01*
X17892388Y2338268D01*
X17900000Y2300000D01*
X17900000Y1700000D01*
X17892388Y1661732D01*
X17870711Y1629289D01*
X17838268Y1607612D01*
X17800000Y1600000D01*
X17200000Y1600000D01*
X17161732Y1607612D01*
X17129289Y1629289D01*
X17107612Y1661732D01*
X17100000Y1700000D01*
X17100000Y2300000D01*
X17107612Y2338268D01*
X17129289Y2370711D01*
X17161732Y2392388D01*
X17200000Y2400000D01*
X17800000Y2400000D01*
X17838268Y2392388D01*
G37*
G36*
X18838268Y2392388D02*
G01*
X18870711Y2370711D01*
X18892388Y2338268D01*
X18900000Y2300000D01*
X18900000Y1700000D01*
X18892388Y1661732D01*
X18870711Y1629289D01*
X18838268Y1607612D01*
X18800000Y1600000D01*
X18200000Y1600000D01*
X18161732Y1607612D01*
X18129289Y1629289D01*
X18107612Y1661732D01*
X18100000Y1700000D01*
X18100000Y2300000D01*
X18107612Y2338268D01*
X18129289Y2370711D01*
X18161732Y2392388D01*
X18200000Y2400000D01*
X18800000Y2400000D01*
X18838268Y2392388D01*
G37*
G36*
X19838268Y2392388D02*
G01*
X19870711Y2370711D01*
X19892388Y2338268D01*
X19900000Y2300000D01*
X19900000Y1700000D01*
X19892388Y1661732D01*
X19870711Y1629289D01*
X19838268Y1607612D01*
X19800000Y1600000D01*
X19200000Y1600000D01*
X19161732Y1607612D01*
X19129289Y1629289D01*
X19107612Y1661732D01*
X19100000Y1700000D01*
X19100000Y2300000D01*
X19107612Y2338268D01*
X19129289Y2370711D01*
X19161732Y2392388D01*
X19200000Y2400000D01*
X19800000Y2400000D01*
X19838268Y2392388D01*
G37*
G36*
X20838268Y2392388D02*
G01*
X20870711Y2370711D01*
X20892388Y2338268D01*
X20900000Y2300000D01*
X20900000Y1700000D01*
X20892388Y1661732D01*
X20870711Y1629289D01*
X20838268Y1607612D01*
X20800000Y1600000D01*
X20200000Y1600000D01*
X20161732Y1607612D01*
X20129289Y1629289D01*
X20107612Y1661732D01*
X20100000Y1700000D01*
X20100000Y2300000D01*
X20107612Y2338268D01*
X20129289Y2370711D01*
X20161732Y2392388D01*
X20200000Y2400000D01*
X20800000Y2400000D01*
X20838268Y2392388D01*
G37*
G36*
X21838268Y2392388D02*
G01*
X21870711Y2370711D01*
X21892388Y2338268D01*
X21900000Y2300000D01*
X21900000Y1700000D01*
X21892388Y1661732D01*
X21870711Y1629289D01*
X21838268Y1607612D01*
X21800000Y1600000D01*
X21200000Y1600000D01*
X21161732Y1607612D01*
X21129289Y1629289D01*
X21107612Y1661732D01*
X21100000Y1700000D01*
X21100000Y2300000D01*
X21107612Y2338268D01*
X21129289Y2370711D01*
X21161732Y2392388D01*
X21200000Y2400000D01*
X21800000Y2400000D01*
X21838268Y2392388D01*
G37*
G36*
X22838268Y2392388D02*
G01*
X22870711Y2370711D01*
X22892388Y2338268D01*
X22900000Y2300000D01*
X22900000Y1700000D01*
X22892388Y1661732D01*
X22870711Y1629289D01*
X22838268Y1607612D01*
X22800000Y1600000D01*
X22200000Y1600000D01*
X22161732Y1607612D01*
X22129289Y1629289D01*
X22107612Y1661732D01*
X22100000Y1700000D01*
X22100000Y2300000D01*
X22107612Y2338268D01*
X22129289Y2370711D01*
X22161732Y2392388D01*
X22200000Y2400000D01*
X22800000Y2400000D01*
X22838268Y2392388D01*
G37*
G36*
X23838268Y2392388D02*
G01*
X23870711Y2370711D01*
X23892388Y2338268D01*
X23900000Y2300000D01*
X23900000Y1700000D01*
X23892388Y1661732D01*
X23870711Y1629289D01*
X23838268Y1607612D01*
X23800000Y1600000D01*
X23200000Y1600000D01*
X23161732Y1607612D01*
X23129289Y1629289D01*
X23107612Y1661732D01*
X23100000Y1700000D01*
X23100000Y2300000D01*
X23107612Y2338268D01*
X23129289Y2370711D01*
X23161732Y2392388D01*
X23200000Y2400000D01*
X23800000Y2400000D01*
X23838268Y2392388D01*
G37*
G36*
X27668858Y5364867D02*
G01*
X27678316Y5364867D01*
X27705563Y5357567D01*
X27774099Y5343934D01*
X27806448Y5330535D01*
X27829610Y5324328D01*
X27850377Y5312338D01*
X27882722Y5298940D01*
X27940816Y5260123D01*
X27965257Y5246012D01*
X27971946Y5239323D01*
X27980481Y5233620D01*
X28063619Y5150482D01*
X28069321Y5141948D01*
X28076012Y5135257D01*
X28090124Y5110814D01*
X28128939Y5052723D01*
X28142335Y5020382D01*
X28154328Y4999610D01*
X28160535Y4976445D01*
X28173933Y4944100D01*
X28187564Y4875569D01*
X28194867Y4848316D01*
X28194867Y4843382D01*
X28275133Y4843382D01*
X28275133Y4848316D01*
X28282434Y4875564D01*
X28296066Y4944100D01*
X28309466Y4976452D01*
X28315672Y4999610D01*
X28327660Y5020376D01*
X28341060Y5052723D01*
X28379881Y5110825D01*
X28393988Y5135257D01*
X28400675Y5141945D01*
X28406380Y5150482D01*
X28489518Y5233620D01*
X28498055Y5239325D01*
X28504743Y5246012D01*
X28529175Y5260119D01*
X28587277Y5298940D01*
X28619624Y5312340D01*
X28640390Y5324328D01*
X28663548Y5330534D01*
X28695900Y5343934D01*
X28764437Y5357567D01*
X28791684Y5364867D01*
X28801142Y5364867D01*
X28811212Y5366870D01*
X28928788Y5366870D01*
X28938858Y5364867D01*
X28948316Y5364867D01*
X28975563Y5357567D01*
X29044099Y5343934D01*
X29076448Y5330535D01*
X29099610Y5324328D01*
X29120377Y5312338D01*
X29152722Y5298940D01*
X29210816Y5260123D01*
X29235257Y5246012D01*
X29241946Y5239323D01*
X29250481Y5233620D01*
X29333619Y5150482D01*
X29339321Y5141948D01*
X29346012Y5135257D01*
X29360124Y5110814D01*
X29398939Y5052723D01*
X29412335Y5020382D01*
X29424328Y4999610D01*
X29430535Y4976445D01*
X29443933Y4944100D01*
X29457565Y4875567D01*
X29464867Y4848316D01*
X29464867Y4838859D01*
X29466870Y4828789D01*
X29466870Y4711212D01*
X29464867Y4701143D01*
X29464867Y4691684D01*
X29457564Y4664431D01*
X29443933Y4595901D01*
X29430535Y4563559D01*
X29424328Y4540390D01*
X29412334Y4519617D01*
X29398939Y4487278D01*
X29360128Y4429195D01*
X29346012Y4404743D01*
X29339319Y4398051D01*
X29333619Y4389519D01*
X29250481Y4306381D01*
X29241949Y4300681D01*
X29235257Y4293988D01*
X29210805Y4279872D01*
X29152722Y4241061D01*
X29120383Y4227666D01*
X29099610Y4215672D01*
X29076441Y4209465D01*
X29044099Y4196067D01*
X28975571Y4182437D01*
X28948316Y4175133D01*
X28943381Y4175133D01*
X28943381Y4094867D01*
X28948316Y4094867D01*
X28975566Y4087566D01*
X29044099Y4073934D01*
X29076448Y4060535D01*
X29099610Y4054328D01*
X29120377Y4042338D01*
X29152722Y4028940D01*
X29210816Y3990123D01*
X29235257Y3976012D01*
X29241946Y3969323D01*
X29250481Y3963620D01*
X29333619Y3880482D01*
X29339321Y3871948D01*
X29346012Y3865257D01*
X29360124Y3840814D01*
X29398939Y3782723D01*
X29412335Y3750382D01*
X29424328Y3729610D01*
X29430535Y3706445D01*
X29443933Y3674100D01*
X29457565Y3605567D01*
X29464867Y3578316D01*
X29464867Y3568859D01*
X29466870Y3558789D01*
X29466870Y3441212D01*
X29464867Y3431143D01*
X29464867Y3421684D01*
X29457564Y3394431D01*
X29443933Y3325901D01*
X29430535Y3293559D01*
X29424328Y3270390D01*
X29412334Y3249617D01*
X29398939Y3217278D01*
X29360128Y3159195D01*
X29346012Y3134743D01*
X29339319Y3128051D01*
X29333619Y3119519D01*
X29250481Y3036381D01*
X29241949Y3030681D01*
X29235257Y3023988D01*
X29210805Y3009872D01*
X29152722Y2971061D01*
X29120385Y2957667D01*
X29099610Y2945672D01*
X29076438Y2939464D01*
X29006491Y2910490D01*
X29022501Y2830000D01*
X29370000Y2830000D01*
X29408268Y2822388D01*
X29440711Y2800711D01*
X29462388Y2768268D01*
X29470000Y2730000D01*
X29470000Y1730000D01*
X29462388Y1691732D01*
X29440711Y1659289D01*
X29408268Y1637612D01*
X29370000Y1630000D01*
X28370000Y1630000D01*
X28331732Y1637612D01*
X28299289Y1659289D01*
X28277612Y1691732D01*
X28270000Y1730000D01*
X28270000Y2077500D01*
X28189510Y2093510D01*
X28160537Y2023563D01*
X28154328Y2000390D01*
X28142333Y1979615D01*
X28128940Y1947280D01*
X28090129Y1889196D01*
X28076012Y1864743D01*
X28069319Y1858051D01*
X28063619Y1849519D01*
X27980481Y1766381D01*
X27971949Y1760681D01*
X27965257Y1753988D01*
X27940805Y1739872D01*
X27882722Y1701061D01*
X27850383Y1687666D01*
X27829610Y1675672D01*
X27806441Y1669465D01*
X27774099Y1656067D01*
X27705569Y1642436D01*
X27678316Y1635133D01*
X27668858Y1635133D01*
X27658788Y1633130D01*
X27541212Y1633130D01*
X27531142Y1635133D01*
X27521684Y1635133D01*
X27494432Y1642436D01*
X27425900Y1656067D01*
X27393555Y1669465D01*
X27370390Y1675672D01*
X27349618Y1687665D01*
X27317277Y1701061D01*
X27259186Y1739876D01*
X27234743Y1753988D01*
X27228052Y1760679D01*
X27219518Y1766381D01*
X27136380Y1849519D01*
X27130677Y1858054D01*
X27123988Y1864743D01*
X27109877Y1889184D01*
X27071060Y1947278D01*
X27057662Y1979623D01*
X27045672Y2000390D01*
X27039465Y2023552D01*
X27026066Y2055901D01*
X27012433Y2124437D01*
X27005133Y2151684D01*
X27005133Y2161142D01*
X27003130Y2171212D01*
X27003130Y2288789D01*
X27005133Y2298860D01*
X27005133Y2308316D01*
X27012433Y2335561D01*
X27026066Y2404100D01*
X27039466Y2436452D01*
X27045672Y2459610D01*
X27057660Y2480376D01*
X27071060Y2512723D01*
X27109881Y2570825D01*
X27123988Y2595257D01*
X27130675Y2601945D01*
X27136380Y2610482D01*
X27219518Y2693620D01*
X27228055Y2699325D01*
X27234743Y2706012D01*
X27259175Y2720119D01*
X27317277Y2758940D01*
X27349624Y2772340D01*
X27370390Y2784328D01*
X27393548Y2790534D01*
X27425900Y2803934D01*
X27494436Y2817566D01*
X27521684Y2824867D01*
X27526618Y2824867D01*
X27526618Y2905133D01*
X27673381Y2905133D01*
X27673381Y2824867D01*
X27678316Y2824867D01*
X27705566Y2817566D01*
X27774099Y2803934D01*
X27806448Y2790535D01*
X27829610Y2784328D01*
X27850377Y2772338D01*
X27882722Y2758940D01*
X27940816Y2720123D01*
X27965257Y2706012D01*
X27971946Y2699323D01*
X27980481Y2693620D01*
X28063619Y2610482D01*
X28069321Y2601948D01*
X28076012Y2595257D01*
X28090122Y2570818D01*
X28128940Y2512723D01*
X28142338Y2480377D01*
X28154328Y2459610D01*
X28160534Y2436448D01*
X28189511Y2366492D01*
X28270000Y2382502D01*
X28270000Y2725078D01*
X28270000Y2730000D01*
X28277612Y2768268D01*
X28299289Y2800711D01*
X28331732Y2822388D01*
X28370000Y2830000D01*
X28717499Y2830000D01*
X28733509Y2910490D01*
X28663560Y2939464D01*
X28640390Y2945672D01*
X28619616Y2957666D01*
X28587277Y2971061D01*
X28529186Y3009876D01*
X28504743Y3023988D01*
X28498052Y3030679D01*
X28489518Y3036381D01*
X28406380Y3119519D01*
X28400677Y3128054D01*
X28393988Y3134743D01*
X28379877Y3159184D01*
X28341060Y3217278D01*
X28327662Y3249623D01*
X28315672Y3270390D01*
X28309465Y3293552D01*
X28296066Y3325901D01*
X28282434Y3394434D01*
X28275133Y3421684D01*
X28275133Y3426619D01*
X28194867Y3426619D01*
X28194867Y3421684D01*
X28187563Y3394429D01*
X28173933Y3325901D01*
X28160535Y3293559D01*
X28154328Y3270390D01*
X28142334Y3249617D01*
X28128939Y3217278D01*
X28090128Y3159195D01*
X28076012Y3134743D01*
X28069319Y3128051D01*
X28063619Y3119519D01*
X27980481Y3036381D01*
X27971949Y3030681D01*
X27965257Y3023988D01*
X27940805Y3009872D01*
X27882722Y2971061D01*
X27850383Y2957666D01*
X27829610Y2945672D01*
X27806441Y2939465D01*
X27774099Y2926067D01*
X27705571Y2912437D01*
X27678316Y2905133D01*
X27673381Y2905133D01*
X27526618Y2905133D01*
X27521684Y2905133D01*
X27494431Y2912436D01*
X27425900Y2926067D01*
X27393555Y2939465D01*
X27370390Y2945672D01*
X27349618Y2957665D01*
X27317277Y2971061D01*
X27259186Y3009876D01*
X27234743Y3023988D01*
X27228052Y3030679D01*
X27219518Y3036381D01*
X27136380Y3119519D01*
X27130677Y3128054D01*
X27123988Y3134743D01*
X27109877Y3159184D01*
X27071060Y3217278D01*
X27057662Y3249623D01*
X27045672Y3270390D01*
X27039465Y3293552D01*
X27026066Y3325901D01*
X27012433Y3394437D01*
X27005133Y3421684D01*
X27005133Y3431142D01*
X27003130Y3441212D01*
X27003130Y3558789D01*
X27005133Y3568860D01*
X27005133Y3578316D01*
X27012433Y3605561D01*
X27026066Y3674100D01*
X27039466Y3706452D01*
X27045672Y3729610D01*
X27057660Y3750376D01*
X27071060Y3782723D01*
X27109881Y3840825D01*
X27123988Y3865257D01*
X27130675Y3871945D01*
X27136380Y3880482D01*
X27219518Y3963620D01*
X27228055Y3969325D01*
X27234743Y3976012D01*
X27259175Y3990119D01*
X27317277Y4028940D01*
X27349624Y4042340D01*
X27370390Y4054328D01*
X27393548Y4060534D01*
X27425900Y4073934D01*
X27494436Y4087566D01*
X27521684Y4094867D01*
X27526618Y4094867D01*
X27526618Y4175133D01*
X27673381Y4175133D01*
X27673381Y4094867D01*
X27678316Y4094867D01*
X27705566Y4087566D01*
X27774099Y4073934D01*
X27806448Y4060535D01*
X27829610Y4054328D01*
X27850377Y4042338D01*
X27882722Y4028940D01*
X27940816Y3990123D01*
X27965257Y3976012D01*
X27971946Y3969323D01*
X27980481Y3963620D01*
X28063619Y3880482D01*
X28069321Y3871948D01*
X28076012Y3865257D01*
X28090124Y3840814D01*
X28128939Y3782723D01*
X28142335Y3750382D01*
X28154328Y3729610D01*
X28160535Y3706445D01*
X28173933Y3674100D01*
X28187564Y3605569D01*
X28194867Y3578316D01*
X28194867Y3573382D01*
X28275133Y3573382D01*
X28275133Y3578316D01*
X28282434Y3605564D01*
X28296066Y3674100D01*
X28309466Y3706452D01*
X28315672Y3729610D01*
X28327660Y3750376D01*
X28341060Y3782723D01*
X28379881Y3840825D01*
X28393988Y3865257D01*
X28400675Y3871945D01*
X28406380Y3880482D01*
X28489518Y3963620D01*
X28498055Y3969325D01*
X28504743Y3976012D01*
X28529175Y3990119D01*
X28587277Y4028940D01*
X28619624Y4042340D01*
X28640390Y4054328D01*
X28663548Y4060534D01*
X28695900Y4073934D01*
X28764436Y4087566D01*
X28791684Y4094867D01*
X28796618Y4094867D01*
X28796618Y4175133D01*
X28791684Y4175133D01*
X28764431Y4182436D01*
X28695900Y4196067D01*
X28663555Y4209465D01*
X28640390Y4215672D01*
X28619618Y4227665D01*
X28587277Y4241061D01*
X28529186Y4279876D01*
X28504743Y4293988D01*
X28498052Y4300679D01*
X28489518Y4306381D01*
X28406380Y4389519D01*
X28400677Y4398054D01*
X28393988Y4404743D01*
X28379877Y4429184D01*
X28341060Y4487278D01*
X28327662Y4519623D01*
X28315672Y4540390D01*
X28309465Y4563552D01*
X28296066Y4595901D01*
X28282434Y4664434D01*
X28275133Y4691684D01*
X28275133Y4696619D01*
X28194867Y4696619D01*
X28194867Y4691684D01*
X28187563Y4664429D01*
X28173933Y4595901D01*
X28160535Y4563559D01*
X28154328Y4540390D01*
X28142334Y4519617D01*
X28128939Y4487278D01*
X28090128Y4429195D01*
X28076012Y4404743D01*
X28069319Y4398051D01*
X28063619Y4389519D01*
X27980481Y4306381D01*
X27971949Y4300681D01*
X27965257Y4293988D01*
X27940805Y4279872D01*
X27882722Y4241061D01*
X27850383Y4227666D01*
X27829610Y4215672D01*
X27806441Y4209465D01*
X27774099Y4196067D01*
X27705571Y4182437D01*
X27678316Y4175133D01*
X27673381Y4175133D01*
X27526618Y4175133D01*
X27521684Y4175133D01*
X27494431Y4182436D01*
X27425900Y4196067D01*
X27393555Y4209465D01*
X27370390Y4215672D01*
X27349618Y4227665D01*
X27317277Y4241061D01*
X27259186Y4279876D01*
X27234743Y4293988D01*
X27228052Y4300679D01*
X27219518Y4306381D01*
X27136380Y4389519D01*
X27130677Y4398054D01*
X27123988Y4404743D01*
X27109877Y4429184D01*
X27071060Y4487278D01*
X27057662Y4519623D01*
X27045672Y4540390D01*
X27039465Y4563552D01*
X27026066Y4595901D01*
X27012433Y4664437D01*
X27005133Y4691684D01*
X27005133Y4701142D01*
X27003130Y4711212D01*
X27003130Y4828789D01*
X27005133Y4838860D01*
X27005133Y4848316D01*
X27012433Y4875561D01*
X27026066Y4944100D01*
X27039466Y4976452D01*
X27045672Y4999610D01*
X27057660Y5020376D01*
X27071060Y5052723D01*
X27109881Y5110825D01*
X27123988Y5135257D01*
X27130675Y5141945D01*
X27136380Y5150482D01*
X27219518Y5233620D01*
X27228055Y5239325D01*
X27234743Y5246012D01*
X27259175Y5260119D01*
X27317277Y5298940D01*
X27349624Y5312340D01*
X27370390Y5324328D01*
X27393548Y5330534D01*
X27425900Y5343934D01*
X27494437Y5357567D01*
X27521684Y5364867D01*
X27531142Y5364867D01*
X27541212Y5366870D01*
X27658788Y5366870D01*
X27668858Y5364867D01*
G37*
G36*
X12659046Y2631696D02*
G01*
X12711553Y2625604D01*
X12729494Y2617682D01*
X12752584Y2613089D01*
X12777304Y2596572D01*
X12798619Y2587160D01*
X12813176Y2572603D01*
X12835312Y2557812D01*
X12850102Y2535677D01*
X12864659Y2521120D01*
X12874069Y2499807D01*
X12890589Y2475084D01*
X12895182Y2451993D01*
X12903103Y2434054D01*
X12909192Y2381558D01*
X12910000Y2377500D01*
X12910000Y1952500D01*
X12909192Y1948442D01*
X12903103Y1895947D01*
X12895182Y1878010D01*
X12890589Y1854916D01*
X12874068Y1830192D01*
X12864659Y1808881D01*
X12850104Y1794327D01*
X12835312Y1772188D01*
X12813173Y1757396D01*
X12798619Y1742841D01*
X12777308Y1733432D01*
X12752584Y1716911D01*
X12729490Y1712318D01*
X12711553Y1704397D01*
X12659058Y1698308D01*
X12655000Y1697500D01*
X12345000Y1697500D01*
X12340942Y1698308D01*
X12288446Y1704397D01*
X12270507Y1712318D01*
X12247416Y1716911D01*
X12222693Y1733431D01*
X12201380Y1742841D01*
X12186823Y1757398D01*
X12164688Y1772188D01*
X12149897Y1794324D01*
X12135340Y1808881D01*
X12125928Y1830196D01*
X12109411Y1854916D01*
X12104818Y1878006D01*
X12096896Y1895947D01*
X12090804Y1948454D01*
X12090000Y1952500D01*
X12090000Y2377500D01*
X12090804Y2381546D01*
X12096896Y2434054D01*
X12104818Y2451997D01*
X12109411Y2475084D01*
X12125927Y2499803D01*
X12135340Y2521120D01*
X12149899Y2535680D01*
X12164688Y2557812D01*
X12186820Y2572601D01*
X12201380Y2587160D01*
X12222697Y2596573D01*
X12247416Y2613089D01*
X12270503Y2617682D01*
X12288446Y2625604D01*
X12340954Y2631696D01*
X12345000Y2632500D01*
X12655000Y2632500D01*
X12659046Y2631696D01*
G37*
G36*
X3978873Y3849810D02*
G01*
X4056394Y3846764D01*
X4063374Y3845659D01*
X4077918Y3844944D01*
X4117116Y3837147D01*
X4220078Y3820840D01*
X4253200Y3810078D01*
X4279799Y3804787D01*
X4317335Y3789240D01*
X4376762Y3769930D01*
X4432433Y3741565D01*
X4469967Y3726017D01*
X4492517Y3710950D01*
X4523539Y3695143D01*
X4607866Y3633876D01*
X4641113Y3611661D01*
X4648208Y3604566D01*
X4656817Y3598311D01*
X4773310Y3481818D01*
X4779564Y3473210D01*
X4786661Y3466113D01*
X4808878Y3432862D01*
X4870142Y3348540D01*
X4885947Y3317521D01*
X4901017Y3294967D01*
X4916566Y3257428D01*
X4944929Y3201763D01*
X4964235Y3142343D01*
X4979787Y3104799D01*
X4985078Y3078195D01*
X4995839Y3045079D01*
X5012145Y2942124D01*
X5019944Y2902918D01*
X5019944Y2892886D01*
X5021609Y2882373D01*
X5021609Y2717628D01*
X5019944Y2707116D01*
X5019944Y2697082D01*
X5012144Y2657874D01*
X4995839Y2554922D01*
X4985079Y2521808D01*
X4979787Y2495201D01*
X4964234Y2457654D01*
X4944929Y2398238D01*
X4916568Y2342578D01*
X4901017Y2305033D01*
X4885945Y2282477D01*
X4870142Y2251461D01*
X4808887Y2167151D01*
X4786661Y2133887D01*
X4779561Y2126788D01*
X4773310Y2118183D01*
X4656817Y2001690D01*
X4648212Y1995439D01*
X4641113Y1988339D01*
X4607849Y1966113D01*
X4523539Y1904858D01*
X4492523Y1889055D01*
X4469967Y1873983D01*
X4432422Y1858432D01*
X4376762Y1830071D01*
X4317346Y1810766D01*
X4279799Y1795213D01*
X4253192Y1789921D01*
X4220078Y1779161D01*
X4117140Y1762858D01*
X4077918Y1755056D01*
X4063365Y1754342D01*
X4056394Y1753237D01*
X3978879Y1750191D01*
X3975000Y1750000D01*
X3974030Y1750000D01*
X2375970Y1750000D01*
X2375000Y1750000D01*
X2371120Y1750191D01*
X2293605Y1753237D01*
X2286633Y1754342D01*
X2272082Y1755056D01*
X2232862Y1762858D01*
X2129921Y1779161D01*
X2096805Y1789922D01*
X2070201Y1795213D01*
X2032657Y1810765D01*
X1973237Y1830071D01*
X1917572Y1858434D01*
X1880033Y1873983D01*
X1857479Y1889053D01*
X1826460Y1904858D01*
X1742138Y1966122D01*
X1708887Y1988339D01*
X1701790Y1995436D01*
X1693182Y2001690D01*
X1576689Y2118183D01*
X1570434Y2126792D01*
X1563339Y2133887D01*
X1541124Y2167134D01*
X1479857Y2251461D01*
X1464050Y2282483D01*
X1448983Y2305033D01*
X1433435Y2342567D01*
X1405070Y2398238D01*
X1385760Y2457665D01*
X1370213Y2495201D01*
X1364922Y2521800D01*
X1354160Y2554922D01*
X1337853Y2657883D01*
X1330056Y2697082D01*
X1330056Y2707116D01*
X1328391Y2717628D01*
X1328391Y2882373D01*
X1330056Y2892886D01*
X1330056Y2902918D01*
X1337852Y2942114D01*
X1354160Y3045079D01*
X1364922Y3078203D01*
X1370213Y3104799D01*
X1385759Y3142332D01*
X1405070Y3201763D01*
X1433438Y3257439D01*
X1448983Y3294967D01*
X1464048Y3317514D01*
X1479857Y3348540D01*
X1541132Y3432879D01*
X1563339Y3466113D01*
X1570432Y3473207D01*
X1576689Y3481818D01*
X1693182Y3598311D01*
X1701793Y3604568D01*
X1708887Y3611661D01*
X1742121Y3633868D01*
X1826460Y3695143D01*
X1857486Y3710952D01*
X1880033Y3726017D01*
X1917561Y3741562D01*
X1973237Y3769930D01*
X2032668Y3789241D01*
X2070201Y3804787D01*
X2096797Y3810078D01*
X2129921Y3820840D01*
X2232887Y3837148D01*
X2272082Y3844944D01*
X2286624Y3845659D01*
X2293605Y3846764D01*
X2371126Y3849810D01*
X2375000Y3850000D01*
X3975000Y3850000D01*
X3978873Y3849810D01*
G37*
G36*
X10336537Y2534776D02*
G01*
X10401421Y2491421D01*
X10424430Y2456986D01*
X10475570Y2456986D01*
X10498579Y2491421D01*
X10563463Y2534776D01*
X10640000Y2550000D01*
X11075000Y2550000D01*
X11151537Y2534776D01*
X11216421Y2491421D01*
X11259776Y2426537D01*
X11275000Y2350000D01*
X11275000Y2150000D01*
X11259776Y2073463D01*
X11216421Y2008579D01*
X11151537Y1965224D01*
X11075000Y1950000D01*
X10640000Y1950000D01*
X10563463Y1965224D01*
X10498579Y2008579D01*
X10475569Y2043015D01*
X10424431Y2043015D01*
X10401421Y2008579D01*
X10336537Y1965224D01*
X10260000Y1950000D01*
X9825000Y1950000D01*
X9748463Y1965224D01*
X9683579Y2008579D01*
X9640224Y2073463D01*
X9625000Y2150000D01*
X9625000Y2350000D01*
X9640224Y2426537D01*
X9683579Y2491421D01*
X9748463Y2534776D01*
X9825000Y2550000D01*
X10260000Y2550000D01*
X10336537Y2534776D01*
G37*
G36*
X25659046Y3484196D02*
G01*
X25711553Y3478104D01*
X25729494Y3470182D01*
X25752584Y3465589D01*
X25777304Y3449072D01*
X25798619Y3439660D01*
X25813176Y3425103D01*
X25835312Y3410312D01*
X25850102Y3388177D01*
X25864659Y3373620D01*
X25874069Y3352307D01*
X25890589Y3327584D01*
X25895182Y3304493D01*
X25903103Y3286554D01*
X25909192Y3234058D01*
X25910000Y3230000D01*
X25910000Y2805000D01*
X25909192Y2800942D01*
X25903103Y2748447D01*
X25895182Y2730510D01*
X25890589Y2707416D01*
X25874068Y2682692D01*
X25864659Y2661381D01*
X25850104Y2646827D01*
X25835312Y2624688D01*
X25813173Y2609896D01*
X25798619Y2595341D01*
X25777308Y2585932D01*
X25752584Y2569411D01*
X25729490Y2564818D01*
X25711553Y2556897D01*
X25659058Y2550808D01*
X25655000Y2550000D01*
X25345000Y2550000D01*
X25340942Y2550808D01*
X25288446Y2556897D01*
X25270507Y2564818D01*
X25247416Y2569411D01*
X25222693Y2585931D01*
X25201380Y2595341D01*
X25186823Y2609898D01*
X25164688Y2624688D01*
X25149897Y2646824D01*
X25135340Y2661381D01*
X25125928Y2682696D01*
X25109411Y2707416D01*
X25104818Y2730506D01*
X25096896Y2748447D01*
X25090804Y2800954D01*
X25090000Y2805000D01*
X25090000Y3230000D01*
X25090804Y3234046D01*
X25096896Y3286554D01*
X25104818Y3304497D01*
X25109411Y3327584D01*
X25125927Y3352303D01*
X25135340Y3373620D01*
X25149899Y3388180D01*
X25164688Y3410312D01*
X25186820Y3425101D01*
X25201380Y3439660D01*
X25222697Y3449073D01*
X25247416Y3465589D01*
X25270503Y3470182D01*
X25288446Y3478104D01*
X25340954Y3484196D01*
X25345000Y3485000D01*
X25655000Y3485000D01*
X25659046Y3484196D01*
G37*
G36*
X14838268Y3392388D02*
G01*
X14870711Y3370711D01*
X14892388Y3338268D01*
X14900000Y3300000D01*
X14900000Y2700000D01*
X14892388Y2661732D01*
X14870711Y2629289D01*
X14838268Y2607612D01*
X14800000Y2600000D01*
X14200000Y2600000D01*
X14161732Y2607612D01*
X14129289Y2629289D01*
X14107612Y2661732D01*
X14100000Y2700000D01*
X14100000Y3300000D01*
X14107612Y3338268D01*
X14129289Y3370711D01*
X14161732Y3392388D01*
X14200000Y3400000D01*
X14800000Y3400000D01*
X14838268Y3392388D01*
G37*
G36*
X23838268Y3392388D02*
G01*
X23870711Y3370711D01*
X23892388Y3338268D01*
X23900000Y3300000D01*
X23900000Y2700000D01*
X23892388Y2661732D01*
X23870711Y2629289D01*
X23838268Y2607612D01*
X23800000Y2600000D01*
X23200000Y2600000D01*
X23161732Y2607612D01*
X23129289Y2629289D01*
X23107612Y2661732D01*
X23100000Y2700000D01*
X23100000Y3300000D01*
X23107612Y3338268D01*
X23129289Y3370711D01*
X23161732Y3392388D01*
X23200000Y3400000D01*
X23800000Y3400000D01*
X23838268Y3392388D01*
G37*
G36*
X10404047Y3519195D02*
G01*
X10457697Y3512971D01*
X10476026Y3504878D01*
X10499498Y3500209D01*
X10524625Y3483420D01*
X10546445Y3473785D01*
X10561347Y3458883D01*
X10583848Y3443848D01*
X10598882Y3421348D01*
X10613784Y3406446D01*
X10623417Y3384629D01*
X10640209Y3359498D01*
X10644878Y3336025D01*
X10652970Y3317698D01*
X10659192Y3264058D01*
X10660000Y3260000D01*
X10660000Y2940000D01*
X10659192Y2935941D01*
X10652970Y2882303D01*
X10644878Y2863978D01*
X10640209Y2840502D01*
X10623416Y2815370D01*
X10613784Y2793555D01*
X10598884Y2778656D01*
X10583848Y2756152D01*
X10561344Y2741116D01*
X10546445Y2726216D01*
X10524630Y2716584D01*
X10499498Y2699791D01*
X10476022Y2695122D01*
X10457697Y2687030D01*
X10404059Y2680808D01*
X10400000Y2680000D01*
X9955000Y2680000D01*
X9950942Y2680808D01*
X9897302Y2687030D01*
X9878975Y2695122D01*
X9855502Y2699791D01*
X9830371Y2716583D01*
X9808554Y2726216D01*
X9793652Y2741118D01*
X9771152Y2756152D01*
X9756117Y2778653D01*
X9741215Y2793555D01*
X9731580Y2815375D01*
X9714791Y2840502D01*
X9710122Y2863974D01*
X9702029Y2882303D01*
X9695805Y2935953D01*
X9695000Y2940000D01*
X9695000Y3260000D01*
X9695804Y3264046D01*
X9702029Y3317698D01*
X9710122Y3336029D01*
X9714791Y3359498D01*
X9731579Y3384624D01*
X9741215Y3406446D01*
X9756119Y3421351D01*
X9771152Y3443848D01*
X9793649Y3458881D01*
X9808554Y3473785D01*
X9830376Y3483421D01*
X9855502Y3500209D01*
X9878971Y3504878D01*
X9897302Y3512971D01*
X9950954Y3519196D01*
X9955000Y3520000D01*
X10400000Y3520000D01*
X10404047Y3519195D01*
G37*
G36*
X11549047Y3519195D02*
G01*
X11602697Y3512971D01*
X11621026Y3504878D01*
X11644498Y3500209D01*
X11669625Y3483420D01*
X11691445Y3473785D01*
X11706347Y3458883D01*
X11728848Y3443848D01*
X11743882Y3421348D01*
X11758784Y3406446D01*
X11768417Y3384629D01*
X11785209Y3359498D01*
X11789878Y3336025D01*
X11797970Y3317698D01*
X11804192Y3264058D01*
X11805000Y3260000D01*
X11805000Y2940000D01*
X11804192Y2935941D01*
X11797970Y2882303D01*
X11789878Y2863978D01*
X11785209Y2840502D01*
X11768416Y2815370D01*
X11758784Y2793555D01*
X11743884Y2778656D01*
X11728848Y2756152D01*
X11706344Y2741116D01*
X11691445Y2726216D01*
X11669630Y2716584D01*
X11644498Y2699791D01*
X11621022Y2695122D01*
X11602697Y2687030D01*
X11549059Y2680808D01*
X11545000Y2680000D01*
X11100000Y2680000D01*
X11095942Y2680808D01*
X11042302Y2687030D01*
X11023975Y2695122D01*
X11000502Y2699791D01*
X10975371Y2716583D01*
X10953554Y2726216D01*
X10938652Y2741118D01*
X10916152Y2756152D01*
X10901117Y2778653D01*
X10886215Y2793555D01*
X10876580Y2815375D01*
X10859791Y2840502D01*
X10855122Y2863974D01*
X10847029Y2882303D01*
X10840805Y2935953D01*
X10840000Y2940000D01*
X10840000Y3260000D01*
X10840804Y3264046D01*
X10847029Y3317698D01*
X10855122Y3336029D01*
X10859791Y3359498D01*
X10876579Y3384624D01*
X10886215Y3406446D01*
X10901119Y3421351D01*
X10916152Y3443848D01*
X10938649Y3458881D01*
X10953554Y3473785D01*
X10975376Y3483421D01*
X11000502Y3500209D01*
X11023971Y3504878D01*
X11042302Y3512971D01*
X11095954Y3519196D01*
X11100000Y3520000D01*
X11545000Y3520000D01*
X11549047Y3519195D01*
G37*
G36*
X12659046Y3766696D02*
G01*
X12711553Y3760604D01*
X12729494Y3752682D01*
X12752584Y3748089D01*
X12777304Y3731572D01*
X12798619Y3722160D01*
X12813176Y3707603D01*
X12835312Y3692812D01*
X12850102Y3670677D01*
X12864659Y3656120D01*
X12874069Y3634807D01*
X12890589Y3610084D01*
X12895182Y3586993D01*
X12903103Y3569054D01*
X12909192Y3516558D01*
X12910000Y3512500D01*
X12910000Y3087500D01*
X12909192Y3083442D01*
X12903103Y3030947D01*
X12895182Y3013010D01*
X12890589Y2989916D01*
X12874068Y2965192D01*
X12864659Y2943881D01*
X12850104Y2929327D01*
X12835312Y2907188D01*
X12813173Y2892396D01*
X12798619Y2877841D01*
X12777308Y2868432D01*
X12752584Y2851911D01*
X12729490Y2847318D01*
X12711553Y2839397D01*
X12659058Y2833308D01*
X12655000Y2832500D01*
X12345000Y2832500D01*
X12340942Y2833308D01*
X12288446Y2839397D01*
X12270507Y2847318D01*
X12247416Y2851911D01*
X12222693Y2868431D01*
X12201380Y2877841D01*
X12186823Y2892398D01*
X12164688Y2907188D01*
X12149897Y2929324D01*
X12135340Y2943881D01*
X12125928Y2965196D01*
X12109411Y2989916D01*
X12104818Y3013006D01*
X12096896Y3030947D01*
X12090804Y3083454D01*
X12090000Y3087500D01*
X12090000Y3512500D01*
X12090804Y3516546D01*
X12096896Y3569054D01*
X12104818Y3586997D01*
X12109411Y3610084D01*
X12125927Y3634803D01*
X12135340Y3656120D01*
X12149899Y3670680D01*
X12164688Y3692812D01*
X12186820Y3707601D01*
X12201380Y3722160D01*
X12222697Y3731573D01*
X12247416Y3748089D01*
X12270503Y3752682D01*
X12288446Y3760604D01*
X12340954Y3766696D01*
X12345000Y3767500D01*
X12655000Y3767500D01*
X12659046Y3766696D01*
G37*
G36*
X14838268Y4392388D02*
G01*
X14870711Y4370711D01*
X14892388Y4338268D01*
X14900000Y4300000D01*
X14900000Y3700000D01*
X14892388Y3661732D01*
X14870711Y3629289D01*
X14838268Y3607612D01*
X14800000Y3600000D01*
X14200000Y3600000D01*
X14161732Y3607612D01*
X14129289Y3629289D01*
X14107612Y3661732D01*
X14100000Y3700000D01*
X14100000Y4300000D01*
X14107612Y4338268D01*
X14129289Y4370711D01*
X14161732Y4392388D01*
X14200000Y4400000D01*
X14800000Y4400000D01*
X14838268Y4392388D01*
G37*
G36*
X23838268Y4392388D02*
G01*
X23870711Y4370711D01*
X23892388Y4338268D01*
X23900000Y4300000D01*
X23900000Y3700000D01*
X23892388Y3661732D01*
X23870711Y3629289D01*
X23838268Y3607612D01*
X23800000Y3600000D01*
X23200000Y3600000D01*
X23161732Y3607612D01*
X23129289Y3629289D01*
X23107612Y3661732D01*
X23100000Y3700000D01*
X23100000Y4300000D01*
X23107612Y4338268D01*
X23129289Y4370711D01*
X23161732Y4392388D01*
X23200000Y4400000D01*
X23800000Y4400000D01*
X23838268Y4392388D01*
G37*
G36*
X9616546Y4609196D02*
G01*
X9669053Y4603104D01*
X9686994Y4595182D01*
X9710084Y4590589D01*
X9734804Y4574072D01*
X9756119Y4564660D01*
X9770676Y4550103D01*
X9792812Y4535312D01*
X9807602Y4513177D01*
X9822159Y4498620D01*
X9831569Y4477307D01*
X9848089Y4452584D01*
X9852682Y4429493D01*
X9860603Y4411554D01*
X9866692Y4359058D01*
X9867500Y4355000D01*
X9867500Y4045000D01*
X9866692Y4040942D01*
X9860603Y3988447D01*
X9852682Y3970510D01*
X9848089Y3947416D01*
X9831568Y3922692D01*
X9822159Y3901381D01*
X9807604Y3886827D01*
X9792812Y3864688D01*
X9770673Y3849896D01*
X9756119Y3835341D01*
X9734808Y3825932D01*
X9710084Y3809411D01*
X9686990Y3804818D01*
X9669053Y3796897D01*
X9616558Y3790808D01*
X9612500Y3790000D01*
X9187500Y3790000D01*
X9183442Y3790808D01*
X9130946Y3796897D01*
X9113007Y3804818D01*
X9089916Y3809411D01*
X9065193Y3825931D01*
X9043880Y3835341D01*
X9029323Y3849898D01*
X9007188Y3864688D01*
X8992397Y3886824D01*
X8977840Y3901381D01*
X8968428Y3922696D01*
X8951911Y3947416D01*
X8947318Y3970506D01*
X8939396Y3988447D01*
X8933304Y4040954D01*
X8932500Y4045000D01*
X8932500Y4355000D01*
X8933304Y4359046D01*
X8939396Y4411554D01*
X8947318Y4429497D01*
X8951911Y4452584D01*
X8968427Y4477303D01*
X8977840Y4498620D01*
X8992399Y4513180D01*
X9007188Y4535312D01*
X9029320Y4550101D01*
X9043880Y4564660D01*
X9065197Y4574073D01*
X9089916Y4590589D01*
X9113003Y4595182D01*
X9130946Y4603104D01*
X9183454Y4609196D01*
X9187500Y4610000D01*
X9612500Y4610000D01*
X9616546Y4609196D01*
G37*
G36*
X10751546Y4609196D02*
G01*
X10804053Y4603104D01*
X10821994Y4595182D01*
X10845084Y4590589D01*
X10869804Y4574072D01*
X10891119Y4564660D01*
X10905676Y4550103D01*
X10927812Y4535312D01*
X10942602Y4513177D01*
X10957159Y4498620D01*
X10966569Y4477307D01*
X10983089Y4452584D01*
X10987682Y4429493D01*
X10995603Y4411554D01*
X11001692Y4359058D01*
X11002500Y4355000D01*
X11002500Y4045000D01*
X11001692Y4040942D01*
X10995603Y3988447D01*
X10987682Y3970510D01*
X10983089Y3947416D01*
X10966568Y3922692D01*
X10957159Y3901381D01*
X10942604Y3886827D01*
X10927812Y3864688D01*
X10905673Y3849896D01*
X10891119Y3835341D01*
X10869808Y3825932D01*
X10845084Y3809411D01*
X10821990Y3804818D01*
X10804053Y3796897D01*
X10751558Y3790808D01*
X10747500Y3790000D01*
X10322500Y3790000D01*
X10318442Y3790808D01*
X10265946Y3796897D01*
X10248007Y3804818D01*
X10224916Y3809411D01*
X10200193Y3825931D01*
X10178880Y3835341D01*
X10164323Y3849898D01*
X10142188Y3864688D01*
X10127397Y3886824D01*
X10112840Y3901381D01*
X10103428Y3922696D01*
X10086911Y3947416D01*
X10082318Y3970506D01*
X10074396Y3988447D01*
X10068304Y4040954D01*
X10067500Y4045000D01*
X10067500Y4355000D01*
X10068304Y4359046D01*
X10074396Y4411554D01*
X10082318Y4429497D01*
X10086911Y4452584D01*
X10103427Y4477303D01*
X10112840Y4498620D01*
X10127399Y4513180D01*
X10142188Y4535312D01*
X10164320Y4550101D01*
X10178880Y4564660D01*
X10200197Y4574073D01*
X10224916Y4590589D01*
X10248003Y4595182D01*
X10265946Y4603104D01*
X10318454Y4609196D01*
X10322500Y4610000D01*
X10747500Y4610000D01*
X10751546Y4609196D01*
G37*
G36*
X12659046Y4881696D02*
G01*
X12711553Y4875604D01*
X12729494Y4867682D01*
X12752584Y4863089D01*
X12777304Y4846572D01*
X12798619Y4837160D01*
X12813176Y4822603D01*
X12835312Y4807812D01*
X12850102Y4785677D01*
X12864659Y4771120D01*
X12874069Y4749807D01*
X12890589Y4725084D01*
X12895182Y4701993D01*
X12903103Y4684054D01*
X12909192Y4631558D01*
X12910000Y4627500D01*
X12910000Y4202500D01*
X12909192Y4198442D01*
X12903103Y4145947D01*
X12895182Y4128010D01*
X12890589Y4104916D01*
X12874068Y4080192D01*
X12864659Y4058881D01*
X12850104Y4044327D01*
X12835312Y4022188D01*
X12813173Y4007396D01*
X12798619Y3992841D01*
X12777308Y3983432D01*
X12752584Y3966911D01*
X12729490Y3962318D01*
X12711553Y3954397D01*
X12659058Y3948308D01*
X12655000Y3947500D01*
X12345000Y3947500D01*
X12340942Y3948308D01*
X12288446Y3954397D01*
X12270507Y3962318D01*
X12247416Y3966911D01*
X12222693Y3983431D01*
X12201380Y3992841D01*
X12186823Y4007398D01*
X12164688Y4022188D01*
X12149897Y4044324D01*
X12135340Y4058881D01*
X12125928Y4080196D01*
X12109411Y4104916D01*
X12104818Y4128006D01*
X12096896Y4145947D01*
X12090804Y4198454D01*
X12090000Y4202500D01*
X12090000Y4627500D01*
X12090804Y4631546D01*
X12096896Y4684054D01*
X12104818Y4701997D01*
X12109411Y4725084D01*
X12125927Y4749803D01*
X12135340Y4771120D01*
X12149899Y4785680D01*
X12164688Y4807812D01*
X12186820Y4822601D01*
X12201380Y4837160D01*
X12222697Y4846573D01*
X12247416Y4863089D01*
X12270503Y4867682D01*
X12288446Y4875604D01*
X12340954Y4881696D01*
X12345000Y4882500D01*
X12655000Y4882500D01*
X12659046Y4881696D01*
G37*
G36*
X7024868Y5635450D02*
G01*
X7030586Y5632655D01*
X7032962Y5632278D01*
X7070987Y5612904D01*
X7128377Y5584847D01*
X7209847Y5503377D01*
X7237907Y5445980D01*
X7257276Y5407966D01*
X7257652Y5405592D01*
X7260450Y5399868D01*
X7275000Y5300000D01*
X7275000Y4700000D01*
X7260450Y4600132D01*
X7257652Y4594411D01*
X7257277Y4592038D01*
X7237926Y4554061D01*
X7209847Y4496623D01*
X7128377Y4415153D01*
X7070955Y4387081D01*
X7032965Y4367724D01*
X7030591Y4367349D01*
X7024868Y4364550D01*
X6925000Y4350000D01*
X4925000Y4350000D01*
X4825132Y4364550D01*
X4819410Y4367348D01*
X4817037Y4367723D01*
X4779035Y4387086D01*
X4721623Y4415153D01*
X4640153Y4496623D01*
X4612104Y4553997D01*
X4592723Y4592035D01*
X4592346Y4594412D01*
X4589550Y4600132D01*
X4575000Y4700000D01*
X4575000Y5300000D01*
X4589550Y5399868D01*
X4592345Y5405587D01*
X4592722Y5407963D01*
X4612108Y5446013D01*
X4640153Y5503377D01*
X4721623Y5584847D01*
X4778971Y5612884D01*
X4817034Y5632277D01*
X4819411Y5632654D01*
X4825132Y5635450D01*
X4925000Y5650000D01*
X6925000Y5650000D01*
X7024868Y5635450D01*
G37*
G36*
X14838268Y5392388D02*
G01*
X14870711Y5370711D01*
X14892388Y5338268D01*
X14900000Y5300000D01*
X14900000Y4700000D01*
X14892388Y4661732D01*
X14870711Y4629289D01*
X14838268Y4607612D01*
X14800000Y4600000D01*
X14200000Y4600000D01*
X14161732Y4607612D01*
X14129289Y4629289D01*
X14107612Y4661732D01*
X14100000Y4700000D01*
X14100000Y5300000D01*
X14107612Y5338268D01*
X14129289Y5370711D01*
X14161732Y5392388D01*
X14200000Y5400000D01*
X14800000Y5400000D01*
X14838268Y5392388D01*
G37*
G36*
X23838268Y5392388D02*
G01*
X23870711Y5370711D01*
X23892388Y5338268D01*
X23900000Y5300000D01*
X23900000Y4700000D01*
X23892388Y4661732D01*
X23870711Y4629289D01*
X23838268Y4607612D01*
X23800000Y4600000D01*
X23200000Y4600000D01*
X23161732Y4607612D01*
X23129289Y4629289D01*
X23107612Y4661732D01*
X23100000Y4700000D01*
X23100000Y5300000D01*
X23107612Y5338268D01*
X23129289Y5370711D01*
X23161732Y5392388D01*
X23200000Y5400000D01*
X23800000Y5400000D01*
X23838268Y5392388D01*
G37*
G36*
X9580395Y7210252D02*
G01*
X9643252Y7168252D01*
X9685252Y7105395D01*
X9685741Y7102934D01*
X9698275Y7084176D01*
X9751725Y7084176D01*
X9764258Y7102934D01*
X9764748Y7105395D01*
X9806748Y7168252D01*
X9869605Y7210252D01*
X9943750Y7225000D01*
X10156250Y7225000D01*
X10230395Y7210252D01*
X10293252Y7168252D01*
X10335252Y7105395D01*
X10335741Y7102934D01*
X10348275Y7084176D01*
X10401725Y7084176D01*
X10414258Y7102934D01*
X10414748Y7105395D01*
X10456748Y7168252D01*
X10519605Y7210252D01*
X10593750Y7225000D01*
X10806250Y7225000D01*
X10880395Y7210252D01*
X10943252Y7168252D01*
X10985252Y7105395D01*
X11000000Y7031250D01*
X11000000Y6843750D01*
X10985252Y6769605D01*
X10943252Y6706748D01*
X10905838Y6681749D01*
X10905893Y6630612D01*
X10920711Y6620711D01*
X10942388Y6588268D01*
X10950000Y6550000D01*
X10950000Y5550000D01*
X10942388Y5511732D01*
X10920711Y5479289D01*
X10905938Y5469419D01*
X10905793Y5418282D01*
X10943252Y5393252D01*
X10985252Y5330395D01*
X11000000Y5256250D01*
X11000000Y5068750D01*
X10985252Y4994605D01*
X10943252Y4931748D01*
X10880395Y4889748D01*
X10806250Y4875000D01*
X10593750Y4875000D01*
X10519605Y4889748D01*
X10456748Y4931748D01*
X10414748Y4994605D01*
X10414258Y4997068D01*
X10401725Y5015825D01*
X10348275Y5015825D01*
X10335741Y4997069D01*
X10335252Y4994605D01*
X10293252Y4931748D01*
X10230395Y4889748D01*
X10156250Y4875000D01*
X9943750Y4875000D01*
X9869605Y4889748D01*
X9806748Y4931748D01*
X9764748Y4994605D01*
X9764258Y4997068D01*
X9751725Y5015825D01*
X9698275Y5015825D01*
X9685741Y4997069D01*
X9685252Y4994605D01*
X9643252Y4931748D01*
X9580395Y4889748D01*
X9506250Y4875000D01*
X9293750Y4875000D01*
X9219605Y4889748D01*
X9156748Y4931748D01*
X9114748Y4994605D01*
X9100000Y5068750D01*
X9100000Y5256250D01*
X9114748Y5330395D01*
X9156748Y5393252D01*
X9162570Y5397142D01*
X9639498Y5397142D01*
X9641165Y5394646D01*
X9643252Y5393252D01*
X9685252Y5330395D01*
X9685741Y5327934D01*
X9698275Y5309176D01*
X9751726Y5309176D01*
X9764258Y5327933D01*
X9764748Y5330395D01*
X9806748Y5393252D01*
X9808832Y5394645D01*
X9810501Y5397142D01*
X10289498Y5397142D01*
X10291165Y5394646D01*
X10293252Y5393252D01*
X10335252Y5330395D01*
X10335741Y5327934D01*
X10348275Y5309176D01*
X10401726Y5309176D01*
X10414258Y5327933D01*
X10414748Y5330395D01*
X10456748Y5393252D01*
X10458832Y5394645D01*
X10460501Y5397142D01*
X10432248Y5450000D01*
X10317751Y5450000D01*
X10289498Y5397142D01*
X9810501Y5397142D01*
X9782248Y5450000D01*
X9667751Y5450000D01*
X9639498Y5397142D01*
X9162570Y5397142D01*
X9194176Y5418261D01*
X9194089Y5469401D01*
X9179289Y5479289D01*
X9157612Y5511732D01*
X9150000Y5550000D01*
X9150000Y6550000D01*
X9157612Y6588268D01*
X9179289Y6620711D01*
X9194134Y6630631D01*
X9194131Y6681770D01*
X9162568Y6702859D01*
X9639498Y6702859D01*
X9667752Y6650000D01*
X9782247Y6650000D01*
X9810501Y6702859D01*
X10289498Y6702859D01*
X10317752Y6650000D01*
X10432247Y6650000D01*
X10460501Y6702859D01*
X10458833Y6705355D01*
X10456748Y6706748D01*
X10414748Y6769605D01*
X10414257Y6772070D01*
X10401726Y6790825D01*
X10348275Y6790825D01*
X10335741Y6772068D01*
X10335252Y6769605D01*
X10293252Y6706748D01*
X10291164Y6705354D01*
X10289498Y6702859D01*
X9810501Y6702859D01*
X9808833Y6705355D01*
X9806748Y6706748D01*
X9764748Y6769605D01*
X9764257Y6772070D01*
X9751726Y6790825D01*
X9698275Y6790825D01*
X9685741Y6772068D01*
X9685252Y6769605D01*
X9643252Y6706748D01*
X9641164Y6705354D01*
X9639498Y6702859D01*
X9162568Y6702859D01*
X9156748Y6706748D01*
X9114748Y6769605D01*
X9100000Y6843750D01*
X9100000Y7031250D01*
X9114748Y7105395D01*
X9156748Y7168252D01*
X9219605Y7210252D01*
X9293750Y7225000D01*
X9506250Y7225000D01*
X9580395Y7210252D01*
G37*
G36*
X8309046Y5899196D02*
G01*
X8361553Y5893104D01*
X8379494Y5885182D01*
X8402584Y5880589D01*
X8427304Y5864072D01*
X8448619Y5854660D01*
X8463176Y5840103D01*
X8485312Y5825312D01*
X8500102Y5803177D01*
X8514659Y5788620D01*
X8524069Y5767307D01*
X8540589Y5742584D01*
X8545182Y5719493D01*
X8553103Y5701554D01*
X8559192Y5649058D01*
X8560000Y5645000D01*
X8560000Y5220000D01*
X8559192Y5215942D01*
X8553103Y5163447D01*
X8545182Y5145510D01*
X8540589Y5122416D01*
X8524068Y5097692D01*
X8514659Y5076381D01*
X8500104Y5061827D01*
X8485312Y5039688D01*
X8463173Y5024896D01*
X8448619Y5010341D01*
X8427308Y5000932D01*
X8402584Y4984411D01*
X8379490Y4979818D01*
X8361553Y4971897D01*
X8309058Y4965808D01*
X8305000Y4965000D01*
X7995000Y4965000D01*
X7990942Y4965808D01*
X7938446Y4971897D01*
X7920507Y4979818D01*
X7897416Y4984411D01*
X7872693Y5000931D01*
X7851380Y5010341D01*
X7836823Y5024898D01*
X7814688Y5039688D01*
X7799897Y5061824D01*
X7785340Y5076381D01*
X7775928Y5097696D01*
X7759411Y5122416D01*
X7754818Y5145506D01*
X7746896Y5163447D01*
X7740804Y5215954D01*
X7740000Y5220000D01*
X7740000Y5645000D01*
X7740804Y5649046D01*
X7746896Y5701554D01*
X7754818Y5719497D01*
X7759411Y5742584D01*
X7775927Y5767303D01*
X7785340Y5788620D01*
X7799899Y5803180D01*
X7814688Y5825312D01*
X7836820Y5840101D01*
X7851380Y5854660D01*
X7872697Y5864073D01*
X7897416Y5880589D01*
X7920503Y5885182D01*
X7938446Y5893104D01*
X7990954Y5899196D01*
X7995000Y5900000D01*
X8305000Y5900000D01*
X8309046Y5899196D01*
G37*
G36*
X12659046Y6016696D02*
G01*
X12711553Y6010604D01*
X12729494Y6002682D01*
X12752584Y5998089D01*
X12777304Y5981572D01*
X12798619Y5972160D01*
X12813176Y5957603D01*
X12835312Y5942812D01*
X12850102Y5920677D01*
X12864659Y5906120D01*
X12874069Y5884807D01*
X12890589Y5860084D01*
X12895182Y5836993D01*
X12903103Y5819054D01*
X12909192Y5766558D01*
X12910000Y5762500D01*
X12910000Y5337500D01*
X12909192Y5333442D01*
X12903103Y5280947D01*
X12895182Y5263010D01*
X12890589Y5239916D01*
X12874068Y5215192D01*
X12864659Y5193881D01*
X12850104Y5179327D01*
X12835312Y5157188D01*
X12813173Y5142396D01*
X12798619Y5127841D01*
X12777308Y5118432D01*
X12752584Y5101911D01*
X12729490Y5097318D01*
X12711553Y5089397D01*
X12659058Y5083308D01*
X12655000Y5082500D01*
X12345000Y5082500D01*
X12340942Y5083308D01*
X12288446Y5089397D01*
X12270507Y5097318D01*
X12247416Y5101911D01*
X12222693Y5118431D01*
X12201380Y5127841D01*
X12186823Y5142398D01*
X12164688Y5157188D01*
X12149897Y5179324D01*
X12135340Y5193881D01*
X12125928Y5215196D01*
X12109411Y5239916D01*
X12104818Y5263006D01*
X12096896Y5280947D01*
X12090804Y5333454D01*
X12090000Y5337500D01*
X12090000Y5762500D01*
X12090804Y5766546D01*
X12096896Y5819054D01*
X12104818Y5836997D01*
X12109411Y5860084D01*
X12125927Y5884803D01*
X12135340Y5906120D01*
X12149899Y5920680D01*
X12164688Y5942812D01*
X12186820Y5957601D01*
X12201380Y5972160D01*
X12222697Y5981573D01*
X12247416Y5998089D01*
X12270503Y6002682D01*
X12288446Y6010604D01*
X12340954Y6016696D01*
X12345000Y6017500D01*
X12655000Y6017500D01*
X12659046Y6016696D01*
G37*
G36*
X25676537Y6877276D02*
G01*
X25741421Y6833921D01*
X25784776Y6769037D01*
X25800000Y6692500D01*
X25800000Y6257500D01*
X25784776Y6180963D01*
X25741421Y6116079D01*
X25706985Y6093070D01*
X25706985Y6041931D01*
X25741421Y6018921D01*
X25784776Y5954037D01*
X25800000Y5877500D01*
X25800000Y5442500D01*
X25784776Y5365963D01*
X25741421Y5301079D01*
X25676537Y5257724D01*
X25600000Y5242500D01*
X25400000Y5242500D01*
X25323463Y5257724D01*
X25258579Y5301079D01*
X25215224Y5365963D01*
X25200000Y5442500D01*
X25200000Y5877500D01*
X25215224Y5954037D01*
X25258579Y6018921D01*
X25293014Y6041931D01*
X25293014Y6093070D01*
X25258579Y6116079D01*
X25215224Y6180963D01*
X25200000Y6257500D01*
X25200000Y6692500D01*
X25215224Y6769037D01*
X25258579Y6833921D01*
X25323463Y6877276D01*
X25400000Y6892500D01*
X25600000Y6892500D01*
X25676537Y6877276D01*
G37*
G36*
X3363685Y6822011D02*
G01*
X3481408Y6773249D01*
X3587356Y6702457D01*
X3677457Y6612356D01*
X3748249Y6506408D01*
X3797011Y6388685D01*
X3821870Y6263711D01*
X3821870Y6136289D01*
X3797011Y6011315D01*
X3748249Y5893592D01*
X3677457Y5787644D01*
X3587356Y5697543D01*
X3481408Y5626751D01*
X3363685Y5577989D01*
X3238711Y5553130D01*
X3111289Y5553130D01*
X2986315Y5577989D01*
X2868592Y5626751D01*
X2762644Y5697543D01*
X2672543Y5787644D01*
X2601751Y5893592D01*
X2552989Y6011315D01*
X2528130Y6136289D01*
X2528130Y6263711D01*
X2552989Y6388685D01*
X2601751Y6506408D01*
X2672543Y6612356D01*
X2762644Y6702457D01*
X2868592Y6773249D01*
X2986315Y6822011D01*
X3111289Y6846870D01*
X3238711Y6846870D01*
X3363685Y6822011D01*
G37*
G36*
X14838268Y6392388D02*
G01*
X14870711Y6370711D01*
X14892388Y6338268D01*
X14900000Y6300000D01*
X14900000Y5700000D01*
X14892388Y5661732D01*
X14870711Y5629289D01*
X14838268Y5607612D01*
X14800000Y5600000D01*
X14200000Y5600000D01*
X14161732Y5607612D01*
X14129289Y5629289D01*
X14107612Y5661732D01*
X14100000Y5700000D01*
X14100000Y6300000D01*
X14107612Y6338268D01*
X14129289Y6370711D01*
X14161732Y6392388D01*
X14200000Y6400000D01*
X14800000Y6400000D01*
X14838268Y6392388D01*
G37*
G36*
X23838268Y6392388D02*
G01*
X23870711Y6370711D01*
X23892388Y6338268D01*
X23900000Y6300000D01*
X23900000Y5700000D01*
X23892388Y5661732D01*
X23870711Y5629289D01*
X23838268Y5607612D01*
X23800000Y5600000D01*
X23200000Y5600000D01*
X23161732Y5607612D01*
X23129289Y5629289D01*
X23107612Y5661732D01*
X23100000Y5700000D01*
X23100000Y6300000D01*
X23107612Y6338268D01*
X23129289Y6370711D01*
X23161732Y6392388D01*
X23200000Y6400000D01*
X23800000Y6400000D01*
X23838268Y6392388D01*
G37*
G36*
X8309046Y7034196D02*
G01*
X8361553Y7028104D01*
X8379494Y7020182D01*
X8402584Y7015589D01*
X8427304Y6999072D01*
X8448619Y6989660D01*
X8463176Y6975103D01*
X8485312Y6960312D01*
X8500102Y6938177D01*
X8514659Y6923620D01*
X8524069Y6902307D01*
X8540589Y6877584D01*
X8545182Y6854493D01*
X8553103Y6836554D01*
X8559192Y6784058D01*
X8560000Y6780000D01*
X8560000Y6355000D01*
X8559192Y6350942D01*
X8553103Y6298447D01*
X8545182Y6280510D01*
X8540589Y6257416D01*
X8524068Y6232692D01*
X8514659Y6211381D01*
X8500104Y6196827D01*
X8485312Y6174688D01*
X8463173Y6159896D01*
X8448619Y6145341D01*
X8427308Y6135932D01*
X8402584Y6119411D01*
X8379490Y6114818D01*
X8361553Y6106897D01*
X8309058Y6100808D01*
X8305000Y6100000D01*
X7995000Y6100000D01*
X7990942Y6100808D01*
X7938446Y6106897D01*
X7920507Y6114818D01*
X7897416Y6119411D01*
X7872693Y6135931D01*
X7851380Y6145341D01*
X7836823Y6159898D01*
X7814688Y6174688D01*
X7799897Y6196824D01*
X7785340Y6211381D01*
X7775928Y6232696D01*
X7759411Y6257416D01*
X7754818Y6280506D01*
X7746896Y6298447D01*
X7740804Y6350954D01*
X7740000Y6355000D01*
X7740000Y6780000D01*
X7740804Y6784046D01*
X7746896Y6836554D01*
X7754818Y6854497D01*
X7759411Y6877584D01*
X7775927Y6902303D01*
X7785340Y6923620D01*
X7799899Y6938180D01*
X7814688Y6960312D01*
X7836820Y6975101D01*
X7851380Y6989660D01*
X7872697Y6999073D01*
X7897416Y7015589D01*
X7920503Y7020182D01*
X7938446Y7028104D01*
X7990954Y7034196D01*
X7995000Y7035000D01*
X8305000Y7035000D01*
X8309046Y7034196D01*
G37*
G36*
X12659046Y7131696D02*
G01*
X12711553Y7125604D01*
X12729494Y7117682D01*
X12752584Y7113089D01*
X12777304Y7096572D01*
X12798619Y7087160D01*
X12813176Y7072603D01*
X12835312Y7057812D01*
X12850102Y7035677D01*
X12864659Y7021120D01*
X12874069Y6999807D01*
X12890589Y6975084D01*
X12895182Y6951993D01*
X12903103Y6934054D01*
X12909192Y6881558D01*
X12910000Y6877500D01*
X12910000Y6452500D01*
X12909192Y6448442D01*
X12903103Y6395947D01*
X12895182Y6378010D01*
X12890589Y6354916D01*
X12874068Y6330192D01*
X12864659Y6308881D01*
X12850104Y6294327D01*
X12835312Y6272188D01*
X12813173Y6257396D01*
X12798619Y6242841D01*
X12777308Y6233432D01*
X12752584Y6216911D01*
X12729490Y6212318D01*
X12711553Y6204397D01*
X12659058Y6198308D01*
X12655000Y6197500D01*
X12345000Y6197500D01*
X12340942Y6198308D01*
X12288446Y6204397D01*
X12270507Y6212318D01*
X12247416Y6216911D01*
X12222693Y6233431D01*
X12201380Y6242841D01*
X12186823Y6257398D01*
X12164688Y6272188D01*
X12149897Y6294324D01*
X12135340Y6308881D01*
X12125928Y6330196D01*
X12109411Y6354916D01*
X12104818Y6378006D01*
X12096896Y6395947D01*
X12090804Y6448454D01*
X12090000Y6452500D01*
X12090000Y6877500D01*
X12090804Y6881546D01*
X12096896Y6934054D01*
X12104818Y6951997D01*
X12109411Y6975084D01*
X12125927Y6999803D01*
X12135340Y7021120D01*
X12149899Y7035680D01*
X12164688Y7057812D01*
X12186820Y7072601D01*
X12201380Y7087160D01*
X12222697Y7096573D01*
X12247416Y7113089D01*
X12270503Y7117682D01*
X12288446Y7125604D01*
X12340954Y7131696D01*
X12345000Y7132500D01*
X12655000Y7132500D01*
X12659046Y7131696D01*
G37*
G36*
X14838268Y7392388D02*
G01*
X14870711Y7370711D01*
X14892388Y7338268D01*
X14900000Y7300000D01*
X14900000Y6700000D01*
X14892388Y6661732D01*
X14870711Y6629289D01*
X14838268Y6607612D01*
X14800000Y6600000D01*
X14200000Y6600000D01*
X14161732Y6607612D01*
X14129289Y6629289D01*
X14107612Y6661732D01*
X14100000Y6700000D01*
X14100000Y7300000D01*
X14107612Y7338268D01*
X14129289Y7370711D01*
X14161732Y7392388D01*
X14200000Y7400000D01*
X14800000Y7400000D01*
X14838268Y7392388D01*
G37*
G36*
X23838268Y7392388D02*
G01*
X23870711Y7370711D01*
X23892388Y7338268D01*
X23900000Y7300000D01*
X23900000Y6700000D01*
X23892388Y6661732D01*
X23870711Y6629289D01*
X23838268Y6607612D01*
X23800000Y6600000D01*
X23200000Y6600000D01*
X23161732Y6607612D01*
X23129289Y6629289D01*
X23107612Y6661732D01*
X23100000Y6700000D01*
X23100000Y7300000D01*
X23107612Y7338268D01*
X23129289Y7370711D01*
X23161732Y7392388D01*
X23200000Y7400000D01*
X23800000Y7400000D01*
X23838268Y7392388D01*
G37*
G36*
X7024868Y8135450D02*
G01*
X7030586Y8132655D01*
X7032962Y8132278D01*
X7070987Y8112904D01*
X7128377Y8084847D01*
X7209847Y8003377D01*
X7237907Y7945980D01*
X7257276Y7907966D01*
X7257652Y7905592D01*
X7260450Y7899868D01*
X7275000Y7800000D01*
X7275000Y7200000D01*
X7260450Y7100132D01*
X7257652Y7094411D01*
X7257277Y7092038D01*
X7237926Y7054061D01*
X7209847Y6996623D01*
X7128377Y6915153D01*
X7070955Y6887081D01*
X7032965Y6867724D01*
X7030591Y6867349D01*
X7024868Y6864550D01*
X6925000Y6850000D01*
X4925000Y6850000D01*
X4825132Y6864550D01*
X4819410Y6867348D01*
X4817037Y6867723D01*
X4779035Y6887086D01*
X4721623Y6915153D01*
X4640153Y6996623D01*
X4612104Y7053997D01*
X4592723Y7092035D01*
X4592346Y7094412D01*
X4589550Y7100132D01*
X4575000Y7200000D01*
X4575000Y7800000D01*
X4589550Y7899868D01*
X4592345Y7905587D01*
X4592722Y7907963D01*
X4612108Y7946013D01*
X4640153Y8003377D01*
X4721623Y8084847D01*
X4778971Y8112884D01*
X4817034Y8132277D01*
X4819411Y8132654D01*
X4825132Y8135450D01*
X4925000Y8150000D01*
X6925000Y8150000D01*
X7024868Y8135450D01*
G37*
G36*
X25659046Y7966696D02*
G01*
X25711553Y7960604D01*
X25729494Y7952682D01*
X25752584Y7948089D01*
X25777304Y7931572D01*
X25798619Y7922160D01*
X25813176Y7907603D01*
X25835312Y7892812D01*
X25850102Y7870677D01*
X25864659Y7856120D01*
X25874069Y7834807D01*
X25890589Y7810084D01*
X25895182Y7786993D01*
X25903103Y7769054D01*
X25909192Y7716558D01*
X25910000Y7712500D01*
X25910000Y7287500D01*
X25909192Y7283442D01*
X25903103Y7230947D01*
X25895182Y7213010D01*
X25890589Y7189916D01*
X25874068Y7165192D01*
X25864659Y7143881D01*
X25850104Y7129327D01*
X25835312Y7107188D01*
X25813173Y7092396D01*
X25798619Y7077841D01*
X25777308Y7068432D01*
X25752584Y7051911D01*
X25729490Y7047318D01*
X25711553Y7039397D01*
X25659058Y7033308D01*
X25655000Y7032500D01*
X25345000Y7032500D01*
X25340942Y7033308D01*
X25288446Y7039397D01*
X25270507Y7047318D01*
X25247416Y7051911D01*
X25222693Y7068431D01*
X25201380Y7077841D01*
X25186823Y7092398D01*
X25164688Y7107188D01*
X25149897Y7129324D01*
X25135340Y7143881D01*
X25125928Y7165196D01*
X25109411Y7189916D01*
X25104818Y7213006D01*
X25096896Y7230947D01*
X25090804Y7283454D01*
X25090000Y7287500D01*
X25090000Y7712500D01*
X25090804Y7716546D01*
X25096896Y7769054D01*
X25104818Y7786997D01*
X25109411Y7810084D01*
X25125927Y7834803D01*
X25135340Y7856120D01*
X25149899Y7870680D01*
X25164688Y7892812D01*
X25186820Y7907601D01*
X25201380Y7922160D01*
X25222697Y7931573D01*
X25247416Y7948089D01*
X25270503Y7952682D01*
X25288446Y7960604D01*
X25340954Y7966696D01*
X25345000Y7967500D01*
X25655000Y7967500D01*
X25659046Y7966696D01*
G37*
G36*
X12659046Y8266696D02*
G01*
X12711553Y8260604D01*
X12729494Y8252682D01*
X12752584Y8248089D01*
X12777304Y8231572D01*
X12798619Y8222160D01*
X12813176Y8207603D01*
X12835312Y8192812D01*
X12850102Y8170677D01*
X12864659Y8156120D01*
X12874069Y8134807D01*
X12890589Y8110084D01*
X12895182Y8086993D01*
X12903103Y8069054D01*
X12909192Y8016558D01*
X12910000Y8012500D01*
X12910000Y7587500D01*
X12909192Y7583442D01*
X12903103Y7530947D01*
X12895182Y7513010D01*
X12890589Y7489916D01*
X12874068Y7465192D01*
X12864659Y7443881D01*
X12850104Y7429327D01*
X12835312Y7407188D01*
X12813173Y7392396D01*
X12798619Y7377841D01*
X12777308Y7368432D01*
X12752584Y7351911D01*
X12729490Y7347318D01*
X12711553Y7339397D01*
X12659058Y7333308D01*
X12655000Y7332500D01*
X12345000Y7332500D01*
X12340942Y7333308D01*
X12288446Y7339397D01*
X12270507Y7347318D01*
X12247416Y7351911D01*
X12222693Y7368431D01*
X12201380Y7377841D01*
X12186823Y7392398D01*
X12164688Y7407188D01*
X12149897Y7429324D01*
X12135340Y7443881D01*
X12125928Y7465196D01*
X12109411Y7489916D01*
X12104818Y7513006D01*
X12096896Y7530947D01*
X12090804Y7583454D01*
X12090000Y7587500D01*
X12090000Y8012500D01*
X12090804Y8016546D01*
X12096896Y8069054D01*
X12104818Y8086997D01*
X12109411Y8110084D01*
X12125927Y8134803D01*
X12135340Y8156120D01*
X12149899Y8170680D01*
X12164688Y8192812D01*
X12186820Y8207601D01*
X12201380Y8222160D01*
X12222697Y8231573D01*
X12247416Y8248089D01*
X12270503Y8252682D01*
X12288446Y8260604D01*
X12340954Y8266696D01*
X12345000Y8267500D01*
X12655000Y8267500D01*
X12659046Y8266696D01*
G37*
G36*
X30374868Y8935450D02*
G01*
X30380586Y8932655D01*
X30382962Y8932278D01*
X30420987Y8912904D01*
X30478377Y8884847D01*
X30559847Y8803377D01*
X30587907Y8745980D01*
X30607276Y8707966D01*
X30607652Y8705592D01*
X30610450Y8699868D01*
X30625000Y8600000D01*
X30625000Y7750000D01*
X30610450Y7650132D01*
X30607652Y7644411D01*
X30607277Y7642038D01*
X30587926Y7604061D01*
X30559847Y7546623D01*
X30478377Y7465153D01*
X30420955Y7437081D01*
X30382965Y7417724D01*
X30380591Y7417349D01*
X30374868Y7414550D01*
X30275000Y7400000D01*
X27075000Y7400000D01*
X26975132Y7414550D01*
X26969410Y7417348D01*
X26967037Y7417723D01*
X26929035Y7437086D01*
X26871623Y7465153D01*
X26790153Y7546623D01*
X26762104Y7603997D01*
X26742723Y7642035D01*
X26742346Y7644412D01*
X26739550Y7650132D01*
X26725000Y7750000D01*
X26725000Y8600000D01*
X26739550Y8699868D01*
X26742345Y8705587D01*
X26742722Y8707963D01*
X26762108Y8746013D01*
X26790153Y8803377D01*
X26871623Y8884847D01*
X26928971Y8912884D01*
X26967034Y8932277D01*
X26969411Y8932654D01*
X26975132Y8935450D01*
X27075000Y8950000D01*
X30275000Y8950000D01*
X30374868Y8935450D01*
G37*
G36*
X14838268Y8392388D02*
G01*
X14870711Y8370711D01*
X14892388Y8338268D01*
X14900000Y8300000D01*
X14900000Y7700000D01*
X14892388Y7661732D01*
X14870711Y7629289D01*
X14838268Y7607612D01*
X14800000Y7600000D01*
X14200000Y7600000D01*
X14161732Y7607612D01*
X14129289Y7629289D01*
X14107612Y7661732D01*
X14100000Y7700000D01*
X14100000Y8300000D01*
X14107612Y8338268D01*
X14129289Y8370711D01*
X14161732Y8392388D01*
X14200000Y8400000D01*
X14800000Y8400000D01*
X14838268Y8392388D01*
G37*
G36*
X23838268Y8392388D02*
G01*
X23870711Y8370711D01*
X23892388Y8338268D01*
X23900000Y8300000D01*
X23900000Y7700000D01*
X23892388Y7661732D01*
X23870711Y7629289D01*
X23838268Y7607612D01*
X23800000Y7600000D01*
X23200000Y7600000D01*
X23161732Y7607612D01*
X23129289Y7629289D01*
X23107612Y7661732D01*
X23100000Y7700000D01*
X23100000Y8300000D01*
X23107612Y8338268D01*
X23129289Y8370711D01*
X23161732Y8392388D01*
X23200000Y8400000D01*
X23800000Y8400000D01*
X23838268Y8392388D01*
G37*
G36*
X25659046Y9101696D02*
G01*
X25711553Y9095604D01*
X25729494Y9087682D01*
X25752584Y9083089D01*
X25777304Y9066572D01*
X25798619Y9057160D01*
X25813176Y9042603D01*
X25835312Y9027812D01*
X25850102Y9005677D01*
X25864659Y8991120D01*
X25874069Y8969807D01*
X25890589Y8945084D01*
X25895182Y8921993D01*
X25903103Y8904054D01*
X25909192Y8851558D01*
X25910000Y8847500D01*
X25910000Y8422500D01*
X25909192Y8418442D01*
X25903103Y8365947D01*
X25895182Y8348010D01*
X25890589Y8324916D01*
X25874068Y8300192D01*
X25864659Y8278881D01*
X25850104Y8264327D01*
X25835312Y8242188D01*
X25813173Y8227396D01*
X25798619Y8212841D01*
X25777308Y8203432D01*
X25752584Y8186911D01*
X25729490Y8182318D01*
X25711553Y8174397D01*
X25659058Y8168308D01*
X25655000Y8167500D01*
X25345000Y8167500D01*
X25340942Y8168308D01*
X25288446Y8174397D01*
X25270507Y8182318D01*
X25247416Y8186911D01*
X25222693Y8203431D01*
X25201380Y8212841D01*
X25186823Y8227398D01*
X25164688Y8242188D01*
X25149897Y8264324D01*
X25135340Y8278881D01*
X25125928Y8300196D01*
X25109411Y8324916D01*
X25104818Y8348006D01*
X25096896Y8365947D01*
X25090804Y8418454D01*
X25090000Y8422500D01*
X25090000Y8847500D01*
X25090804Y8851546D01*
X25096896Y8904054D01*
X25104818Y8921997D01*
X25109411Y8945084D01*
X25125927Y8969803D01*
X25135340Y8991120D01*
X25149899Y9005680D01*
X25164688Y9027812D01*
X25186820Y9042601D01*
X25201380Y9057160D01*
X25222697Y9066573D01*
X25247416Y9083089D01*
X25270503Y9087682D01*
X25288446Y9095604D01*
X25340954Y9101696D01*
X25345000Y9102500D01*
X25655000Y9102500D01*
X25659046Y9101696D01*
G37*
G36*
X14838268Y9392388D02*
G01*
X14870711Y9370711D01*
X14892388Y9338268D01*
X14900000Y9300000D01*
X14900000Y8700000D01*
X14892388Y8661732D01*
X14870711Y8629289D01*
X14838268Y8607612D01*
X14800000Y8600000D01*
X14200000Y8600000D01*
X14161732Y8607612D01*
X14129289Y8629289D01*
X14107612Y8661732D01*
X14100000Y8700000D01*
X14100000Y9300000D01*
X14107612Y9338268D01*
X14129289Y9370711D01*
X14161732Y9392388D01*
X14200000Y9400000D01*
X14800000Y9400000D01*
X14838268Y9392388D01*
G37*
G36*
X23838268Y9392388D02*
G01*
X23870711Y9370711D01*
X23892388Y9338268D01*
X23900000Y9300000D01*
X23900000Y8700000D01*
X23892388Y8661732D01*
X23870711Y8629289D01*
X23838268Y8607612D01*
X23800000Y8600000D01*
X23200000Y8600000D01*
X23161732Y8607612D01*
X23129289Y8629289D01*
X23107612Y8661732D01*
X23100000Y8700000D01*
X23100000Y9300000D01*
X23107612Y9338268D01*
X23129289Y9370711D01*
X23161732Y9392388D01*
X23200000Y9400000D01*
X23800000Y9400000D01*
X23838268Y9392388D01*
G37*
G36*
X7024868Y10135450D02*
G01*
X7030586Y10132655D01*
X7032962Y10132278D01*
X7070987Y10112904D01*
X7128377Y10084847D01*
X7209847Y10003377D01*
X7237907Y9945980D01*
X7257276Y9907966D01*
X7257652Y9905592D01*
X7260450Y9899868D01*
X7275000Y9800000D01*
X7275000Y9200000D01*
X7260450Y9100132D01*
X7257652Y9094411D01*
X7257277Y9092038D01*
X7237926Y9054061D01*
X7209847Y8996623D01*
X7128377Y8915153D01*
X7070955Y8887081D01*
X7032965Y8867724D01*
X7030591Y8867349D01*
X7024868Y8864550D01*
X6925000Y8850000D01*
X4925000Y8850000D01*
X4825132Y8864550D01*
X4819410Y8867348D01*
X4817037Y8867723D01*
X4779035Y8887086D01*
X4721623Y8915153D01*
X4640153Y8996623D01*
X4612104Y9053997D01*
X4592723Y9092035D01*
X4592346Y9094412D01*
X4589550Y9100132D01*
X4575000Y9200000D01*
X4575000Y9800000D01*
X4589550Y9899868D01*
X4592345Y9905587D01*
X4592722Y9907963D01*
X4612108Y9946013D01*
X4640153Y10003377D01*
X4721623Y10084847D01*
X4778971Y10112884D01*
X4817034Y10132277D01*
X4819411Y10132654D01*
X4825132Y10135450D01*
X4925000Y10150000D01*
X6925000Y10150000D01*
X7024868Y10135450D01*
G37*
G36*
X14838268Y10392388D02*
G01*
X14870711Y10370711D01*
X14892388Y10338268D01*
X14900000Y10300000D01*
X14900000Y9700000D01*
X14892388Y9661732D01*
X14870711Y9629289D01*
X14838268Y9607612D01*
X14800000Y9600000D01*
X14200000Y9600000D01*
X14161732Y9607612D01*
X14129289Y9629289D01*
X14107612Y9661732D01*
X14100000Y9700000D01*
X14100000Y10300000D01*
X14107612Y10338268D01*
X14129289Y10370711D01*
X14161732Y10392388D01*
X14200000Y10400000D01*
X14800000Y10400000D01*
X14838268Y10392388D01*
G37*
G36*
X23838268Y10392388D02*
G01*
X23870711Y10370711D01*
X23892388Y10338268D01*
X23900000Y10300000D01*
X23900000Y9700000D01*
X23892388Y9661732D01*
X23870711Y9629289D01*
X23838268Y9607612D01*
X23800000Y9600000D01*
X23200000Y9600000D01*
X23161732Y9607612D01*
X23129289Y9629289D01*
X23107612Y9661732D01*
X23100000Y9700000D01*
X23100000Y10300000D01*
X23107612Y10338268D01*
X23129289Y10370711D01*
X23161732Y10392388D01*
X23200000Y10400000D01*
X23800000Y10400000D01*
X23838268Y10392388D01*
G37*
G36*
X3363685Y11422011D02*
G01*
X3481408Y11373249D01*
X3587356Y11302457D01*
X3677457Y11212356D01*
X3748249Y11106408D01*
X3797011Y10988685D01*
X3821870Y10863711D01*
X3821870Y10736289D01*
X3797011Y10611315D01*
X3748249Y10493592D01*
X3677457Y10387644D01*
X3587356Y10297543D01*
X3481408Y10226751D01*
X3363685Y10177989D01*
X3238711Y10153130D01*
X3111289Y10153130D01*
X2986315Y10177989D01*
X2868592Y10226751D01*
X2762644Y10297543D01*
X2672543Y10387644D01*
X2601751Y10493592D01*
X2552989Y10611315D01*
X2528130Y10736289D01*
X2528130Y10863711D01*
X2552989Y10988685D01*
X2601751Y11106408D01*
X2672543Y11212356D01*
X2762644Y11302457D01*
X2868592Y11373249D01*
X2986315Y11422011D01*
X3111289Y11446870D01*
X3238711Y11446870D01*
X3363685Y11422011D01*
G37*
G36*
X30374868Y11720450D02*
G01*
X30380586Y11717655D01*
X30382962Y11717278D01*
X30420987Y11697904D01*
X30478377Y11669847D01*
X30559847Y11588377D01*
X30587907Y11530980D01*
X30607276Y11492966D01*
X30607652Y11490592D01*
X30610450Y11484868D01*
X30625000Y11385000D01*
X30625000Y10615000D01*
X30610450Y10515132D01*
X30607652Y10509411D01*
X30607277Y10507038D01*
X30587926Y10469061D01*
X30559847Y10411623D01*
X30478377Y10330153D01*
X30420955Y10302081D01*
X30382965Y10282724D01*
X30380591Y10282349D01*
X30374868Y10279550D01*
X30275000Y10265000D01*
X27575000Y10265000D01*
X27475132Y10279550D01*
X27469410Y10282348D01*
X27467037Y10282723D01*
X27429035Y10302086D01*
X27371623Y10330153D01*
X27290153Y10411623D01*
X27262104Y10468997D01*
X27242723Y10507035D01*
X27242346Y10509412D01*
X27239550Y10515132D01*
X27225000Y10615000D01*
X27225000Y11385000D01*
X27239550Y11484868D01*
X27242345Y11490587D01*
X27242722Y11492963D01*
X27262108Y11531013D01*
X27290153Y11588377D01*
X27371623Y11669847D01*
X27428971Y11697884D01*
X27467034Y11717277D01*
X27469411Y11717654D01*
X27475132Y11720450D01*
X27575000Y11735000D01*
X30275000Y11735000D01*
X30374868Y11720450D01*
G37*
G36*
X14838268Y11392388D02*
G01*
X14870711Y11370711D01*
X14892388Y11338268D01*
X14900000Y11300000D01*
X14900000Y10700000D01*
X14892388Y10661732D01*
X14870711Y10629289D01*
X14838268Y10607612D01*
X14800000Y10600000D01*
X14200000Y10600000D01*
X14161732Y10607612D01*
X14129289Y10629289D01*
X14107612Y10661732D01*
X14100000Y10700000D01*
X14100000Y11300000D01*
X14107612Y11338268D01*
X14129289Y11370711D01*
X14161732Y11392388D01*
X14200000Y11400000D01*
X14800000Y11400000D01*
X14838268Y11392388D01*
G37*
G36*
X23838268Y11392388D02*
G01*
X23870711Y11370711D01*
X23892388Y11338268D01*
X23900000Y11300000D01*
X23900000Y10700000D01*
X23892388Y10661732D01*
X23870711Y10629289D01*
X23838268Y10607612D01*
X23800000Y10600000D01*
X23200000Y10600000D01*
X23161732Y10607612D01*
X23129289Y10629289D01*
X23107612Y10661732D01*
X23100000Y10700000D01*
X23100000Y11300000D01*
X23107612Y11338268D01*
X23129289Y11370711D01*
X23161732Y11392388D01*
X23200000Y11400000D01*
X23800000Y11400000D01*
X23838268Y11392388D01*
G37*
G36*
X7024868Y12635450D02*
G01*
X7030586Y12632655D01*
X7032962Y12632278D01*
X7070987Y12612904D01*
X7128377Y12584847D01*
X7209847Y12503377D01*
X7237907Y12445980D01*
X7257276Y12407966D01*
X7257652Y12405592D01*
X7260450Y12399868D01*
X7275000Y12300000D01*
X7275000Y11700000D01*
X7260450Y11600132D01*
X7257652Y11594411D01*
X7257277Y11592038D01*
X7237926Y11554061D01*
X7209847Y11496623D01*
X7128377Y11415153D01*
X7070955Y11387081D01*
X7032965Y11367724D01*
X7030591Y11367349D01*
X7024868Y11364550D01*
X6925000Y11350000D01*
X4925000Y11350000D01*
X4825132Y11364550D01*
X4819410Y11367348D01*
X4817037Y11367723D01*
X4779035Y11387086D01*
X4721623Y11415153D01*
X4640153Y11496623D01*
X4612104Y11553997D01*
X4592723Y11592035D01*
X4592346Y11594412D01*
X4589550Y11600132D01*
X4575000Y11700000D01*
X4575000Y12300000D01*
X4589550Y12399868D01*
X4592345Y12405587D01*
X4592722Y12407963D01*
X4612108Y12446013D01*
X4640153Y12503377D01*
X4721623Y12584847D01*
X4778971Y12612884D01*
X4817034Y12632277D01*
X4819411Y12632654D01*
X4825132Y12635450D01*
X4925000Y12650000D01*
X6925000Y12650000D01*
X7024868Y12635450D01*
G37*
G36*
X14838268Y12392388D02*
G01*
X14870711Y12370711D01*
X14892388Y12338268D01*
X14900000Y12300000D01*
X14900000Y11700000D01*
X14892388Y11661732D01*
X14870711Y11629289D01*
X14838268Y11607612D01*
X14800000Y11600000D01*
X14200000Y11600000D01*
X14161732Y11607612D01*
X14129289Y11629289D01*
X14107612Y11661732D01*
X14100000Y11700000D01*
X14100000Y12300000D01*
X14107612Y12338268D01*
X14129289Y12370711D01*
X14161732Y12392388D01*
X14200000Y12400000D01*
X14800000Y12400000D01*
X14838268Y12392388D01*
G37*
G36*
X15838268Y12392388D02*
G01*
X15870711Y12370711D01*
X15892388Y12338268D01*
X15900000Y12300000D01*
X15900000Y11700000D01*
X15892388Y11661732D01*
X15870711Y11629289D01*
X15838268Y11607612D01*
X15800000Y11600000D01*
X15200000Y11600000D01*
X15161732Y11607612D01*
X15129289Y11629289D01*
X15107612Y11661732D01*
X15100000Y11700000D01*
X15100000Y12300000D01*
X15107612Y12338268D01*
X15129289Y12370711D01*
X15161732Y12392388D01*
X15200000Y12400000D01*
X15800000Y12400000D01*
X15838268Y12392388D01*
G37*
G36*
X16838268Y12392388D02*
G01*
X16870711Y12370711D01*
X16892388Y12338268D01*
X16900000Y12300000D01*
X16900000Y11700000D01*
X16892388Y11661732D01*
X16870711Y11629289D01*
X16838268Y11607612D01*
X16800000Y11600000D01*
X16200000Y11600000D01*
X16161732Y11607612D01*
X16129289Y11629289D01*
X16107612Y11661732D01*
X16100000Y11700000D01*
X16100000Y12300000D01*
X16107612Y12338268D01*
X16129289Y12370711D01*
X16161732Y12392388D01*
X16200000Y12400000D01*
X16800000Y12400000D01*
X16838268Y12392388D01*
G37*
G36*
X17838268Y12392388D02*
G01*
X17870711Y12370711D01*
X17892388Y12338268D01*
X17900000Y12300000D01*
X17900000Y11700000D01*
X17892388Y11661732D01*
X17870711Y11629289D01*
X17838268Y11607612D01*
X17800000Y11600000D01*
X17200000Y11600000D01*
X17161732Y11607612D01*
X17129289Y11629289D01*
X17107612Y11661732D01*
X17100000Y11700000D01*
X17100000Y12300000D01*
X17107612Y12338268D01*
X17129289Y12370711D01*
X17161732Y12392388D01*
X17200000Y12400000D01*
X17800000Y12400000D01*
X17838268Y12392388D01*
G37*
G36*
X18838268Y12392388D02*
G01*
X18870711Y12370711D01*
X18892388Y12338268D01*
X18900000Y12300000D01*
X18900000Y11700000D01*
X18892388Y11661732D01*
X18870711Y11629289D01*
X18838268Y11607612D01*
X18800000Y11600000D01*
X18200000Y11600000D01*
X18161732Y11607612D01*
X18129289Y11629289D01*
X18107612Y11661732D01*
X18100000Y11700000D01*
X18100000Y12300000D01*
X18107612Y12338268D01*
X18129289Y12370711D01*
X18161732Y12392388D01*
X18200000Y12400000D01*
X18800000Y12400000D01*
X18838268Y12392388D01*
G37*
G36*
X19838268Y12392388D02*
G01*
X19870711Y12370711D01*
X19892388Y12338268D01*
X19900000Y12300000D01*
X19900000Y11700000D01*
X19892388Y11661732D01*
X19870711Y11629289D01*
X19838268Y11607612D01*
X19800000Y11600000D01*
X19200000Y11600000D01*
X19161732Y11607612D01*
X19129289Y11629289D01*
X19107612Y11661732D01*
X19100000Y11700000D01*
X19100000Y12300000D01*
X19107612Y12338268D01*
X19129289Y12370711D01*
X19161732Y12392388D01*
X19200000Y12400000D01*
X19800000Y12400000D01*
X19838268Y12392388D01*
G37*
G36*
X20838268Y12392388D02*
G01*
X20870711Y12370711D01*
X20892388Y12338268D01*
X20900000Y12300000D01*
X20900000Y11700000D01*
X20892388Y11661732D01*
X20870711Y11629289D01*
X20838268Y11607612D01*
X20800000Y11600000D01*
X20200000Y11600000D01*
X20161732Y11607612D01*
X20129289Y11629289D01*
X20107612Y11661732D01*
X20100000Y11700000D01*
X20100000Y12300000D01*
X20107612Y12338268D01*
X20129289Y12370711D01*
X20161732Y12392388D01*
X20200000Y12400000D01*
X20800000Y12400000D01*
X20838268Y12392388D01*
G37*
G36*
X21838268Y12392388D02*
G01*
X21870711Y12370711D01*
X21892388Y12338268D01*
X21900000Y12300000D01*
X21900000Y11700000D01*
X21892388Y11661732D01*
X21870711Y11629289D01*
X21838268Y11607612D01*
X21800000Y11600000D01*
X21200000Y11600000D01*
X21161732Y11607612D01*
X21129289Y11629289D01*
X21107612Y11661732D01*
X21100000Y11700000D01*
X21100000Y12300000D01*
X21107612Y12338268D01*
X21129289Y12370711D01*
X21161732Y12392388D01*
X21200000Y12400000D01*
X21800000Y12400000D01*
X21838268Y12392388D01*
G37*
G36*
X22838268Y12392388D02*
G01*
X22870711Y12370711D01*
X22892388Y12338268D01*
X22900000Y12300000D01*
X22900000Y11700000D01*
X22892388Y11661732D01*
X22870711Y11629289D01*
X22838268Y11607612D01*
X22800000Y11600000D01*
X22200000Y11600000D01*
X22161732Y11607612D01*
X22129289Y11629289D01*
X22107612Y11661732D01*
X22100000Y11700000D01*
X22100000Y12300000D01*
X22107612Y12338268D01*
X22129289Y12370711D01*
X22161732Y12392388D01*
X22200000Y12400000D01*
X22800000Y12400000D01*
X22838268Y12392388D01*
G37*
G36*
X23838268Y12392388D02*
G01*
X23870711Y12370711D01*
X23892388Y12338268D01*
X23900000Y12300000D01*
X23900000Y11700000D01*
X23892388Y11661732D01*
X23870711Y11629289D01*
X23838268Y11607612D01*
X23800000Y11600000D01*
X23200000Y11600000D01*
X23161732Y11607612D01*
X23129289Y11629289D01*
X23107612Y11661732D01*
X23100000Y11700000D01*
X23100000Y12300000D01*
X23107612Y12338268D01*
X23129289Y12370711D01*
X23161732Y12392388D01*
X23200000Y12400000D01*
X23800000Y12400000D01*
X23838268Y12392388D01*
G37*
G36*
X30374868Y14585450D02*
G01*
X30380586Y14582655D01*
X30382962Y14582278D01*
X30420987Y14562904D01*
X30478377Y14534847D01*
X30559847Y14453377D01*
X30587907Y14395980D01*
X30607276Y14357966D01*
X30607652Y14355592D01*
X30610450Y14349868D01*
X30625000Y14250000D01*
X30625000Y13400000D01*
X30610450Y13300132D01*
X30607652Y13294411D01*
X30607277Y13292038D01*
X30587926Y13254061D01*
X30559847Y13196623D01*
X30478377Y13115153D01*
X30420955Y13087081D01*
X30382965Y13067724D01*
X30380591Y13067349D01*
X30374868Y13064550D01*
X30275000Y13050000D01*
X27075000Y13050000D01*
X26975132Y13064550D01*
X26969410Y13067348D01*
X26967037Y13067723D01*
X26929035Y13087086D01*
X26871623Y13115153D01*
X26790153Y13196623D01*
X26762104Y13253997D01*
X26742723Y13292035D01*
X26742346Y13294412D01*
X26739550Y13300132D01*
X26725000Y13400000D01*
X26725000Y14250000D01*
X26739550Y14349868D01*
X26742345Y14355587D01*
X26742722Y14357963D01*
X26762108Y14396013D01*
X26790153Y14453377D01*
X26871623Y14534847D01*
X26928971Y14562884D01*
X26967034Y14582277D01*
X26969411Y14582654D01*
X26975132Y14585450D01*
X27075000Y14600000D01*
X30275000Y14600000D01*
X30374868Y14585450D01*
G37*
G36*
X3978873Y15249810D02*
G01*
X4056394Y15246764D01*
X4063374Y15245659D01*
X4077918Y15244944D01*
X4117116Y15237147D01*
X4220078Y15220840D01*
X4253200Y15210078D01*
X4279799Y15204787D01*
X4317335Y15189240D01*
X4376762Y15169930D01*
X4432433Y15141565D01*
X4469967Y15126017D01*
X4492517Y15110950D01*
X4523539Y15095143D01*
X4607866Y15033876D01*
X4641113Y15011661D01*
X4648208Y15004566D01*
X4656817Y14998311D01*
X4773310Y14881818D01*
X4779564Y14873210D01*
X4786661Y14866113D01*
X4808878Y14832862D01*
X4870142Y14748540D01*
X4885947Y14717521D01*
X4901017Y14694967D01*
X4916566Y14657428D01*
X4944929Y14601763D01*
X4964235Y14542343D01*
X4979787Y14504799D01*
X4985078Y14478195D01*
X4995839Y14445079D01*
X5012145Y14342124D01*
X5019944Y14302918D01*
X5019944Y14292886D01*
X5021609Y14282373D01*
X5021609Y14117628D01*
X5019944Y14107116D01*
X5019944Y14097082D01*
X5012144Y14057874D01*
X4995839Y13954922D01*
X4985079Y13921808D01*
X4979787Y13895201D01*
X4964234Y13857654D01*
X4944929Y13798238D01*
X4916568Y13742578D01*
X4901017Y13705033D01*
X4885945Y13682477D01*
X4870142Y13651461D01*
X4808887Y13567151D01*
X4786661Y13533887D01*
X4779561Y13526788D01*
X4773310Y13518183D01*
X4656817Y13401690D01*
X4648212Y13395439D01*
X4641113Y13388339D01*
X4607849Y13366113D01*
X4523539Y13304858D01*
X4492523Y13289055D01*
X4469967Y13273983D01*
X4432422Y13258432D01*
X4376762Y13230071D01*
X4317346Y13210766D01*
X4279799Y13195213D01*
X4253192Y13189921D01*
X4220078Y13179161D01*
X4117140Y13162858D01*
X4077918Y13155056D01*
X4063365Y13154342D01*
X4056394Y13153237D01*
X3978879Y13150191D01*
X3975000Y13150000D01*
X3974030Y13150000D01*
X2375970Y13150000D01*
X2375000Y13150000D01*
X2371120Y13150191D01*
X2293605Y13153237D01*
X2286633Y13154342D01*
X2272082Y13155056D01*
X2232862Y13162858D01*
X2129921Y13179161D01*
X2096805Y13189922D01*
X2070201Y13195213D01*
X2032657Y13210765D01*
X1973237Y13230071D01*
X1917572Y13258434D01*
X1880033Y13273983D01*
X1857479Y13289053D01*
X1826460Y13304858D01*
X1742138Y13366122D01*
X1708887Y13388339D01*
X1701790Y13395436D01*
X1693182Y13401690D01*
X1576689Y13518183D01*
X1570434Y13526792D01*
X1563339Y13533887D01*
X1541124Y13567134D01*
X1479857Y13651461D01*
X1464050Y13682483D01*
X1448983Y13705033D01*
X1433435Y13742567D01*
X1405070Y13798238D01*
X1385760Y13857665D01*
X1370213Y13895201D01*
X1364922Y13921800D01*
X1354160Y13954922D01*
X1337853Y14057883D01*
X1330056Y14097082D01*
X1330056Y14107116D01*
X1328391Y14117628D01*
X1328391Y14282373D01*
X1330056Y14292886D01*
X1330056Y14302918D01*
X1337852Y14342114D01*
X1354160Y14445079D01*
X1364922Y14478203D01*
X1370213Y14504799D01*
X1385759Y14542332D01*
X1405070Y14601763D01*
X1433438Y14657439D01*
X1448983Y14694967D01*
X1464048Y14717514D01*
X1479857Y14748540D01*
X1541132Y14832879D01*
X1563339Y14866113D01*
X1570432Y14873207D01*
X1576689Y14881818D01*
X1693182Y14998311D01*
X1701793Y15004568D01*
X1708887Y15011661D01*
X1742121Y15033868D01*
X1826460Y15095143D01*
X1857486Y15110952D01*
X1880033Y15126017D01*
X1917561Y15141562D01*
X1973237Y15169930D01*
X2032668Y15189241D01*
X2070201Y15204787D01*
X2096797Y15210078D01*
X2129921Y15220840D01*
X2232887Y15237148D01*
X2272082Y15244944D01*
X2286624Y15245659D01*
X2293605Y15246764D01*
X2371126Y15249810D01*
X2375000Y15250000D01*
X3975000Y15250000D01*
X3978873Y15249810D01*
G37*
G36*
X7776537Y15109776D02*
G01*
X7841421Y15066421D01*
X7884776Y15001537D01*
X7900000Y14925000D01*
X7900000Y14490000D01*
X7884776Y14413463D01*
X7841421Y14348579D01*
X7806985Y14325570D01*
X7806985Y14274431D01*
X7841421Y14251421D01*
X7884776Y14186537D01*
X7900000Y14110000D01*
X7900000Y13675000D01*
X7884776Y13598463D01*
X7841421Y13533579D01*
X7776537Y13490224D01*
X7700000Y13475000D01*
X7500000Y13475000D01*
X7423463Y13490224D01*
X7358579Y13533579D01*
X7315224Y13598463D01*
X7300000Y13675000D01*
X7300000Y14110000D01*
X7315224Y14186537D01*
X7358579Y14251421D01*
X7393014Y14274431D01*
X7393014Y14325570D01*
X7358579Y14348579D01*
X7315224Y14413463D01*
X7300000Y14490000D01*
X7300000Y14925000D01*
X7315224Y15001537D01*
X7358579Y15066421D01*
X7423463Y15109776D01*
X7500000Y15125000D01*
X7700000Y15125000D01*
X7776537Y15109776D01*
G37*
G36*
X9286537Y15084776D02*
G01*
X9351421Y15041421D01*
X9374430Y15006986D01*
X9425570Y15006986D01*
X9448579Y15041421D01*
X9513463Y15084776D01*
X9590000Y15100000D01*
X10025000Y15100000D01*
X10101537Y15084776D01*
X10166421Y15041421D01*
X10209776Y14976537D01*
X10225000Y14900000D01*
X10225000Y14700000D01*
X10209776Y14623463D01*
X10166421Y14558579D01*
X10101537Y14515224D01*
X10025000Y14500000D01*
X9590000Y14500000D01*
X9513463Y14515224D01*
X9448579Y14558579D01*
X9425569Y14593015D01*
X9374431Y14593015D01*
X9351421Y14558579D01*
X9286537Y14515224D01*
X9210000Y14500000D01*
X8775000Y14500000D01*
X8698463Y14515224D01*
X8633579Y14558579D01*
X8590224Y14623463D01*
X8575000Y14700000D01*
X8575000Y14900000D01*
X8590224Y14976537D01*
X8633579Y15041421D01*
X8698463Y15084776D01*
X8775000Y15100000D01*
X9210000Y15100000D01*
X9286537Y15084776D01*
G37*
G36*
X11086537Y15084776D02*
G01*
X11151421Y15041421D01*
X11174430Y15006986D01*
X11225570Y15006986D01*
X11248579Y15041421D01*
X11313463Y15084776D01*
X11390000Y15100000D01*
X11825000Y15100000D01*
X11901537Y15084776D01*
X11966421Y15041421D01*
X12009776Y14976537D01*
X12025000Y14900000D01*
X12025000Y14700000D01*
X12009776Y14623463D01*
X11966421Y14558579D01*
X11901537Y14515224D01*
X11825000Y14500000D01*
X11390000Y14500000D01*
X11313463Y14515224D01*
X11248579Y14558579D01*
X11225569Y14593015D01*
X11174431Y14593015D01*
X11151421Y14558579D01*
X11086537Y14515224D01*
X11010000Y14500000D01*
X10575000Y14500000D01*
X10498463Y14515224D01*
X10433579Y14558579D01*
X10390224Y14623463D01*
X10375000Y14700000D01*
X10375000Y14900000D01*
X10390224Y14976537D01*
X10433579Y15041421D01*
X10498463Y15084776D01*
X10575000Y15100000D01*
X11010000Y15100000D01*
X11086537Y15084776D01*
G37*
G36*
X13868268Y15792388D02*
G01*
X13900711Y15770711D01*
X13922388Y15738268D01*
X13930000Y15700000D01*
X13930000Y15352501D01*
X14010488Y15336491D01*
X14039467Y15406454D01*
X14045672Y15429610D01*
X14057658Y15450372D01*
X14071059Y15482723D01*
X14109884Y15540829D01*
X14123988Y15565257D01*
X14130675Y15571945D01*
X14136380Y15580482D01*
X14219518Y15663620D01*
X14228055Y15669325D01*
X14234743Y15676012D01*
X14259175Y15690119D01*
X14317277Y15728940D01*
X14349624Y15742340D01*
X14370390Y15754328D01*
X14393548Y15760534D01*
X14425900Y15773934D01*
X14494437Y15787567D01*
X14521684Y15794867D01*
X14531142Y15794867D01*
X14541212Y15796870D01*
X14658788Y15796870D01*
X14668858Y15794867D01*
X14678316Y15794867D01*
X14705563Y15787567D01*
X14774099Y15773934D01*
X14806448Y15760535D01*
X14829610Y15754328D01*
X14850377Y15742338D01*
X14882722Y15728940D01*
X14940816Y15690123D01*
X14965257Y15676012D01*
X14971946Y15669323D01*
X14980481Y15663620D01*
X15063619Y15580482D01*
X15069321Y15571948D01*
X15076012Y15565257D01*
X15090124Y15540814D01*
X15128939Y15482723D01*
X15142335Y15450382D01*
X15154328Y15429610D01*
X15160535Y15406445D01*
X15173933Y15374100D01*
X15187564Y15305569D01*
X15194867Y15278316D01*
X15194867Y15273382D01*
X15275133Y15273382D01*
X15275133Y15278316D01*
X15282434Y15305564D01*
X15296066Y15374100D01*
X15309466Y15406452D01*
X15315672Y15429610D01*
X15327660Y15450376D01*
X15341060Y15482723D01*
X15379881Y15540825D01*
X15393988Y15565257D01*
X15400675Y15571945D01*
X15406380Y15580482D01*
X15489518Y15663620D01*
X15498055Y15669325D01*
X15504743Y15676012D01*
X15529175Y15690119D01*
X15587277Y15728940D01*
X15619624Y15742340D01*
X15640390Y15754328D01*
X15663548Y15760534D01*
X15695900Y15773934D01*
X15764437Y15787567D01*
X15791684Y15794867D01*
X15801142Y15794867D01*
X15811212Y15796870D01*
X15928788Y15796870D01*
X15938858Y15794867D01*
X15948316Y15794867D01*
X15975563Y15787567D01*
X16044099Y15773934D01*
X16076448Y15760535D01*
X16099610Y15754328D01*
X16120377Y15742338D01*
X16152722Y15728940D01*
X16210816Y15690123D01*
X16235257Y15676012D01*
X16241946Y15669323D01*
X16250481Y15663620D01*
X16333619Y15580482D01*
X16339321Y15571948D01*
X16346012Y15565257D01*
X16360124Y15540814D01*
X16398939Y15482723D01*
X16412335Y15450382D01*
X16424328Y15429610D01*
X16430535Y15406445D01*
X16443933Y15374100D01*
X16457564Y15305569D01*
X16464867Y15278316D01*
X16464867Y15273382D01*
X16545133Y15273382D01*
X16545133Y15278316D01*
X16552434Y15305564D01*
X16566066Y15374100D01*
X16579466Y15406452D01*
X16585672Y15429610D01*
X16597660Y15450376D01*
X16611060Y15482723D01*
X16649881Y15540825D01*
X16663988Y15565257D01*
X16670675Y15571945D01*
X16676380Y15580482D01*
X16759518Y15663620D01*
X16768055Y15669325D01*
X16774743Y15676012D01*
X16799175Y15690119D01*
X16857277Y15728940D01*
X16889624Y15742340D01*
X16910390Y15754328D01*
X16933548Y15760534D01*
X16965900Y15773934D01*
X17034437Y15787567D01*
X17061684Y15794867D01*
X17071142Y15794867D01*
X17081212Y15796870D01*
X17198788Y15796870D01*
X17208858Y15794867D01*
X17218316Y15794867D01*
X17245563Y15787567D01*
X17314099Y15773934D01*
X17346448Y15760535D01*
X17369610Y15754328D01*
X17390377Y15742338D01*
X17422722Y15728940D01*
X17480816Y15690123D01*
X17505257Y15676012D01*
X17511946Y15669323D01*
X17520481Y15663620D01*
X17603619Y15580482D01*
X17609321Y15571948D01*
X17616012Y15565257D01*
X17630124Y15540814D01*
X17668939Y15482723D01*
X17682335Y15450382D01*
X17694328Y15429610D01*
X17700535Y15406445D01*
X17713933Y15374100D01*
X17727564Y15305569D01*
X17734867Y15278316D01*
X17734867Y15273382D01*
X17815133Y15273382D01*
X17815133Y15278316D01*
X17822434Y15305564D01*
X17836066Y15374100D01*
X17849466Y15406452D01*
X17855672Y15429610D01*
X17867660Y15450376D01*
X17881060Y15482723D01*
X17919881Y15540825D01*
X17933988Y15565257D01*
X17940675Y15571945D01*
X17946380Y15580482D01*
X18029518Y15663620D01*
X18038055Y15669325D01*
X18044743Y15676012D01*
X18069175Y15690119D01*
X18127277Y15728940D01*
X18159624Y15742340D01*
X18180390Y15754328D01*
X18203548Y15760534D01*
X18235900Y15773934D01*
X18304437Y15787567D01*
X18331684Y15794867D01*
X18341142Y15794867D01*
X18351212Y15796870D01*
X18468788Y15796870D01*
X18478858Y15794867D01*
X18488316Y15794867D01*
X18515563Y15787567D01*
X18584099Y15773934D01*
X18616448Y15760535D01*
X18639610Y15754328D01*
X18660377Y15742338D01*
X18692722Y15728940D01*
X18750816Y15690123D01*
X18775257Y15676012D01*
X18781946Y15669323D01*
X18790481Y15663620D01*
X18873619Y15580482D01*
X18879321Y15571948D01*
X18886012Y15565257D01*
X18900124Y15540814D01*
X18938939Y15482723D01*
X18952335Y15450382D01*
X18964328Y15429610D01*
X18970535Y15406445D01*
X18983933Y15374100D01*
X18997564Y15305569D01*
X19004867Y15278316D01*
X19004867Y15273382D01*
X19085133Y15273382D01*
X19085133Y15278316D01*
X19092434Y15305564D01*
X19106066Y15374100D01*
X19119466Y15406452D01*
X19125672Y15429610D01*
X19137660Y15450376D01*
X19151060Y15482723D01*
X19189881Y15540825D01*
X19203988Y15565257D01*
X19210675Y15571945D01*
X19216380Y15580482D01*
X19299518Y15663620D01*
X19308055Y15669325D01*
X19314743Y15676012D01*
X19339175Y15690119D01*
X19397277Y15728940D01*
X19429624Y15742340D01*
X19450390Y15754328D01*
X19473548Y15760534D01*
X19505900Y15773934D01*
X19574437Y15787567D01*
X19601684Y15794867D01*
X19611142Y15794867D01*
X19621212Y15796870D01*
X19738788Y15796870D01*
X19748858Y15794867D01*
X19758316Y15794867D01*
X19785563Y15787567D01*
X19854099Y15773934D01*
X19886448Y15760535D01*
X19909610Y15754328D01*
X19930377Y15742338D01*
X19962722Y15728940D01*
X20020816Y15690123D01*
X20045257Y15676012D01*
X20051946Y15669323D01*
X20060481Y15663620D01*
X20143619Y15580482D01*
X20149321Y15571948D01*
X20156012Y15565257D01*
X20170124Y15540814D01*
X20208939Y15482723D01*
X20222335Y15450382D01*
X20234328Y15429610D01*
X20240535Y15406445D01*
X20253933Y15374100D01*
X20267564Y15305569D01*
X20274867Y15278316D01*
X20274867Y15273382D01*
X20355133Y15273382D01*
X20355133Y15278316D01*
X20362434Y15305564D01*
X20376066Y15374100D01*
X20389466Y15406452D01*
X20395672Y15429610D01*
X20407660Y15450376D01*
X20421060Y15482723D01*
X20459881Y15540825D01*
X20473988Y15565257D01*
X20480675Y15571945D01*
X20486380Y15580482D01*
X20569518Y15663620D01*
X20578055Y15669325D01*
X20584743Y15676012D01*
X20609175Y15690119D01*
X20667277Y15728940D01*
X20699624Y15742340D01*
X20720390Y15754328D01*
X20743548Y15760534D01*
X20775900Y15773934D01*
X20844437Y15787567D01*
X20871684Y15794867D01*
X20881142Y15794867D01*
X20891212Y15796870D01*
X21008788Y15796870D01*
X21018858Y15794867D01*
X21028316Y15794867D01*
X21055563Y15787567D01*
X21124099Y15773934D01*
X21156448Y15760535D01*
X21179610Y15754328D01*
X21200377Y15742338D01*
X21232722Y15728940D01*
X21290816Y15690123D01*
X21315257Y15676012D01*
X21321946Y15669323D01*
X21330481Y15663620D01*
X21413619Y15580482D01*
X21419321Y15571948D01*
X21426012Y15565257D01*
X21440124Y15540814D01*
X21478939Y15482723D01*
X21492335Y15450382D01*
X21504328Y15429610D01*
X21510535Y15406445D01*
X21523933Y15374100D01*
X21537564Y15305569D01*
X21544867Y15278316D01*
X21544867Y15273382D01*
X21625133Y15273382D01*
X21625133Y15278316D01*
X21632434Y15305564D01*
X21646066Y15374100D01*
X21659466Y15406452D01*
X21665672Y15429610D01*
X21677660Y15450376D01*
X21691060Y15482723D01*
X21729881Y15540825D01*
X21743988Y15565257D01*
X21750675Y15571945D01*
X21756380Y15580482D01*
X21839518Y15663620D01*
X21848055Y15669325D01*
X21854743Y15676012D01*
X21879175Y15690119D01*
X21937277Y15728940D01*
X21969624Y15742340D01*
X21990390Y15754328D01*
X22013548Y15760534D01*
X22045900Y15773934D01*
X22114437Y15787567D01*
X22141684Y15794867D01*
X22151142Y15794867D01*
X22161212Y15796870D01*
X22278788Y15796870D01*
X22288858Y15794867D01*
X22298316Y15794867D01*
X22325563Y15787567D01*
X22394099Y15773934D01*
X22426448Y15760535D01*
X22449610Y15754328D01*
X22470377Y15742338D01*
X22502722Y15728940D01*
X22560816Y15690123D01*
X22585257Y15676012D01*
X22591946Y15669323D01*
X22600481Y15663620D01*
X22683619Y15580482D01*
X22689321Y15571948D01*
X22696012Y15565257D01*
X22710124Y15540814D01*
X22748939Y15482723D01*
X22762335Y15450382D01*
X22774328Y15429610D01*
X22780535Y15406445D01*
X22793933Y15374100D01*
X22807564Y15305569D01*
X22814867Y15278316D01*
X22814867Y15273382D01*
X22895133Y15273382D01*
X22895133Y15278316D01*
X22902434Y15305564D01*
X22916066Y15374100D01*
X22929466Y15406452D01*
X22935672Y15429610D01*
X22947660Y15450376D01*
X22961060Y15482723D01*
X22999881Y15540825D01*
X23013988Y15565257D01*
X23020675Y15571945D01*
X23026380Y15580482D01*
X23109518Y15663620D01*
X23118055Y15669325D01*
X23124743Y15676012D01*
X23149175Y15690119D01*
X23207277Y15728940D01*
X23239624Y15742340D01*
X23260390Y15754328D01*
X23283548Y15760534D01*
X23315900Y15773934D01*
X23384437Y15787567D01*
X23411684Y15794867D01*
X23421142Y15794867D01*
X23431212Y15796870D01*
X23548788Y15796870D01*
X23558858Y15794867D01*
X23568316Y15794867D01*
X23595563Y15787567D01*
X23664099Y15773934D01*
X23696448Y15760535D01*
X23719610Y15754328D01*
X23740377Y15742338D01*
X23772722Y15728940D01*
X23830816Y15690123D01*
X23855257Y15676012D01*
X23861946Y15669323D01*
X23870481Y15663620D01*
X23953619Y15580482D01*
X23959321Y15571948D01*
X23966012Y15565257D01*
X23980124Y15540814D01*
X24018939Y15482723D01*
X24032335Y15450382D01*
X24044328Y15429610D01*
X24050535Y15406445D01*
X24063933Y15374100D01*
X24077564Y15305569D01*
X24084867Y15278316D01*
X24084867Y15273382D01*
X24165133Y15273382D01*
X24165133Y15278316D01*
X24172434Y15305564D01*
X24186066Y15374100D01*
X24199466Y15406452D01*
X24205672Y15429610D01*
X24217660Y15450376D01*
X24231060Y15482723D01*
X24269881Y15540825D01*
X24283988Y15565257D01*
X24290675Y15571945D01*
X24296380Y15580482D01*
X24379518Y15663620D01*
X24388055Y15669325D01*
X24394743Y15676012D01*
X24419175Y15690119D01*
X24477277Y15728940D01*
X24509624Y15742340D01*
X24530390Y15754328D01*
X24553548Y15760534D01*
X24585900Y15773934D01*
X24654437Y15787567D01*
X24681684Y15794867D01*
X24691142Y15794867D01*
X24701212Y15796870D01*
X24818788Y15796870D01*
X24828858Y15794867D01*
X24838316Y15794867D01*
X24865563Y15787567D01*
X24934099Y15773934D01*
X24966448Y15760535D01*
X24989610Y15754328D01*
X25010377Y15742338D01*
X25042722Y15728940D01*
X25100816Y15690123D01*
X25125257Y15676012D01*
X25131946Y15669323D01*
X25140481Y15663620D01*
X25223619Y15580482D01*
X25229321Y15571948D01*
X25236012Y15565257D01*
X25250124Y15540814D01*
X25288939Y15482723D01*
X25302335Y15450382D01*
X25314328Y15429610D01*
X25320535Y15406445D01*
X25333933Y15374100D01*
X25347565Y15305567D01*
X25354867Y15278316D01*
X25354867Y15268859D01*
X25356870Y15258789D01*
X25356870Y15141212D01*
X25354867Y15131143D01*
X25354867Y15121684D01*
X25347564Y15094431D01*
X25333933Y15025901D01*
X25320535Y14993559D01*
X25314328Y14970390D01*
X25302334Y14949617D01*
X25288939Y14917278D01*
X25250128Y14859195D01*
X25236012Y14834743D01*
X25229319Y14828051D01*
X25223619Y14819519D01*
X25140481Y14736381D01*
X25131949Y14730681D01*
X25125257Y14723988D01*
X25100805Y14709872D01*
X25042722Y14671061D01*
X25010383Y14657666D01*
X24989610Y14645672D01*
X24966441Y14639465D01*
X24934099Y14626067D01*
X24865569Y14612436D01*
X24838316Y14605133D01*
X24828858Y14605133D01*
X24818788Y14603130D01*
X24701212Y14603130D01*
X24691142Y14605133D01*
X24681684Y14605133D01*
X24654432Y14612436D01*
X24585900Y14626067D01*
X24553555Y14639465D01*
X24530390Y14645672D01*
X24509618Y14657665D01*
X24477277Y14671061D01*
X24419186Y14709876D01*
X24394743Y14723988D01*
X24388052Y14730679D01*
X24379518Y14736381D01*
X24296380Y14819519D01*
X24290677Y14828054D01*
X24283988Y14834743D01*
X24269877Y14859184D01*
X24231060Y14917278D01*
X24217662Y14949623D01*
X24205672Y14970390D01*
X24199465Y14993552D01*
X24186066Y15025901D01*
X24172434Y15094434D01*
X24165133Y15121684D01*
X24165133Y15126619D01*
X24084867Y15126619D01*
X24084867Y15121684D01*
X24077563Y15094429D01*
X24063933Y15025901D01*
X24050535Y14993559D01*
X24044328Y14970390D01*
X24032334Y14949617D01*
X24018939Y14917278D01*
X23980128Y14859195D01*
X23966012Y14834743D01*
X23959319Y14828051D01*
X23953619Y14819519D01*
X23870481Y14736381D01*
X23861949Y14730681D01*
X23855257Y14723988D01*
X23830805Y14709872D01*
X23772722Y14671061D01*
X23740383Y14657666D01*
X23719610Y14645672D01*
X23696441Y14639465D01*
X23664099Y14626067D01*
X23595569Y14612436D01*
X23568316Y14605133D01*
X23558858Y14605133D01*
X23548788Y14603130D01*
X23431212Y14603130D01*
X23421142Y14605133D01*
X23411684Y14605133D01*
X23384432Y14612436D01*
X23315900Y14626067D01*
X23283555Y14639465D01*
X23260390Y14645672D01*
X23239618Y14657665D01*
X23207277Y14671061D01*
X23149186Y14709876D01*
X23124743Y14723988D01*
X23118052Y14730679D01*
X23109518Y14736381D01*
X23026380Y14819519D01*
X23020677Y14828054D01*
X23013988Y14834743D01*
X22999877Y14859184D01*
X22961060Y14917278D01*
X22947662Y14949623D01*
X22935672Y14970390D01*
X22929465Y14993552D01*
X22916066Y15025901D01*
X22902434Y15094434D01*
X22895133Y15121684D01*
X22895133Y15126619D01*
X22814867Y15126619D01*
X22814867Y15121684D01*
X22807563Y15094429D01*
X22793933Y15025901D01*
X22780535Y14993559D01*
X22774328Y14970390D01*
X22762334Y14949617D01*
X22748939Y14917278D01*
X22710128Y14859195D01*
X22696012Y14834743D01*
X22689319Y14828051D01*
X22683619Y14819519D01*
X22600481Y14736381D01*
X22591949Y14730681D01*
X22585257Y14723988D01*
X22560805Y14709872D01*
X22502722Y14671061D01*
X22470383Y14657666D01*
X22449610Y14645672D01*
X22426441Y14639465D01*
X22394099Y14626067D01*
X22325569Y14612436D01*
X22298316Y14605133D01*
X22288858Y14605133D01*
X22278788Y14603130D01*
X22161212Y14603130D01*
X22151142Y14605133D01*
X22141684Y14605133D01*
X22114432Y14612436D01*
X22045900Y14626067D01*
X22013555Y14639465D01*
X21990390Y14645672D01*
X21969618Y14657665D01*
X21937277Y14671061D01*
X21879186Y14709876D01*
X21854743Y14723988D01*
X21848052Y14730679D01*
X21839518Y14736381D01*
X21756380Y14819519D01*
X21750677Y14828054D01*
X21743988Y14834743D01*
X21729877Y14859184D01*
X21691060Y14917278D01*
X21677662Y14949623D01*
X21665672Y14970390D01*
X21659465Y14993552D01*
X21646066Y15025901D01*
X21632434Y15094434D01*
X21625133Y15121684D01*
X21625133Y15126619D01*
X21544867Y15126619D01*
X21544867Y15121684D01*
X21537563Y15094429D01*
X21523933Y15025901D01*
X21510535Y14993559D01*
X21504328Y14970390D01*
X21492334Y14949617D01*
X21478939Y14917278D01*
X21440128Y14859195D01*
X21426012Y14834743D01*
X21419319Y14828051D01*
X21413619Y14819519D01*
X21330481Y14736381D01*
X21321949Y14730681D01*
X21315257Y14723988D01*
X21290805Y14709872D01*
X21232722Y14671061D01*
X21200383Y14657666D01*
X21179610Y14645672D01*
X21156441Y14639465D01*
X21124099Y14626067D01*
X21055569Y14612436D01*
X21028316Y14605133D01*
X21018858Y14605133D01*
X21008788Y14603130D01*
X20891212Y14603130D01*
X20881142Y14605133D01*
X20871684Y14605133D01*
X20844432Y14612436D01*
X20775900Y14626067D01*
X20743555Y14639465D01*
X20720390Y14645672D01*
X20699618Y14657665D01*
X20667277Y14671061D01*
X20609186Y14709876D01*
X20584743Y14723988D01*
X20578052Y14730679D01*
X20569518Y14736381D01*
X20486380Y14819519D01*
X20480677Y14828054D01*
X20473988Y14834743D01*
X20459877Y14859184D01*
X20421060Y14917278D01*
X20407662Y14949623D01*
X20395672Y14970390D01*
X20389465Y14993552D01*
X20376066Y15025901D01*
X20362434Y15094434D01*
X20355133Y15121684D01*
X20355133Y15126619D01*
X20274867Y15126619D01*
X20274867Y15121684D01*
X20267563Y15094429D01*
X20253933Y15025901D01*
X20240535Y14993559D01*
X20234328Y14970390D01*
X20222334Y14949617D01*
X20208939Y14917278D01*
X20170128Y14859195D01*
X20156012Y14834743D01*
X20149319Y14828051D01*
X20143619Y14819519D01*
X20060481Y14736381D01*
X20051949Y14730681D01*
X20045257Y14723988D01*
X20020805Y14709872D01*
X19962722Y14671061D01*
X19930383Y14657666D01*
X19909610Y14645672D01*
X19886441Y14639465D01*
X19854099Y14626067D01*
X19785569Y14612436D01*
X19758316Y14605133D01*
X19748858Y14605133D01*
X19738788Y14603130D01*
X19621212Y14603130D01*
X19611142Y14605133D01*
X19601684Y14605133D01*
X19574432Y14612436D01*
X19505900Y14626067D01*
X19473555Y14639465D01*
X19450390Y14645672D01*
X19429618Y14657665D01*
X19397277Y14671061D01*
X19339186Y14709876D01*
X19314743Y14723988D01*
X19308052Y14730679D01*
X19299518Y14736381D01*
X19216380Y14819519D01*
X19210677Y14828054D01*
X19203988Y14834743D01*
X19189877Y14859184D01*
X19151060Y14917278D01*
X19137662Y14949623D01*
X19125672Y14970390D01*
X19119465Y14993552D01*
X19106066Y15025901D01*
X19092434Y15094434D01*
X19085133Y15121684D01*
X19085133Y15126619D01*
X19004867Y15126619D01*
X19004867Y15121684D01*
X18997563Y15094429D01*
X18983933Y15025901D01*
X18970535Y14993559D01*
X18964328Y14970390D01*
X18952334Y14949617D01*
X18938939Y14917278D01*
X18900128Y14859195D01*
X18886012Y14834743D01*
X18879319Y14828051D01*
X18873619Y14819519D01*
X18790481Y14736381D01*
X18781949Y14730681D01*
X18775257Y14723988D01*
X18750805Y14709872D01*
X18692722Y14671061D01*
X18660383Y14657666D01*
X18639610Y14645672D01*
X18616441Y14639465D01*
X18584099Y14626067D01*
X18515569Y14612436D01*
X18488316Y14605133D01*
X18478858Y14605133D01*
X18468788Y14603130D01*
X18351212Y14603130D01*
X18341142Y14605133D01*
X18331684Y14605133D01*
X18304432Y14612436D01*
X18235900Y14626067D01*
X18203555Y14639465D01*
X18180390Y14645672D01*
X18159618Y14657665D01*
X18127277Y14671061D01*
X18069186Y14709876D01*
X18044743Y14723988D01*
X18038052Y14730679D01*
X18029518Y14736381D01*
X17946380Y14819519D01*
X17940677Y14828054D01*
X17933988Y14834743D01*
X17919877Y14859184D01*
X17881060Y14917278D01*
X17867662Y14949623D01*
X17855672Y14970390D01*
X17849465Y14993552D01*
X17836066Y15025901D01*
X17822434Y15094434D01*
X17815133Y15121684D01*
X17815133Y15126619D01*
X17734867Y15126619D01*
X17734867Y15121684D01*
X17727563Y15094429D01*
X17713933Y15025901D01*
X17700535Y14993559D01*
X17694328Y14970390D01*
X17682334Y14949617D01*
X17668939Y14917278D01*
X17630128Y14859195D01*
X17616012Y14834743D01*
X17609319Y14828051D01*
X17603619Y14819519D01*
X17520481Y14736381D01*
X17511949Y14730681D01*
X17505257Y14723988D01*
X17480805Y14709872D01*
X17422722Y14671061D01*
X17390383Y14657666D01*
X17369610Y14645672D01*
X17346441Y14639465D01*
X17314099Y14626067D01*
X17245569Y14612436D01*
X17218316Y14605133D01*
X17208858Y14605133D01*
X17198788Y14603130D01*
X17081212Y14603130D01*
X17071142Y14605133D01*
X17061684Y14605133D01*
X17034432Y14612436D01*
X16965900Y14626067D01*
X16933555Y14639465D01*
X16910390Y14645672D01*
X16889618Y14657665D01*
X16857277Y14671061D01*
X16799186Y14709876D01*
X16774743Y14723988D01*
X16768052Y14730679D01*
X16759518Y14736381D01*
X16676380Y14819519D01*
X16670677Y14828054D01*
X16663988Y14834743D01*
X16649877Y14859184D01*
X16611060Y14917278D01*
X16597662Y14949623D01*
X16585672Y14970390D01*
X16579465Y14993552D01*
X16566066Y15025901D01*
X16552434Y15094434D01*
X16545133Y15121684D01*
X16545133Y15126619D01*
X16464867Y15126619D01*
X16464867Y15121684D01*
X16457563Y15094429D01*
X16443933Y15025901D01*
X16430535Y14993559D01*
X16424328Y14970390D01*
X16412334Y14949617D01*
X16398939Y14917278D01*
X16360128Y14859195D01*
X16346012Y14834743D01*
X16339319Y14828051D01*
X16333619Y14819519D01*
X16250481Y14736381D01*
X16241949Y14730681D01*
X16235257Y14723988D01*
X16210805Y14709872D01*
X16152722Y14671061D01*
X16120383Y14657666D01*
X16099610Y14645672D01*
X16076441Y14639465D01*
X16044099Y14626067D01*
X15975569Y14612436D01*
X15948316Y14605133D01*
X15938858Y14605133D01*
X15928788Y14603130D01*
X15811212Y14603130D01*
X15801142Y14605133D01*
X15791684Y14605133D01*
X15764432Y14612436D01*
X15695900Y14626067D01*
X15663555Y14639465D01*
X15640390Y14645672D01*
X15619618Y14657665D01*
X15587277Y14671061D01*
X15529186Y14709876D01*
X15504743Y14723988D01*
X15498052Y14730679D01*
X15489518Y14736381D01*
X15406380Y14819519D01*
X15400677Y14828054D01*
X15393988Y14834743D01*
X15379877Y14859184D01*
X15341060Y14917278D01*
X15327662Y14949623D01*
X15315672Y14970390D01*
X15309465Y14993552D01*
X15296066Y15025901D01*
X15282434Y15094434D01*
X15275133Y15121684D01*
X15275133Y15126619D01*
X15194867Y15126619D01*
X15194867Y15121684D01*
X15187563Y15094429D01*
X15173933Y15025901D01*
X15160535Y14993559D01*
X15154328Y14970390D01*
X15142334Y14949617D01*
X15128939Y14917278D01*
X15090128Y14859195D01*
X15076012Y14834743D01*
X15069319Y14828051D01*
X15063619Y14819519D01*
X14980481Y14736381D01*
X14971949Y14730681D01*
X14965257Y14723988D01*
X14940805Y14709872D01*
X14882722Y14671061D01*
X14850383Y14657666D01*
X14829610Y14645672D01*
X14806441Y14639465D01*
X14774099Y14626067D01*
X14705569Y14612436D01*
X14678316Y14605133D01*
X14668858Y14605133D01*
X14658788Y14603130D01*
X14541212Y14603130D01*
X14531142Y14605133D01*
X14521684Y14605133D01*
X14494432Y14612436D01*
X14425900Y14626067D01*
X14393555Y14639465D01*
X14370390Y14645672D01*
X14349618Y14657665D01*
X14317277Y14671061D01*
X14259186Y14709876D01*
X14234743Y14723988D01*
X14228052Y14730679D01*
X14219518Y14736381D01*
X14136380Y14819519D01*
X14130677Y14828054D01*
X14123988Y14834743D01*
X14109879Y14859179D01*
X14071059Y14917278D01*
X14057659Y14949627D01*
X14045672Y14970390D01*
X14039466Y14993550D01*
X14010488Y15063510D01*
X13930000Y15047500D01*
X13930000Y14700000D01*
X13922388Y14661732D01*
X13900711Y14629289D01*
X13868268Y14607612D01*
X13830000Y14600000D01*
X12830000Y14600000D01*
X12791732Y14607612D01*
X12759289Y14629289D01*
X12737612Y14661732D01*
X12730000Y14700000D01*
X12730000Y15700000D01*
X12737612Y15738268D01*
X12759289Y15770711D01*
X12791732Y15792388D01*
X12830000Y15800000D01*
X13830000Y15800000D01*
X13868268Y15792388D01*
G37*
G36*
X6886537Y16084776D02*
G01*
X6951421Y16041421D01*
X6974430Y16006986D01*
X7025570Y16006986D01*
X7048579Y16041421D01*
X7113463Y16084776D01*
X7190000Y16100000D01*
X7625000Y16100000D01*
X7701537Y16084776D01*
X7766421Y16041421D01*
X7809776Y15976537D01*
X7825000Y15900000D01*
X7825000Y15700000D01*
X7809776Y15623463D01*
X7766421Y15558579D01*
X7701537Y15515224D01*
X7625000Y15500000D01*
X7190000Y15500000D01*
X7113463Y15515224D01*
X7048579Y15558579D01*
X7025569Y15593015D01*
X6974431Y15593015D01*
X6951421Y15558579D01*
X6886537Y15515224D01*
X6810000Y15500000D01*
X6375000Y15500000D01*
X6298463Y15515224D01*
X6233579Y15558579D01*
X6190224Y15623463D01*
X6175000Y15700000D01*
X6175000Y15900000D01*
X6190224Y15976537D01*
X6233579Y16041421D01*
X6298463Y16084776D01*
X6375000Y16100000D01*
X6810000Y16100000D01*
X6886537Y16084776D01*
G37*
G36*
X9286537Y16084776D02*
G01*
X9351421Y16041421D01*
X9374430Y16006986D01*
X9425570Y16006986D01*
X9448579Y16041421D01*
X9513463Y16084776D01*
X9590000Y16100000D01*
X10025000Y16100000D01*
X10101537Y16084776D01*
X10166421Y16041421D01*
X10209776Y15976537D01*
X10225000Y15900000D01*
X10225000Y15700000D01*
X10209776Y15623463D01*
X10166421Y15558579D01*
X10101537Y15515224D01*
X10025000Y15500000D01*
X9590000Y15500000D01*
X9513463Y15515224D01*
X9448579Y15558579D01*
X9425569Y15593015D01*
X9374431Y15593015D01*
X9351421Y15558579D01*
X9286537Y15515224D01*
X9210000Y15500000D01*
X8775000Y15500000D01*
X8698463Y15515224D01*
X8633579Y15558579D01*
X8590224Y15623463D01*
X8575000Y15700000D01*
X8575000Y15900000D01*
X8590224Y15976537D01*
X8633579Y16041421D01*
X8698463Y16084776D01*
X8775000Y16100000D01*
X9210000Y16100000D01*
X9286537Y16084776D01*
G37*
G36*
X11086537Y16084776D02*
G01*
X11151421Y16041421D01*
X11174430Y16006986D01*
X11225570Y16006986D01*
X11248579Y16041421D01*
X11313463Y16084776D01*
X11390000Y16100000D01*
X11825000Y16100000D01*
X11901537Y16084776D01*
X11966421Y16041421D01*
X12009776Y15976537D01*
X12025000Y15900000D01*
X12025000Y15700000D01*
X12009776Y15623463D01*
X11966421Y15558579D01*
X11901537Y15515224D01*
X11825000Y15500000D01*
X11390000Y15500000D01*
X11313463Y15515224D01*
X11248579Y15558579D01*
X11225569Y15593015D01*
X11174431Y15593015D01*
X11151421Y15558579D01*
X11086537Y15515224D01*
X11010000Y15500000D01*
X10575000Y15500000D01*
X10498463Y15515224D01*
X10433579Y15558579D01*
X10390224Y15623463D01*
X10375000Y15700000D01*
X10375000Y15900000D01*
X10390224Y15976537D01*
X10433579Y16041421D01*
X10498463Y16084776D01*
X10575000Y16100000D01*
X11010000Y16100000D01*
X11086537Y16084776D01*
G37*
M02*
