%TF.GenerationSoftware,KiCad,Pcbnew,10.0.0*%
%TF.CreationDate,2026-04-12T22:52:30+02:00*%
%TF.ProjectId,usbCarrierMM8108,75736243-6172-4726-9965-724d4d383130,rev?*%
%TF.SameCoordinates,PX7cee6c0PY660b0c0*%
%TF.FileFunction,Plated,1,2,PTH,Mixed*%
%TF.FilePolarity,Positive*%
%FSLAX46Y46*%
G04 Gerber Fmt 4.6, Leading zero omitted, Abs format (unit mm)*
G04 Created by KiCad (PCBNEW 10.0.0) date 2026-04-12 22:52:30*
%MOMM*%
%LPD*%
G01*
G04 APERTURE LIST*
%TA.AperFunction,ViaDrill*%
%ADD10C,0.300000*%
%TD*%
%TA.AperFunction,ComponentDrill*%
%ADD11C,0.300000*%
%TD*%
%TA.AperFunction,ComponentDrill*%
%ADD12C,0.650000*%
%TD*%
G04 aperture for slot hole*
%TA.AperFunction,ComponentDrill*%
%ADD13C,0.900000*%
%TD*%
G04 APERTURE END LIST*
D10*
X8000000Y10450000D03*
X8000000Y7500000D03*
X8250000Y16300000D03*
X9000000Y13750000D03*
X9100000Y2950000D03*
X9100000Y1500000D03*
X10000000Y12500000D03*
X10000000Y10450000D03*
X10050000Y6050000D03*
X10750000Y16500000D03*
X11250000Y8000000D03*
X11543983Y16500000D03*
X11757500Y2171628D03*
X12000000Y12500000D03*
X12000000Y10450000D03*
X13250000Y4250000D03*
X13500000Y8000000D03*
X13500000Y2100000D03*
X13750000Y4750000D03*
X15600000Y8350000D03*
X15800000Y6300000D03*
X15800000Y3750000D03*
X15850000Y10700000D03*
X16362500Y9500000D03*
X17000000Y8500000D03*
X17000000Y4750000D03*
X17050000Y11150000D03*
X17632500Y10250000D03*
X17799009Y14498862D03*
X18150000Y16425000D03*
X18250000Y9500000D03*
X18250000Y7500000D03*
X18250000Y5500000D03*
X18250000Y3300000D03*
X19050000Y16100000D03*
X20000000Y10500000D03*
X20000000Y8500000D03*
X20000000Y6500000D03*
X20000000Y4500000D03*
X21700000Y4000000D03*
X22000000Y9500000D03*
X22000000Y7500000D03*
X22100000Y2900000D03*
X22500000Y4000000D03*
X22750000Y11400000D03*
X22750000Y10550000D03*
X24201811Y3898189D03*
X24245337Y12100000D03*
X24250000Y9900000D03*
X24300000Y2250000D03*
X24680331Y1826777D03*
X25000000Y5000000D03*
X25250000Y12081350D03*
X25250000Y9900000D03*
X25540195Y4400000D03*
X26250000Y12081350D03*
X26250000Y9900000D03*
X26400000Y5500000D03*
X27200000Y12100000D03*
X27200000Y9900000D03*
X28200000Y12100000D03*
X28200000Y9900000D03*
X29200000Y12100000D03*
X29200000Y9900000D03*
X29800000Y4100000D03*
X30200000Y12100000D03*
X30200000Y9900000D03*
D11*
%TO.C,U2*%
X9500000Y6050000D03*
X10600000Y6050000D03*
D12*
%TO.C,J4*%
X13330000Y15200000D03*
X14600000Y15200000D03*
X15870000Y15200000D03*
X17140000Y15200000D03*
X18410000Y15200000D03*
X19680000Y15200000D03*
X20950000Y15200000D03*
X22220000Y15200000D03*
X23490000Y15200000D03*
X24760000Y15200000D03*
%TO.C,J3*%
X27600000Y4770000D03*
X27600000Y3500000D03*
X27600000Y2230000D03*
X28870000Y4770000D03*
X28870000Y3500000D03*
X28870000Y2230000D03*
%TO.C,J1*%
D13*
X2375000Y14200000D02*
X3975000Y14200000D01*
X2375000Y2800000D02*
X3975000Y2800000D01*
M02*
