%TF.GenerationSoftware,KiCad,Pcbnew,10.0.0*%
%TF.CreationDate,2026-04-12T22:52:04+02:00*%
%TF.ProjectId,usbCarrierMM8108,75736243-6172-4726-9965-724d4d383130,rev?*%
%TF.SameCoordinates,PX7cee6c0PY660b0c0*%
%TF.FileFunction,Copper,L1,Top*%
%TF.FilePolarity,Positive*%
%FSLAX46Y46*%
G04 Gerber Fmt 4.6, Leading zero omitted, Abs format (unit mm)*
G04 Created by KiCad (PCBNEW 10.0.0) date 2026-04-12 22:52:04*
%MOMM*%
%LPD*%
G01*
G04 APERTURE LIST*
G04 Aperture macros list*
%AMRoundRect*
0 Rectangle with rounded corners*
0 $1 Rounding radius*
0 $2 $3 $4 $5 $6 $7 $8 $9 X,Y pos of 4 corners*
0 Add a 4 corners polygon primitive as box body*
4,1,4,$2,$3,$4,$5,$6,$7,$8,$9,$2,$3,0*
0 Add four circle primitives for the rounded corners*
1,1,$1+$1,$2,$3*
1,1,$1+$1,$4,$5*
1,1,$1+$1,$6,$7*
1,1,$1+$1,$8,$9*
0 Add four rect primitives between the rounded corners*
20,1,$1+$1,$2,$3,$4,$5,0*
20,1,$1+$1,$4,$5,$6,$7,0*
20,1,$1+$1,$6,$7,$8,$9,0*
20,1,$1+$1,$8,$9,$2,$3,0*%
G04 Aperture macros list end*
%TA.AperFunction,ComponentPad*%
%ADD10R,1.000000X1.000000*%
%TD*%
%TA.AperFunction,ComponentPad*%
%ADD11C,1.000000*%
%TD*%
%TA.AperFunction,SMDPad,CuDef*%
%ADD12RoundRect,0.250000X1.000000X0.300000X-1.000000X0.300000X-1.000000X-0.300000X1.000000X-0.300000X0*%
%TD*%
%TA.AperFunction,ComponentPad*%
%ADD13O,3.500000X1.900000*%
%TD*%
%TA.AperFunction,SMDPad,CuDef*%
%ADD14RoundRect,0.155000X0.155000X-0.212500X0.155000X0.212500X-0.155000X0.212500X-0.155000X-0.212500X0*%
%TD*%
%TA.AperFunction,SMDPad,CuDef*%
%ADD15RoundRect,0.100000X-0.217500X-0.100000X0.217500X-0.100000X0.217500X0.100000X-0.217500X0.100000X0*%
%TD*%
%TA.AperFunction,SMDPad,CuDef*%
%ADD16RoundRect,0.155000X-0.212500X-0.155000X0.212500X-0.155000X0.212500X0.155000X-0.212500X0.155000X0*%
%TD*%
%TA.AperFunction,SMDPad,CuDef*%
%ADD17RoundRect,0.155000X-0.155000X0.212500X-0.155000X-0.212500X0.155000X-0.212500X0.155000X0.212500X0*%
%TD*%
%TA.AperFunction,SMDPad,CuDef*%
%ADD18R,0.600000X0.600000*%
%TD*%
%TA.AperFunction,SMDPad,CuDef*%
%ADD19RoundRect,0.160000X-0.222500X-0.160000X0.222500X-0.160000X0.222500X0.160000X-0.222500X0.160000X0*%
%TD*%
%TA.AperFunction,SMDPad,CuDef*%
%ADD20RoundRect,0.093750X0.106250X-0.093750X0.106250X0.093750X-0.106250X0.093750X-0.106250X-0.093750X0*%
%TD*%
%TA.AperFunction,HeatsinkPad*%
%ADD21C,0.500000*%
%TD*%
%TA.AperFunction,HeatsinkPad*%
%ADD22R,1.600000X1.000000*%
%TD*%
%TA.AperFunction,SMDPad,CuDef*%
%ADD23RoundRect,0.100000X0.100000X-0.217500X0.100000X0.217500X-0.100000X0.217500X-0.100000X-0.217500X0*%
%TD*%
%TA.AperFunction,SMDPad,CuDef*%
%ADD24RoundRect,0.100000X0.217500X0.100000X-0.217500X0.100000X-0.217500X-0.100000X0.217500X-0.100000X0*%
%TD*%
%TA.AperFunction,SMDPad,CuDef*%
%ADD25RoundRect,0.250000X1.350000X-0.385000X1.350000X0.385000X-1.350000X0.385000X-1.350000X-0.385000X0*%
%TD*%
%TA.AperFunction,SMDPad,CuDef*%
%ADD26RoundRect,0.250000X1.600000X-0.425000X1.600000X0.425000X-1.600000X0.425000X-1.600000X-0.425000X0*%
%TD*%
%TA.AperFunction,ViaPad*%
%ADD27C,0.500000*%
%TD*%
%TA.AperFunction,Conductor*%
%ADD28C,0.200000*%
%TD*%
%TA.AperFunction,Conductor*%
%ADD29C,0.300000*%
%TD*%
%TA.AperFunction,Conductor*%
%ADD30C,0.500000*%
%TD*%
%TA.AperFunction,Conductor*%
%ADD31C,0.400000*%
%TD*%
%TA.AperFunction,Conductor*%
%ADD32C,0.600000*%
%TD*%
%TA.AperFunction,Conductor*%
%ADD33C,1.000000*%
%TD*%
%TA.AperFunction,Conductor*%
%ADD34C,1.300000*%
%TD*%
G04 APERTURE END LIST*
D10*
%TO.P,J4,1,Pin_1_1*%
%TO.N,/gpio_1*%
X13330000Y15200000D03*
D11*
%TO.P,J4,2,Pin_2_2*%
%TO.N,/gpio_0*%
X14600000Y15200000D03*
%TO.P,J4,3,Pin_3_3*%
%TO.N,/gpio_3*%
X15870000Y15200000D03*
%TO.P,J4,4,Pin_4_4*%
%TO.N,gpio_4*%
X17140000Y15200000D03*
%TO.P,J4,5,Pin_5_5*%
%TO.N,gpio_5*%
X18410000Y15200000D03*
%TO.P,J4,6,Pin_6_6*%
%TO.N,/gpio_6*%
X19680000Y15200000D03*
%TO.P,J4,7,Pin_7_7*%
%TO.N,/gpio_7*%
X20950000Y15200000D03*
%TO.P,J4,8,Pin_8_8*%
%TO.N,/gpio_8*%
X22220000Y15200000D03*
%TO.P,J4,9,Pin_9_9*%
%TO.N,/gpio_9*%
X23490000Y15200000D03*
%TO.P,J4,10,Pin_10_10*%
%TO.N,/gpio_10*%
X24760000Y15200000D03*
%TD*%
D12*
%TO.P,J1,1,VBUS_1*%
%TO.N,VBUS*%
X5925000Y5000000D03*
%TO.P,J1,2,D-_2*%
%TO.N,/USB_D-N*%
X5925000Y7500000D03*
%TO.P,J1,3,D+_3*%
%TO.N,/USB_D-P*%
X5925000Y9500000D03*
%TO.P,J1,4,GND_4*%
%TO.N,GND*%
X5925000Y12000000D03*
D13*
%TO.P,J1,SH,Shield_SH*%
X3175000Y2800000D03*
X3175000Y14200000D03*
%TD*%
D14*
%TO.P,C1,1*%
%TO.N,/wifiResetN*%
X25500000Y7500000D03*
%TO.P,C1,2*%
%TO.N,GND*%
X25500000Y8635000D03*
%TD*%
D15*
%TO.P,D2,1,K_1*%
%TO.N,GND*%
X8992500Y14800000D03*
%TO.P,D2,2,A_2*%
%TO.N,Net-(D2-A)*%
X9807500Y14800000D03*
%TD*%
D10*
%TO.P,J3,1,Pin_1_1*%
%TO.N,+3.3V*%
X28870000Y2230000D03*
D11*
%TO.P,J3,2,Pin_2_2*%
%TO.N,jtag_tms*%
X27600000Y2230000D03*
%TO.P,J3,3,Pin_3_3*%
%TO.N,jtag_tck*%
X28870000Y3500000D03*
%TO.P,J3,4,Pin_4_4*%
%TO.N,jtag_tdo*%
X27600000Y3500000D03*
%TO.P,J3,5,Pin_5_5*%
%TO.N,jtag_tdi*%
X28870000Y4770000D03*
%TO.P,J3,6,Pin_6_6*%
%TO.N,GND*%
X27600000Y4770000D03*
%TD*%
D15*
%TO.P,D3,1,K_1*%
%TO.N,GND*%
X8992500Y15800000D03*
%TO.P,D3,2,A_2*%
%TO.N,Net-(D3-A)*%
X9807500Y15800000D03*
%TD*%
D16*
%TO.P,C7,1*%
%TO.N,Net-(U2-OUT)*%
X9400000Y4200000D03*
%TO.P,C7,2*%
%TO.N,GND*%
X10535000Y4200000D03*
%TD*%
D17*
%TO.P,C5,1*%
%TO.N,+3.3V*%
X25500000Y3017500D03*
%TO.P,C5,2*%
%TO.N,GND*%
X25500000Y1882500D03*
%TD*%
D18*
%TO.P,IC1,1,GND_1_1*%
%TO.N,GND*%
X23500000Y12000000D03*
%TO.P,IC1,2,ANT_2*%
%TO.N,/RxTxSig*%
X23500000Y11000000D03*
%TO.P,IC1,3,GND_2_3*%
%TO.N,GND*%
X23500000Y10000000D03*
%TO.P,IC1,4,RESET_N_4*%
%TO.N,/wifiResetN*%
X23500000Y9000000D03*
%TO.P,IC1,5,WAKE_5*%
%TO.N,unconnected-(IC1-WAKE-Pad5)*%
X23500000Y8000000D03*
%TO.P,IC1,6,JTAG_TMS_6*%
%TO.N,jtag_tms*%
X23500000Y7000000D03*
%TO.P,IC1,7,JTAG_TCK_7*%
%TO.N,jtag_tck*%
X23500000Y6000000D03*
%TO.P,IC1,8,JTAG_TDO_8*%
%TO.N,jtag_tdo*%
X23500000Y5000000D03*
%TO.P,IC1,9,JTAG_TDI_9*%
%TO.N,jtag_tdi*%
X23500000Y4000000D03*
%TO.P,IC1,10,VBAT_10*%
%TO.N,+3.3V*%
X23500000Y3000000D03*
%TO.P,IC1,11,GND_3_11*%
%TO.N,GND*%
X23500000Y2000000D03*
%TO.P,IC1,12,SDIO_D0_12*%
%TO.N,unconnected-(IC1-SDIO_D0-Pad12)*%
X22500000Y2000000D03*
%TO.P,IC1,13,SDIO_D3_13*%
%TO.N,unconnected-(IC1-SDIO_D3-Pad13)*%
X21500000Y2000000D03*
%TO.P,IC1,14,SDIO_D1_14*%
%TO.N,unconnected-(IC1-SDIO_D1-Pad14)*%
X20500000Y2000000D03*
%TO.P,IC1,15,SDIO_D2_15*%
%TO.N,unconnected-(IC1-SDIO_D2-Pad15)*%
X19500000Y2000000D03*
%TO.P,IC1,16,SDIO_CMD_16*%
%TO.N,unconnected-(IC1-SDIO_CMD-Pad16)*%
X18500000Y2000000D03*
%TO.P,IC1,17,SDIO_CLK_17*%
%TO.N,unconnected-(IC1-SDIO_CLK-Pad17)*%
X17500000Y2000000D03*
%TO.P,IC1,18,GPIO5_18*%
%TO.N,gpio_5*%
X16500000Y2000000D03*
%TO.P,IC1,19,GPIO4_19*%
%TO.N,gpio_4*%
X15500000Y2000000D03*
%TO.P,IC1,20,GND_4_20*%
%TO.N,GND*%
X14500000Y2000000D03*
%TO.P,IC1,21,GPIO3_21*%
%TO.N,/gpio_3*%
X14500000Y3000000D03*
%TO.P,IC1,22,VDDIO_22*%
%TO.N,+3.3V*%
X14500000Y4000000D03*
%TO.P,IC1,23,GND_5_23*%
%TO.N,GND*%
X14500000Y5000000D03*
%TO.P,IC1,24,VBAT_TX_24*%
%TO.N,+3.3V*%
X14500000Y6000000D03*
%TO.P,IC1,25,VDD_USB_25*%
X14500000Y7000000D03*
%TO.P,IC1,26,GND_6_26*%
%TO.N,GND*%
X14500000Y8000000D03*
%TO.P,IC1,27,USB_D_N_27*%
%TO.N,/USB_D-N*%
X14500000Y9000000D03*
%TO.P,IC1,28,USB_D_P_28*%
%TO.N,/USB_D-P*%
X14500000Y10000000D03*
%TO.P,IC1,29,BUSY_29*%
%TO.N,busy*%
X14500000Y11000000D03*
%TO.P,IC1,30,GND_7_30*%
%TO.N,GND*%
X14500000Y12000000D03*
%TO.P,IC1,31,GPIO1_31*%
%TO.N,/gpio_1*%
X15500000Y12000000D03*
%TO.P,IC1,32,GPIO0_32*%
%TO.N,/gpio_0*%
X16500000Y12000000D03*
%TO.P,IC1,33,GPIO6_33*%
%TO.N,/gpio_6*%
X17500000Y12000000D03*
%TO.P,IC1,34,GPIO7_34*%
%TO.N,/gpio_7*%
X18500000Y12000000D03*
%TO.P,IC1,35,GPIO8_35*%
%TO.N,/gpio_8*%
X19500000Y12000000D03*
%TO.P,IC1,36,GPIO9_36*%
%TO.N,/gpio_9*%
X20500000Y12000000D03*
%TO.P,IC1,37,GPIO10_37*%
%TO.N,/gpio_10*%
X21500000Y12000000D03*
%TO.P,IC1,38,GND_8_38*%
%TO.N,GND*%
X22500000Y12000000D03*
%TD*%
D19*
%TO.P,FB1,1*%
%TO.N,Net-(U2-OUT)*%
X10177500Y3100000D03*
%TO.P,FB1,2*%
%TO.N,+3.3V*%
X11322500Y3100000D03*
%TD*%
D20*
%TO.P,U2,1,OUT_1*%
%TO.N,Net-(U2-OUT)*%
X9400000Y5162500D03*
%TO.P,U2,2,NC_2*%
%TO.N,unconnected-(U2-NC-Pad2)*%
X10050000Y5162500D03*
%TO.P,U2,3,GND_3*%
%TO.N,GND*%
X10700000Y5162500D03*
%TO.P,U2,4,EN_4*%
%TO.N,VBUS*%
X10700000Y6937500D03*
%TO.P,U2,5,NC_5*%
%TO.N,unconnected-(U2-NC-Pad5)*%
X10050000Y6937500D03*
%TO.P,U2,6,IN_6*%
%TO.N,VBUS*%
X9400000Y6937500D03*
D21*
%TO.P,U2,7,GND_7*%
%TO.N,GND*%
X9500000Y6050000D03*
D22*
X10050000Y6050000D03*
D21*
X10600000Y6050000D03*
%TD*%
D17*
%TO.P,C6,1*%
%TO.N,VBUS*%
X8150000Y6567500D03*
%TO.P,C6,2*%
%TO.N,GND*%
X8150000Y5432500D03*
%TD*%
D23*
%TO.P,D1,1,K_1*%
%TO.N,GND*%
X8250000Y1592500D03*
%TO.P,D1,2,A_2*%
%TO.N,Net-(D1-A)*%
X8250000Y2407500D03*
%TD*%
%TO.P,R8,1*%
%TO.N,busy*%
X7600000Y13892500D03*
%TO.P,R8,2*%
%TO.N,Net-(D4-A)*%
X7600000Y14707500D03*
%TD*%
%TO.P,R1,1*%
%TO.N,+3.3V*%
X25500000Y5660000D03*
%TO.P,R1,2*%
%TO.N,/wifiResetN*%
X25500000Y6475000D03*
%TD*%
D15*
%TO.P,D4,1,K_1*%
%TO.N,GND*%
X6592500Y15800000D03*
%TO.P,D4,2,A_2*%
%TO.N,Net-(D4-A)*%
X7407500Y15800000D03*
%TD*%
D24*
%TO.P,R6,1*%
%TO.N,gpio_4*%
X11607500Y14800000D03*
%TO.P,R6,2*%
%TO.N,Net-(D2-A)*%
X10792500Y14800000D03*
%TD*%
D14*
%TO.P,C3,1*%
%TO.N,+3.3V*%
X12500000Y6665000D03*
%TO.P,C3,2*%
%TO.N,GND*%
X12500000Y7800000D03*
%TD*%
D17*
%TO.P,C4,1*%
%TO.N,+3.3V*%
X12500000Y3300000D03*
%TO.P,C4,2*%
%TO.N,GND*%
X12500000Y2165000D03*
%TD*%
D25*
%TO.P,J2,1,In_1*%
%TO.N,/RxTxSig*%
X28925000Y11000000D03*
D26*
%TO.P,J2,2,Ext_2*%
%TO.N,GND*%
X28675000Y13825000D03*
X28675000Y8175000D03*
%TD*%
D17*
%TO.P,C2,1*%
%TO.N,+3.3V*%
X12500000Y5550000D03*
%TO.P,C2,2*%
%TO.N,GND*%
X12500000Y4415000D03*
%TD*%
D24*
%TO.P,R5,1*%
%TO.N,+3.3V*%
X10857500Y2250000D03*
%TO.P,R5,2*%
%TO.N,Net-(D1-A)*%
X10042500Y2250000D03*
%TD*%
%TO.P,R7,1*%
%TO.N,gpio_5*%
X11607500Y15800000D03*
%TO.P,R7,2*%
%TO.N,Net-(D3-A)*%
X10792500Y15800000D03*
%TD*%
D27*
%TO.N,GND*%
X9000000Y13750000D03*
X10750000Y16500000D03*
X19050000Y16100000D03*
X24245337Y12100000D03*
X22750000Y10550000D03*
X30200000Y12100000D03*
X24680331Y1826777D03*
X12000000Y12500000D03*
X22100000Y2900000D03*
X13750000Y4750000D03*
X25250000Y9900000D03*
X26400000Y5500000D03*
X27200000Y9900000D03*
X9100000Y1500000D03*
X9100000Y2950000D03*
X18250000Y5500000D03*
X12000000Y10450000D03*
X13500000Y2100000D03*
X18150000Y16425000D03*
X18250000Y7500000D03*
X29200000Y12100000D03*
X25250000Y12081350D03*
X30200000Y9900000D03*
X17000000Y8500000D03*
X20000000Y8500000D03*
X18250000Y3300000D03*
X8000000Y7500000D03*
X26250000Y12081350D03*
X13500000Y8000000D03*
X17000000Y4750000D03*
X10000000Y10450000D03*
X22750000Y11400000D03*
X22000000Y9500000D03*
X17799009Y14498862D03*
X20000000Y6500000D03*
X15850000Y10700000D03*
X11250000Y8000000D03*
X21700000Y4000000D03*
X15800000Y3750000D03*
X18250000Y9500000D03*
X24250000Y9900000D03*
X11757500Y2171628D03*
X8250000Y16300000D03*
X10050000Y6050000D03*
X28200000Y12100000D03*
X26250000Y9900000D03*
X24300000Y2250000D03*
X27200000Y12100000D03*
X10000000Y12500000D03*
X11543983Y16500000D03*
X29200000Y9900000D03*
X15800000Y6300000D03*
X13250000Y4250000D03*
X20000000Y10500000D03*
X29800000Y4100000D03*
X22000000Y7500000D03*
X20000000Y4500000D03*
X17050000Y11150000D03*
X28200000Y9900000D03*
X8000000Y10450000D03*
%TO.N,jtag_tms*%
X25000000Y5000000D03*
%TO.N,jtag_tck*%
X22500000Y4000000D03*
%TO.N,jtag_tdo*%
X25540195Y4400000D03*
%TO.N,jtag_tdi*%
X24201811Y3898189D03*
%TO.N,gpio_5*%
X17632500Y10250000D03*
%TO.N,gpio_4*%
X16362500Y9500000D03*
%TO.N,/gpio_3*%
X15600000Y8350000D03*
%TD*%
%TO.N,Net-(D2-A)*%
D28*
X10792500Y14800000D02*
X9807500Y14800000D01*
%TO.N,Net-(D3-A)*%
X10792500Y15800000D02*
X9807500Y15800000D01*
%TO.N,/gpio_6*%
D29*
X17500000Y12000000D02*
X17500000Y12800000D01*
X17500000Y12800000D02*
X19680000Y14980000D01*
X19680000Y14980000D02*
X19680000Y15200000D01*
%TO.N,/gpio_7*%
X18500000Y12000000D02*
X18500000Y12400000D01*
X18500000Y12400000D02*
X20950000Y14850000D01*
X20950000Y14850000D02*
X20950000Y15200000D01*
%TO.N,/gpio_8*%
X19500000Y12000000D02*
X19500000Y12200000D01*
X19500000Y12200000D02*
X22220000Y14920000D01*
X22220000Y14920000D02*
X22220000Y15200000D01*
%TO.N,/gpio_9*%
X20500000Y12000000D02*
X20500000Y12100000D01*
X20500000Y12100000D02*
X22200000Y13800000D01*
X22200000Y13800000D02*
X22700000Y13800000D01*
X22700000Y13800000D02*
X23490000Y14590000D01*
X23490000Y14590000D02*
X23490000Y15200000D01*
%TO.N,/gpio_10*%
X21500000Y12000000D02*
X21500000Y12100000D01*
X21500000Y12100000D02*
X22300000Y12900000D01*
X22300000Y12900000D02*
X23400000Y12900000D01*
X23400000Y12900000D02*
X24760000Y14260000D01*
X24760000Y14260000D02*
X24760000Y15200000D01*
%TO.N,gpio_4*%
D28*
X17140000Y15200000D02*
X16240000Y16100000D01*
X16240000Y16100000D02*
X12765172Y16100000D01*
X12765172Y16100000D02*
X11607500Y14942328D01*
X11607500Y14942328D02*
X11607500Y14800000D01*
%TO.N,gpio_5*%
X18410000Y15200000D02*
X17110000Y16500000D01*
X17110000Y16500000D02*
X12307500Y16500000D01*
X12307500Y16500000D02*
X11607500Y15800000D01*
%TO.N,/gpio_1*%
D29*
X15500000Y12000000D02*
X15500000Y12400000D01*
X15500000Y12400000D02*
X13330000Y14570000D01*
X13330000Y14570000D02*
X13330000Y15200000D01*
%TO.N,/gpio_0*%
X16500000Y12000000D02*
X16500000Y12500000D01*
X16500000Y12500000D02*
X14600000Y14400000D01*
X14600000Y14400000D02*
X14600000Y15200000D01*
%TO.N,VBUS*%
X10700000Y7200000D02*
X10700000Y6937500D01*
X9400000Y6937500D02*
X9400000Y7200000D01*
D30*
X5850000Y5750000D02*
X5850000Y5000000D01*
X6200000Y6100000D02*
X5850000Y5750000D01*
D29*
X9400000Y6937500D02*
X9400000Y6950000D01*
D30*
X7867500Y6567500D02*
X7400000Y6100000D01*
D29*
X9675000Y7475000D02*
X10425000Y7475000D01*
D31*
X8100000Y6567500D02*
X7867500Y6567500D01*
D29*
X10425000Y7475000D02*
X10700000Y7200000D01*
X9400000Y7200000D02*
X9675000Y7475000D01*
D31*
X8100000Y6567500D02*
X8482500Y6950000D01*
D30*
X7400000Y6100000D02*
X6200000Y6100000D01*
D31*
X8482500Y6950000D02*
X9400000Y6950000D01*
%TO.N,/USB_D-N*%
D29*
X5925000Y7500000D02*
X6625000Y7500000D01*
X9042305Y8552893D02*
X9456519Y8967107D01*
X14049999Y9000000D02*
X14500000Y9000000D01*
X6625000Y7500000D02*
X7092107Y7967107D01*
X13789999Y9260000D02*
X14049999Y9000000D01*
X7799214Y8260000D02*
X8335198Y8260000D01*
X10163626Y9260000D02*
X13789999Y9260000D01*
X9456519Y8967107D02*
G75*
G02*
X10163626Y9259982I707081J-707107D01*
G01*
X9042305Y8552893D02*
G75*
G02*
X8335198Y8260001I-707105J707107D01*
G01*
X7092107Y7967107D02*
G75*
G02*
X7799214Y8259990I707093J-707107D01*
G01*
%TO.N,/USB_D-P*%
X13789999Y9740000D02*
X14049999Y10000000D01*
X9964802Y9740000D02*
X13789999Y9740000D01*
X7799214Y8740000D02*
X8136374Y8740000D01*
X6625000Y9500000D02*
X7092107Y9032893D01*
X8843481Y9032893D02*
X9257695Y9447107D01*
X5925000Y9500000D02*
X6625000Y9500000D01*
X14049999Y10000000D02*
X14500000Y10000000D01*
X9964802Y9740000D02*
G75*
G03*
X9257694Y9447108I-2J-1000000D01*
G01*
X7799214Y8740000D02*
G75*
G02*
X7092100Y9032886I-14J1000000D01*
G01*
X8136374Y8740000D02*
G75*
G03*
X8843494Y9032880I26J1000000D01*
G01*
%TO.N,GND*%
D31*
X10700000Y4365000D02*
X10700000Y5162500D01*
X10700000Y5413366D02*
X10600000Y5513366D01*
X10535000Y4200000D02*
X10700000Y4365000D01*
X10600000Y5513366D02*
X10600000Y6050000D01*
X10700000Y5162500D02*
X10700000Y5413366D01*
X10063366Y6050000D02*
X10050000Y6050000D01*
%TO.N,/wifiResetN*%
D28*
X25500000Y7500000D02*
X25500000Y6475000D01*
X23500000Y9000000D02*
X25000000Y7500000D01*
X25000000Y7500000D02*
X25500000Y7500000D01*
D29*
X23500000Y9000000D02*
X23600000Y9000000D01*
%TO.N,+3.3V*%
D31*
X26310000Y2000000D02*
X26310000Y2029184D01*
D30*
X26310000Y2299894D02*
X25592394Y3017500D01*
X11101739Y1598261D02*
X10857500Y1842500D01*
D32*
X11690000Y3467500D02*
X11690000Y5050000D01*
D30*
X25592394Y3017500D02*
X25500000Y3017500D01*
D31*
X28750000Y1500000D02*
X28750000Y1750000D01*
X25500000Y3017500D02*
X25491250Y3008750D01*
D30*
X25909894Y1065000D02*
X11640761Y1065000D01*
D31*
X28750000Y1750000D02*
X28870000Y1870000D01*
D32*
X12190000Y5550000D02*
X12500000Y5550000D01*
X12300000Y3100000D02*
X12500000Y3300000D01*
D31*
X28870000Y1870000D02*
X28870000Y2230000D01*
D32*
X13525000Y5550000D02*
X13975000Y6000000D01*
X12500000Y6665000D02*
X12965000Y6665000D01*
D30*
X10857500Y2250000D02*
X10857500Y2557500D01*
D31*
X25482500Y3000000D02*
X25500000Y3017500D01*
D28*
X26200000Y4896250D02*
X26200000Y3717500D01*
D30*
X26310000Y2000000D02*
X26310000Y1465106D01*
D31*
X26310000Y1465106D02*
X26525106Y1250000D01*
D32*
X11322500Y3100000D02*
X11690000Y3467500D01*
X12500000Y5550000D02*
X12500000Y6665000D01*
D31*
X13925000Y4000000D02*
X14500000Y4000000D01*
X13225000Y3300000D02*
X13925000Y4000000D01*
D28*
X26200000Y3717500D02*
X25500000Y3017500D01*
D30*
X11107500Y1598261D02*
X11101739Y1598261D01*
D31*
X23500000Y3000000D02*
X25482500Y3000000D01*
D30*
X10857500Y2557500D02*
X11322500Y3022500D01*
D28*
X25500000Y5596250D02*
X26200000Y4896250D01*
D30*
X26310000Y1465106D02*
X25909894Y1065000D01*
X11640761Y1065000D02*
X11107500Y1598261D01*
D31*
X28500000Y1250000D02*
X28750000Y1500000D01*
D30*
X11322500Y3022500D02*
X11322500Y3100000D01*
D32*
X11690000Y5050000D02*
X12190000Y5550000D01*
D28*
X25500000Y5660000D02*
X25500000Y5596250D01*
D30*
X10857500Y1842500D02*
X10857500Y2250000D01*
D31*
X26525106Y1250000D02*
X28500000Y1250000D01*
D30*
X26310000Y2000000D02*
X26310000Y2299894D01*
D32*
X13300000Y7000000D02*
X14500000Y7000000D01*
X12965000Y6665000D02*
X13300000Y7000000D01*
X12500000Y5550000D02*
X13525000Y5550000D01*
X11322500Y3100000D02*
X12300000Y3100000D01*
D31*
X12500000Y3300000D02*
X13225000Y3300000D01*
D32*
X13975000Y6000000D02*
X14500000Y6000000D01*
%TO.N,jtag_tms*%
D29*
X23860000Y7000000D02*
X23500000Y7000000D01*
X24400000Y6460000D02*
X23860000Y7000000D01*
X25000000Y5200000D02*
X24400000Y5800000D01*
X24400000Y5800000D02*
X24400000Y6460000D01*
X25000000Y5000000D02*
X25000000Y5200000D01*
%TO.N,jtag_tck*%
X22500000Y5500000D02*
X23000000Y6000000D01*
X23000000Y6000000D02*
X23500000Y6000000D01*
X22500000Y4000000D02*
X22500000Y5500000D01*
%TO.N,jtag_tdo*%
X24700000Y4400000D02*
X24100000Y5000000D01*
X25540195Y4400000D02*
X24700000Y4400000D01*
X24100000Y5000000D02*
X23500000Y5000000D01*
%TO.N,jtag_tdi*%
X24201811Y3898189D02*
X24151811Y3848189D01*
X23651811Y3848189D02*
X23500000Y4000000D01*
X24151811Y3848189D02*
X23651811Y3848189D01*
%TO.N,Net-(U2-OUT)*%
D32*
X9400000Y3877500D02*
X10177500Y3100000D01*
D29*
X9400000Y5162500D02*
X9400000Y4975000D01*
D32*
X9400000Y4750000D02*
X9400000Y4200000D01*
D30*
X9400000Y4975000D02*
X9400000Y4750000D01*
D32*
X9400000Y4200000D02*
X9400000Y3877500D01*
%TO.N,/RxTxSig*%
D33*
X24000000Y11000000D02*
X24500000Y11000000D01*
D32*
X23500000Y11000000D02*
X24000000Y11000000D01*
D34*
X28925000Y11000000D02*
X24500000Y11000000D01*
%TO.N,gpio_5*%
D29*
X17632500Y10250000D02*
X17632500Y3332501D01*
X17632500Y3332501D02*
X16500000Y2200001D01*
X16500000Y2200001D02*
X16500000Y2000000D01*
%TO.N,gpio_4*%
X16362500Y9500000D02*
X16400000Y9462500D01*
X16400000Y3400000D02*
X15500000Y2500000D01*
X16400000Y9462500D02*
X16400000Y3400000D01*
X15500000Y2500000D02*
X15500000Y2000000D01*
%TO.N,/gpio_3*%
X15200000Y7950000D02*
X15200000Y3550000D01*
X15200000Y3550000D02*
X14650000Y3000000D01*
X14650000Y3000000D02*
X14500000Y3000000D01*
X15600000Y8350000D02*
X15200000Y7950000D01*
%TO.N,busy*%
X14500000Y11000000D02*
X14450000Y11050000D01*
X7600000Y13792500D02*
X7600000Y13892500D01*
X14450000Y11050000D02*
X10342500Y11050000D01*
X10342500Y11050000D02*
X7600000Y13792500D01*
%TO.N,Net-(D1-A)*%
X8592500Y2250000D02*
X9907500Y2250000D01*
X8250000Y2592500D02*
X8592500Y2250000D01*
%TO.N,Net-(D4-A)*%
X7500000Y15800000D02*
X7600000Y15700000D01*
X7600000Y15700000D02*
X7600000Y14707500D01*
X7407500Y15800000D02*
X7500000Y15800000D01*
%TD*%
%TA.AperFunction,Conductor*%
%TO.N,GND*%
G36*
X11943007Y16799485D02*
G01*
X12001197Y16780578D01*
X12037161Y16731078D01*
X12037161Y16669892D01*
X12013009Y16630481D01*
X11612022Y16229496D01*
X11557506Y16201719D01*
X11542019Y16200500D01*
X11345138Y16200500D01*
X11345135Y16200499D01*
X11320009Y16197586D01*
X11239987Y16162252D01*
X11179117Y16156044D01*
X11160018Y16162250D01*
X11079991Y16197585D01*
X11079988Y16197586D01*
X11054868Y16200500D01*
X10530139Y16200500D01*
X10530136Y16200499D01*
X10505009Y16197586D01*
X10402233Y16152205D01*
X10379523Y16129495D01*
X10325006Y16101719D01*
X10309521Y16100500D01*
X10290479Y16100500D01*
X10232288Y16119407D01*
X10220477Y16129495D01*
X10197766Y16152205D01*
X10197765Y16152206D01*
X10094991Y16197585D01*
X10094990Y16197586D01*
X10094988Y16197586D01*
X10069868Y16200500D01*
X9545139Y16200500D01*
X9545133Y16200499D01*
X9530010Y16198745D01*
X9470029Y16210824D01*
X9448603Y16227082D01*
X9448043Y16227642D01*
X9335151Y16285164D01*
X9335147Y16285165D01*
X9241484Y16300000D01*
X9142501Y16300000D01*
X9142500Y16299999D01*
X9142500Y14300002D01*
X9142501Y14300001D01*
X9241483Y14300001D01*
X9241485Y14300002D01*
X9335141Y14314834D01*
X9335148Y14314836D01*
X9448043Y14372359D01*
X9448597Y14372912D01*
X9449296Y14373269D01*
X9454347Y14376938D01*
X9454927Y14376139D01*
X9503111Y14400694D01*
X9530016Y14401254D01*
X9545135Y14399500D01*
X10069864Y14399501D01*
X10094991Y14402415D01*
X10197765Y14447794D01*
X10211927Y14461956D01*
X10220477Y14470505D01*
X10274994Y14498281D01*
X10290479Y14499500D01*
X10309521Y14499500D01*
X10367712Y14480593D01*
X10379523Y14470505D01*
X10395316Y14454713D01*
X10402235Y14447794D01*
X10505009Y14402415D01*
X10530135Y14399500D01*
X11054864Y14399501D01*
X11079991Y14402415D01*
X11160013Y14437749D01*
X11220880Y14443957D01*
X11239981Y14437751D01*
X11320009Y14402415D01*
X11345135Y14399500D01*
X11869864Y14399501D01*
X11894991Y14402415D01*
X11997765Y14447794D01*
X12077206Y14527235D01*
X12122585Y14630009D01*
X12125500Y14655135D01*
X12125499Y14944864D01*
X12122585Y14969991D01*
X12122584Y14969992D01*
X12121727Y14977390D01*
X12124991Y14977769D01*
X12127249Y15024753D01*
X12149824Y15059682D01*
X12460497Y15370354D01*
X12515013Y15398131D01*
X12575445Y15388560D01*
X12618710Y15345295D01*
X12629500Y15300350D01*
X12629500Y14680254D01*
X12629501Y14680242D01*
X12641132Y14621773D01*
X12641134Y14621767D01*
X12682346Y14560090D01*
X12685448Y14555448D01*
X12751769Y14511133D01*
X12796231Y14502289D01*
X12810241Y14499502D01*
X12810246Y14499502D01*
X12810252Y14499500D01*
X12910400Y14499500D01*
X12968591Y14480593D01*
X13001863Y14438389D01*
X13003384Y14434716D01*
X13003385Y14434714D01*
X13003386Y14434712D01*
X13049530Y14354788D01*
X13859460Y13544858D01*
X14657155Y12747163D01*
X14684932Y12692646D01*
X14675361Y12632214D01*
X14657156Y12607156D01*
X14650000Y12600000D01*
X14650000Y12099000D01*
X14631093Y12040809D01*
X14581593Y12004845D01*
X14551000Y12000000D01*
X14500001Y12000000D01*
X14500000Y11999999D01*
X14500000Y11949000D01*
X14481093Y11890809D01*
X14431593Y11854845D01*
X14401000Y11850000D01*
X13900002Y11850000D01*
X13900001Y11849999D01*
X13900001Y11655209D01*
X13902909Y11630126D01*
X13942930Y11539488D01*
X13949138Y11478618D01*
X13918382Y11425725D01*
X13862410Y11401011D01*
X13852365Y11400500D01*
X10528690Y11400500D01*
X10470499Y11419407D01*
X10458686Y11429496D01*
X9543384Y12344798D01*
X13900000Y12344798D01*
X13900000Y12150001D01*
X13900001Y12150000D01*
X14349999Y12150000D01*
X14350000Y12150001D01*
X14350000Y12599999D01*
X14349999Y12600000D01*
X14155210Y12600000D01*
X14155207Y12599999D01*
X14130125Y12597091D01*
X14027522Y12551787D01*
X13948213Y12472478D01*
X13902909Y12369873D01*
X13900000Y12344798D01*
X9543384Y12344798D01*
X8029495Y13858687D01*
X8001718Y13913204D01*
X8000499Y13928691D01*
X8000499Y14154861D01*
X8000499Y14154864D01*
X7997585Y14179991D01*
X7962251Y14260014D01*
X7956043Y14320882D01*
X7962248Y14339980D01*
X7997585Y14420009D01*
X8000500Y14445135D01*
X8000499Y14650000D01*
X8377934Y14650000D01*
X8389833Y14574858D01*
X8389834Y14574855D01*
X8447359Y14461956D01*
X8536956Y14372359D01*
X8649848Y14314837D01*
X8649852Y14314836D01*
X8743515Y14300001D01*
X8842500Y14300001D01*
X8842500Y14649999D01*
X8842499Y14650000D01*
X8377934Y14650000D01*
X8000499Y14650000D01*
X8000499Y14717518D01*
X8000499Y14920409D01*
X8000499Y14950000D01*
X8377933Y14950000D01*
X8842499Y14950000D01*
X8842500Y14950001D01*
X8842500Y15649999D01*
X8842499Y15650000D01*
X8377934Y15650000D01*
X8389833Y15574858D01*
X8389834Y15574855D01*
X8447359Y15461956D01*
X8539311Y15370004D01*
X8567088Y15315487D01*
X8557517Y15255055D01*
X8539311Y15229996D01*
X8447358Y15138044D01*
X8389836Y15025152D01*
X8389835Y15025148D01*
X8377933Y14950000D01*
X8000499Y14950000D01*
X8000499Y14969861D01*
X8000499Y14969864D01*
X7997585Y14994991D01*
X7958934Y15082526D01*
X7950500Y15122513D01*
X7950500Y15746143D01*
X7936203Y15799500D01*
X7928871Y15826862D01*
X7925499Y15852483D01*
X7925499Y15944861D01*
X7925499Y15944864D01*
X7924903Y15950000D01*
X8377933Y15950000D01*
X8842499Y15950000D01*
X8842500Y15950001D01*
X8842500Y16300000D01*
X8743517Y16300000D01*
X8743514Y16299999D01*
X8649858Y16285167D01*
X8649848Y16285164D01*
X8536956Y16227642D01*
X8447358Y16138044D01*
X8389836Y16025152D01*
X8389835Y16025148D01*
X8377933Y15950000D01*
X7924903Y15950000D01*
X7922585Y15969991D01*
X7877206Y16072765D01*
X7797765Y16152206D01*
X7694991Y16197585D01*
X7694990Y16197586D01*
X7694988Y16197586D01*
X7669868Y16200500D01*
X7145139Y16200500D01*
X7145133Y16200499D01*
X7130010Y16198745D01*
X7070029Y16210824D01*
X7048603Y16227082D01*
X7048043Y16227642D01*
X6935151Y16285164D01*
X6935147Y16285165D01*
X6841484Y16300000D01*
X6742501Y16300000D01*
X6742500Y16299999D01*
X6742500Y15300002D01*
X6742501Y15300001D01*
X6841483Y15300001D01*
X6841485Y15300002D01*
X6935141Y15314834D01*
X6935148Y15314836D01*
X7048043Y15372359D01*
X7048597Y15372912D01*
X7049296Y15373269D01*
X7054347Y15376938D01*
X7054927Y15376139D01*
X7103111Y15400694D01*
X7126075Y15401632D01*
X7128038Y15401484D01*
X7145135Y15399500D01*
X7154253Y15399501D01*
X7157969Y15399219D01*
X7182969Y15388952D01*
X7208681Y15380601D01*
X7210968Y15377453D01*
X7214567Y15375975D01*
X7228756Y15352977D01*
X7244651Y15331105D01*
X7245480Y15325870D01*
X7246694Y15323903D01*
X7246402Y15320051D01*
X7249500Y15300501D01*
X7249500Y15122512D01*
X7241065Y15082527D01*
X7230979Y15059682D01*
X7202414Y14994989D01*
X7199500Y14969870D01*
X7199500Y14445140D01*
X7199501Y14445137D01*
X7202414Y14420010D01*
X7222382Y14374788D01*
X7233326Y14350001D01*
X7237748Y14339988D01*
X7243956Y14279119D01*
X7237749Y14260016D01*
X7219598Y14218907D01*
X7202414Y14179989D01*
X7199500Y14154870D01*
X7199500Y13630140D01*
X7199501Y13630137D01*
X7202414Y13605010D01*
X7227756Y13547615D01*
X7247794Y13502235D01*
X7327235Y13422794D01*
X7430009Y13377415D01*
X7455135Y13374500D01*
X7481307Y13374501D01*
X7539497Y13355596D01*
X7551313Y13345505D01*
X10127288Y10769530D01*
X10207212Y10723386D01*
X10296356Y10699500D01*
X10296357Y10699500D01*
X10388644Y10699500D01*
X13914425Y10699500D01*
X13972616Y10680593D01*
X13999798Y10650625D01*
X14008260Y10636213D01*
X14011133Y10621769D01*
X14055448Y10555448D01*
X14055827Y10555195D01*
X14058804Y10550125D01*
X14064794Y10522919D01*
X14072355Y10496114D01*
X14071366Y10493074D01*
X14071962Y10490371D01*
X14066200Y10477172D01*
X14055746Y10444997D01*
X14055449Y10444553D01*
X14055448Y10444552D01*
X14039595Y10420826D01*
X14010850Y10377808D01*
X13962799Y10339929D01*
X13954159Y10337185D01*
X13914714Y10326616D01*
X13834784Y10280468D01*
X13673812Y10119496D01*
X13619296Y10091719D01*
X13603809Y10090500D01*
X9876284Y10090500D01*
X9700766Y10067393D01*
X9529765Y10021574D01*
X9366216Y9953830D01*
X9212890Y9865308D01*
X9072444Y9757540D01*
X9072440Y9757537D01*
X9034437Y9719532D01*
X9034437Y9719531D01*
X8634893Y9319987D01*
X8599073Y9284168D01*
X8591875Y9277645D01*
X8504753Y9206145D01*
X8488616Y9195363D01*
X8393527Y9144537D01*
X8375596Y9137110D01*
X8272414Y9105811D01*
X8253381Y9102025D01*
X8141217Y9090977D01*
X8131513Y9090500D01*
X7804075Y9090500D01*
X7794371Y9090977D01*
X7682206Y9102025D01*
X7663173Y9105811D01*
X7559991Y9137110D01*
X7542062Y9144536D01*
X7446969Y9195365D01*
X7430832Y9206147D01*
X7411693Y9221855D01*
X7378707Y9273387D01*
X7375500Y9298381D01*
X7375500Y9854273D01*
X7375499Y9854275D01*
X7372646Y9884695D01*
X7372646Y9884699D01*
X7327793Y10012882D01*
X7321378Y10021574D01*
X7247154Y10122145D01*
X7247152Y10122147D01*
X7247150Y10122150D01*
X7247146Y10122153D01*
X7247144Y10122155D01*
X7137883Y10202793D01*
X7009703Y10247645D01*
X7009694Y10247647D01*
X6979274Y10250500D01*
X6979266Y10250500D01*
X4870734Y10250500D01*
X4870725Y10250500D01*
X4840305Y10247647D01*
X4840296Y10247645D01*
X4712116Y10202793D01*
X4602855Y10122155D01*
X4602845Y10122145D01*
X4522207Y10012884D01*
X4477355Y9884704D01*
X4477353Y9884695D01*
X4474500Y9854275D01*
X4474500Y9145726D01*
X4477353Y9115306D01*
X4477355Y9115297D01*
X4522207Y8987117D01*
X4602845Y8877856D01*
X4602847Y8877854D01*
X4602850Y8877850D01*
X4602853Y8877848D01*
X4602855Y8877846D01*
X4712116Y8797208D01*
X4712117Y8797208D01*
X4712118Y8797207D01*
X4840301Y8752354D01*
X4870725Y8749501D01*
X4870727Y8749500D01*
X4870734Y8749500D01*
X6838810Y8749500D01*
X6897001Y8730593D01*
X6904252Y8724400D01*
X6904423Y8724594D01*
X6906852Y8722464D01*
X7031063Y8627154D01*
X7047306Y8614690D01*
X7097455Y8585737D01*
X7138396Y8540267D01*
X7144792Y8479417D01*
X7114199Y8426429D01*
X7097457Y8414265D01*
X7088874Y8409309D01*
X7047306Y8385311D01*
X6906845Y8277530D01*
X6904423Y8275405D01*
X6903299Y8276686D01*
X6854298Y8251719D01*
X6838811Y8250500D01*
X4870725Y8250500D01*
X4840305Y8247647D01*
X4840296Y8247645D01*
X4712116Y8202793D01*
X4602855Y8122155D01*
X4602845Y8122145D01*
X4522207Y8012884D01*
X4477355Y7884704D01*
X4477353Y7884695D01*
X4474500Y7854275D01*
X4474500Y7145726D01*
X4477353Y7115306D01*
X4477355Y7115297D01*
X4522207Y6987117D01*
X4602845Y6877856D01*
X4602847Y6877854D01*
X4602850Y6877850D01*
X4602853Y6877848D01*
X4602855Y6877846D01*
X4712116Y6797208D01*
X4712117Y6797208D01*
X4712118Y6797207D01*
X4840301Y6752354D01*
X4870725Y6749501D01*
X4870727Y6749500D01*
X4870734Y6749500D01*
X6979273Y6749500D01*
X6979273Y6749501D01*
X7009699Y6752354D01*
X7137882Y6797207D01*
X7247150Y6877850D01*
X7327793Y6987118D01*
X7372646Y7115301D01*
X7375499Y7145727D01*
X7375500Y7145727D01*
X7375500Y7701620D01*
X7394407Y7759811D01*
X7411695Y7778148D01*
X7430838Y7793859D01*
X7446961Y7804632D01*
X7542074Y7855471D01*
X7559980Y7862887D01*
X7663176Y7894191D01*
X7682203Y7897976D01*
X7760322Y7905670D01*
X7794371Y7909023D01*
X7804074Y7909500D01*
X8423713Y7909500D01*
X8423714Y7909500D01*
X8599232Y7932607D01*
X8770233Y7978426D01*
X8933791Y8046174D01*
X8970403Y8067312D01*
X11890000Y8067312D01*
X11890000Y7950001D01*
X11890001Y7950000D01*
X12349999Y7950000D01*
X12350000Y7950001D01*
X12350000Y8467499D01*
X12650000Y8467499D01*
X12650000Y7950001D01*
X12650001Y7950000D01*
X13109998Y7950000D01*
X13109999Y7950001D01*
X13109999Y8067302D01*
X13107117Y8098041D01*
X13107117Y8098042D01*
X13061815Y8227511D01*
X12980367Y8337866D01*
X12980365Y8337868D01*
X12870010Y8419316D01*
X12740540Y8464618D01*
X12709811Y8467500D01*
X12650001Y8467500D01*
X12650000Y8467499D01*
X12350000Y8467499D01*
X12350000Y8467501D01*
X12290199Y8467500D01*
X12259459Y8464618D01*
X12259458Y8464618D01*
X12129989Y8419316D01*
X12019634Y8337868D01*
X12019632Y8337866D01*
X11938184Y8227511D01*
X11892882Y8098041D01*
X11890000Y8067312D01*
X8970403Y8067312D01*
X9087106Y8134690D01*
X9227556Y8242462D01*
X9242538Y8257444D01*
X9257519Y8272424D01*
X9620002Y8634909D01*
X9700933Y8715841D01*
X9708111Y8722347D01*
X9795252Y8793861D01*
X9811373Y8804632D01*
X9906486Y8855471D01*
X9924392Y8862887D01*
X10027588Y8894191D01*
X10046615Y8897976D01*
X10124734Y8905670D01*
X10158783Y8909023D01*
X10168486Y8909500D01*
X10219139Y8909500D01*
X13603809Y8909500D01*
X13662000Y8890593D01*
X13673812Y8880504D01*
X13834785Y8719531D01*
X13857174Y8706605D01*
X13909120Y8676614D01*
X13914711Y8673386D01*
X13938610Y8666983D01*
X13943105Y8665296D01*
X13963446Y8649079D01*
X13985267Y8634909D01*
X13987052Y8630259D01*
X13990946Y8627154D01*
X13997870Y8602078D01*
X14007195Y8577788D01*
X14005906Y8572978D01*
X14007232Y8568176D01*
X13998093Y8543816D01*
X13991361Y8518687D01*
X13986340Y8512487D01*
X13985741Y8510889D01*
X13984249Y8509905D01*
X13978336Y8502601D01*
X13948213Y8472478D01*
X13902909Y8369873D01*
X13900000Y8344798D01*
X13900000Y8150001D01*
X13900001Y8150000D01*
X14401000Y8150000D01*
X14459191Y8131093D01*
X14495155Y8081593D01*
X14500000Y8051000D01*
X14500000Y7949000D01*
X14481093Y7890809D01*
X14431593Y7854845D01*
X14401000Y7850000D01*
X13900002Y7850000D01*
X13900001Y7849999D01*
X13900001Y7655209D01*
X13902910Y7630121D01*
X13904171Y7625487D01*
X13901202Y7564374D01*
X13862878Y7516678D01*
X13808643Y7500500D01*
X13234108Y7500500D01*
X13234107Y7500500D01*
X13227676Y7499653D01*
X13227497Y7501010D01*
X13173514Y7503843D01*
X13125967Y7542353D01*
X13110000Y7596265D01*
X13110000Y7649999D01*
X13109999Y7650000D01*
X11890002Y7650000D01*
X11890001Y7649999D01*
X11890001Y7532699D01*
X11892882Y7501960D01*
X11892882Y7501959D01*
X11938184Y7372490D01*
X12019632Y7262135D01*
X12019634Y7262133D01*
X12046314Y7242442D01*
X12081906Y7192674D01*
X12081448Y7131491D01*
X12057535Y7092789D01*
X12051676Y7086930D01*
X12051674Y7086927D01*
X12011436Y7004618D01*
X11999567Y6980340D01*
X11989500Y6911242D01*
X11989500Y6418758D01*
X11995910Y6374762D01*
X11998466Y6357217D01*
X11999500Y6342945D01*
X11999500Y6075101D01*
X11980593Y6016910D01*
X11950000Y5989365D01*
X11882690Y5950504D01*
X11324356Y5392170D01*
X11269839Y5364393D01*
X11209407Y5373964D01*
X11166142Y5417229D01*
X11128770Y5490575D01*
X11040572Y5578773D01*
X10929445Y5635395D01*
X10929443Y5635396D01*
X10850000Y5647979D01*
X10850000Y5261500D01*
X10831093Y5203309D01*
X10781593Y5167345D01*
X10751000Y5162500D01*
X10649000Y5162500D01*
X10590809Y5181407D01*
X10554845Y5230907D01*
X10550000Y5261500D01*
X10550000Y5647978D01*
X10549999Y5647979D01*
X10470558Y5635396D01*
X10470556Y5635396D01*
X10359424Y5578771D01*
X10344545Y5563892D01*
X10290028Y5536115D01*
X10234556Y5543332D01*
X10224786Y5547646D01*
X10224783Y5547647D01*
X10200188Y5550500D01*
X9899819Y5550500D01*
X9899816Y5550499D01*
X9875214Y5547646D01*
X9774578Y5503211D01*
X9774577Y5503211D01*
X9766186Y5499505D01*
X9764733Y5502795D01*
X9722220Y5490289D01*
X9685074Y5502359D01*
X9683814Y5499505D01*
X9675423Y5503210D01*
X9675422Y5503211D01*
X9574786Y5547646D01*
X9574785Y5547647D01*
X9574783Y5547647D01*
X9550188Y5550500D01*
X9249819Y5550500D01*
X9249816Y5550499D01*
X9225214Y5547646D01*
X9124578Y5503211D01*
X9046789Y5425422D01*
X9002353Y5324784D01*
X8999500Y5300192D01*
X8999500Y5208840D01*
X8986237Y5159341D01*
X8980201Y5148888D01*
X8971360Y5115892D01*
X8952682Y5046182D01*
X8949500Y5034308D01*
X8949500Y4997239D01*
X8936238Y4947741D01*
X8933608Y4943187D01*
X8933608Y4943186D01*
X8904554Y4834752D01*
X8899500Y4815891D01*
X8899500Y4598225D01*
X8889441Y4554745D01*
X8862678Y4500000D01*
X8842067Y4457840D01*
X8832000Y4388742D01*
X8832000Y4011258D01*
X8842067Y3942160D01*
X8844901Y3936364D01*
X8890043Y3844024D01*
X8899254Y3813472D01*
X8899498Y3811616D01*
X8899500Y3811609D01*
X8899500Y3811608D01*
X8915083Y3753451D01*
X8933609Y3684310D01*
X8999496Y3570191D01*
X8999497Y3570190D01*
X8999498Y3570189D01*
X8999500Y3570186D01*
X9283327Y3286359D01*
X9565504Y3004182D01*
X9593281Y2949665D01*
X9594500Y2934181D01*
X9594500Y2905793D01*
X9594500Y2905789D01*
X9594501Y2905786D01*
X9599051Y2874555D01*
X9604709Y2835713D01*
X9650044Y2742981D01*
X9658615Y2682399D01*
X9629940Y2628349D01*
X9574972Y2601476D01*
X9561103Y2600500D01*
X8778690Y2600500D01*
X8720499Y2619407D01*
X8708686Y2629496D01*
X8664144Y2674038D01*
X8643583Y2704054D01*
X8643027Y2705314D01*
X8602206Y2797765D01*
X8522765Y2877206D01*
X8419991Y2922585D01*
X8419990Y2922586D01*
X8419988Y2922586D01*
X8394869Y2925500D01*
X8394865Y2925500D01*
X8374487Y2925500D01*
X8348865Y2928873D01*
X8342793Y2930500D01*
X8296144Y2942999D01*
X8203856Y2942999D01*
X8151132Y2928873D01*
X8151128Y2928872D01*
X8125513Y2925500D01*
X8105141Y2925500D01*
X8105134Y2925499D01*
X8080009Y2922586D01*
X7977235Y2877206D01*
X7897794Y2797765D01*
X7852414Y2694989D01*
X7849500Y2669870D01*
X7849500Y2145140D01*
X7849501Y2145137D01*
X7851255Y2130013D01*
X7839177Y2070032D01*
X7822923Y2048611D01*
X7822361Y2048050D01*
X7764836Y1935152D01*
X7764835Y1935148D01*
X7750000Y1841485D01*
X7750000Y1742501D01*
X7750001Y1742500D01*
X8749998Y1742500D01*
X8749999Y1742501D01*
X8749999Y1800500D01*
X8768906Y1858691D01*
X8818406Y1894655D01*
X8848999Y1899500D01*
X9627488Y1899500D01*
X9667473Y1891066D01*
X9755009Y1852415D01*
X9780135Y1849500D01*
X10304864Y1849501D01*
X10304875Y1849503D01*
X10307462Y1849652D01*
X10366648Y1834138D01*
X10405412Y1786799D01*
X10408808Y1776442D01*
X10423024Y1723391D01*
X10423024Y1723388D01*
X10423025Y1723388D01*
X10423025Y1723387D01*
X10437701Y1668613D01*
X10437702Y1668611D01*
X10437703Y1668608D01*
X10497007Y1565891D01*
X10497009Y1565889D01*
X10497011Y1565886D01*
X10825125Y1237772D01*
X10825127Y1237771D01*
X10827460Y1236424D01*
X10847970Y1220688D01*
X11364147Y704511D01*
X11364149Y704510D01*
X11364150Y704509D01*
X11364151Y704508D01*
X11466868Y645204D01*
X11466870Y645203D01*
X11466874Y645201D01*
X11491083Y638716D01*
X11491086Y638713D01*
X11491087Y638714D01*
X11581449Y614501D01*
X11581451Y614500D01*
X11581452Y614500D01*
X25969203Y614500D01*
X26059563Y638713D01*
X26059566Y638713D01*
X26072797Y642259D01*
X26083781Y645201D01*
X26186508Y704511D01*
X26320851Y838856D01*
X26375367Y866633D01*
X26416474Y864480D01*
X26472379Y849500D01*
X26472381Y849500D01*
X28552725Y849500D01*
X28552727Y849500D01*
X28654588Y876793D01*
X28654590Y876795D01*
X28654592Y876795D01*
X28745908Y929517D01*
X28745908Y929518D01*
X28745913Y929520D01*
X29070480Y1254087D01*
X29103060Y1310518D01*
X29123207Y1345413D01*
X29150500Y1447273D01*
X29150500Y1451201D01*
X29154709Y1463220D01*
X29167353Y1479820D01*
X29176336Y1498649D01*
X29185479Y1503614D01*
X29191786Y1511892D01*
X29211771Y1517889D01*
X29230107Y1527843D01*
X29248146Y1529500D01*
X29389747Y1529500D01*
X29389748Y1529500D01*
X29448231Y1541133D01*
X29514552Y1585448D01*
X29558867Y1651769D01*
X29570500Y1710252D01*
X29570500Y2749748D01*
X29558867Y2808231D01*
X29514552Y2874552D01*
X29510580Y2877206D01*
X29444786Y2921169D01*
X29406907Y2969219D01*
X29404505Y3030357D01*
X29417471Y3058484D01*
X29490775Y3168189D01*
X29543580Y3295672D01*
X29570500Y3431007D01*
X29570500Y3568993D01*
X29543580Y3704328D01*
X29501539Y3805824D01*
X29490777Y3831807D01*
X29490771Y3831818D01*
X29414114Y3946542D01*
X29316546Y4044110D01*
X29316545Y4044111D01*
X29316542Y4044114D01*
X29303712Y4052687D01*
X29265835Y4100732D01*
X29263431Y4161871D01*
X29297423Y4212745D01*
X29303685Y4217296D01*
X29316542Y4225886D01*
X29414114Y4323458D01*
X29490775Y4438189D01*
X29543580Y4565672D01*
X29570500Y4701007D01*
X29570500Y4838993D01*
X29543580Y4974328D01*
X29522668Y5024815D01*
X29490777Y5101807D01*
X29490771Y5101818D01*
X29414114Y5216542D01*
X29316541Y5314115D01*
X29201817Y5390772D01*
X29201806Y5390778D01*
X29074328Y5443580D01*
X28938995Y5470500D01*
X28938993Y5470500D01*
X28801007Y5470500D01*
X28801004Y5470500D01*
X28665672Y5443580D01*
X28665670Y5443580D01*
X28538193Y5390778D01*
X28538182Y5390772D01*
X28423458Y5314115D01*
X28423448Y5314106D01*
X28356030Y5246688D01*
X28301513Y5218911D01*
X28276324Y5218169D01*
X28261737Y5219606D01*
X27910189Y4868059D01*
X27902851Y4895445D01*
X27860064Y4969554D01*
X27799554Y5030064D01*
X27725445Y5072851D01*
X27698055Y5080191D01*
X28049603Y5431737D01*
X27978941Y5478952D01*
X27833349Y5539258D01*
X27678795Y5570000D01*
X27521204Y5570000D01*
X27366650Y5539258D01*
X27221055Y5478951D01*
X27150395Y5431738D01*
X27501943Y5080190D01*
X27474555Y5072851D01*
X27400446Y5030064D01*
X27339936Y4969554D01*
X27297149Y4895445D01*
X27289810Y4868057D01*
X26938262Y5219605D01*
X26891049Y5148945D01*
X26830742Y5003350D01*
X26800000Y4848796D01*
X26800000Y4691205D01*
X26830742Y4536651D01*
X26891048Y4391059D01*
X26938262Y4320398D01*
X27289809Y4671945D01*
X27297149Y4644555D01*
X27339936Y4570446D01*
X27400446Y4509936D01*
X27474555Y4467149D01*
X27501941Y4459811D01*
X27150394Y4108263D01*
X27151831Y4093676D01*
X27138719Y4033913D01*
X27123312Y4013970D01*
X27055894Y3946552D01*
X27055885Y3946542D01*
X26979228Y3831818D01*
X26979222Y3831807D01*
X26926420Y3704330D01*
X26926420Y3704328D01*
X26899500Y3568996D01*
X26899500Y3431005D01*
X26912653Y3364882D01*
X26918639Y3334787D01*
X26926420Y3295673D01*
X26926420Y3295671D01*
X26979222Y3168194D01*
X26979228Y3168183D01*
X27040619Y3076306D01*
X27055886Y3053458D01*
X27153458Y2955886D01*
X27166286Y2947315D01*
X27204165Y2899265D01*
X27206567Y2838127D01*
X27172574Y2787253D01*
X27166293Y2782691D01*
X27153458Y2774114D01*
X27153454Y2774111D01*
X27055885Y2676542D01*
X26979228Y2561818D01*
X26979222Y2561807D01*
X26925057Y2431038D01*
X26885321Y2384512D01*
X26825826Y2370228D01*
X26769298Y2393643D01*
X26737967Y2443298D01*
X26733336Y2460578D01*
X26729799Y2473780D01*
X26729799Y2473781D01*
X26702316Y2521382D01*
X26670492Y2576504D01*
X26670490Y2576506D01*
X26670489Y2576508D01*
X26147235Y3099762D01*
X26119460Y3154276D01*
X26129031Y3214708D01*
X26147238Y3239767D01*
X26440459Y3532988D01*
X26447923Y3545914D01*
X26461938Y3570190D01*
X26480021Y3601511D01*
X26500500Y3677938D01*
X26500500Y4935812D01*
X26480021Y5012239D01*
X26472760Y5024815D01*
X26440460Y5080761D01*
X26384511Y5136711D01*
X26384511Y5136710D01*
X25929495Y5591726D01*
X25901718Y5646243D01*
X25900499Y5661730D01*
X25900499Y5922361D01*
X25900499Y5922364D01*
X25897585Y5947491D01*
X25862251Y6027514D01*
X25856043Y6088382D01*
X25862248Y6107480D01*
X25897585Y6187509D01*
X25900500Y6212635D01*
X25900499Y6737364D01*
X25897585Y6762491D01*
X25852206Y6865265D01*
X25852201Y6865270D01*
X25851230Y6866688D01*
X25850533Y6869051D01*
X25848500Y6873657D01*
X25849098Y6873922D01*
X25833939Y6925379D01*
X25854448Y6983025D01*
X25862898Y6992646D01*
X25864427Y6994176D01*
X25864429Y6994176D01*
X25948324Y7078071D01*
X26000433Y7184660D01*
X26010500Y7253758D01*
X26010500Y7746242D01*
X26000433Y7815340D01*
X25948324Y7921929D01*
X25942467Y7927786D01*
X25914692Y7982300D01*
X25924263Y8042732D01*
X25953687Y8077444D01*
X25980365Y8097133D01*
X25980367Y8097135D01*
X26061815Y8207490D01*
X26107117Y8336960D01*
X26109999Y8367689D01*
X26110000Y8367692D01*
X26110000Y8484999D01*
X26109999Y8485000D01*
X24890002Y8485000D01*
X24890001Y8484999D01*
X24890001Y8367699D01*
X24892882Y8336960D01*
X24892882Y8336958D01*
X24913723Y8277398D01*
X24915095Y8216228D01*
X24880251Y8165934D01*
X24822499Y8145726D01*
X24763898Y8163323D01*
X24750274Y8174697D01*
X24029496Y8895475D01*
X24026012Y8902312D01*
X24890000Y8902312D01*
X24890000Y8785001D01*
X24890001Y8785000D01*
X25349999Y8785000D01*
X25350000Y8785001D01*
X25350000Y9302499D01*
X25650000Y9302499D01*
X25650000Y8785001D01*
X25650001Y8785000D01*
X26109998Y8785000D01*
X26109999Y8785001D01*
X26109999Y8902302D01*
X26107117Y8933041D01*
X26107117Y8933042D01*
X26061815Y9062511D01*
X25980367Y9172866D01*
X25980365Y9172868D01*
X25870010Y9254316D01*
X25740540Y9299618D01*
X25709811Y9302500D01*
X25650001Y9302500D01*
X25650000Y9302499D01*
X25350000Y9302499D01*
X25350000Y9302501D01*
X25290199Y9302500D01*
X25259459Y9299618D01*
X25259458Y9299618D01*
X25129989Y9254316D01*
X25019634Y9172868D01*
X25019632Y9172866D01*
X24938184Y9062511D01*
X24892882Y8933041D01*
X24890000Y8902312D01*
X24026012Y8902312D01*
X24001719Y8949992D01*
X24000500Y8965479D01*
X24000500Y9319747D01*
X24000498Y9319759D01*
X23997711Y9333769D01*
X23988867Y9378231D01*
X23944552Y9444552D01*
X23944548Y9444555D01*
X23878233Y9488866D01*
X23878231Y9488867D01*
X23878228Y9488868D01*
X23878227Y9488868D01*
X23819758Y9500499D01*
X23819748Y9500500D01*
X23180252Y9500500D01*
X23180251Y9500500D01*
X23180241Y9500499D01*
X23121772Y9488868D01*
X23121766Y9488866D01*
X23055451Y9444555D01*
X23055445Y9444549D01*
X23011134Y9378234D01*
X23011132Y9378228D01*
X22999501Y9319759D01*
X22999500Y9319747D01*
X22999500Y8680254D01*
X22999501Y8680242D01*
X23011132Y8621773D01*
X23011134Y8621767D01*
X23055746Y8555002D01*
X23072355Y8496114D01*
X23055746Y8444998D01*
X23011134Y8378234D01*
X23011132Y8378228D01*
X22999501Y8319759D01*
X22999500Y8319747D01*
X22999500Y7680254D01*
X22999501Y7680242D01*
X23011132Y7621773D01*
X23011134Y7621767D01*
X23055746Y7555002D01*
X23072355Y7496114D01*
X23055746Y7444998D01*
X23011134Y7378234D01*
X23011132Y7378228D01*
X22999501Y7319759D01*
X22999500Y7319747D01*
X22999500Y6680254D01*
X22999501Y6680242D01*
X23011132Y6621773D01*
X23011134Y6621767D01*
X23055746Y6555002D01*
X23072355Y6496114D01*
X23055745Y6444997D01*
X23021260Y6393389D01*
X22973210Y6355510D01*
X22960099Y6352271D01*
X22960124Y6352179D01*
X22953858Y6350500D01*
X22953856Y6350500D01*
X22864712Y6326614D01*
X22784788Y6280470D01*
X22219529Y5715211D01*
X22195381Y5673387D01*
X22195382Y5673386D01*
X22173386Y5635290D01*
X22158296Y5578973D01*
X22149903Y5547646D01*
X22149500Y5546143D01*
X22149500Y4320442D01*
X22136236Y4270942D01*
X22080202Y4173891D01*
X22076805Y4161213D01*
X22049500Y4059309D01*
X22049500Y3940691D01*
X22054767Y3921036D01*
X22080202Y3826110D01*
X22139507Y3723392D01*
X22139509Y3723390D01*
X22139511Y3723387D01*
X22223387Y3639511D01*
X22223389Y3639510D01*
X22223391Y3639508D01*
X22326110Y3580203D01*
X22326111Y3580203D01*
X22326114Y3580201D01*
X22440691Y3549500D01*
X22440693Y3549500D01*
X22559307Y3549500D01*
X22559309Y3549500D01*
X22673886Y3580201D01*
X22673888Y3580203D01*
X22673890Y3580203D01*
X22776608Y3639508D01*
X22776608Y3639509D01*
X22776613Y3639511D01*
X22838314Y3701213D01*
X22892828Y3728989D01*
X22953260Y3719418D01*
X22996525Y3676154D01*
X22996996Y3675218D01*
X23002846Y3663430D01*
X23011133Y3621769D01*
X23055448Y3555448D01*
X23056924Y3554462D01*
X23062111Y3544010D01*
X23065693Y3519734D01*
X23072355Y3496114D01*
X23070170Y3489392D01*
X23071043Y3483480D01*
X23063666Y3469374D01*
X23055746Y3444998D01*
X23011134Y3378234D01*
X23011132Y3378228D01*
X22999501Y3319759D01*
X22999500Y3319747D01*
X22999500Y2680254D01*
X22999501Y2680242D01*
X23013035Y2612207D01*
X23011890Y2611980D01*
X23015916Y2560812D01*
X22989656Y2513921D01*
X22986079Y2510344D01*
X22931562Y2482567D01*
X22887944Y2487729D01*
X22887793Y2486965D01*
X22819758Y2500499D01*
X22819748Y2500500D01*
X22180252Y2500500D01*
X22180251Y2500500D01*
X22180241Y2500499D01*
X22121772Y2488868D01*
X22121766Y2488866D01*
X22055002Y2444254D01*
X21996114Y2427645D01*
X21944998Y2444254D01*
X21878233Y2488866D01*
X21878231Y2488867D01*
X21878228Y2488868D01*
X21878227Y2488868D01*
X21819758Y2500499D01*
X21819748Y2500500D01*
X21180252Y2500500D01*
X21180251Y2500500D01*
X21180241Y2500499D01*
X21121772Y2488868D01*
X21121766Y2488866D01*
X21055002Y2444254D01*
X20996114Y2427645D01*
X20944998Y2444254D01*
X20878233Y2488866D01*
X20878231Y2488867D01*
X20878228Y2488868D01*
X20878227Y2488868D01*
X20819758Y2500499D01*
X20819748Y2500500D01*
X20180252Y2500500D01*
X20180251Y2500500D01*
X20180241Y2500499D01*
X20121772Y2488868D01*
X20121766Y2488866D01*
X20055002Y2444254D01*
X19996114Y2427645D01*
X19944998Y2444254D01*
X19878233Y2488866D01*
X19878231Y2488867D01*
X19878228Y2488868D01*
X19878227Y2488868D01*
X19819758Y2500499D01*
X19819748Y2500500D01*
X19180252Y2500500D01*
X19180251Y2500500D01*
X19180241Y2500499D01*
X19121772Y2488868D01*
X19121766Y2488866D01*
X19055002Y2444254D01*
X18996114Y2427645D01*
X18944998Y2444254D01*
X18878233Y2488866D01*
X18878231Y2488867D01*
X18878228Y2488868D01*
X18878227Y2488868D01*
X18819758Y2500499D01*
X18819748Y2500500D01*
X18180252Y2500500D01*
X18180251Y2500500D01*
X18180241Y2500499D01*
X18121772Y2488868D01*
X18121766Y2488866D01*
X18055002Y2444254D01*
X17996114Y2427645D01*
X17944998Y2444254D01*
X17878233Y2488866D01*
X17878231Y2488867D01*
X17878228Y2488868D01*
X17878227Y2488868D01*
X17819758Y2500499D01*
X17819748Y2500500D01*
X17819747Y2500500D01*
X17535189Y2500500D01*
X17476998Y2519407D01*
X17441034Y2568907D01*
X17441034Y2630093D01*
X17465185Y2669503D01*
X17799863Y3004182D01*
X17912970Y3117289D01*
X17959114Y3197213D01*
X17965041Y3219333D01*
X17972164Y3245914D01*
X17981251Y3279830D01*
X17983000Y3286357D01*
X17983000Y9929559D01*
X17996264Y9979060D01*
X18008066Y9999501D01*
X18052299Y10076114D01*
X18083000Y10190691D01*
X18083000Y10309309D01*
X18052299Y10423886D01*
X18052297Y10423889D01*
X18052297Y10423891D01*
X17992992Y10526609D01*
X17992990Y10526611D01*
X17992989Y10526613D01*
X17909113Y10610489D01*
X17909110Y10610491D01*
X17909108Y10610493D01*
X17806389Y10669798D01*
X17806390Y10669798D01*
X17767375Y10680252D01*
X17691809Y10700500D01*
X17573191Y10700500D01*
X17503067Y10681711D01*
X17458609Y10669798D01*
X17355891Y10610493D01*
X17272007Y10526609D01*
X17212702Y10423891D01*
X17200468Y10378231D01*
X17182000Y10309309D01*
X17182000Y10190691D01*
X17212701Y10076114D01*
X17249208Y10012882D01*
X17268736Y9979060D01*
X17282000Y9929559D01*
X17282000Y3518691D01*
X17263093Y3460500D01*
X17253004Y3448687D01*
X16333813Y2529496D01*
X16279296Y2501719D01*
X16263809Y2500500D01*
X16235189Y2500500D01*
X16176998Y2519407D01*
X16141034Y2568907D01*
X16141034Y2630093D01*
X16165185Y2669504D01*
X16309492Y2813811D01*
X16680470Y3184788D01*
X16726614Y3264712D01*
X16732414Y3286357D01*
X16750500Y3353856D01*
X16750500Y9244511D01*
X16763765Y9294013D01*
X16767001Y9299618D01*
X16782299Y9326114D01*
X16813000Y9440691D01*
X16813000Y9559309D01*
X16782299Y9673886D01*
X16782297Y9673889D01*
X16782297Y9673891D01*
X16722992Y9776609D01*
X16722990Y9776611D01*
X16722989Y9776613D01*
X16639113Y9860489D01*
X16639110Y9860491D01*
X16639108Y9860493D01*
X16536389Y9919798D01*
X16536390Y9919798D01*
X16499961Y9929559D01*
X16421809Y9950500D01*
X16303191Y9950500D01*
X16233067Y9931711D01*
X16188609Y9919798D01*
X16085891Y9860493D01*
X16002007Y9776609D01*
X15942702Y9673891D01*
X15942701Y9673886D01*
X15912000Y9559309D01*
X15912000Y9440691D01*
X15928736Y9378231D01*
X15942702Y9326110D01*
X16002007Y9223392D01*
X16002009Y9223390D01*
X16002011Y9223387D01*
X16020505Y9204893D01*
X16048281Y9150378D01*
X16049500Y9134891D01*
X16049500Y8776609D01*
X16030593Y8718418D01*
X15981093Y8682454D01*
X15919907Y8682454D01*
X15880498Y8706604D01*
X15876613Y8710489D01*
X15876610Y8710491D01*
X15876608Y8710493D01*
X15773889Y8769798D01*
X15773890Y8769798D01*
X15717155Y8785000D01*
X15659309Y8800500D01*
X15540691Y8800500D01*
X15482845Y8785000D01*
X15426109Y8769798D01*
X15323391Y8710493D01*
X15239509Y8626611D01*
X15178890Y8521617D01*
X15133420Y8480677D01*
X15072570Y8474282D01*
X15023150Y8501114D01*
X15010343Y8513921D01*
X14982566Y8568438D01*
X14987730Y8612054D01*
X14986964Y8612206D01*
X14988865Y8621768D01*
X14988867Y8621769D01*
X15000500Y8680252D01*
X15000500Y9319748D01*
X15000452Y9319987D01*
X14997711Y9333769D01*
X14988867Y9378231D01*
X14944552Y9444552D01*
X14944548Y9444555D01*
X14944253Y9444997D01*
X14927644Y9503885D01*
X14944253Y9555003D01*
X14944549Y9555447D01*
X14944552Y9555448D01*
X14988867Y9621769D01*
X15000500Y9680252D01*
X15000500Y10319748D01*
X14999701Y10323763D01*
X14992474Y10360095D01*
X14988867Y10378231D01*
X14944552Y10444552D01*
X14944549Y10444554D01*
X14944253Y10444997D01*
X14927644Y10503885D01*
X14944253Y10555003D01*
X14944549Y10555447D01*
X14944552Y10555448D01*
X14988867Y10621769D01*
X15000500Y10680252D01*
X15000500Y11319748D01*
X14988867Y11378231D01*
X14986965Y11387793D01*
X14988109Y11388021D01*
X14984082Y11439184D01*
X15010343Y11486080D01*
X15013920Y11489657D01*
X15068437Y11517434D01*
X15112055Y11512272D01*
X15112207Y11513035D01*
X15180241Y11499502D01*
X15180246Y11499502D01*
X15180252Y11499500D01*
X15180253Y11499500D01*
X15819747Y11499500D01*
X15819748Y11499500D01*
X15878231Y11511133D01*
X15944552Y11555448D01*
X15944553Y11555451D01*
X15944997Y11555747D01*
X16003885Y11572356D01*
X16055003Y11555747D01*
X16055446Y11555451D01*
X16055448Y11555448D01*
X16121769Y11511133D01*
X16166231Y11502289D01*
X16180241Y11499502D01*
X16180246Y11499502D01*
X16180252Y11499500D01*
X16180253Y11499500D01*
X16819747Y11499500D01*
X16819748Y11499500D01*
X16878231Y11511133D01*
X16944552Y11555448D01*
X16944553Y11555451D01*
X16944997Y11555747D01*
X17003885Y11572356D01*
X17055003Y11555747D01*
X17055446Y11555451D01*
X17055448Y11555448D01*
X17121769Y11511133D01*
X17166231Y11502289D01*
X17180241Y11499502D01*
X17180246Y11499502D01*
X17180252Y11499500D01*
X17180253Y11499500D01*
X17819747Y11499500D01*
X17819748Y11499500D01*
X17878231Y11511133D01*
X17944552Y11555448D01*
X17944553Y11555451D01*
X17944997Y11555747D01*
X18003885Y11572356D01*
X18055003Y11555747D01*
X18055446Y11555451D01*
X18055448Y11555448D01*
X18121769Y11511133D01*
X18166231Y11502289D01*
X18180241Y11499502D01*
X18180246Y11499502D01*
X18180252Y11499500D01*
X18180253Y11499500D01*
X18819747Y11499500D01*
X18819748Y11499500D01*
X18878231Y11511133D01*
X18944552Y11555448D01*
X18944553Y11555451D01*
X18944997Y11555747D01*
X19003885Y11572356D01*
X19055003Y11555747D01*
X19055446Y11555451D01*
X19055448Y11555448D01*
X19121769Y11511133D01*
X19166231Y11502289D01*
X19180241Y11499502D01*
X19180246Y11499502D01*
X19180252Y11499500D01*
X19180253Y11499500D01*
X19819747Y11499500D01*
X19819748Y11499500D01*
X19878231Y11511133D01*
X19944552Y11555448D01*
X19944553Y11555451D01*
X19944997Y11555747D01*
X20003885Y11572356D01*
X20055003Y11555747D01*
X20055446Y11555451D01*
X20055448Y11555448D01*
X20121769Y11511133D01*
X20166231Y11502289D01*
X20180241Y11499502D01*
X20180246Y11499502D01*
X20180252Y11499500D01*
X20180253Y11499500D01*
X20819747Y11499500D01*
X20819748Y11499500D01*
X20878231Y11511133D01*
X20944552Y11555448D01*
X20944553Y11555451D01*
X20944997Y11555747D01*
X21003885Y11572356D01*
X21055003Y11555747D01*
X21055446Y11555451D01*
X21055448Y11555448D01*
X21121769Y11511133D01*
X21166231Y11502289D01*
X21180241Y11499502D01*
X21180246Y11499502D01*
X21180252Y11499500D01*
X21180253Y11499500D01*
X21819747Y11499500D01*
X21819748Y11499500D01*
X21878231Y11511133D01*
X21944552Y11555448D01*
X21988867Y11621769D01*
X22000500Y11680252D01*
X22000500Y12063810D01*
X22019407Y12122001D01*
X22029496Y12133814D01*
X22416186Y12520504D01*
X22470703Y12548281D01*
X22486190Y12549500D01*
X23446142Y12549500D01*
X23446144Y12549500D01*
X23535288Y12573386D01*
X23615212Y12619530D01*
X25040469Y14044787D01*
X25086614Y14124712D01*
X25091514Y14142999D01*
X25094693Y14154861D01*
X25101425Y14179989D01*
X25110500Y14213856D01*
X25110500Y14538797D01*
X25129407Y14596988D01*
X25154500Y14621113D01*
X25167819Y14630012D01*
X25206542Y14655886D01*
X25304114Y14753458D01*
X25380775Y14868189D01*
X25433580Y14995672D01*
X25460500Y15131007D01*
X25460500Y15268993D01*
X25433580Y15404328D01*
X25394159Y15499500D01*
X25380777Y15531807D01*
X25380771Y15531818D01*
X25304114Y15646542D01*
X25206541Y15744115D01*
X25091817Y15820772D01*
X25091806Y15820778D01*
X24964328Y15873580D01*
X24828995Y15900500D01*
X24828993Y15900500D01*
X24691007Y15900500D01*
X24691004Y15900500D01*
X24555672Y15873580D01*
X24555670Y15873580D01*
X24428193Y15820778D01*
X24428182Y15820772D01*
X24313458Y15744115D01*
X24215889Y15646546D01*
X24215886Y15646542D01*
X24207315Y15633714D01*
X24159265Y15595835D01*
X24098127Y15593433D01*
X24047253Y15627426D01*
X24042685Y15633714D01*
X24034114Y15646542D01*
X23936542Y15744114D01*
X23936541Y15744115D01*
X23821817Y15820772D01*
X23821806Y15820778D01*
X23694328Y15873580D01*
X23558995Y15900500D01*
X23558993Y15900500D01*
X23421007Y15900500D01*
X23421004Y15900500D01*
X23285672Y15873580D01*
X23285670Y15873580D01*
X23158193Y15820778D01*
X23158182Y15820772D01*
X23043458Y15744115D01*
X22945889Y15646546D01*
X22945886Y15646542D01*
X22937315Y15633714D01*
X22889265Y15595835D01*
X22828127Y15593433D01*
X22777253Y15627426D01*
X22772685Y15633714D01*
X22764114Y15646542D01*
X22666542Y15744114D01*
X22666541Y15744115D01*
X22551817Y15820772D01*
X22551806Y15820778D01*
X22424328Y15873580D01*
X22288995Y15900500D01*
X22288993Y15900500D01*
X22151007Y15900500D01*
X22151004Y15900500D01*
X22015672Y15873580D01*
X22015670Y15873580D01*
X21888193Y15820778D01*
X21888182Y15820772D01*
X21773458Y15744115D01*
X21675889Y15646546D01*
X21675886Y15646542D01*
X21667315Y15633714D01*
X21619265Y15595835D01*
X21558127Y15593433D01*
X21507253Y15627426D01*
X21502685Y15633714D01*
X21494114Y15646542D01*
X21396542Y15744114D01*
X21396541Y15744115D01*
X21281817Y15820772D01*
X21281806Y15820778D01*
X21154328Y15873580D01*
X21018995Y15900500D01*
X21018993Y15900500D01*
X20881007Y15900500D01*
X20881004Y15900500D01*
X20745672Y15873580D01*
X20745670Y15873580D01*
X20618193Y15820778D01*
X20618182Y15820772D01*
X20503458Y15744115D01*
X20405889Y15646546D01*
X20405886Y15646542D01*
X20397315Y15633714D01*
X20349265Y15595835D01*
X20288127Y15593433D01*
X20237253Y15627426D01*
X20232685Y15633714D01*
X20224114Y15646542D01*
X20126542Y15744114D01*
X20126541Y15744115D01*
X20011817Y15820772D01*
X20011806Y15820778D01*
X19884328Y15873580D01*
X19748995Y15900500D01*
X19748993Y15900500D01*
X19611007Y15900500D01*
X19611004Y15900500D01*
X19475672Y15873580D01*
X19475670Y15873580D01*
X19348193Y15820778D01*
X19348182Y15820772D01*
X19233458Y15744115D01*
X19135889Y15646546D01*
X19135886Y15646542D01*
X19127315Y15633714D01*
X19079265Y15595835D01*
X19018127Y15593433D01*
X18967253Y15627426D01*
X18962685Y15633714D01*
X18954114Y15646542D01*
X18856542Y15744114D01*
X18856541Y15744115D01*
X18741817Y15820772D01*
X18741806Y15820778D01*
X18614328Y15873580D01*
X18478995Y15900500D01*
X18478993Y15900500D01*
X18341007Y15900500D01*
X18341004Y15900500D01*
X18220638Y15876557D01*
X18159877Y15883749D01*
X18131320Y15903651D01*
X17779419Y16255552D01*
X17404495Y16630476D01*
X17376720Y16684990D01*
X17386291Y16745422D01*
X17429556Y16788687D01*
X17474499Y16799477D01*
X30244661Y16799460D01*
X30255713Y16798838D01*
X30361214Y16786951D01*
X30382809Y16782022D01*
X30477907Y16748745D01*
X30497877Y16739128D01*
X30583177Y16685531D01*
X30600510Y16671709D01*
X30671745Y16600474D01*
X30685567Y16583141D01*
X30739164Y16497841D01*
X30748782Y16477868D01*
X30782053Y16382787D01*
X30786987Y16361172D01*
X30798892Y16255500D01*
X30799514Y16244417D01*
X30799505Y11733825D01*
X30780598Y11675634D01*
X30731097Y11639670D01*
X30669912Y11639670D01*
X30620850Y11675038D01*
X30597150Y11707150D01*
X30597146Y11707153D01*
X30597144Y11707155D01*
X30487883Y11787793D01*
X30359703Y11832645D01*
X30359694Y11832647D01*
X30329274Y11835500D01*
X30329266Y11835500D01*
X29093930Y11835500D01*
X29074616Y11837402D01*
X29008769Y11850500D01*
X29008767Y11850500D01*
X24416233Y11850500D01*
X24416230Y11850500D01*
X24251920Y11817817D01*
X24251914Y11817815D01*
X24097138Y11753704D01*
X24097129Y11753700D01*
X24042483Y11717185D01*
X23987481Y11700500D01*
X23931004Y11700500D01*
X23795672Y11673580D01*
X23795670Y11673580D01*
X23668193Y11620778D01*
X23668182Y11620772D01*
X23553458Y11544115D01*
X23553454Y11544111D01*
X23538840Y11529496D01*
X23484323Y11501719D01*
X23468836Y11500500D01*
X23180252Y11500500D01*
X23180251Y11500500D01*
X23180241Y11500499D01*
X23121772Y11488868D01*
X23121766Y11488866D01*
X23055451Y11444555D01*
X23055445Y11444549D01*
X23011134Y11378234D01*
X23011132Y11378228D01*
X22999501Y11319759D01*
X22999500Y11319747D01*
X22999500Y10680254D01*
X22999501Y10680242D01*
X23011132Y10621773D01*
X23011134Y10621767D01*
X23018670Y10610489D01*
X23055448Y10555448D01*
X23121769Y10511133D01*
X23166231Y10502289D01*
X23180241Y10499502D01*
X23180246Y10499502D01*
X23180252Y10499500D01*
X23434108Y10499500D01*
X23468836Y10499500D01*
X23527027Y10480593D01*
X23538840Y10470504D01*
X23553458Y10455886D01*
X23668182Y10379229D01*
X23668193Y10379223D01*
X23713270Y10360552D01*
X23795672Y10326420D01*
X23931007Y10299500D01*
X23987481Y10299500D01*
X24042483Y10282815D01*
X24097129Y10246301D01*
X24097135Y10246299D01*
X24097137Y10246297D01*
X24251918Y10182184D01*
X24416233Y10149500D01*
X24416234Y10149500D01*
X29008766Y10149500D01*
X29008767Y10149500D01*
X29074616Y10162598D01*
X29093930Y10164500D01*
X30329273Y10164500D01*
X30329273Y10164501D01*
X30359699Y10167354D01*
X30487882Y10212207D01*
X30597150Y10292850D01*
X30620847Y10324960D01*
X30670615Y10360552D01*
X30731798Y10360095D01*
X30781028Y10323763D01*
X30799503Y10266172D01*
X30799484Y789905D01*
X30799484Y755586D01*
X30798861Y744501D01*
X30786954Y638828D01*
X30782021Y617215D01*
X30748750Y522134D01*
X30739132Y502161D01*
X30685535Y416861D01*
X30671713Y399528D01*
X30600478Y328293D01*
X30583145Y314471D01*
X30497845Y260874D01*
X30477872Y251256D01*
X30382791Y217985D01*
X30361178Y213052D01*
X30255505Y201145D01*
X30244420Y200522D01*
X30210101Y200522D01*
X755422Y200502D01*
X744339Y201124D01*
X638773Y213017D01*
X617158Y217951D01*
X522077Y251222D01*
X502104Y260840D01*
X416804Y314437D01*
X399471Y328259D01*
X328236Y399494D01*
X314414Y416827D01*
X260817Y502127D01*
X251199Y522100D01*
X217928Y617181D01*
X212994Y638795D01*
X212990Y638828D01*
X201088Y744468D01*
X200466Y755552D01*
X200466Y789870D01*
X200467Y1442499D01*
X7750001Y1442499D01*
X7750001Y1343515D01*
X7764833Y1249859D01*
X7764836Y1249849D01*
X7822358Y1136957D01*
X7911955Y1047360D01*
X8024854Y989835D01*
X8024857Y989834D01*
X8099999Y977934D01*
X8100000Y977935D01*
X8100000Y1442499D01*
X8400000Y1442499D01*
X8400000Y977934D01*
X8475142Y989834D01*
X8475145Y989835D01*
X8588044Y1047360D01*
X8677641Y1136957D01*
X8735163Y1249849D01*
X8735164Y1249853D01*
X8750000Y1343516D01*
X8750000Y1442499D01*
X8749999Y1442500D01*
X8400001Y1442500D01*
X8400000Y1442499D01*
X8100000Y1442499D01*
X8099999Y1442500D01*
X7750002Y1442500D01*
X7750001Y1442499D01*
X200467Y1442499D01*
X200467Y1463220D01*
X200470Y2950000D01*
X1133176Y2950000D01*
X1949318Y2950000D01*
X1925000Y2859244D01*
X1925000Y2740756D01*
X1949318Y2650000D01*
X1133176Y2650000D01*
X1155778Y2507290D01*
X1155779Y2507286D01*
X1216576Y2320174D01*
X1216578Y2320171D01*
X1305903Y2144858D01*
X1305907Y2144852D01*
X1421549Y1985686D01*
X1560685Y1846550D01*
X1719851Y1730908D01*
X1719857Y1730904D01*
X1895170Y1641579D01*
X1895173Y1641577D01*
X2082285Y1580780D01*
X2082289Y1580779D01*
X2276620Y1550000D01*
X3024999Y1550000D01*
X3025000Y1550001D01*
X3025000Y2350000D01*
X3325000Y2350000D01*
X3325000Y1550001D01*
X3325001Y1550000D01*
X4073380Y1550000D01*
X4267709Y1580779D01*
X4267714Y1580780D01*
X4454826Y1641577D01*
X4454829Y1641579D01*
X4630142Y1730904D01*
X4630148Y1730908D01*
X4789314Y1846550D01*
X4928450Y1985686D01*
X5044092Y2144852D01*
X5044096Y2144858D01*
X5133421Y2320171D01*
X5133423Y2320174D01*
X5194220Y2507286D01*
X5194221Y2507290D01*
X5216824Y2650000D01*
X4400682Y2650000D01*
X4425000Y2740756D01*
X4425000Y2859244D01*
X4400682Y2950000D01*
X5216824Y2950000D01*
X5194221Y3092711D01*
X5194220Y3092715D01*
X5133423Y3279827D01*
X5133421Y3279830D01*
X5044096Y3455143D01*
X5044092Y3455149D01*
X4928450Y3614315D01*
X4789314Y3753451D01*
X4630148Y3869093D01*
X4630142Y3869097D01*
X4454829Y3958422D01*
X4454826Y3958424D01*
X4267714Y4019221D01*
X4267710Y4019222D01*
X4073380Y4050000D01*
X3325001Y4050000D01*
X3325000Y4049999D01*
X3325000Y3250000D01*
X3025000Y3250000D01*
X3025000Y4049999D01*
X3024999Y4050000D01*
X2276620Y4050000D01*
X2082289Y4019222D01*
X2082285Y4019221D01*
X1895173Y3958424D01*
X1895170Y3958422D01*
X1719857Y3869097D01*
X1719851Y3869093D01*
X1560685Y3753451D01*
X1421549Y3614315D01*
X1305907Y3455149D01*
X1305903Y3455143D01*
X1216578Y3279830D01*
X1216576Y3279827D01*
X1155779Y3092715D01*
X1155778Y3092711D01*
X1133176Y2950000D01*
X200470Y2950000D01*
X200475Y5354275D01*
X4474500Y5354275D01*
X4474500Y4645726D01*
X4477353Y4615306D01*
X4477355Y4615297D01*
X4522207Y4487117D01*
X4602845Y4377856D01*
X4602847Y4377854D01*
X4602850Y4377850D01*
X4602853Y4377848D01*
X4602855Y4377846D01*
X4712116Y4297208D01*
X4712117Y4297208D01*
X4712118Y4297207D01*
X4840301Y4252354D01*
X4870725Y4249501D01*
X4870727Y4249500D01*
X4870734Y4249500D01*
X6979273Y4249500D01*
X6979273Y4249501D01*
X7009699Y4252354D01*
X7137882Y4297207D01*
X7247150Y4377850D01*
X7327793Y4487118D01*
X7372646Y4615301D01*
X7375499Y4645727D01*
X7375500Y4645727D01*
X7375500Y5030136D01*
X7394407Y5088327D01*
X7443907Y5124291D01*
X7505093Y5124291D01*
X7554593Y5088327D01*
X7567945Y5062833D01*
X7588184Y5004990D01*
X7669632Y4894635D01*
X7669634Y4894633D01*
X7779989Y4813185D01*
X7909458Y4767883D01*
X7940190Y4765001D01*
X7999999Y4765002D01*
X8000000Y4765002D01*
X8000000Y5282499D01*
X8300000Y5282499D01*
X8300000Y4765002D01*
X8300001Y4765001D01*
X8359801Y4765001D01*
X8390540Y4767883D01*
X8390541Y4767883D01*
X8520010Y4813185D01*
X8630365Y4894633D01*
X8630367Y4894635D01*
X8711815Y5004990D01*
X8757117Y5134460D01*
X8759999Y5165189D01*
X8760000Y5165192D01*
X8760000Y5282499D01*
X8759999Y5282500D01*
X8300001Y5282500D01*
X8300000Y5282499D01*
X8000000Y5282499D01*
X7999999Y5282500D01*
X7535684Y5282500D01*
X7522824Y5275949D01*
X7520720Y5273771D01*
X7517408Y5273189D01*
X7489966Y5259207D01*
X7462570Y5263547D01*
X7460459Y5263175D01*
X7458320Y5264220D01*
X7429534Y5268779D01*
X7410974Y5287340D01*
X7405479Y5290023D01*
X7402877Y5295437D01*
X7386270Y5312045D01*
X7376930Y5340110D01*
X7375500Y5348376D01*
X7375500Y5354266D01*
X7372646Y5384699D01*
X7327793Y5512882D01*
X7327792Y5512884D01*
X7326071Y5517803D01*
X7324699Y5578973D01*
X7359543Y5629267D01*
X7417295Y5649475D01*
X7419516Y5649500D01*
X7441000Y5649500D01*
X7447921Y5647252D01*
X7455093Y5648492D01*
X7476500Y5637966D01*
X7499191Y5630593D01*
X7503469Y5624705D01*
X7510000Y5621493D01*
X7520112Y5602389D01*
X7540001Y5582500D01*
X8759998Y5582500D01*
X8759999Y5582501D01*
X8759999Y5699802D01*
X8757117Y5730541D01*
X8757117Y5730542D01*
X8711815Y5860011D01*
X8630367Y5970366D01*
X8630363Y5970370D01*
X8603685Y5990059D01*
X8568092Y6039826D01*
X8568550Y6101010D01*
X8592468Y6139716D01*
X8598324Y6145571D01*
X8650433Y6252160D01*
X8660500Y6321258D01*
X8660500Y6450500D01*
X8679407Y6508691D01*
X8728907Y6544655D01*
X8759500Y6549500D01*
X9464250Y6549500D01*
X9464258Y6549501D01*
X9550181Y6549501D01*
X9550184Y6549501D01*
X9574786Y6552354D01*
X9675422Y6596789D01*
X9675423Y6596791D01*
X9683814Y6600495D01*
X9685268Y6597201D01*
X9727724Y6609714D01*
X9764920Y6597629D01*
X9766186Y6600495D01*
X9774576Y6596791D01*
X9774578Y6596789D01*
X9875214Y6552354D01*
X9899815Y6549500D01*
X10200184Y6549501D01*
X10224786Y6552354D01*
X10325422Y6596789D01*
X10325423Y6596791D01*
X10333814Y6600495D01*
X10335268Y6597201D01*
X10377724Y6609714D01*
X10414920Y6597629D01*
X10416186Y6600495D01*
X10424576Y6596791D01*
X10424578Y6596789D01*
X10525214Y6552354D01*
X10549815Y6549500D01*
X10850184Y6549501D01*
X10874786Y6552354D01*
X10975422Y6596789D01*
X11053211Y6674578D01*
X11097646Y6775214D01*
X11100500Y6799815D01*
X11100499Y7075184D01*
X11097646Y7099786D01*
X11058934Y7187460D01*
X11054414Y7199883D01*
X11050500Y7213386D01*
X11050500Y7246144D01*
X11026614Y7335288D01*
X11009626Y7364712D01*
X10980470Y7415212D01*
X10640212Y7755470D01*
X10560288Y7801614D01*
X10471144Y7825500D01*
X9628856Y7825500D01*
X9620348Y7823221D01*
X9588595Y7814713D01*
X9588595Y7814712D01*
X9564153Y7808163D01*
X9539711Y7801614D01*
X9459788Y7755470D01*
X9119529Y7415211D01*
X9110747Y7399999D01*
X9065277Y7359059D01*
X9025011Y7350500D01*
X8541306Y7350500D01*
X8541290Y7350501D01*
X8535227Y7350501D01*
X8429773Y7350501D01*
X8336467Y7325500D01*
X8336467Y7325501D01*
X8327917Y7323209D01*
X8327910Y7323206D01*
X8236589Y7270482D01*
X8167667Y7201562D01*
X8167662Y7201555D01*
X8162020Y7195913D01*
X8162018Y7195912D01*
X8130603Y7164497D01*
X8076088Y7136719D01*
X8060600Y7135500D01*
X7961258Y7135500D01*
X7892160Y7125433D01*
X7785573Y7073326D01*
X7716864Y7004618D01*
X7696361Y6988887D01*
X7590886Y6927991D01*
X7242394Y6579497D01*
X7187877Y6551719D01*
X7172390Y6550500D01*
X6140691Y6550500D01*
X6118877Y6544655D01*
X6050325Y6526287D01*
X6050324Y6526288D01*
X6026115Y6519800D01*
X6026113Y6519800D01*
X6026113Y6519799D01*
X6003907Y6506978D01*
X5923383Y6460488D01*
X5489511Y6026615D01*
X5489507Y6026610D01*
X5430200Y5923888D01*
X5430200Y5923887D01*
X5430201Y5923886D01*
X5403404Y5823877D01*
X5370080Y5772563D01*
X5312959Y5750636D01*
X5307777Y5750500D01*
X4870725Y5750500D01*
X4840305Y5747647D01*
X4840296Y5747645D01*
X4712116Y5702793D01*
X4602855Y5622155D01*
X4602845Y5622145D01*
X4522207Y5512884D01*
X4477355Y5384704D01*
X4477353Y5384695D01*
X4474500Y5354275D01*
X200475Y5354275D01*
X200477Y6278845D01*
X2374500Y6278845D01*
X2374500Y6121156D01*
X2389327Y6046619D01*
X2400715Y5989365D01*
X2405263Y5966504D01*
X2405263Y5966502D01*
X2465603Y5820826D01*
X2465609Y5820815D01*
X2512502Y5750636D01*
X2553211Y5689711D01*
X2664711Y5578211D01*
X2727712Y5536115D01*
X2795814Y5490610D01*
X2795825Y5490604D01*
X2849638Y5468315D01*
X2941503Y5430263D01*
X3096158Y5399500D01*
X3096159Y5399500D01*
X3253841Y5399500D01*
X3253842Y5399500D01*
X3408497Y5430263D01*
X3554179Y5490606D01*
X3685289Y5578211D01*
X3796789Y5689711D01*
X3884394Y5820821D01*
X3944737Y5966503D01*
X3975500Y6121158D01*
X3975500Y6278842D01*
X3944737Y6433497D01*
X3908990Y6519799D01*
X3884396Y6579175D01*
X3884390Y6579186D01*
X3820650Y6674578D01*
X3796789Y6710289D01*
X3685289Y6821789D01*
X3618084Y6866694D01*
X3554185Y6909391D01*
X3554174Y6909397D01*
X3408497Y6969737D01*
X3253844Y7000500D01*
X3253842Y7000500D01*
X3096158Y7000500D01*
X3096155Y7000500D01*
X2941503Y6969737D01*
X2941501Y6969737D01*
X2795825Y6909397D01*
X2795814Y6909391D01*
X2664711Y6821789D01*
X2664707Y6821786D01*
X2553214Y6710293D01*
X2553211Y6710289D01*
X2465609Y6579186D01*
X2465603Y6579175D01*
X2405263Y6433499D01*
X2405263Y6433497D01*
X2374500Y6278845D01*
X200477Y6278845D01*
X200487Y10878845D01*
X2374500Y10878845D01*
X2374500Y10721156D01*
X2405263Y10566504D01*
X2405263Y10566502D01*
X2465603Y10420826D01*
X2465609Y10420815D01*
X2506182Y10360095D01*
X2553211Y10289711D01*
X2664711Y10178211D01*
X2742876Y10125983D01*
X2795814Y10090610D01*
X2795825Y10090604D01*
X2830808Y10076114D01*
X2941503Y10030263D01*
X3096158Y9999500D01*
X3096159Y9999500D01*
X3253841Y9999500D01*
X3253842Y9999500D01*
X3408497Y10030263D01*
X3554179Y10090606D01*
X3685289Y10178211D01*
X3796789Y10289711D01*
X3884394Y10420821D01*
X3944737Y10566503D01*
X3975500Y10721158D01*
X3975500Y10878842D01*
X3944737Y11033497D01*
X3884394Y11179179D01*
X3884393Y11179181D01*
X3884390Y11179186D01*
X3849017Y11232124D01*
X3796789Y11310289D01*
X3685289Y11421789D01*
X3613587Y11469699D01*
X3554185Y11509391D01*
X3554174Y11509397D01*
X3408497Y11569737D01*
X3253844Y11600500D01*
X3253842Y11600500D01*
X3096158Y11600500D01*
X3096155Y11600500D01*
X2941503Y11569737D01*
X2941501Y11569737D01*
X2795825Y11509397D01*
X2795814Y11509391D01*
X2664711Y11421789D01*
X2664707Y11421786D01*
X2553214Y11310293D01*
X2553211Y11310289D01*
X2465609Y11179186D01*
X2465603Y11179175D01*
X2405263Y11033499D01*
X2405263Y11033497D01*
X2374500Y10878845D01*
X200487Y10878845D01*
X200489Y11849999D01*
X4375000Y11849999D01*
X4375000Y11656936D01*
X4385613Y11568557D01*
X4441080Y11427905D01*
X4532435Y11307436D01*
X4652904Y11216081D01*
X4793556Y11160614D01*
X4881935Y11150001D01*
X4881942Y11150000D01*
X5774999Y11150000D01*
X5775000Y11150001D01*
X5775000Y11849999D01*
X6075000Y11849999D01*
X6075000Y11150001D01*
X6075001Y11150000D01*
X6968058Y11150000D01*
X6968064Y11150001D01*
X7056443Y11160614D01*
X7197095Y11216081D01*
X7317564Y11307436D01*
X7408919Y11427905D01*
X7464386Y11568557D01*
X7474999Y11656936D01*
X7475000Y11656942D01*
X7475000Y11849999D01*
X7474999Y11850000D01*
X6075001Y11850000D01*
X6075000Y11849999D01*
X5775000Y11849999D01*
X5774999Y11850000D01*
X4375001Y11850000D01*
X4375000Y11849999D01*
X200489Y11849999D01*
X200490Y12343065D01*
X4375000Y12343065D01*
X4375000Y12150001D01*
X4375001Y12150000D01*
X5774999Y12150000D01*
X5775000Y12150001D01*
X5775000Y12849999D01*
X6075000Y12849999D01*
X6075000Y12150001D01*
X6075001Y12150000D01*
X7474999Y12150000D01*
X7475000Y12150001D01*
X7475000Y12343059D01*
X7474999Y12343065D01*
X7464386Y12431444D01*
X7408919Y12572096D01*
X7317564Y12692565D01*
X7197095Y12783920D01*
X7056443Y12839387D01*
X6968064Y12850000D01*
X6075001Y12850000D01*
X6075000Y12849999D01*
X5775000Y12849999D01*
X5774999Y12850000D01*
X4881935Y12850000D01*
X4793556Y12839387D01*
X4652904Y12783920D01*
X4532435Y12692565D01*
X4441080Y12572096D01*
X4385613Y12431444D01*
X4375000Y12343065D01*
X200490Y12343065D01*
X200495Y14350000D01*
X1133176Y14350000D01*
X1949318Y14350000D01*
X1925000Y14259244D01*
X1925000Y14140756D01*
X1949318Y14050000D01*
X1133176Y14050000D01*
X1155778Y13907290D01*
X1155779Y13907286D01*
X1216576Y13720174D01*
X1216578Y13720171D01*
X1305903Y13544858D01*
X1305907Y13544852D01*
X1421549Y13385686D01*
X1560685Y13246550D01*
X1719851Y13130908D01*
X1719857Y13130904D01*
X1895170Y13041579D01*
X1895173Y13041577D01*
X2082285Y12980780D01*
X2082289Y12980779D01*
X2276620Y12950000D01*
X3024999Y12950000D01*
X3025000Y12950001D01*
X3025000Y13750000D01*
X3325000Y13750000D01*
X3325000Y12950001D01*
X3325001Y12950000D01*
X4073380Y12950000D01*
X4267710Y12980779D01*
X4267714Y12980780D01*
X4454826Y13041577D01*
X4454829Y13041579D01*
X4630142Y13130904D01*
X4630148Y13130908D01*
X4789314Y13246550D01*
X4928450Y13385686D01*
X5044092Y13544852D01*
X5044096Y13544858D01*
X5133421Y13720171D01*
X5133423Y13720174D01*
X5194220Y13907286D01*
X5194221Y13907290D01*
X5216824Y14050000D01*
X4400682Y14050000D01*
X4425000Y14140756D01*
X4425000Y14259244D01*
X4400682Y14350000D01*
X5216824Y14350000D01*
X5194221Y14492711D01*
X5194220Y14492715D01*
X5133423Y14679827D01*
X5133421Y14679830D01*
X5044096Y14855143D01*
X5044092Y14855149D01*
X4928450Y15014315D01*
X4789314Y15153451D01*
X4630148Y15269093D01*
X4630142Y15269097D01*
X4454829Y15358422D01*
X4454826Y15358424D01*
X4267714Y15419221D01*
X4267710Y15419222D01*
X4073380Y15450000D01*
X3325001Y15450000D01*
X3325000Y15449999D01*
X3325000Y14650000D01*
X3025000Y14650000D01*
X3025000Y15449999D01*
X3024999Y15450000D01*
X2276620Y15450000D01*
X2082289Y15419222D01*
X2082285Y15419221D01*
X1895173Y15358424D01*
X1895170Y15358422D01*
X1719857Y15269097D01*
X1719851Y15269093D01*
X1560685Y15153451D01*
X1421549Y15014315D01*
X1305907Y14855149D01*
X1305903Y14855143D01*
X1216578Y14679830D01*
X1216576Y14679827D01*
X1155779Y14492715D01*
X1155778Y14492711D01*
X1133176Y14350000D01*
X200495Y14350000D01*
X200497Y15650000D01*
X5977934Y15650000D01*
X5989833Y15574858D01*
X5989834Y15574855D01*
X6047359Y15461956D01*
X6136956Y15372359D01*
X6249848Y15314837D01*
X6249852Y15314836D01*
X6343515Y15300001D01*
X6442500Y15300001D01*
X6442500Y15649999D01*
X6442499Y15650000D01*
X5977934Y15650000D01*
X200497Y15650000D01*
X200498Y15950000D01*
X5977933Y15950000D01*
X6442499Y15950000D01*
X6442500Y15950001D01*
X6442500Y16300000D01*
X6343517Y16300000D01*
X6343514Y16299999D01*
X6249858Y16285167D01*
X6249848Y16285164D01*
X6136956Y16227642D01*
X6047358Y16138044D01*
X5989836Y16025152D01*
X5989835Y16025148D01*
X5977933Y15950000D01*
X200498Y15950000D01*
X200499Y16244485D01*
X201122Y16255552D01*
X213029Y16361225D01*
X217960Y16382833D01*
X251234Y16477922D01*
X260851Y16497892D01*
X314451Y16583197D01*
X328266Y16600521D01*
X399509Y16671764D01*
X416833Y16685579D01*
X502140Y16739181D01*
X522108Y16748796D01*
X617197Y16782070D01*
X638801Y16787002D01*
X744213Y16798879D01*
X755295Y16799500D01*
X11943007Y16799485D01*
G37*
%TD.AperFunction*%
%TA.AperFunction,Conductor*%
G36*
X13945445Y3357310D02*
G01*
X13988710Y3314045D01*
X13999500Y3269100D01*
X13999500Y2680254D01*
X13999501Y2680242D01*
X14013035Y2612207D01*
X14011890Y2611980D01*
X14015916Y2560812D01*
X13989656Y2513922D01*
X13948214Y2472480D01*
X13902909Y2369873D01*
X13900000Y2344798D01*
X13900000Y2150001D01*
X13900001Y2150000D01*
X14401000Y2150000D01*
X14459191Y2131093D01*
X14495155Y2081593D01*
X14500000Y2051000D01*
X14500000Y1949000D01*
X14481093Y1890809D01*
X14431593Y1854845D01*
X14401000Y1850000D01*
X13900002Y1850000D01*
X13900001Y1849999D01*
X13900001Y1655206D01*
X13903399Y1625903D01*
X13891320Y1565922D01*
X13846292Y1524496D01*
X13805058Y1515500D01*
X13094087Y1515500D01*
X13035896Y1534407D01*
X12999932Y1583907D01*
X12999932Y1645093D01*
X13014432Y1673289D01*
X13061815Y1737490D01*
X13107117Y1866960D01*
X13109999Y1897689D01*
X13110000Y1897692D01*
X13110000Y2014999D01*
X13109999Y2015000D01*
X11890002Y2015000D01*
X11890001Y2014999D01*
X11890001Y1897699D01*
X11892882Y1866960D01*
X11892882Y1866959D01*
X11938184Y1737490D01*
X11985568Y1673289D01*
X12004910Y1615241D01*
X11986439Y1556910D01*
X11937210Y1520577D01*
X11905913Y1515500D01*
X11868372Y1515500D01*
X11810181Y1534407D01*
X11798369Y1544496D01*
X11386928Y1955936D01*
X11359150Y2010453D01*
X11366367Y2065929D01*
X11372585Y2080009D01*
X11375500Y2105135D01*
X11375499Y2394864D01*
X11375499Y2397390D01*
X11394406Y2455580D01*
X11404496Y2467394D01*
X11487608Y2550505D01*
X11542125Y2578282D01*
X11557611Y2579501D01*
X11579209Y2579501D01*
X11579214Y2579501D01*
X11649286Y2589709D01*
X11649287Y2589710D01*
X11656630Y2591978D01*
X11656834Y2591315D01*
X11692218Y2599500D01*
X11801103Y2599500D01*
X11859294Y2580593D01*
X11895258Y2531093D01*
X11895258Y2469907D01*
X11894549Y2467806D01*
X11892882Y2463043D01*
X11890000Y2432312D01*
X11890000Y2315001D01*
X11890001Y2315000D01*
X13109998Y2315000D01*
X13109999Y2315001D01*
X13109999Y2432302D01*
X13107117Y2463041D01*
X13107117Y2463042D01*
X13061815Y2592511D01*
X12980367Y2702866D01*
X12980365Y2702868D01*
X12956007Y2720845D01*
X12920415Y2770613D01*
X12920873Y2831796D01*
X12957206Y2881026D01*
X13014796Y2899500D01*
X13277725Y2899500D01*
X13277727Y2899500D01*
X13379588Y2926793D01*
X13379590Y2926795D01*
X13379592Y2926795D01*
X13470908Y2979517D01*
X13470908Y2979518D01*
X13470913Y2979520D01*
X13830496Y3339105D01*
X13885013Y3366881D01*
X13945445Y3357310D01*
G37*
%TD.AperFunction*%
%TA.AperFunction,Conductor*%
G36*
X24990293Y2590143D02*
G01*
X25019079Y2581028D01*
X25019310Y2580714D01*
X25019683Y2580593D01*
X25037479Y2556099D01*
X25055414Y2531800D01*
X25055416Y2531410D01*
X25055647Y2531093D01*
X25055647Y2500809D01*
X25055874Y2470616D01*
X25055647Y2470264D01*
X25055647Y2469907D01*
X25053466Y2466883D01*
X25027667Y2426866D01*
X25018054Y2418227D01*
X24938184Y2310011D01*
X24892882Y2180541D01*
X24890000Y2149812D01*
X24890000Y2032501D01*
X24890001Y2032500D01*
X25401000Y2032500D01*
X25459191Y2013593D01*
X25495155Y1964093D01*
X25500000Y1933500D01*
X25500000Y1831500D01*
X25481093Y1773309D01*
X25431593Y1737345D01*
X25401000Y1732500D01*
X24890002Y1732500D01*
X24890001Y1732499D01*
X24890001Y1614500D01*
X24871094Y1556309D01*
X24821594Y1520345D01*
X24791001Y1515500D01*
X24194941Y1515500D01*
X24136750Y1534407D01*
X24100786Y1583907D01*
X24096601Y1625911D01*
X24099999Y1655205D01*
X24100000Y1655205D01*
X24100000Y1849999D01*
X24099999Y1850000D01*
X23599000Y1850000D01*
X23540809Y1868907D01*
X23504845Y1918407D01*
X23500000Y1949000D01*
X23500000Y2051000D01*
X23518907Y2109191D01*
X23568407Y2145155D01*
X23599000Y2150000D01*
X24099998Y2150000D01*
X24099999Y2150001D01*
X24099999Y2344790D01*
X24099998Y2344792D01*
X24097090Y2369875D01*
X24057070Y2460512D01*
X24050862Y2521382D01*
X24081618Y2574275D01*
X24137590Y2598989D01*
X24147635Y2599500D01*
X24961492Y2599500D01*
X24990293Y2590143D01*
G37*
%TD.AperFunction*%
%TA.AperFunction,Conductor*%
G36*
X15995445Y8011601D02*
G01*
X16038710Y7968336D01*
X16049500Y7923391D01*
X16049500Y3586190D01*
X16030593Y3527999D01*
X16020504Y3516186D01*
X15219530Y2715212D01*
X15193141Y2669503D01*
X15187876Y2660384D01*
X15187871Y2660377D01*
X15185232Y2655807D01*
X15139759Y2614870D01*
X15078909Y2608479D01*
X15025923Y2639076D01*
X15001041Y2694974D01*
X15000500Y2705314D01*
X15000500Y2813811D01*
X15019407Y2872002D01*
X15029490Y2883809D01*
X15480469Y3334787D01*
X15482962Y3339104D01*
X15505550Y3378228D01*
X15526614Y3414712D01*
X15533237Y3439429D01*
X15534730Y3444998D01*
X15538883Y3460500D01*
X15550500Y3503856D01*
X15550500Y7763812D01*
X15569407Y7822003D01*
X15579488Y7833808D01*
X15621257Y7875576D01*
X15665630Y7901194D01*
X15773886Y7930201D01*
X15773888Y7930203D01*
X15773890Y7930203D01*
X15876608Y7989508D01*
X15876608Y7989509D01*
X15876613Y7989511D01*
X15880498Y7993397D01*
X15935013Y8021172D01*
X15995445Y8011601D01*
G37*
%TD.AperFunction*%
%TA.AperFunction,Conductor*%
G36*
X14459191Y5131093D02*
G01*
X14495155Y5081593D01*
X14500000Y5051000D01*
X14500000Y4949000D01*
X14481093Y4890809D01*
X14431593Y4854845D01*
X14401000Y4850000D01*
X13900002Y4850000D01*
X13900001Y4849999D01*
X13900001Y4655209D01*
X13902909Y4630126D01*
X13943667Y4537819D01*
X13949875Y4476949D01*
X13919119Y4424056D01*
X13877791Y4404977D01*
X13878541Y4402179D01*
X13872275Y4400500D01*
X13872273Y4400500D01*
X13770413Y4373207D01*
X13770412Y4373207D01*
X13770410Y4373206D01*
X13727946Y4348689D01*
X13684245Y4323458D01*
X13681044Y4321611D01*
X13679088Y4320481D01*
X13088103Y3729496D01*
X13033586Y3701719D01*
X13018099Y3700500D01*
X13010760Y3700500D01*
X12952569Y3719407D01*
X12940762Y3729491D01*
X12864429Y3805824D01*
X12864427Y3805825D01*
X12864426Y3805826D01*
X12790490Y3841971D01*
X12757840Y3857933D01*
X12688742Y3868000D01*
X12311258Y3868000D01*
X12311252Y3868000D01*
X12303764Y3866909D01*
X12243456Y3877235D01*
X12200736Y3921036D01*
X12190500Y3964876D01*
X12190500Y4801678D01*
X12209407Y4859869D01*
X12219496Y4871682D01*
X12300818Y4953004D01*
X12355335Y4980781D01*
X12370822Y4982000D01*
X12688738Y4982000D01*
X12688742Y4982000D01*
X12757840Y4992067D01*
X12854744Y5039441D01*
X12898224Y5049500D01*
X13590890Y5049500D01*
X13590892Y5049500D01*
X13718186Y5083608D01*
X13718188Y5083610D01*
X13718190Y5083610D01*
X13810207Y5136736D01*
X13859707Y5150000D01*
X14401000Y5150000D01*
X14459191Y5131093D01*
G37*
%TD.AperFunction*%
%TA.AperFunction,Conductor*%
G36*
X28261736Y4320397D02*
G01*
X28276322Y4321833D01*
X28336086Y4308721D01*
X28353333Y4295911D01*
X28354704Y4294640D01*
X28423458Y4225886D01*
X28442825Y4212945D01*
X28448590Y4207601D01*
X28459856Y4187416D01*
X28474165Y4169265D01*
X28474481Y4161213D01*
X28478410Y4154174D01*
X28475659Y4131223D01*
X28476567Y4108127D01*
X28472088Y4101426D01*
X28471130Y4093423D01*
X28455416Y4076474D01*
X28442574Y4057253D01*
X28436293Y4052691D01*
X28432267Y4050000D01*
X28423458Y4044114D01*
X28423454Y4044111D01*
X28325889Y3946546D01*
X28325886Y3946542D01*
X28319086Y3936364D01*
X28317315Y3933714D01*
X28269265Y3895835D01*
X28208127Y3893433D01*
X28162399Y3921410D01*
X28157055Y3927175D01*
X28144114Y3946542D01*
X28075360Y4015296D01*
X28074089Y4016667D01*
X28061988Y4042816D01*
X28048909Y4068485D01*
X28048827Y4071257D01*
X28048393Y4072195D01*
X28048746Y4073988D01*
X28048167Y4093678D01*
X28049603Y4108264D01*
X27698056Y4459811D01*
X27725445Y4467149D01*
X27799554Y4509936D01*
X27860064Y4570446D01*
X27902851Y4644555D01*
X27910189Y4671944D01*
X28261736Y4320397D01*
G37*
%TD.AperFunction*%
%TA.AperFunction,Conductor*%
G36*
X17852745Y14772577D02*
G01*
X17857295Y14766315D01*
X17865886Y14753458D01*
X17865890Y14753454D01*
X17963458Y14655886D01*
X18078182Y14579229D01*
X18078193Y14579223D01*
X18114050Y14564371D01*
X18205672Y14526420D01*
X18341007Y14499500D01*
X18341008Y14499500D01*
X18464810Y14499500D01*
X18523001Y14480593D01*
X18558965Y14431093D01*
X18558965Y14369907D01*
X18534815Y14330498D01*
X18133009Y13928691D01*
X17219529Y13015211D01*
X17179654Y12946145D01*
X17179653Y12946146D01*
X17173390Y12935297D01*
X17173386Y12935287D01*
X17149500Y12846143D01*
X17149500Y12560313D01*
X17130593Y12502122D01*
X17105503Y12477999D01*
X17055448Y12444552D01*
X17055447Y12444551D01*
X17055003Y12444254D01*
X16996115Y12427645D01*
X16944997Y12444254D01*
X16944552Y12444551D01*
X16944552Y12444552D01*
X16893387Y12478740D01*
X16855510Y12526790D01*
X16852271Y12539901D01*
X16852179Y12539876D01*
X16850500Y12546143D01*
X16850500Y12546144D01*
X16826614Y12635288D01*
X16809626Y12664712D01*
X16809625Y12664714D01*
X16809625Y12664715D01*
X16793325Y12692946D01*
X16780470Y12715212D01*
X15007906Y14487776D01*
X14980129Y14542293D01*
X14989700Y14602725D01*
X15022909Y14640096D01*
X15046542Y14655886D01*
X15144114Y14753458D01*
X15152686Y14766288D01*
X15200732Y14804165D01*
X15261871Y14806569D01*
X15312745Y14772577D01*
X15317295Y14766315D01*
X15325886Y14753458D01*
X15325890Y14753454D01*
X15423458Y14655886D01*
X15538182Y14579229D01*
X15538193Y14579223D01*
X15574050Y14564371D01*
X15665672Y14526420D01*
X15801007Y14499500D01*
X15801008Y14499500D01*
X15938992Y14499500D01*
X15938993Y14499500D01*
X16074328Y14526420D01*
X16201811Y14579225D01*
X16316542Y14655886D01*
X16414114Y14753458D01*
X16422686Y14766288D01*
X16470732Y14804165D01*
X16531871Y14806569D01*
X16582745Y14772577D01*
X16587295Y14766315D01*
X16595886Y14753458D01*
X16595890Y14753454D01*
X16693458Y14655886D01*
X16808182Y14579229D01*
X16808193Y14579223D01*
X16844050Y14564371D01*
X16935672Y14526420D01*
X17071007Y14499500D01*
X17071008Y14499500D01*
X17208992Y14499500D01*
X17208993Y14499500D01*
X17344328Y14526420D01*
X17471811Y14579225D01*
X17586542Y14655886D01*
X17684114Y14753458D01*
X17692686Y14766288D01*
X17740732Y14804165D01*
X17801871Y14806569D01*
X17852745Y14772577D01*
G37*
%TD.AperFunction*%
%TD*%
M02*
